<!-- icon666.com - MILLIONS vector ICONS FREE --><svg version="1.1" id="Capa_1" xmlns="http://www.w3.org/2000/svg" xmlns:xlink="http://www.w3.org/1999/xlink" x="0px" y="0px" viewBox="0 0 512 512" style="enable-background:new 0 0 512 512;" xml:space="preserve"><path style="fill:#5B5B5B;" d="M502.831,426.572c-4.507-22.592-21.609-40.565-43.948-46.197 c-49.383-12.275-110.854-30.642-201.843-30.642h-0.937c-90.801,0-151.991,18.741-201.843,30.642 c-22.311,5.669-39.394,23.633-43.948,46.197l-3.28,19.678l1.031,0.656c78.291,34.521,162.945,52.297,248.508,52.194 c85.525,0.094,170.133-17.654,248.414-52.101l0,0L502.831,426.572z"></path><path style="fill:#4C4C4C;" d="M458.882,407.362c-49.383-12.369-110.854-30.642-201.843-30.642h-0.937 c-90.801,0-151.991,18.179-201.843,30.642c-20.465,5.126-36.686,20.709-42.636,40.949c77.298,33.547,160.687,50.807,244.947,50.695 c84.363,0.15,167.846-17.111,245.228-50.695C495.803,427.987,479.46,412.394,458.882,407.362z"></path><path style="fill:#EFC8A5;" d="M186.292,361.446c9.839,25.394,29.517,47.603,70.748,95.112 c40.294-47.509,59.784-68.686,69.811-92.769v-44.791H186.292L186.292,361.446z"></path><path style="fill:#E4BA98;" d="M239.423,380.469c12.894,15.171,19.144,34.896,17.336,54.724v21.365 c40.294-47.509,59.784-68.686,69.811-92.769v-44.791H186.011C186.011,318.998,218.152,357.042,239.423,380.469z"></path><g><rect x="179.264" y="318.969" style="fill:#333333;" width="14.056" height="43.854"></rect><rect x="319.823" y="318.969" style="fill:#333333;" width="14.056" height="45.157"></rect></g><path style="fill:#EFC8A5;" d="M359.367,178.532V153.7c0-57.348-32.797-96.142-102.327-96.142S155.088,96.352,155.088,153.7v24.832 c-18.741,0-22.864,16.867-18.741,37.482c3.561,16.586,18.741,37.482,28.112,37.482v7.403c0,46.853,30.454,73.372,61.565,89.77 c10.083,3.617,20.812,5.051,31.485,4.217c10.701,0.74,21.449-0.693,31.579-4.217c30.548-16.024,61.003-42.917,61.003-89.77v-8.434 c9.371,0,24.457-20.615,28.112-37.482C382.325,195.306,378.014,178.532,359.367,178.532z"></path><path style="fill:#E4BA98;" d="M359.367,178.532V153.7c0-57.348-32.797-96.142-102.327-96.142c-7.337,0-14.665,0.506-21.927,1.499 c-16.586,65.594-28.112,139.06-27.55,195.471c0,21.178,2.436,56.224,5.435,89.208c4.123,2.624,8.34,5.06,12.557,7.309 c10.083,3.617,20.812,5.051,31.485,4.217c10.701,0.74,21.449-0.693,31.579-4.217c31.017-16.399,61.471-43.292,61.471-90.145v-8.434 c9.371,0,24.457-20.615,28.112-37.482C382.325,195.306,378.014,178.532,359.367,178.532z"></path><path style="fill:#333333;" d="M255.812,506.128c-86.819,0-171.116-17.767-250.588-52.794c-0.328-0.15-0.647-0.319-0.956-0.515 l-1.031-0.656c-2.371-1.518-3.608-4.301-3.139-7.075l3.28-19.678c5.051-25.329,24.335-45.597,49.168-51.857 c19.153-4.667,111.979-23.989,115.914-24.804l2.867,13.765c-0.965,0.197-96.526,20.081-115.399,24.682 c-19.547,4.92-34.765,20.915-38.719,40.743l-2.371,14.253c76.511,33.097,157.567,49.88,240.993,49.88c0.469,0,0.946,0,1.396,0 c83.117,0,163.845-16.614,240.093-49.402l-1.921-14.712c-3.889-19.36-19.107-35.355-38.71-40.294 c-63.523-16.595-114.827-25.104-115.343-25.188l2.286-13.868c0.515,0.084,52.419,8.687,116.551,25.441 c24.776,6.241,44.051,26.509,49.064,51.623l2.689,20.419c0.412,3.092-1.274,6.082-4.132,7.347 c-79.453,34.962-163.751,52.7-250.57,52.7C256.787,506.138,256.3,506.138,255.812,506.128z"></path><path style="fill:#51BFB2;" d="M330.693,354.606c-6.091,18.741-37.482,32.797-74.403,32.797s-68.124-14.056-74.309-32.797 l-12.088,1.499c0.103,48.736,11.32,96.808,32.797,140.559c17.71,1.499,35.702,2.343,53.881,2.343c18.179,0,35.702-0.75,53.319-2.249 c21.496-43.967,32.647-92.272,32.61-141.215L330.693,354.606z"></path><g><path style="fill:#333333;" d="M256.571,506.035c-17.495,0-35.814-0.796-54.471-2.371c-2.464-0.197-4.629-1.687-5.716-3.908 c-21.824-44.445-33.416-94.118-33.519-143.632c-0.009-3.561,2.633-6.55,6.166-6.99l12.088-1.499 c3.364-0.403,6.484,1.593,7.543,4.77c4.535,13.756,31.073,27.971,67.637,27.971c36.705,0,63.252-14.215,67.721-27.943 c0.993-3.083,3.879-4.985,7.234-4.835l11.807,0.937c3.655,0.29,6.466,3.336,6.466,7c0.047,49.73-11.479,99.628-33.322,144.307 c-1.087,2.221-3.261,3.711-5.716,3.917C292.508,505.294,274.872,506.035,256.571,506.035z M207.273,489.983 c34.512,2.717,66.316,2.596,98.035,0.103c18.863-39.891,29.208-83.951,30.098-128.059l-0.272-0.019 c-10.383,19.332-41.577,32.422-78.844,32.422c-36.995,0-68.049-12.988-78.619-32.216l-0.675,0.094 C177.98,406.303,188.381,450.242,207.273,489.983z"></path><path style="fill:#333333;" d="M251.474,362.14c-9.483,0-18.807-1.63-27.821-4.863c-0.309-0.112-0.609-0.244-0.909-0.403 c-43.339-22.846-65.322-55.137-65.322-95.983v-2.118c-12.688-6.063-24.813-26.659-27.952-41.287 c-3.27-16.333-1.518-29.133,5.041-37.126c2.53-3.092,6.775-6.634,13.55-8.134v-18.544c0-65.566,39.722-103.17,108.98-103.17 c69.502,0,109.345,37.604,109.345,103.17v18.544c6.859,1.518,11.16,5.126,13.728,8.274c6.484,7.993,8.209,20.409,4.966,35.908 c-3.186,14.656-15.321,35.243-27.962,41.315v3.158c0,41.165-21.787,73.456-64.77,95.992c-0.309,0.169-0.628,0.3-0.965,0.412 c-10.907,3.804-22.274,5.379-33.847,4.62C255.512,362.074,253.498,362.14,251.474,362.14z M228.853,344.214 c9.061,3.177,18.526,4.442,28.102,3.655c0.347-0.019,0.693-0.019,1.04,0c9.652,0.675,19.172-0.572,28.29-3.673 c37.679-19.903,56.786-47.931,56.786-83.305v-8.434c0-3.879,3.149-7.028,7.028-7.028c4.554-0.356,17.917-16.605,21.243-31.944 c2.268-10.842,1.499-19.65-2.127-24.111c-2.09-2.568-5.304-3.814-9.848-3.814c-3.879,0-7.028-3.149-7.028-7.028V153.7 c0-57.461-33.837-89.114-95.29-89.114c-61.218,0-94.924,31.645-94.924,89.114v24.832c0,3.879-3.149,7.028-7.028,7.028 c-4.489,0-7.656,1.218-9.708,3.711c-3.683,4.498-4.47,13.737-2.146,25.366c3.261,15.162,16.633,31.429,21.253,31.832 c3.626,0.319,7,3.383,7,7.028v7.403C171.486,296.48,190.246,323.739,228.853,344.214z"></path></g><path style="fill:#494948;" d="M191.727,49.218l15.649,5.997c-15.218-0.206-30.408,1.143-45.354,4.029 C171.571,54.925,181.522,51.561,191.727,49.218z"></path><path style="fill:#333333;" d="M315.044,37.411l-12.182,2.436c-8.415-12.725-21.637-21.487-36.639-24.27 c-30.454-7.834-62.755,1.499-84.335,24.364c-10.964,11.029-22.677,21.299-35.046,30.736c-6.653,5.154-10.401,8.246-10.401,8.246 l11.151,4.31l-11.245,12.931l4.123,19.866c4.123,20.709,6.194,41.765,6.185,62.877c0,0,19.303,0,19.303,30.173v-18.741 c-1.171-10.308,1.499-20.681,7.496-29.143c1.199-1.593,1.855-3.533,1.874-5.529v-10.87c0-13.962-2.343-27.268,15.274-32.797 c14.337-4.498,38.701,9.371,64.376,9.371c25.675,0,50.039-13.681,64.282-9.371c17.617,5.529,15.368,18.741,15.368,32.797v10.495 c-0.009,1.987,0.618,3.917,1.78,5.529c6.035,8.443,8.743,18.826,7.59,29.143v20.24c0-27.456,18.741-29.517,18.741-29.517 c-0.009-20.709,2.062-41.362,6.185-61.659l4.123-19.866C362.843,71.586,341.919,49.312,315.044,37.411z"></path><g><path style="fill:#444444;" d="M192.57,53.622c9.146-6.513,19.266-11.545,29.986-14.899c11.114-3.626,22.883-4.779,34.484-3.373 c12.575,1.584,23.904,8.387,31.204,18.741c6.447,9.914,8.986,21.871,7.122,33.547c-3.402-9.82-8.724-18.863-15.649-26.612 c-6.812-6.4-15.471-10.495-24.738-11.713c-10.017-1.218-20.156-1.218-30.173,0C214.029,50.624,203.44,52.498,192.57,53.622z"></path><path style="fill:#444444;" d="M169.237,74.706c11.151-2.53,21.927-3.748,32.61-5.341l32.047-4.404 c11.451-2.202,23.22-2.202,34.671,0c11.432,3.655,20.943,11.713,26.425,22.396c-8.396-5.913-17.992-9.877-28.112-11.62 c-10.308,0.159-20.587,1.124-30.736,2.905C213.813,82.137,190.996,80.788,169.237,74.706z"></path></g><g><path style="fill:#222222;" d="M157.899,96.633c8.715,1.312,17.054,3.467,25.394,5.248l12.463,2.343 c4.123,0.75,8.152,1.78,12.369,2.155c16.014,2.821,32.31,3.701,48.54,2.624c8.115-0.572,16.192-1.64,24.176-3.186 c8.63-1.902,17.354-3.317,26.144-4.217c9.717-0.928,19.5,1.031,28.112,5.622c3.992,2.249,7.731,4.92,11.151,7.965 c3.092,3.28,5.997,6.653,8.715,10.027c-4.029-1.874-7.871-3.842-11.62-5.716c-3.776-1.546-7.656-2.802-11.62-3.748l-5.622-1.124 h-5.716c-1.883-0.028-3.767,0.131-5.622,0.469c-1.902,0.159-3.786,0.506-5.622,1.031c-7.59,1.78-15.836,4.31-24.176,6.653 c-8.733,2.361-17.682,3.87-26.706,4.498c-18.151,1.387-36.395-0.975-53.6-6.934c-8.359-2.549-16.539-5.679-24.457-9.371 C172.517,106.594,165.067,101.806,157.899,96.633z"></path><path style="fill:#222222;" d="M163.521,209.08v-21.646c-0.281-7.59,1.031-15.152,3.842-22.208 c0.759-1.874,1.771-3.645,2.999-5.248c0.459-0.553,0.862-1.153,1.218-1.78c0.281-0.525,0.478-1.096,0.562-1.687 c0.094-1.565,0.094-3.12,0-4.685v-5.435c-0.647-7.506-0.337-15.068,0.937-22.489c1.199-4.217,3.655-7.974,7.028-10.776 c3.317-2.521,7.112-4.339,11.151-5.341c7.778-1.181,15.714-0.6,23.239,1.687c13.419,3.964,27.259,6.325,41.231,7.028 c13.972-1.059,27.793-3.598,41.231-7.59c7.637-2.249,15.714-2.605,23.52-1.031c4.029,1.162,7.74,3.214,10.87,5.997 c3.252,2.989,5.482,6.925,6.372,11.245c0.965,7.422,1.162,14.927,0.562,22.396v5.435c-0.216,1.424-0.216,2.886,0,4.31 c0.197,0.525,0.44,1.031,0.75,1.499l1.593,2.249c1.124,1.677,2.062,3.467,2.811,5.341c2.502,7.159,3.617,14.731,3.28,22.302v21.552 c-0.047,1.19-1.059,2.108-2.249,2.062l0,0c-1.106,0-2.015-0.862-2.062-1.968l0,0c-0.843-14.243,0.843-29.33-4.31-41.418 c-0.572-1.481-1.368-2.867-2.343-4.123l-2.624-2.155c-1.518-1.968-2.371-4.357-2.436-6.841v-8.246 c0.272-6.859-0.103-13.728-1.124-20.522c-1.621-5.707-6.344-9.998-12.182-11.057c-6.297-0.853-12.716-0.244-18.741,1.78 c-14.037,4.498-28.58,7.234-43.292,8.152c-14.731-0.778-29.292-3.523-43.292-8.152c-6.269-2.108-12.913-2.839-19.491-2.155 c-5.941,0.731-10.945,4.76-12.931,10.401c-1.274,6.728-1.715,13.587-1.312,20.428v5.435c0.169,1.968,0.169,3.936,0,5.903 c-0.253,1.209-0.656,2.371-1.218,3.467c-0.497,0.928-1.134,1.78-1.874,2.53c-0.956,1.284-1.771,2.671-2.436,4.123 c-5.622,11.901-3.936,26.987-4.685,41.231l0,0c-0.103,1.153-1.096,2.024-2.249,1.968c-1.124,0.159-2.165-0.628-2.324-1.762 C163.531,209.212,163.521,209.146,163.521,209.08z"></path></g><g><path style="fill:#333333;" d="M340.532,210.205c-0.075-3.355,0.178-6.719,0.75-10.027c0.543-3.476,1.687-6.841,3.373-9.933 c1.705-3.233,4.104-6.053,7.028-8.246c3.083-2.38,6.728-3.898,10.589-4.404l-3.748,3.936c-0.272-14.178,0.412-28.365,2.062-42.449 c0.871-7.122,1.996-14.243,3.373-21.365l1.968-10.401c0.637-2.811,0.637-5.716,0-8.527c-0.253-1.359-0.656-2.68-1.218-3.936 l-2.249-4.404c-1.537-2.961-3.233-5.838-5.06-8.621c-3.692-5.622-7.928-10.861-12.65-15.649 c-9.267-9.483-20.278-17.083-32.422-22.396h3.467l-12.088,2.624c-2.633,0.553-5.341-0.609-6.747-2.905l0,0 c-8.574-12.088-21.908-19.931-36.639-21.552c-14.881-3.27-30.389-2.099-44.604,3.373c-6.925,2.727-13.475,6.316-19.491,10.682 c-3.074,2.258-5.988,4.732-8.715,7.403l-9.371,8.621c-12.275,11.432-25.957,21.646-38.607,31.391l-1.312-9.933l11.057,4.498l0,0 c2.933,1.162,4.376,4.479,3.214,7.412c-0.009,0.028-0.019,0.056-0.028,0.084c-0.197,0.618-0.515,1.19-0.937,1.687l-4.029,4.498 c-0.975,1.237-1.79,2.596-2.436,4.029c-1.359,2.924-1.846,6.175-1.406,9.371c1.218,7.122,3.373,16.117,4.404,24.364 c1.031,8.246,2.062,16.773,2.624,25.113c0,4.189,0.187,8.405,0.562,12.65c0.45,4.226,0.197,8.509-0.75,12.65l0,0l-4.217-4.123 c4.273-0.89,8.724,0.29,11.994,3.186c3.27,2.446,5.875,5.669,7.59,9.371c1.481,3.411,2.493,7,2.999,10.682 c0.281,3.458,0.281,6.944,0,10.401c-0.103,1.752-1.602,3.102-3.364,2.999h-0.009c-1.565-0.037-2.858-1.246-2.999-2.811l0,0 c-0.365-3.149-0.9-6.278-1.593-9.371c-0.722-2.717-1.79-5.332-3.186-7.778c-1.237-2.165-2.97-3.992-5.06-5.341 c-1.874-1.312-4.498-1.593-6.185-3.092L143,180.875c-0.328-0.281-0.59-0.628-0.75-1.031l0,0c-1.012-4.142-1.481-8.387-1.406-12.65 c0-4.029-0.469-8.152-0.75-12.182c-0.656-8.152-1.593-16.305-2.905-24.364s-2.999-15.368-4.685-24.551 c-0.656-5.163,0.094-10.401,2.155-15.18c1.078-2.361,2.464-4.563,4.123-6.559l4.123-4.873l2.249,9.371l-11.245-4.123 c-3.055-1.143-4.601-4.535-3.467-7.59c0.337-0.975,0.918-1.846,1.687-2.53l0,0c13.025-10.87,25.675-20.522,37.482-31.86 l8.715-8.621c3.102-3.102,6.391-6.007,9.839-8.715c21.206-16.792,48.802-23.22,75.246-17.523 c18.404,2.614,34.793,13.035,44.979,28.58l-6.841-2.999l12.182-2.249l0,0c1.04-0.328,2.146-0.328,3.186,0 c13.719,6.241,26.069,15.124,36.358,26.144c5.051,5.482,9.595,11.413,13.587,17.71c1.78,3.186,3.842,6.372,5.341,9.371l2.436,5.154 c0.834,2.015,1.434,4.123,1.78,6.278c0.618,4.161,0.365,8.405-0.75,12.463l-2.249,10.308c-1.499,6.841-2.811,13.587-3.748,20.522 c-1.94,13.822-3.13,27.746-3.561,41.699c-0.037,2.071-1.593,3.795-3.655,4.029c-2.427,0.253-4.751,1.124-6.747,2.53 c-2.099,1.556-3.879,3.495-5.248,5.716c-1.331,2.408-2.305,4.995-2.905,7.684c-0.628,2.867-0.975,5.782-1.031,8.715l0,0 c-0.103,1.752-1.602,3.102-3.364,2.999h-0.009C341.891,212.36,340.86,211.432,340.532,210.205z"></path><ellipse style="fill:#333333;" cx="209.531" cy="212.266" rx="9.371" ry="7.028"></ellipse><ellipse style="fill:#333333;" cx="298.552" cy="212.266" rx="9.371" ry="7.028"></ellipse><path style="fill:#333333;" d="M272.782,295.665H235.3c-2.586,0-4.685-2.099-4.685-4.685s2.099-4.685,4.685-4.685h37.482 c2.586,0,4.685,2.099,4.685,4.685S275.378,295.665,272.782,295.665z"></path><path style="fill:#333333;" d="M254.107,262.399c-3.364,0-6.775-0.553-10.017-1.668l-10.017-2.717 c-2.502-0.684-3.973-3.261-3.289-5.754c0.675-2.511,3.28-3.964,5.754-3.289l10.308,2.811c4.76,1.621,9.67,1.621,14.112,0.084 l10.598-2.896c2.502-0.684,5.079,0.796,5.754,3.289c0.675,2.502-0.796,5.069-3.289,5.754l-10.317,2.811 C260.666,261.865,257.405,262.399,254.107,262.399z"></path><path style="fill:#333333;" d="M258.727,314.406h-9.371c-2.586,0-4.685-2.099-4.685-4.685c0-2.586,2.099-4.685,4.685-4.685h9.371 c2.586,0,4.685,2.099,4.685,4.685C263.412,312.307,261.313,314.406,258.727,314.406z"></path></g></svg>