<!-- icon666.com - MILLIONS vector ICONS FREE --><svg version="1.1" id="Capa_1" xmlns="http://www.w3.org/2000/svg" xmlns:xlink="http://www.w3.org/1999/xlink" x="0px" y="0px" viewBox="0 0 512.006 512.006" style="enable-background:new 0 0 512.006 512.006;" xml:space="preserve"><g><circle style="fill:#333333;" cx="146.382" cy="219.286" r="36.571"></circle><path style="fill:#333333;" d="M146.382,265.009c-25.207,0-45.714-20.517-45.714-45.714s20.507-45.714,45.714-45.714 s45.714,20.507,45.714,45.714S171.589,265.009,146.382,265.009z M146.382,191.857c-15.122,0-27.429,12.306-27.429,27.429 s12.306,27.429,27.429,27.429c15.122,0,27.429-12.306,27.429-27.429S161.504,191.857,146.382,191.857z"></path><circle style="fill:#333333;" cx="365.81" cy="219.286" r="36.571"></circle><path style="fill:#333333;" d="M365.81,265.009c-25.207,0-45.714-20.517-45.714-45.714s20.507-45.714,45.714-45.714 s45.714,20.507,45.714,45.714S391.017,265.009,365.81,265.009z M365.81,191.857c-15.122,0-27.429,12.306-27.429,27.429 s12.306,27.429,27.429,27.429s27.429-12.306,27.429-27.429S380.933,191.857,365.81,191.857z"></path><path style="fill:#333333;" d="M416.096,145.229c2.981-5.303,4.553-11.282,4.571-17.371c0.018-13.083-6.958-25.179-18.286-31.726 c0.091-1.618,0.091-3.227,0-4.846c-0.027-17.006-11.776-31.744-28.343-35.566c-3.803-16.667-18.651-28.471-35.749-28.434 c-1.6,0.046-3.191,0.229-4.754,0.549C327.118,16.26,314.949,9.064,301.719,9c-6.08,0.082-12.041,1.655-17.371,4.571 c-12.763-15.653-35.803-17.993-51.456-5.23c-1.92,1.563-3.666,3.319-5.23,5.23C222.341,10.628,216.37,9.055,210.29,9 c-13.202,0.091-25.326,7.287-31.726,18.834c-1.6-0.32-3.218-0.503-4.846-0.549c-17.033,0.046-31.781,11.831-35.566,28.434 c-16.603,3.785-28.389,18.533-28.434,35.566c0.046,1.627,0.229,3.246,0.549,4.846c-11.547,6.4-18.743,18.523-18.834,31.726 c0.018,6.089,1.591,12.069,4.571,17.371c-15.653,12.763-17.993,35.803-5.23,51.456c6.894,8.448,17.189,13.385,28.087,13.458 c3.09,0,6.171-0.43,9.143-1.28v46.994c0,20.197,16.375,36.571,36.571,36.571h182.857c20.197,0,36.571-16.375,36.571-36.571v-46.994 c2.971,0.841,6.053,1.271,9.143,1.28c20.197-0.137,36.453-16.631,36.315-36.827c-0.073-10.898-5.01-21.202-13.458-28.087H416.096z"></path></g><path style="fill:#3A3A39;" d="M160.096,261.709c-0.137-1.609-0.137-3.237,0-4.846c-11.602-4.05-19.255-15.141-18.926-27.429 c-0.009-4.983,1.253-9.893,3.657-14.263c-13.614-8.613-17.664-26.633-9.051-40.238c1.262-2.002,2.77-3.84,4.48-5.477 c-3.794-5.102-5.842-11.291-5.851-17.646c-0.393-12.114,6.958-23.131,18.286-27.429c-0.841-2.816-1.271-5.742-1.28-8.686 c-0.558-15.141,11.264-27.858,26.405-28.416c0.338-0.009,0.686-0.018,1.024-0.018h3.383c-0.503-15.141,11.355-27.822,26.496-28.325 c0.311-0.009,0.622-0.018,0.933-0.018c1.966-0.009,3.931,0.201,5.851,0.64l1.92-1.097c2.971-12.041,13.659-20.59,26.057-20.846 c5.44-0.009,10.752,1.682,15.177,4.846h1.463c2.423-4.681,6.053-8.622,10.514-11.429c2.99-1.829,6.318-3.035,9.783-3.566 c-6.409-13.111-22.235-18.533-35.346-12.123c-0.667,0.329-1.317,0.677-1.957,1.061c-4.645,2.853-8.411,6.93-10.88,11.794h-1.554 c-4.425-3.109-9.682-4.791-15.086-4.846c-12.434,0.219-23.168,8.777-26.149,20.846l-1.829,1.189 c-1.938-0.512-3.941-0.759-5.943-0.731c-15.15-0.009-27.438,12.261-27.447,27.41c0,0.311,0.009,0.622,0.018,0.933h-3.383 c-15.826,0.914-27.922,14.482-27.008,30.309c0.137,2.313,0.549,4.599,1.225,6.811c-14.93,6.043-22.135,23.049-16.082,37.979 c0.969,2.405,2.258,4.663,3.831,6.729c-11.666,11.035-12.169,29.44-1.134,41.097c1.673,1.765,3.557,3.319,5.614,4.617 c-2.405,4.37-3.666,9.28-3.657,14.263c-0.32,12.306,7.378,23.406,19.017,27.429c-0.283,1.6-0.439,3.218-0.457,4.846 c-0.055,13.166,9.088,24.585,21.943,27.429c4.645,8.878,13.751,14.528,23.771,14.72h3.2 C168.617,285.992,159.932,274.637,160.096,261.709z"></path><path style="fill:#858B8E;" d="M493.719,429.572c-6.949-21.303-18.286-35.84-39.954-41.326l-69.76-13.531v-27.429 c0.457-19.739-15.168-36.114-34.907-36.571c-0.558-0.009-1.106-0.009-1.664,0H164.576c-19.739-0.457-36.114,15.168-36.571,34.907 c-0.009,0.558-0.009,1.106,0,1.664v27.429l-69.029,13.531c-21.76,5.486-33.463,20.023-40.686,41.326L9.148,457 c78.674,31.351,162.624,47.342,247.314,47.086c86.217,0,172.251-14.354,246.857-47.086L493.719,429.572z"></path><path style="fill:#64686B;" d="M453.765,414.577l-69.76-12.434v-27.429c0-20.846-24.777-36.571-45.714-36.571H173.719 c-20.846,0-45.714,15.726-45.714,36.571v27.429c0,0-54.857,9.143-69.029,12.434c-20.114,5.029-44.16,22.766-49.92,42.423 c73.143,31.817,164.571,45.714,246.857,45.714S429.628,488.909,502.77,457C497.102,437.343,473.97,419.606,453.765,414.577z"></path><path style="fill:#333333;" d="M393.148,411.295h-18.286v-64c0.073-1.563,0.073-2.587,0.018-3.621 c-0.411-6.757-3.429-12.965-8.512-17.472c-5.083-4.498-11.575-6.72-18.386-6.345l-183.406,0.009 c-1.573-0.091-2.569-0.073-3.557-0.018c-6.821,0.411-13.029,3.429-17.536,8.512c-4.507,5.083-6.757,11.611-6.354,18.386 l0.018,64.549h-18.286v-64c-0.686-11.109,3.191-22.327,10.935-31.067c7.744-8.731,18.432-13.925,30.08-14.629 c1.728-0.119,3.511-0.119,5.285,0l182.272-0.018c11.127-0.695,22.327,3.2,31.067,10.935c8.731,7.744,13.925,18.423,14.629,30.08 c0.11,1.746,0.11,3.493,0,5.221L393.148,411.295z"></path><path style="fill:#A54646;" d="M314.976,500.246c10.88-34.743,13.074-81.006,14.263-116.389h-9.234 c-16.219,18.167-39.662,28.206-64,27.429c-24.283,0.457-47.589-9.527-64-27.429h-9.143c1.28,35.291,3.474,81.554,14.263,116.297 c19.931,1.646,39.68,2.469,58.88,2.469C275.205,502.623,295.136,501.8,314.976,500.246z"></path><path style="fill:#333333;" d="M256.005,511.766c-19.474,0-39.543-0.841-59.63-2.487c-3.721-0.311-6.875-2.843-7.982-6.4 c-10.825-34.862-13.248-79.534-14.665-118.674c-0.091-2.478,0.832-4.891,2.56-6.674c1.728-1.783,4.096-2.798,6.583-2.798h9.143 c2.56,0,5.001,1.07,6.738,2.962c14.638,15.954,35.41,24.777,57.097,24.466c22.007,0.667,42.889-8.192,57.344-24.375 c1.737-1.947,4.215-3.054,6.821-3.054h9.234c2.478,0,4.846,1.006,6.574,2.789c1.719,1.783,2.651,4.187,2.56,6.665 c-1.399,41.856-4.151,85.211-14.665,118.811c-1.115,3.566-4.288,6.089-8.009,6.382C295.328,510.952,275.241,511.766,256.005,511.766 z M204.137,491.533c34.816,2.578,68.215,2.569,103.854,0.064c8.155-29.778,10.551-67.749,11.621-94.409 c-17.426,15.625-40.293,24.101-63.899,23.241c-23.049,0.713-45.714-7.945-63.177-23.269 C193.934,429.243,196.521,463.638,204.137,491.533z"></path><path style="fill:#9C7367;" d="M192.005,319.857v64c18.286,15.909,37.211,27.429,63.451,27.429 c24.21-0.658,47.269-10.459,64.549-27.429v-64H192.005z"></path><path style="fill:#956A5E;" d="M320.005,319.857h-128v18.286l73.143,73.143c20.535-3.685,39.579-13.211,54.857-27.429V319.857z"></path><path style="fill:#333333;" d="M255.694,420.438c-31.378,0-52.818-15.003-69.687-29.669c-2.002-1.746-3.145-4.261-3.145-6.903v-64 c0-5.056,4.096-9.143,9.143-9.143h128c5.056,0,9.143,4.087,9.143,9.143v64c0,2.459-0.978,4.8-2.743,6.528 c-18.99,18.642-44.096,29.312-70.702,30.043C255.703,420.438,255.694,420.438,255.694,420.438z M201.148,379.652 c14.327,12.005,30.994,22.501,54.309,22.501c20.48-0.567,40.082-8.43,55.406-22.235v-50.907H201.148V379.652z"></path><path style="fill:#9C7367;" d="M355.845,185.366h-4.571v-22.491c0-58.057-25.417-96.366-95.909-96.366s-96.091,38.309-96.091,96.366 v22.491h-4.571c-17.554,0.549-20.846,19.383-16.731,38.949c3.474,16.183,12.983,40.503,26.697,40.503v18.286 c0,18.834,27.429,49.829,54.4,67.566c5.861,3.675,12.645,5.605,19.566,5.577h34.926c6.921,0.073,13.723-1.865,19.566-5.577 c27.429-17.737,54.4-48.731,54.4-67.566v-18.286c13.714,0,23.131-24.32,26.514-40.503 C378.245,204.932,373.308,186.189,355.845,185.366z"></path><path style="fill:#956A5E;" d="M355.845,185.366h-4.571v-22.491c0-58.057-25.417-96.366-95.909-96.366c-5.669,0-10.971,0-16,0.823 c-16.274,64-27.977,136.503-27.429,192c0,21.76,2.651,59.063,5.76,92.343c1.737,1.006,3.474,2.011,5.303,2.926 c8.137,4.389,23.771,1.737,32.823,1.737s20.754,2.651,28.891-1.737c30.263-15.909,61.806-47.543,61.806-68.571v-22.857 c13.714,0,23.863-22.583,27.429-38.766C378.245,204.932,373.308,186.189,355.845,185.366z"></path><g><path style="fill:#333333;" d="M273.934,365.389c-0.165,0-0.311,0-0.475,0h-34.825c-8.969,0.027-17.106-2.386-24.43-6.985 c-28.928-19.008-58.679-52.315-58.679-75.301v-11.209c-17.536-8.238-25.015-38.784-26.487-45.659 c-3.602-17.125-1.737-31.415,5.23-40.283c3.959-5.029,9.381-8.201,15.863-9.307v-13.778c0-70.007,35.41-105.509,105.234-105.509 c69.714,0,105.051,35.502,105.051,105.509v13.943c6.747,1.125,12.498,4.48,16.731,9.856c7.15,9.097,9.28,23.515,5.833,39.561 c-1.426,6.848-8.741,37.44-26.313,45.669v11.2c0,23.397-29.787,56.622-58.578,75.237 C290.812,362.975,282.482,365.389,273.934,365.389z M273.559,347.103c5.303,0.174,10.295-1.371,14.656-4.151 c28.69-18.542,50.167-46.912,50.167-59.849v-18.286c0-5.056,4.087-9.143,9.143-9.143c5.01,0,13.586-14.208,17.573-33.225 c2.24-10.45,1.344-19.803-2.322-24.466c-1.07-1.353-2.981-3.182-7.259-3.291l-4.617-0.192c-4.901-0.201-8.768-4.224-8.768-9.134 v-22.491c0-59.511-27.575-87.223-86.766-87.223c-59.319,0-86.949,27.712-86.949,87.223v22.491c0,5.047-4.096,9.143-9.143,9.143 h-4.571c-3.52,0.119-5.102,1.527-6.062,2.743c-3.419,4.343-4.069,13.989-1.719,25.179c4.087,19.008,12.745,33.234,17.746,33.234 c5.047,0,9.143,4.087,9.143,9.143v18.286c0,14.062,23.963,42.624,50.286,59.922c4.224,2.651,8.923,3.941,14.51,4.078h34.953 V347.103z"></path><path style="fill:#333333;" d="M261.609,511.894c-1.893,0-3.794-0.009-5.687-0.027c-131.602,0-238.693-38.83-251.712-47.15 c-3.419-2.194-4.983-6.373-3.84-10.277l6.949-23.689c5.861-24.265,24.704-44.069,49.07-51.264l69.861-13.733l3.52,17.947 l-69.029,13.522c-17.289,5.147-31.314,19.886-35.758,38.254l-4.873,16.64c24.603,10.258,117.239,41.463,235.895,41.463 c80.859,0.695,160.366-13.513,235.968-42.167l-4.078-15.808c-4.261-18.816-18.24-33.481-36.562-38.546l-69.065-13.367l3.483-17.947 l69.76,13.522c25.527,7.031,44.48,26.898,50.149,52.032l6.053,23.415c1.161,4.471-1.207,9.106-5.504,10.798 C427.927,496.296,345.66,511.894,261.609,511.894z"></path><path style="fill:#333333;" d="M338.29,268.109c0,3.959-1.28,7.808-3.657,10.971l-19.657,26.149 c-0.539,0.859-1.618,1.198-2.56,0.823c-0.823-0.265-1.426-0.978-1.554-1.829v-2.286h-18.286v18.286h-9.143l-9.143-9.143h-36.571 l-9.143,9.143h-9.143v-18.286h-18.286v2.286c0.009,0.987-0.613,1.874-1.554,2.194c-0.942,0.338-1.993,0-2.56-0.823l-19.657-26.149 c-2.377-3.163-3.657-7.013-3.657-10.971v-94.903h-18.286v100.571c0,18.834,36.571,58.971,64,76.709 c5.861,3.675,12.645,5.605,19.566,5.577h34.926c6.921,0.073,13.723-1.865,19.566-5.577c27.429-17.737,63.543-57.874,63.543-76.709 V173.572H338.29V268.109z"></path><circle style="fill:#333333;" cx="212.119" cy="222.212" r="9.143"></circle><circle style="fill:#333333;" cx="298.976" cy="222.212" r="9.143"></circle><path style="fill:#333333;" d="M274.382,301.581H237.81c-2.523,0-4.571-2.048-4.571-4.571s2.048-4.571,4.571-4.571h36.571 c2.523,0,4.571,2.048,4.571,4.571S276.905,301.581,274.382,301.581z"></path><path style="fill:#333333;" d="M256.069,269.581c-3.291,0-6.619-0.539-9.783-1.627l-9.774-2.651 c-2.441-0.658-3.877-3.182-3.209-5.614c0.667-2.432,3.209-3.84,5.614-3.209l10.057,2.743c4.626,1.582,9.417,1.582,13.769,0.091 l10.341-2.834c2.478-0.658,4.955,0.786,5.614,3.209c0.658,2.441-0.777,4.955-3.209,5.614l-10.066,2.743 C262.469,269.06,259.287,269.581,256.069,269.581z"></path><path style="fill:#333333;" d="M128.096,470.724c-7.561,0-13.714-6.153-13.714-13.714c0-7.561,6.153-13.714,13.714-13.714 s13.714,6.153,13.714,13.714C141.81,464.571,135.657,470.724,128.096,470.724z M128.096,452.438c-2.523,0-4.571,2.057-4.571,4.571 c0,2.514,2.048,4.571,4.571,4.571c2.523,0,4.571-2.057,4.571-4.571C132.668,454.495,130.62,452.438,128.096,452.438z"></path><rect x="118.953" y="429.581" style="fill:#333333;" width="18.286" height="26.597"></rect><path style="fill:#333333;" d="M384.178,470.449c-7.415,0-13.44-6.025-13.44-13.44c0-7.415,6.025-13.449,13.44-13.449 c7.415,0,13.449,6.034,13.449,13.449C397.628,464.424,391.593,470.449,384.178,470.449z M384.178,452.164 c-2.67,0-4.837,2.176-4.837,4.846s2.167,4.837,4.837,4.837c2.67,0,4.846-2.167,4.846-4.837S386.848,452.164,384.178,452.164z"></path><rect x="370.28" y="434.158" transform="matrix(-0.0029 1 -1 -0.0029 828.4061 60.5938)" style="fill:#333333;" width="27.429" height="18.286"></rect><path style="fill:#333333;" d="M255.273,66.509c-70.491,0-108.983,30.72-108.983,88.777v36.571 c18.286,0,18.286,27.429,18.286,27.429V201l9.143-18.286v-27.429c0-6.153,3.09-11.886,8.229-15.269 c6.61-4.416,13.897-7.717,21.577-9.783c9.189-2.203,18.853,0.613,25.417,7.406l0.823,0.823c5.111,5.065,12.005,7.927,19.2,7.954 h14.08c7.205,0.027,14.126-2.834,19.2-7.954l0.914-0.823c6.565-6.793,16.229-9.609,25.417-7.406 c7.689,1.947,15.003,5.129,21.669,9.417c5.093,3.438,8.119,9.216,8.046,15.36v27.429l9.143,18.286v18.286 c0,0,0-27.429,18.286-27.429v-36.571C365.719,92.566,325.765,66.509,255.273,66.509z"></path><path style="fill:#333333;" d="M164.576,228.429c-5.047,0-9.143-4.096-9.143-9.143c0-0.155-0.512-18.286-9.143-18.286 c-5.047,0-9.143-4.096-9.143-9.143v-36.571c0-63.141,41.947-97.92,118.126-97.92c79.36,0,119.589,32.859,119.589,97.655v36.571 c0,5.047-4.087,9.143-9.143,9.143c-8.585,0-9.134,17.957-9.143,18.313c-0.018,5.038-4.096,9.115-9.143,9.115 c-4.992,0-9.051-4.005-9.143-8.978l0,0v-0.009l0,0v-0.009l0,0v-0.009l0,0c-0.009-0.018-0.009-0.037,0-0.046 c0-0.018,0-0.046,0-0.064v-16.165l-8.183-16.357c-0.631-1.262-0.96-2.661-0.96-4.078v-27.429c0.037-3.191-1.463-6.062-4.023-7.79 c-5.678-3.648-12.059-6.427-18.789-8.119c-5.906-1.408-12.315,0.448-16.603,4.901l-1.353,1.253 c-6.354,6.427-15.68,10.304-25.225,10.304c-0.046,0-0.091,0-0.137,0h-14.053c-9.691-0.037-18.779-3.813-25.637-10.606l-0.85-0.85 c-4.398-4.553-10.798-6.427-16.823-4.983c-6.482,1.746-12.837,4.635-18.642,8.503c-2.615,1.719-4.151,4.571-4.151,7.653v27.429 c0,1.417-0.329,2.825-0.96,4.087l-8.183,16.357v16.128C173.719,224.342,169.623,228.429,164.576,228.429z M155.433,184.369 c2.085,0.823,3.95,1.929,5.614,3.246l3.529-7.058v-25.271c0-9.243,4.608-17.81,12.343-22.903 c7.415-4.946,15.579-8.649,24.229-10.981c12.517-2.999,25.6,0.805,34.377,9.883l0.713,0.713c3.401,3.374,7.954,5.257,12.773,5.275 h14.043c0.018,0,0.046,0,0.064,0c4.745,0,9.335-1.911,12.645-5.248l1.28-1.17c8.329-8.64,21.376-12.453,33.682-9.509 c8.75,2.213,16.951,5.769,24.485,10.615c7.835,5.294,12.352,13.906,12.242,23.159v25.161l3.529,7.058 c1.673-1.317,3.538-2.423,5.614-3.246v-29.083c0-54.144-32.192-79.36-101.303-79.36c-66.249,0-99.84,26.798-99.84,79.634v29.083 H155.433z"></path></g><g><rect x="210.382" y="436.529" style="fill:#E2A296;" width="16.731" height="4.389"></rect><rect x="210.382" y="445.672" style="fill:#E2A296;" width="16.731" height="4.389"></rect><rect x="210.382" y="454.815" style="fill:#E2A296;" width="16.731" height="4.389"></rect><rect x="210.382" y="463.958" style="fill:#E2A296;" width="16.731" height="4.389"></rect><rect x="210.382" y="473.101" style="fill:#E2A296;" width="16.731" height="4.389"></rect><rect x="285.079" y="445.672" style="fill:#E2A296;" width="16.731" height="4.389"></rect><rect x="285.079" y="454.815" style="fill:#E2A296;" width="16.731" height="4.389"></rect><rect x="285.079" y="463.958" style="fill:#E2A296;" width="16.731" height="4.389"></rect><rect x="285.079" y="473.101" style="fill:#E2A296;" width="16.731" height="4.389"></rect><rect x="235.342" y="454.815" style="fill:#E2A296;" width="16.731" height="4.389"></rect><rect x="235.342" y="463.958" style="fill:#E2A296;" width="16.731" height="4.389"></rect><rect x="235.342" y="473.101" style="fill:#E2A296;" width="16.731" height="4.389"></rect><rect x="260.21" y="463.958" style="fill:#E2A296;" width="16.731" height="4.389"></rect><rect x="260.21" y="473.101" style="fill:#E2A296;" width="16.731" height="4.389"></rect></g><path style="fill:#333333;" d="M310.862,320.04h-18.286v-27.429c0.037-1.975-1.015-3.611-2.67-4.343l-11.73-4.745 c-13.934-5.541-29.367-5.531-43.392,0.027l-11.922,4.818c-2.185,0.786-3.374,2.423-3.429,4.334v27.154h-18.286v-27.429 c0.293-9.792,6.272-17.984,15.241-21.147l11.593-4.699c18.423-7.305,38.647-7.314,56.997-0.027l12.032,4.873 c8.677,3.803,14.007,12.142,13.851,21.339V320.04z"></path><path style="fill:#A54646;" d="M150.862,145.229c-29.797,1.719-52.754,26.953-51.657,56.777 c-0.942,29.723,21.97,54.784,51.657,56.503c10.057,0,12.8-25.417,12.8-56.777S160.919,145.229,150.862,145.229z"></path><path style="fill:#892E2E;" d="M155.433,147.515c-22.939,8.329-37.915,30.464-37.12,54.857c-0.85,24.402,14.144,46.574,37.12,54.857 c6.217-6.857,7.863-28.617,7.863-54.857S161.833,154.372,155.433,147.515z"></path><g><path style="fill:#333333;" d="M150.862,265.375c-34.112-1.966-59.639-29.934-58.505-63.68 c-1.225-32.823,24.85-61.477,58.112-63.397c0.128-0.009,0.256-0.009,0.393-0.009c14.226,0,20.571,19.566,20.571,63.451 C171.433,245.745,165.088,265.375,150.862,265.375z M150.551,152.031c-25.527,1.856-45.431,23.973-44.489,49.637 c-0.878,26.715,18.953,48.457,45.157,50.002c-0.512-0.146,6.501-5.925,6.501-49.929 C157.719,160.955,151.676,153.128,150.551,152.031z"></path><rect x="131.479" y="205.855" style="fill:#333333;" width="10.514" height="4.571"></rect><rect x="131.479" y="216.552" style="fill:#333333;" width="10.514" height="4.571"></rect><rect x="131.479" y="227.24" style="fill:#333333;" width="10.514" height="4.571"></rect></g><path style="fill:#A54646;" d="M360.05,145.229c29.723,1.865,52.535,27.109,51.383,56.869c0.896,29.586-21.842,54.546-51.383,56.411 c-10.057,0-12.8-25.417-12.8-56.777S349.993,145.229,360.05,145.229z"></path><path style="fill:#892E2E;" d="M392.416,202.006c0.933,24.265-13.815,46.382-36.571,54.857c-6.217-6.949-8.137-28.709-8.137-54.857 s1.829-47.634,8.137-54.857C378.565,155.67,393.294,177.759,392.416,202.006z"></path><g><path style="fill:#333333;" d="M360.471,265.357c-14.382,0-20.069-18.441-20.069-63.616c0-38.034,3.337-63.36,19.648-63.36 c0.146,0,0.283,0,0.43,0.009c33.719,2.112,59.118,30.217,57.801,63.982C419.296,235.377,393.906,263.245,360.471,265.357 L360.471,265.357z M360.398,152.132c-1.28,1.271-6.29,8.869-6.29,49.609c0,40.859,5.019,48.576,6.299,49.883 c25.609-2.03,44.937-23.534,44.16-49.307C405.582,175.839,386.236,154.152,360.398,152.132z"></path><rect x="369.01" y="205.855" style="fill:#333333;" width="10.505" height="4.571"></rect><rect x="369.01" y="216.552" style="fill:#333333;" width="10.505" height="4.571"></rect><rect x="369.01" y="227.24" style="fill:#333333;" width="10.505" height="4.571"></rect></g><path style="fill:#892E2E;" d="M364.622,170.737c-8.256-0.046-14.949-6.738-14.994-14.994c0-57.326-32.549-87.589-94.171-87.589 s-94.171,30.263-94.171,87.589c0,8.283-6.711,14.994-14.994,14.994s-14.994-6.711-14.994-14.994l0,0 c0-73.143,46.446-117.577,124.16-117.577s124.16,43.977,124.16,117.577C379.616,164.027,372.905,170.737,364.622,170.737 L364.622,170.737z"></path><path style="fill:#A54646;" d="M149.308,168.36c0-73.143,46.171-117.577,123.886-117.577c24.64-0.64,49.051,4.955,70.949,16.274 c-21.211-18.834-51.566-28.891-88.686-28.891c-77.714,0-124.16,43.977-124.16,117.577c0,8.283,6.711,14.994,14.994,14.994l0,0 c1.125,0.137,2.258,0.137,3.383,0C149.49,169.96,149.362,169.165,149.308,168.36z"></path><path style="fill:#333333;" d="M364.622,177.595c-0.018,0-0.027,0-0.046,0c-11.959-0.073-21.742-9.856-21.806-21.815 c0-53.605-29.376-80.768-87.314-80.768s-87.314,27.163-87.314,80.731c0,12.05-9.801,21.851-21.851,21.851 s-21.851-9.801-21.851-21.851c0-76.754,50.203-124.434,131.017-124.434c82.039,0,131.017,46.519,131.017,124.434 C386.464,167.793,376.663,177.595,364.622,177.595z M255.456,45.023c-73.454,0-117.303,41.39-117.303,110.72 c0,4.489,3.648,8.137,8.137,8.137s8.137-3.648,8.137-8.137c0-60.91,35.877-94.446,101.029-94.446s101.029,33.536,101.029,94.446 c0.027,4.434,3.675,8.101,8.165,8.137c4.471-0.009,8.11-3.657,8.11-8.137C372.75,86.422,328.91,45.023,255.456,45.023z"></path></svg>