<!-- icon666.com - MILLIONS vector ICONS FREE --><svg version="1.1" id="Capa_1" xmlns="http://www.w3.org/2000/svg" xmlns:xlink="http://www.w3.org/1999/xlink" x="0px" y="0px" viewBox="0 0 512.003 512.003" style="enable-background:new 0 0 512.003 512.003;" xml:space="preserve"><g><path style="fill:#D8AB8D;" d="M500.253,412.888c-4.058-21.26-20.931-37.756-42.275-41.336 c-12.495-3.1-44.248-10.804-79.853-18.789c-80.398-18.272-163.859-18.272-244.257,0c-34.29,7.985-65.761,15.313-79.853,18.789 c-21.344,3.579-38.217,20.076-42.275,41.336l-4.697,23.486c78.547,34.468,163.455,52.074,249.236,51.67 c85.584,0.319,170.294-17.286,248.672-51.67L500.253,412.888z"></path><path style="fill:#D8AB8D;" d="M326.455,296.396H185.538v46.972c10.522,32.787,24.332,41.43,70.459,88.966 c46.127-47.536,59.937-56.367,70.459-88.966V296.396z"></path></g><path style="fill:#D0A183;" d="M356.33,350.227l-29.874-6.858v-46.972H185.538v23.486c16.44,13.716,69.801,55.428,112.734,89.154 C324.633,397.866,345.498,376.729,356.33,350.227z"></path><g><rect x="178.492" y="296.396" style="fill:#333333;" width="14.092" height="61.064"></rect><rect x="319.409" y="296.396" style="fill:#333333;" width="14.092" height="61.064"></rect></g><path style="fill:#A6ACAD;" d="M500.16,413.827c-4.002-21.438-20.752-38.226-42.181-42.275c-12.495-3.1-44.248-11.837-79.853-19.728 c-6.858-1.597-13.81-2.912-20.762-4.228c-20.987,55.85-83.282,84.118-139.132,63.131c-29.161-10.954-52.168-33.971-63.131-63.131 c-7.046,1.315-14.092,2.724-21.044,4.321c-34.384,7.985-65.761,15.407-80.041,18.789c-21.607,4.425-38.377,21.523-42.369,43.215 l-4.603,23.486c78.698,33.895,163.549,51.172,249.236,50.73c85.499,0.357,170.144-16.91,248.672-50.73L500.16,413.827z"></path><path style="fill:#959C9E;" d="M457.978,394.005c-12.495-3.1-44.248-10.804-79.853-18.789c-10.522-2.349-21.138-4.321-31.753-6.012 c-32.947,49.81-100.033,63.479-149.842,30.532c-12.128-8.023-22.509-18.404-30.532-30.532c-10.71,1.785-21.326,3.852-31.941,6.294 c-34.384,7.985-65.761,15.407-80.041,18.789c-22.359,5.637-42.463,20.668-46.972,43.309c78.698,33.895,163.549,51.172,249.236,50.73 c85.499,0.357,170.144-16.91,248.672-50.73C500.441,414.673,480.337,399.642,457.978,394.005z"></path><path style="fill:#333333;" d="M253.263,495.099c-86.223,0-170.012-17.587-249.048-52.271c-3.034-1.334-4.725-4.585-4.077-7.835 l4.697-23.486c4.444-24.087,23.702-43.356,47.903-47.818c13.453-3.467,126.6-26.248,131.41-27.216 c3.795-0.723,7.534,1.71,8.295,5.515c0.77,3.814-1.7,7.534-5.515,8.305c-1.174,0.235-117.6,23.674-131.157,27.159 c-18.977,3.514-33.689,18.225-37.099,36.723l-3.598,18.009c76.603,32.796,157.752,49.706,241.175,48.823 c83.188-0.141,164.216-16.112,240.678-48.823l-3.579-17.897c-3.429-18.601-18.15-33.322-36.639-36.732 c-5.712-1.428-30.861-6.642-57.476-12.147l-74.179-15.106c-3.805-0.78-6.276-4.5-5.505-8.314s4.491-6.266,8.314-5.505l74.217,15.125 c27.939,5.778,52.064,10.775,57.635,12.194c23.74,4.359,43.008,23.627,47.47,47.827l4.678,23.373 c0.648,3.251-1.043,6.501-4.077,7.835c-79.064,34.675-162.882,52.252-249.151,52.252 C256.842,495.09,255.057,495.099,253.263,495.099z"></path><path style="fill:#707C7F;" d="M256.184,449.743c-25.215,0-50.43-6.943-72.929-20.828c-2.208-1.372-2.894-4.256-1.531-6.463 c1.353-2.217,4.246-2.884,6.463-1.531c41.937,25.891,94.048,25.891,135.976,0c2.198-1.343,5.101-0.686,6.463,1.531 c1.362,2.208,0.676,5.101-1.531,6.463C306.624,442.791,281.399,449.743,256.184,449.743z"></path><path style="fill:#D8AB8D;" d="M255.997,338.671c12.213,0,36.263,2.067,51.67-18.789c21.513-29.029,42.275-32.881,42.369-80.041 c17.145-2.067,30.664-15.557,32.787-32.693c7.14-48.476-14.092-51.67-23.486-46.972V136.69c0-52.985-24.144-93.945-103.339-93.945 S152.657,83.799,152.657,136.69v23.486c-9.395-4.697-30.626-1.503-23.486,46.972c2.142,17.201,15.764,30.701,32.975,32.693 c0,46.972,20.668,51.012,42.181,80.041C219.734,340.738,243.784,338.765,255.997,338.671z"></path><g><path style="fill:#D2A385;" d="M359.336,160.176V136.69c0-52.985-24.144-93.945-103.339-93.945c-3.006,0-5.731,0-8.643,0 c-18.789,69.801-33.538,153.036-32.693,215.228c0,17.943,1.785,46.127,4.134,74.217c11.753,5.374,24.726,7.516,37.578,6.2 c12.213,0,36.263,2.067,51.67-18.789c21.513-29.029,42.275-32.881,42.369-80.041c17.145-2.067,30.664-15.557,32.787-32.693 C389.868,158.673,368.73,155.479,359.336,160.176z"></path><path style="fill:#D2A385;" d="M255.997,42.651c-79.196,0-103.339,41.054-103.339,93.945v21.701 c5.364,11.245,10.071,22.782,14.092,34.572c1.484,0.056,2.922-0.526,3.946-1.597c1.052-1.015,1.653-2.396,1.691-3.852v-15.501 c0-5.073,7.797-10.052,10.71-13.998c6.125-10.043,8.051-22.086,5.355-33.538c0-2.537-0.564-4.885-0.564-6.482 c0-3.194,0-11.743,21.138-11.743c4.631,1.024,8.953,3.147,12.589,6.2c9.855,7.694,21.889,12.1,34.384,12.589 c12.617-0.535,24.764-4.97,34.76-12.683c3.542-2.95,7.722-5.045,12.213-6.106c8.53,0.169,16.44,4.528,21.138,11.649 c-0.066,2.865-0.348,5.721-0.846,8.549c-2.79,11.02-0.658,22.706,5.825,32.035c2.94,3.955,4.5,8.784,4.415,13.716v9.394 c0,6.435,5.214,11.649,11.649,11.649c0.028,0,0.066,0,0.094,0c4.04-12.513,8.746-24.811,14.092-36.826V136.69 C359.806,83.705,335.192,42.651,255.997,42.651z"></path></g><path style="fill:#333333;" d="M248.697,345.811c-13.941,0-35.323-1.823-50.035-21.739c-5.58-7.525-11.076-13.265-16.393-18.817 c-13.782-14.402-25.797-26.934-27.066-59.552c-17.521-4.528-30.739-19.287-33.031-37.691c-3.918-26.568-0.216-44.229,11.001-52.356 c4.021-2.912,8.389-4.04,12.429-4.077v-14.89c0-67.011,37.136-100.991,110.385-100.991s110.395,33.98,110.395,100.991v14.89 c4.049,0.038,8.417,1.165,12.429,4.077c11.217,8.126,14.918,25.797,10.982,52.515c-2.245,18.178-15.398,32.9-32.834,37.503 c-1.325,32.693-13.34,45.197-27.141,59.524c-5.345,5.562-10.879,11.311-16.497,18.883c-16.337,22.124-41.092,21.748-54.366,21.673 l-2.94-0.038l-2.583,0.038C251.976,345.783,250.397,345.811,248.697,345.811z M145.893,165.644c-1.456,0-3.016,0.395-4.453,1.428 c-2.997,2.17-9.526,10.334-5.298,39.053c1.766,14.176,12.777,25.102,26.812,26.718c3.551,0.413,6.238,3.42,6.238,6.999 c0,31.368,9.254,41.035,23.261,55.672c5.355,5.59,11.424,11.931,17.54,20.179c12.194,16.506,30.861,16.224,43.205,15.971 l2.753-0.038c0.019,0,0.038,0,0.056,0l3.128,0.028c12.26,0.094,30.805,0.385,42.867-15.952c6.163-8.314,12.279-14.674,17.671-20.273 c14.007-14.552,23.261-24.163,23.317-55.597c0.009-3.561,2.668-6.557,6.2-6.98c13.96-1.682,24.914-12.607,26.643-26.568 c4.246-28.879-2.273-37.033-5.289-39.213c-2.79-2.029-6.088-1.578-8.06-0.592c-2.17,1.08-4.772,0.968-6.849-0.31 c-2.076-1.287-3.344-3.551-3.344-5.994V136.69c0-59.289-30.598-86.899-96.294-86.899c-64.794,0-96.294,28.428-96.294,86.899v23.486 c0,2.443-1.268,4.707-3.335,5.994c-2.086,1.278-4.678,1.39-6.858,0.31C148.542,166.001,147.265,165.644,145.893,165.644z"></path><path style="fill:#C99C7D;" d="M337.729,200.103c-0.78-11.236-10.512-19.71-21.748-18.93c-0.46,0.028-0.911,0.075-1.362,0.141 h-23.486c-10.794-0.855-20.555,6.416-22.829,17.004c-2.978-1.888-6.435-2.894-9.958-2.912c-3.551,0.028-7.036,1.033-10.052,2.912 c-2.273-10.588-12.034-17.859-22.829-17.004h-23.486c-11.546-1.099-21.833,7.271-23.11,18.789 c-1.127,8.079-1.503,26.586,8.173,36.263c6.332,6.708,15.106,10.569,24.332,10.71c30.626,0,34.666-21.983,37.578-32.881 c1.315-5.355,4.415-9.395,9.395-9.395c5.186,0,9.395,4.209,9.395,9.395c0.028,1.071,0.432,2.095,1.127,2.912 c2.02,18.216,18.188,31.509,36.451,29.968c9.254-0.141,18.056-4.002,24.426-10.71C339.326,226.689,338.856,218.892,337.729,200.103z M211.373,237.681c-6.736-0.113-13.124-3.006-17.662-7.985c-4.697-6.773-6.764-15.022-5.825-23.204V204.8 c-1.005-6.773,3.664-13.087,10.437-14.092c1.212-0.178,2.443-0.178,3.654,0h23.486c6.896-0.883,13.209,3.983,14.092,10.879 c0.141,1.062,0.141,2.142,0,3.213C239.556,226.877,230.162,237.681,211.373,237.681z M323.073,229.695 c-4.556,5.007-10.982,7.901-17.756,7.985c-18.789,0-28.183-10.804-28.183-32.881c-0.827-6.952,4.143-13.265,11.095-14.092 c0.996-0.122,2.001-0.122,2.997,0h23.486c6.773-1.005,13.087,3.664,14.092,10.437c0.179,1.212,0.179,2.443,0,3.654 c0,1.691,0,3.194,0,4.697c0.094,10.334,0.094,14.28-5.825,20.198H323.073z"></path><g style="opacity:0.29;"><path style="fill:#B2A3A1;" d="M244.535,201.606c1.052,4.462,1.268,9.075,0.658,13.622c-0.489,4.575-1.86,9.009-4.04,13.058 C239.115,219.277,240.308,209.826,244.535,201.606z"></path></g><g><path style="fill:#C5A089;" d="M223.586,185.353h-25.835c-10.015-0.056-18.169,8.023-18.225,18.037l0,0v1.503 c-1.184,9.939,1.851,19.926,8.361,27.526c5.768,5.449,13.491,8.333,21.419,7.985h3.852c18.789-1.503,28.183-13.904,28.183-36.826 C241.398,193.677,233.487,185.56,223.586,185.353z"></path><path style="fill:#C5A089;" d="M287.938,185.353h25.741c10.005-0.366,18.413,7.459,18.78,17.464 c0.009,0.188,0.009,0.385,0.009,0.573v1.503c1.184,9.939-1.851,19.926-8.361,27.526c-5.768,5.439-13.491,8.324-21.419,7.985h-3.852 c-18.789-1.503-28.183-13.904-28.183-36.826C270.596,193.846,278.224,185.804,287.938,185.353z"></path></g><path style="fill:#AC8D79;" d="M185.82,214.007v-1.597c0.103-9.977,8.248-18,18.225-17.943h26.117c4.021,0,7.929,1.353,11.086,3.852 c-2.283-7.694-9.357-12.964-17.38-12.964h-26.117c-10.015-0.056-18.169,8.023-18.225,18.037l0,0v1.503 c-1.184,9.939,1.851,19.926,8.361,27.526l0.658,0.47C186.374,226.839,185.444,220.423,185.82,214.007z"></path><path style="fill:#D0A88F;" d="M186.665,189.205c-4.481,3.344-7.121,8.596-7.14,14.186v0.564l35.887,35.887 c5.693-0.573,11.104-2.753,15.595-6.294L186.665,189.205z"></path><path style="fill:#C09C86;" d="M186.008,210.437c0.629-5.533,3.786-10.456,8.549-13.34l-7.891-7.891 c-4.585,3.514-7.224,8.981-7.14,14.749L186.008,210.437z"></path><path style="fill:#D0A88F;" d="M235.329,229.226c1.334-2.001,2.443-4.143,3.288-6.388l-36.639-37.484h-3.852 c-1.71,0.066-3.41,0.319-5.073,0.752L235.329,229.226z"></path><path style="fill:#C09C86;" d="M192.584,186.105l8.549,8.643c0.939-0.094,1.879-0.094,2.818,0h6.576l-9.394-9.395h-3.852 c-0.939-0.094-1.879-0.094-2.818,0L192.584,186.105z"></path><path style="fill:#AC8D79;" d="M276.477,212.503c0.056-10.015,8.211-18.094,18.225-18.037l0,0h25.741 c4.058-0.019,7.995,1.343,11.179,3.852c-2.236-7.525-9.056-12.758-16.91-12.964h-26.305c-10.015-0.056-18.169,8.023-18.225,18.037 l0,0c-0.921,10.663,2.659,21.213,9.864,29.123C277.501,226.163,276.279,219.352,276.477,212.503z"></path><path style="fill:#D0A88F;" d="M309.169,239.841c5.609-0.789,10.832-3.326,14.937-7.234l-44.718-44.624 c-4.791,2.781-7.995,7.647-8.643,13.152L309.169,239.841z"></path><path style="fill:#C09C86;" d="M279.107,187.984c-4.791,2.781-7.995,7.647-8.643,13.152l6.67,6.67 c1.419-5.261,5.148-9.582,10.146-11.743L279.107,187.984z"></path><path style="fill:#D0A88F;" d="M327.864,227.535c1.249-2.104,2.255-4.34,3.006-6.67l-35.511-35.511h-6.952 c-0.846-0.094-1.691-0.094-2.537,0L327.864,227.535z"></path><path style="fill:#C09C86;" d="M294.702,194.466h9.395l-9.395-9.395h-6.294c-0.846-0.094-1.691-0.094-2.537,0L294.702,194.466z"></path><g><ellipse style="fill:#333333;" cx="215.037" cy="200.385" rx="7.046" ry="5.919"></ellipse><ellipse style="fill:#333333;" cx="298.742" cy="200.385" rx="7.046" ry="5.919"></ellipse><path style="fill:#333333;" d="M335.85,207.149v-9.395c-1.231-11.546-11.555-19.935-23.11-18.789h-23.486 c-10.813-0.808-20.555,6.492-22.829,17.098c-6.106-4.002-13.998-4.002-20.104,0c-2.273-10.606-12.016-17.906-22.829-17.098h-23.486 c-11.555-1.146-21.88,7.243-23.11,18.789l-0.47,9.395c-0.639,9.761,2.452,19.39,8.643,26.962 c6.332,6.698,15.116,10.531,24.332,10.616c23.11,0,33.257-12.495,37.578-33.444c0.16-5.317,4.594-9.507,9.911-9.348 c5.317,0.16,9.507,4.594,9.348,9.911c1.024,19.221,17.446,33.97,36.667,32.937c0.301-0.019,0.611-0.038,0.911-0.056 c9.216-0.085,18-3.917,24.332-10.616C334.91,226.886,337.776,216.853,335.85,207.149z M209.024,235.332 c-26.586,0-23.486-30.532-23.486-32.881c-1.005-6.773,3.664-13.087,10.437-14.092c1.212-0.178,2.443-0.178,3.654,0h23.486 c6.952-0.827,13.265,4.143,14.092,11.095c0.122,0.996,0.122,2.001,0,2.997C237.208,224.622,228.001,235.332,209.024,235.332z M302.969,235.332c-18.789,0-28.184-10.71-28.184-32.881c-0.827-6.952,4.143-13.265,11.095-14.092c0.996-0.122,2.001-0.122,2.997,0 h23.486c6.773-1.005,13.087,3.664,14.092,10.437c0.178,1.212,0.178,2.443,0,3.654C326.455,204.8,330.307,235.332,302.969,235.332z"></path><path style="fill:#333333;" d="M255.997,23.956c-110.479,0-114.519,110.573-103.339,136.22 c4.885,11.086,14.092,22.171,14.092,32.881v-21.138c0.038-7.591,2.508-14.965,7.046-21.044c7.14-9.395,2.443-24.238,2.443-32.975 c0-18.789,17.943-23.486,32.881-23.486c14.937,0,25.459,18.789,46.972,18.789s32.599-18.789,46.973-18.789 s32.881,11.743,32.881,23.486s-5.355,23.017,2.349,33.069c4.575,5.956,7.055,13.256,7.046,20.762v21.326 c0-10.71,9.395-21.795,14.092-32.881C374.461,125.886,359.336,23.956,255.997,23.956z"></path></g><path style="fill:#444444;" d="M255.997,23.956c-110.479,0-114.519,110.573-103.339,136.22 c4.885,11.086,14.092,22.171,14.092,32.881C140.162,64.916,217.667,38.048,270.088,38.048c30.429-0.46,59.477,12.701,79.196,35.887 C333.501,46.503,304.66,23.956,255.997,23.956z"></path><g><path style="fill:#333333;" d="M342.05,193.057c1.409-10.343,5.139-20.236,10.898-28.935c4.19-8.267,6.379-17.408,6.388-26.68 c0.714-18.921-3.326-37.719-11.743-54.676c-8.154-16.713-21.288-30.495-37.578-39.457c-16.741-8.333-35.229-12.551-53.924-12.307 c-18.592-0.066-36.939,4.143-53.643,12.307c-16.365,8.784-29.527,22.528-37.578,39.269c-8.154,17.126-12.232,35.896-11.931,54.864 c0.348,4.678,1.043,9.329,2.067,13.904c0.855,4.462,2.377,8.765,4.509,12.777c5.768,8.69,9.47,18.592,10.804,28.935 c0.103,1.71-1.193,3.175-2.903,3.279c-0.066,0-0.132,0.009-0.197,0.009c-1.729,0.056-3.185-1.278-3.288-3.006l0,0 c-2.029-9.084-5.975-17.633-11.555-25.083c-2.809-4.538-4.81-9.526-5.919-14.749c-1.127-5.073-1.851-10.221-2.161-15.407 c-1.259-20.734,2.414-41.458,10.71-60.501c8.389-19.465,22.857-35.68,41.242-46.221c18.47-9.705,39.072-14.684,59.937-14.468 c20.931-0.141,41.552,5.026,59.937,15.031c18.197,10.616,32.665,26.596,41.43,45.751c8.643,18.808,12.457,39.476,11.086,60.125 c-0.479,10.512-3.476,20.762-8.737,29.874c-5.543,7.497-9.451,16.074-11.461,25.177l0,0c0,1.766-1.428,3.194-3.194,3.194 c-1.766,0-3.194-1.428-3.194-3.194L342.05,193.057L342.05,193.057z"></path><path style="fill:#333333;" d="M163.555,193.057l-0.752-21.795c-0.113-8.173,2.311-16.187,6.952-22.923 c2.912-5.374,3.748-11.621,2.349-17.568c0-3.476-1.033-6.952-1.409-11.086c-0.301-4.274,0.31-8.568,1.785-12.589 c3.598-8.54,11.076-14.834,20.104-16.91c3.993-1.043,8.089-1.672,12.213-1.879c4.462-0.479,8.981,0.009,13.246,1.409 c6.98,3.11,13.678,6.82,20.01,11.086c5.205,3.185,11.104,5.054,17.192,5.449c6.022,0.066,11.95-1.559,17.098-4.697 c5.731-3.1,11.273-7.516,18.789-11.086c4.462-1.935,9.348-2.677,14.186-2.161c12.824,1.287,24.538,7.854,32.317,18.131 c1.334,2.02,2.349,4.246,3.006,6.576c0.705,2.339,0.93,4.801,0.658,7.234c0,4.04-0.939,7.703-1.503,11.179 c-1.71,5.825-0.892,12.1,2.255,17.286c4.857,6.642,7.393,14.693,7.234,22.923l-0.845,21.795c0,1.71-1.381,3.1-3.091,3.11 c-0.066,0-0.132,0-0.197-0.009c-1.691-0.047-3.053-1.409-3.1-3.1l-0.845-21.701c-0.348-6.332-2.64-12.401-6.576-17.38 c-2.809-3.504-4.66-7.685-5.355-12.119c-0.47-4.03-0.47-8.089,0-12.119c0-3.664,0.846-7.234,0.846-10.334 c0.235-1.146,0.235-2.33,0-3.476c-0.47-1.127-1.071-2.198-1.785-3.194c-3.965-4.575-9.094-7.985-14.843-9.864 c-2.809-1.033-5.749-1.635-8.737-1.785c-2.537-0.113-5.064,0.432-7.328,1.597c-5.261,2.537-10.992,7.422-18.037,11.179 c-7.356,4.284-15.726,6.492-24.238,6.388c-8.483-0.329-16.703-2.997-23.768-7.703c-5.543-3.964-11.349-7.544-17.38-10.71 c-5.825-1.503-11.931-1.503-17.756,0c-5.533,0.864-10.306,4.368-12.777,9.394c-5.167,8.737,5.449,26.868-5.825,42.839 c-3.955,5.045-6.285,11.17-6.67,17.568l-0.752,21.607c0,1.71-1.381,3.1-3.091,3.11c-0.066,0-0.132,0-0.197-0.009 c-1.813,0.066-3.335-1.353-3.401-3.166C163.527,193.386,163.536,193.226,163.555,193.057z"></path><path style="fill:#333333;" d="M256.363,424.584c-14.223,0-28.456-2.668-42.078-8.023c-29.696-11.649-53.417-35.37-65.085-65.076 l13.115-5.158c10.231,26.07,31.049,46.888,57.109,57.109c25.111,9.864,52.562,9.357,77.289-1.437 c24.726-10.785,43.769-30.551,53.624-55.672l13.115,5.158c-11.226,28.616-32.937,51.134-61.111,63.432 C287.59,421.362,271.986,424.584,256.363,424.584z"></path><path style="fill:#333333;" d="M274.88,286.438h-37.578c-2.593,0-4.697-2.104-4.697-4.697c0-2.593,2.104-4.697,4.697-4.697h37.578 c2.593,0,4.697,2.104,4.697,4.697C279.577,284.334,277.472,286.438,274.88,286.438z"></path><path style="fill:#333333;" d="M256.156,253.088c-3.373,0-6.792-0.554-10.043-1.663l-10.043-2.734 c-2.508-0.686-3.983-3.269-3.297-5.768c0.676-2.508,3.288-3.993,5.768-3.297l10.334,2.818c4.763,1.635,9.695,1.625,14.158,0.085 l10.616-2.903c2.546-0.695,5.092,0.799,5.768,3.297c0.676,2.499-0.799,5.082-3.297,5.768l-10.334,2.818 C262.742,252.562,259.463,253.088,256.156,253.088z"></path><path style="fill:#333333;" d="M260.788,305.227h-9.395c-2.593,0-4.697-2.104-4.697-4.697c0-2.593,2.104-4.697,4.697-4.697h9.395 c2.593,0,4.697,2.104,4.697,4.697S263.381,305.227,260.788,305.227z"></path></g></svg>