<!-- icon666.com - MILLIONS vector ICONS FREE --><svg version="1.1" id="Capa_1" xmlns="http://www.w3.org/2000/svg" xmlns:xlink="http://www.w3.org/1999/xlink" x="0px" y="0px" viewBox="0 0 512 512" style="enable-background:new 0 0 512 512;" xml:space="preserve"><path style="fill:#C5C5C7;" d="M464.13,431.089v-56.778c-0.067-25.026-17.749-46.538-42.292-51.45l-67.101-13.404 c-65.178-13.071-132.296-13.071-197.474,0l-67.101,13.404c-24.543,4.912-42.225,26.424-42.292,51.45v56.778 c65.736,29.122,136.816,44.232,208.713,44.373c71.455,0.083,142.145-14.744,207.547-43.541L464.13,431.089L464.13,431.089z"></path><path style="fill:#B2B2B2;" d="M364.228,464.39c34.316-7.393,67.792-18.266,99.902-32.468v-57.61 c-0.067-25.026-17.749-46.538-42.292-51.45l-67.101-13.404c-44.348-34.033-105.222-36.764-152.434-6.827L364.228,464.39z"></path><polygon style="fill:#DADADC;" points="89.662,342.593 156.098,331.187 156.098,306.211 90.162,322.695 "></polygon><path style="fill:#818589;" d="M257.182,481.707c-0.2,0-0.4,0-0.608,0c-73.22-0.15-144.284-15.26-211.235-44.914 c-2.256-0.999-3.713-3.23-3.713-5.703v-56.778c0.075-27.898,19.972-52.099,47.312-57.569l67.101-13.404 c66.335-13.304,133.603-13.295,199.93,0l67.093,13.404c27.348,5.47,47.246,29.671,47.32,57.552v57.627 c0,2.473-1.465,4.712-3.73,5.719C400.226,466.88,329.753,481.707,257.182,481.707z M54.114,427.01 c64.262,27.873,132.362,42.067,202.477,42.209c0.191,0,0.4,0,0.591,0c69.474,0,136.966-13.92,200.696-41.393v-53.523 c-0.058-21.945-15.735-41.018-37.28-45.322l-67.093-13.404c-64.72-12.979-130.339-12.979-195.026,0l-67.109,13.404 c-21.537,4.312-37.214,23.385-37.272,45.339v52.69H54.114z"></path><path style="fill:#C5C5C7;" d="M256,411.276c-55.529,0-100.735-35.132-100.735-78.423c0-5.311,0.666-10.598,1.998-15.735 c3.596-12.113,14.086-20.896,26.641-22.312c47.778-7.076,96.331-7.076,144.109,0c12.579,1.407,23.094,10.19,26.724,22.312 c1.332,5.137,1.998,10.423,1.998,15.735C356.818,376.143,311.612,411.276,256,411.276z"></path><path style="fill:#B2B2B2;" d="M346.328,303.547c-4.504-3.08-9.199-5.861-14.07-8.325c-1.39-0.4-2.806-0.674-4.246-0.833 c-33.484-4.837-67.384-6.177-101.151-3.996c-8.733,3.189-17.108,7.293-24.976,12.238l99.902,99.902 c32.385-13.071,54.613-39.295,54.53-69.599c0-5.311-0.666-10.598-1.998-15.735C352.88,312.031,350.133,307.327,346.328,303.547z"></path><g><path style="fill:#818589;" d="M256,306.211c-23.402,0.05-46.771,1.773-69.932,5.162c-5.911,0.524-10.964,4.471-12.904,10.073 c-0.991,3.721-1.499,7.551-1.499,11.406c0,34.05,37.713,61.773,84.085,61.773s84.085-27.723,84.085-61.773 c0-3.855-0.508-7.684-1.499-11.406c-1.981-5.628-7.051-9.591-12.987-10.157C302.388,307.926,279.211,306.236,256,306.211z"></path><path style="fill:#818589;" d="M256,417.519c-58.984,0-106.979-37.988-106.979-84.667c0-5.844,0.741-11.664,2.198-17.3 c4.379-14.752,16.908-25.25,31.985-26.949c48.195-7.143,97.297-7.135,145.724,0.025c14.869,1.657,27.432,12.146,31.794,26.691 c1.523,5.903,2.256,11.73,2.256,17.541c0.042,19.248-7.884,37.38-22.919,52.449C319.638,405.781,288.993,417.519,256,417.519z M255.908,295.738c-23.768,0-47.52,1.748-71.097,5.245c-10.298,1.166-18.673,8.175-21.571,17.908 c-1.132,4.404-1.74,9.174-1.74,13.961c0,39.794,42.392,72.18,94.491,72.18c29.696,0,57.111-10.407,75.218-28.547 c12.646-12.663,19.298-27.748,19.264-43.616c0.008-4.787-0.591-9.549-1.798-14.194c-2.856-9.516-11.272-16.534-21.362-17.666 C303.587,297.495,279.735,295.738,255.908,295.738z"></path></g><path style="fill:#B0B0B1;" d="M181.073,264.585v34.133c0.008,4.737,2.04,9.249,5.578,12.405l2.747,2.414v35.549 c0,0,16.65,30.97,66.602,30.97s66.602-30.97,66.602-30.97v-35.049l2.747-2.414c3.563-3.172,5.595-7.717,5.578-12.488v-34.133 L181.073,264.585z"></path><path style="fill:#818589;" d="M259.455,384.302c-1.215,0-2.423-0.033-3.646-0.092c-23.868,1.174-47.728-9.349-63.43-27.856 c-4.645-5.778-7.151-12.954-7.151-20.264v-50.7h141.528v50.7c0.058,7.326-2.464,14.527-7.085,20.264 C304.444,374.27,282.691,384.302,259.455,384.302z M255.817,375.893c22.386,1.182,43.183-8.067,57.452-24.842 c3.347-4.154,5.212-9.491,5.17-14.919v-42.409H193.561v42.375c0,5.42,1.865,10.74,5.245,14.969 C212.776,367.527,234.105,376.926,255.817,375.893z"></path><path style="fill:#B0B0B1;" d="M181.073,264.585v34.133c0.008,4.737,2.04,9.249,5.578,12.405l38.712,34.466 c17.458,15.477,43.732,15.477,61.19,0l38.712-34.466c3.572-3.139,5.628-7.651,5.661-12.405v-34.133H181.073z"></path><g><path style="fill:#818589;" d="M255.958,361.341c-11.922,0-23.843-4.213-33.351-12.646l-38.721-34.475 c-4.421-3.938-6.96-9.582-6.968-15.502v-38.304h158.179v38.296c-0.042,5.969-2.614,11.622-7.076,15.535l-38.696,34.441 C279.81,357.128,267.88,361.341,255.958,361.341z M185.236,268.748v29.971c0,3.547,1.532,6.935,4.179,9.299l38.712,34.466 c15.868,14.053,39.794,14.061,55.662-0.008l38.712-34.458c2.689-2.373,4.238-5.761,4.263-9.324v-29.946H185.236z"></path><path style="fill:#818589;" d="M397.528,56.455c0-13.795-11.181-24.976-24.976-24.976H139.447 c-13.795,0-24.976,11.181-24.976,24.976v108.228c0,13.795,11.181,24.976,24.976,24.976v-16.65c-4.596,0-8.325-3.73-8.325-8.325 V56.455c0-4.596,3.73-8.325,8.325-8.325h233.106c4.595,0,8.325,3.73,8.325,8.325v108.228c0,4.596-3.73,8.325-8.325,8.325v16.65 c13.795,0,24.976-11.181,24.976-24.976V56.455z"></path><path style="fill:#818589;" d="M210.211,27.317h91.577c2.298,0,4.163,1.865,4.163,4.163v16.65c0,2.298-1.865,4.163-4.163,4.163 h-91.577c-2.298,0-4.163-1.865-4.163-4.163V31.48C206.049,29.182,207.914,27.317,210.211,27.317z"></path><path style="fill:#818589;" d="M131.122,64.781h-16.65c-2.298,0-4.163-1.865-4.163-4.163v-4.163 c0-16.093,13.046-29.138,29.138-29.138h4.163c2.298,0,4.163,1.865,4.163,4.163v16.65c0,2.298-1.865,4.163-4.163,4.163h-4.163 c-2.298,0-4.163,1.865-4.163,4.163v4.163C135.285,62.916,133.42,64.781,131.122,64.781z"></path></g><path style="fill:#C5C5C7;" d="M339.252,123.057c-4.013-19.314-16.143-35.965-33.301-45.705 c-10.065-5.803-16.376-16.442-16.65-28.056V35.642c0.058-8.891-6.011-16.642-14.652-18.732l-4.912-1.166 c-9.016-2.248-18.457-2.248-27.473,0l-4.912,1.166c-8.642,2.09-14.711,9.84-14.652,18.732v13.653 c-0.275,11.614-6.585,22.253-16.65,28.056c-17.158,9.74-29.288,26.391-33.301,45.705c-18.39,0-33.301,14.91-33.301,33.301v58.276 c0,18.39,14.91,33.301,33.301,33.301v11.489c0,8.617,3.413,16.875,9.491,22.978l30.054,30.054 c5.869,6.052,12.887,10.864,20.646,14.153c22.545,9.258,48.444,4.071,65.686-13.154l31.053-31.053 c6.111-6.086,9.549-14.353,9.574-22.978v-11.489c18.39,0,33.301-14.91,33.301-33.301v-58.276 C372.553,137.967,357.642,123.057,339.252,123.057z"></path><path style="fill:#DADADC;" d="M171.333,247.935c-18.39,0-33.301-14.91-33.301-33.301v-58.276c0-18.39,14.91-33.301,33.301-33.301 V247.935z"></path><g style="opacity:0.5;enable-background:new ;"><path style="fill:#C5C5C7;" d="M156.098,246.02c4.987,1.224,10.098,1.865,15.235,1.915V123.057 c-5.137,0.05-10.248,0.691-15.235,1.915V246.02z"></path></g><g><path style="fill:#DADADC;" d="M256,64.781c-65.936,0-83.252,49.951-83.252,58.276v136.367c0,8.617,3.413,16.875,9.491,22.978 l7.16,7.16V123.723c0.833-3.08,12.488-42.292,66.602-42.292c8.733,0.025,15.993-6.693,16.65-15.402 C267.139,65.197,261.57,64.781,256,64.781z"></path><polygon style="fill:#DADADC;" points="247.675,189.659 230.858,184.996 230.858,68.527 247.675,64.781 "></polygon></g><path style="fill:#C5C5C7;" d="M256,64.781c17.491-0.508,34.783,3.838,49.951,12.571c-10.065-5.803-16.376-16.442-16.65-28.056 V35.642c0.058-8.891-6.011-16.642-14.652-18.732l-4.912-1.166c-9.016-2.248-18.457-2.248-27.473,0l-4.912,1.166 c-8.642,2.09-14.711,9.84-14.652,18.732v13.653c-0.275,11.614-6.585,22.253-16.65,28.056C221.217,68.618,238.509,64.264,256,64.781z "></path><g style="opacity:0.5;enable-background:new ;"><path style="fill:#C5C5C7;" d="M339.252,123.057c0-7.16-12.654-44.956-58.276-55.529v258.081 c6.56-2.964,12.538-7.076,17.649-12.155l31.053-31.053c6.111-6.086,9.549-14.353,9.574-22.978v-11.489 c18.39,0,33.301-14.91,33.301-33.301v-58.276C372.553,137.967,357.642,123.057,339.252,123.057z"></path></g><g style="opacity:0.5;enable-background:new ;"><path style="fill:#C5C5C7;" d="M339.252,247.935c18.39,0,33.301-14.91,33.301-33.301v-58.276c0-18.39-14.91-33.301-33.301-33.301 V247.935z"></path></g><g><path style="fill:#818589;" d="M345.496,123.057h-12.488c0-6.485-15.293-52.033-77.008-52.033s-77.008,45.547-77.008,52.033 h-12.488c0-14.228,21.437-64.52,89.496-64.52C324.067,58.537,345.496,108.829,345.496,123.057z"></path><path style="fill:#818589;" d="M255.958,337.414c-8.533,0-17.15-1.64-25.392-5.028c-8.642-3.655-16.276-8.891-22.753-15.576 l-29.987-29.996c-7.301-7.326-11.322-17.05-11.322-27.39v-5.736c-18.848-3.005-33.301-19.373-33.301-39.054v-58.276 c0-20.122,15.102-36.781,34.575-39.237c5.495-19.697,18.74-36.298,36.906-46.022c7.151-4.054,11.714-11.822,11.772-20.189V35.642 c-0.075-11.805,7.917-22.02,19.431-24.801l4.937-1.174c9.915-2.473,20.463-2.473,30.42,0.017l4.845,1.149 c11.547,2.781,19.531,13.004,19.456,24.842v15.194c0.067,8.325,4.629,16.093,11.905,20.214 c18.091,9.641,31.344,26.274,36.789,46.038c19.464,2.456,34.558,19.115,34.558,39.228v58.276c0,19.681-14.453,36.048-33.301,39.054 v5.736c-0.033,10.373-4.079,20.097-11.414,27.398l-31.045,31.053C290.258,330.638,273.275,337.414,255.958,337.414z M172.748,129.301c-14.919,0-27.057,12.138-27.057,27.057v58.276c0,14.919,12.138,27.057,27.057,27.057h6.244v17.733 c0,6.91,2.797,13.687,7.667,18.565l30.046,30.046c5.378,5.545,11.639,9.84,18.673,12.821c20.197,8.292,43.324,3.663,58.834-11.822 l31.045-31.053c4.978-4.962,7.734-11.555,7.751-18.574v-17.716h6.244c14.919,0,27.057-12.138,27.057-27.057v-58.276 c0-14.919-12.138-27.057-27.057-27.057h-5.07l-1.041-4.97c-3.788-18.166-15.343-33.584-31.711-42.309 c-11.289-6.385-18.274-18.274-18.374-31.103V35.642c0.042-6.061-4.021-11.247-9.874-12.663l-4.887-1.166 c-8.067-2.006-16.517-2.006-24.518-0.017l-4.987,1.182c-5.828,1.407-9.89,6.594-9.849,12.621v15.36 c-0.092,12.862-7.085,24.759-18.232,31.07c-16.451,8.816-28.006,24.21-31.852,42.317l-1.049,4.945h-5.062V129.301z"></path><path style="fill:#818589;" d="M139.447,193.821c-16.093,0-29.138-13.046-29.138-29.138v-4.496c0-2.115,1.715-3.83,3.83-3.83 h21.146v8.325c0,2.298,1.865,4.163,4.163,4.163V193.821z"></path><path style="fill:#818589;" d="M372.553,193.821v-24.976c2.298,0,4.163-1.865,4.163-4.163v-8.325h20.813 c2.098,0.042,3.788,1.732,3.83,3.83v4.496C401.358,180.642,388.512,193.638,372.553,193.821z"></path></g><path style="fill:#C8C8C8;" d="M256,331.187c-13.795,0-24.976-11.181-24.976-24.976v-16.65h49.951v16.65 C280.976,320.006,269.795,331.187,256,331.187z"></path><path style="fill:#DADADC;" d="M256,289.561h-24.976v16.65c0,13.795,11.181,24.976,24.976,24.976V289.561z"></path><path style="fill:#818589;" d="M256,335.35c-16.068,0-29.138-13.071-29.138-29.138v-20.813h58.276v20.813 C285.138,322.279,272.068,335.35,256,335.35z M235.187,293.724v12.488c0,11.48,9.341,20.813,20.813,20.813 c11.472,0,20.813-9.333,20.813-20.813v-12.488H235.187z"></path><path style="fill:#C8C8C8;" d="M305.119,171.593c-1.499-1.49-3.913-1.49-5.411,0l0,0c-11.089,12.221-27.057,18.84-43.541,18.066 c-16.401,0.824-32.318-5.669-43.458-17.733c-1.499-1.49-3.913-1.49-5.411,0l0,0c-5.828,5.911-17.483,22.312-17.483,59.692 c0,0.749,41.626,24.976,41.626,58.276h49.951c0-33.301,41.626-57.527,41.626-58.276 C322.602,193.904,310.946,177.504,305.119,171.593z"></path><path style="fill:#DADADC;" d="M256,189.659c-16.401,0.824-32.318-5.669-43.458-17.733c-1.499-1.49-3.913-1.49-5.411,0l0,0 c-5.828,5.911-17.483,22.312-17.483,59.692c0,0.749,41.626,24.976,41.626,58.276h24.976L256,189.659z"></path><g><path style="fill:#818589;" d="M285.555,294.057h-58.276v-4.163c0-12.23-6.577-31.411-37.921-53.415 c-2.464-1.732-3.705-2.606-3.705-4.862c0-37.988,11.705-55.537,18.682-62.614c3.147-3.13,8.209-3.122,11.314-0.017 c10.456,11.306,25.15,17.35,40.311,16.517c15.618,0.708,30.362-5.37,40.669-16.709c3.238-3.247,8.3-3.272,11.439-0.15l0.025,0.025 c6.952,7.06,18.665,24.618,19.09,62.905c0,2.306-1.232,3.172-3.705,4.912c-31.344,21.995-37.921,41.185-37.921,53.414 L285.555,294.057L285.555,294.057z M235.412,285.731h42.001c1.748-19.215,15.61-38.055,41.276-56.062 c0.042-0.025,0.083-0.058,0.133-0.092c-0.783-34.533-11.472-49.643-16.401-54.796c-11.813,12.879-28.747,19.881-46.455,19.031 c-17.242,0.899-34.308-6.061-46.321-19.073c-4.204,4.97-15.243,19.956-15.66,54.813c0.05,0.033,0.1,0.067,0.158,0.108 C219.802,247.677,233.664,266.517,235.412,285.731z"></path><rect x="231.024" y="281.236" style="fill:#818589;" width="49.951" height="16.65"></rect><path style="fill:#818589;" d="M231.024,189.159c-2.298,0-4.163-1.865-4.163-4.163V68.527c0-2.298,1.865-4.163,4.163-4.163 s4.163,1.865,4.163,4.163v116.47C235.187,187.294,233.322,189.159,231.024,189.159z"></path><path style="fill:#818589;" d="M280.976,189.159c-2.298,0-4.163-1.865-4.163-4.163V68.527c0-2.298,1.865-4.163,4.163-4.163 s4.163,1.865,4.163,4.163v116.47C285.138,187.294,283.273,189.159,280.976,189.159z"></path><path style="fill:#818589;" d="M210.211,173.008c-2.298,0-4.163-1.865-4.163-4.163v-36.797c0-2.298,1.865-4.163,4.163-4.163 c2.298,0,4.163,1.865,4.163,4.163v36.797C214.374,171.143,212.509,173.008,210.211,173.008z"></path><path style="fill:#818589;" d="M302.455,173.008c-2.298,0-4.163-1.865-4.163-4.163v-36.797c0-2.298,1.865-4.163,4.163-4.163 s4.163,1.865,4.163,4.163v36.797C306.617,171.143,304.752,173.008,302.455,173.008z"></path><path style="fill:#818589;" d="M210.211,120.643c-2.298,0-4.163-1.865-4.163-4.163v-9.074c0-2.298,1.865-4.163,4.163-4.163 c2.298,0,4.163,1.865,4.163,4.163v9.074C214.374,118.778,212.509,120.643,210.211,120.643z"></path><path style="fill:#818589;" d="M302.455,120.643c-2.298,0-4.163-1.865-4.163-4.163v-9.074c0-2.298,1.865-4.163,4.163-4.163 s4.163,1.865,4.163,4.163v9.074C306.617,118.778,304.752,120.643,302.455,120.643z"></path><path style="fill:#818589;" d="M201.886,306.211c-2.298,0-4.163-1.865-4.163-4.163v-58.276c0-2.298,1.865-4.163,4.163-4.163 s4.163,1.865,4.163,4.163v58.276C206.049,304.347,204.184,306.211,201.886,306.211z"></path><path style="fill:#818589;" d="M310.78,306.211c-2.298,0-4.163-1.865-4.163-4.163v-58.276c0-2.298,1.865-4.163,4.163-4.163 s4.163,1.865,4.163,4.163v58.276C314.942,304.347,313.078,306.211,310.78,306.211z"></path><rect x="166.504" y="123.057" style="fill:#818589;" width="12.488" height="124.878"></rect><rect x="333.008" y="123.057" style="fill:#818589;" width="12.488" height="124.878"></rect></g><g><path style="fill:#303335;" d="M218.537,189.659c-9.191,0.225-16.459,7.867-16.234,17.058v0.008c0.1,3.68,1.415,7.218,3.746,10.074 c-3.447,0.183-6.086,3.122-5.903,6.569c0.183,3.447,3.122,6.086,6.569,5.903c3.347-0.175,5.953-2.964,5.911-6.311 c0.083-0.441,0.083-0.891,0-1.332c8.6,3.255,18.216-1.074,21.471-9.674c3.08-8.134-0.616-17.266-8.483-20.963 C223.39,190.008,220.968,189.559,218.537,189.659z"></path><path style="fill:#303335;" d="M305.951,216.799c5.761-7.168,4.629-17.649-2.531-23.41s-17.649-4.629-23.41,2.531 s-4.629,17.649,2.531,23.41c4.829,3.88,11.406,4.77,17.083,2.298c-0.083,0.441-0.083,0.891,0,1.332 c-0.042,3.447,2.722,6.277,6.169,6.319c3.447,0.042,6.277-2.722,6.319-6.169c0.042-3.347-2.564-6.127-5.911-6.311L305.951,216.799 L305.951,216.799z"></path></g><path style="fill:#C5C5C7;" d="M256,31.48c8.142,0,14.736,6.594,14.736,14.736l0,0c0,0.666,0,1.249,0,1.915l-5.245,41.626 c-0.491,5.17-5.078,8.966-10.248,8.483c-4.496-0.425-8.059-3.988-8.483-8.483l-5.245-41.626c-1.082-8.084,4.571-15.535,12.654-16.65 L256,31.48z"></path><g><path style="fill:#818589;" d="M256.133,102.435c-0.425,0-0.857-0.017-1.282-0.058c-6.477-0.608-11.622-5.753-12.23-12.23 l-5.237-41.493c-1.382-10.298,5.894-19.864,16.217-21.296l2.406-0.042c10.415,0,18.898,8.483,18.898,18.898v1.915l-5.27,42.151 C268.971,97.174,263.051,102.435,256.133,102.435z M254.169,35.642c-5.22,0.766-9.308,6.136-8.525,11.938l5.253,41.659 c0.25,2.631,2.239,4.62,4.737,4.854c2.922,0.175,5.453-1.857,5.719-4.729l5.253-41.759l-0.033-1.39 c0-5.828-4.745-10.573-10.573-10.573H254.169z"></path><rect x="239.35" y="44.967" style="fill:#818589;" width="33.301" height="8.325"></rect><rect x="243.512" y="61.617" style="fill:#818589;" width="24.976" height="8.325"></rect><rect x="245.594" y="78.267" style="fill:#818589;" width="20.813" height="8.325"></rect><path style="fill:#818589;" d="M397.528,64.781h-16.65c-2.298,0-4.163-1.865-4.163-4.163v-4.163c0-2.298-1.865-4.163-4.163-4.163 h-4.163c-2.298,0-4.163-1.865-4.163-4.163V31.48c0-2.298,1.865-4.163,4.163-4.163h4.163c16.093,0,29.138,13.046,29.138,29.138 v4.163C401.691,62.916,399.826,64.781,397.528,64.781z"></path></g><path style="fill:#C5C5C7;" d="M321.436,493.445c6.893-36.14-16.809-71.031-52.948-77.924c-36.14-6.893-71.031,16.809-77.924,52.948 l0,0c-1.607,8.25-1.607,16.725,0,24.976c21.912,2.914,43.99,4.412,66.102,4.496C278.328,497.774,299.957,496.268,321.436,493.445z"></path><g><path style="fill:#818589;" d="M256.666,502.012c-11.547,0-23.785-0.541-39.695-1.757c-1.59-0.125-2.964-1.149-3.555-2.622 c-4.287-10.848-4.296-22.803,0-33.659c4.496-11.372,13.154-20.313,24.368-25.175c11.231-4.87,23.66-5.053,35.041-0.566 c11.372,4.496,20.314,13.145,25.184,24.376c4.862,11.222,5.062,23.66,0.566,35.032c-0.574,1.474-1.94,2.481-3.513,2.614 C281.084,501.454,268.871,502.012,256.666,502.012z M220.293,492.155c14.394,1.066,25.7,1.54,36.373,1.54 c11.189,0,22.378-0.483,35.032-1.515c2.764-8.633,2.314-17.866-1.324-26.266c-3.979-9.191-11.289-16.267-20.605-19.947 c-9.308-3.671-19.481-3.505-28.672,0.466c-9.183,3.988-16.267,11.297-19.947,20.605 C217.971,475.121,217.679,483.946,220.293,492.155z"></path><path style="fill:#818589;" d="M256.716,504.185c-22.345-0.083-44.856-1.607-66.968-4.554c-2.656-0.35-4.795-2.364-5.311-4.995 c-1.765-9.083-1.765-18.29,0-27.365c3.646-19.098,14.519-35.649,30.62-46.588c16.093-10.931,35.482-14.96,54.605-11.297 c39.461,7.526,65.436,45.755,57.91,85.225c-0.508,2.639-2.639,4.67-5.32,5.02C300.648,502.486,278.595,504.018,256.716,504.185z M196,487.842c20.105,2.489,40.494,3.78,60.691,3.855c19.739-0.158,39.686-1.457,59.292-3.855 c3.596-31.086-17.45-60.233-48.669-66.194c-15.826-3.005-31.911,0.3-45.247,9.366c-13.337,9.066-22.353,22.778-25.367,38.629 C195.517,475.688,195.293,481.79,196,487.842z"></path></g><path style="fill:#C5C5C7;" d="M422.504,448.572V321.197c0-7.726,6.261-13.986,13.986-13.986l0,0h2.081 c67.184,9.907,67.184,82.086,67.184,82.086v36.298c0.008,5.545-3.255,10.573-8.325,12.821 c-18.898,8.325-37.297,16.068-55.862,23.144c-7.218,2.756-15.302-0.858-18.057-8.075c-0.033-0.083-0.067-0.167-0.092-0.25 C422.862,451.736,422.546,450.163,422.504,448.572z"></path><path style="fill:#818589;" d="M436.599,468.719c-8.15,0-15.843-4.962-18.915-13.012c-0.907-2.414-1.349-4.662-1.424-6.952 c0-0.058,0-0.125,0-0.183V321.197c0-11.156,9.074-20.23,20.23-20.23h2.081c0.3,0,0.608,0.025,0.907,0.067 C511.168,311.598,512,388.523,512,389.289v36.298c0.025,8.001-4.704,15.285-12.038,18.532c-21.288,9.382-39.12,16.775-56.162,23.277 C441.427,468.303,438.996,468.719,436.599,468.719z M428.748,448.464c0.033,0.882,0.208,1.757,0.525,2.581 c1.598,4.204,6.094,6.194,10.073,4.687c16.834-6.427,34.5-13.745,55.571-23.036c2.806-1.232,4.612-4.021,4.604-7.093v-36.315 c-0.008-2.714-0.907-66.61-61.407-75.834h-1.623c-4.271,0-7.742,3.472-7.742,7.742V448.464z"></path><path style="fill:#C5C5C7;" d="M89.496,448.572V321.197c0-7.726-6.261-13.986-13.986-13.986l0,0h-2.081 C6.244,317.284,6.244,389.464,6.244,389.464v36.131c-0.008,5.545,3.255,10.573,8.325,12.821 c18.898,8.325,37.297,16.068,55.862,23.144c7.218,2.756,15.302-0.858,18.057-8.075c0.033-0.083,0.067-0.167,0.092-0.25 C89.138,451.736,89.454,450.163,89.496,448.572z"></path><path style="fill:#DADADC;" d="M77.008,306.877c-70.681,7.659-70.681,82.586-70.681,82.586v45.289l16.65,7.243 c0-57.444,0-52.449,0-54.364c19.481-20.98,66.602-31.469,66.602-31.469v-37.713c0.666-5.803-3.497-11.039-9.299-11.705 C79.189,306.611,78.082,306.661,77.008,306.877z"></path><path style="fill:#818589;" d="M75.426,468.736c-2.439,0-4.879-0.45-7.226-1.349c-16.983-6.469-34.824-13.861-56.153-23.261 C4.712,440.88-0.017,433.604,0,425.578v-36.115c0-0.774,0.833-77.682,72.496-88.43c0.308-0.042,0.616-0.067,0.924-0.067h2.081 c11.156,0,20.23,9.074,20.23,20.23v127.376c0,0.058,0,0.117,0,0.175c-0.058,2.281-0.508,4.537-1.307,6.685 c-2.031,5.328-5.811,9.324-10.748,11.53C81.038,468.145,78.232,468.736,75.426,468.736z M73.895,313.454 c-60.699,9.424-61.407,73.287-61.407,76.009v36.131c-0.008,3.08,1.798,5.869,4.604,7.11c21.129,9.299,38.779,16.617,55.562,23.019 c1.931,0.749,4.038,0.683,5.928-0.167c1.89-0.849,3.33-2.373,4.071-4.312c0.391-1.032,0.566-1.906,0.599-2.781V321.197 c0-4.271-3.472-7.742-7.742-7.742H73.895z"></path></svg>