<!-- icon666.com - MILLIONS vector ICONS FREE --><svg version="1.1" id="Capa_1" xmlns="http://www.w3.org/2000/svg" xmlns:xlink="http://www.w3.org/1999/xlink" x="0px" y="0px" viewBox="0 0 511.996 511.996" style="enable-background:new 0 0 511.996 511.996;" xml:space="preserve"><path style="fill:#565656;" d="M139.914,319.096c-0.052-18.946,8.324-36.942,22.873-49.089c9.557-8.178,10.664-22.55,2.486-32.106 c-4.71-5.504-11.761-8.439-18.988-7.896h-1.149c-35.188,4.512-60.056,36.702-55.533,71.89c4.105,32.002,31.313,55.993,63.576,56.056 C144.583,346.816,139.914,333.155,139.914,319.096z"></path><g><path style="fill:#333333;" d="M153.597,357.95c-20.952-27.208-16.722-66.103,9.609-88.152c8.23-6.778,10.434-18.476,5.222-27.782 h-0.731c-35.229,3.666-60.808,35.198-57.142,70.427c0,0.021,0,0.052,0.01,0.073c1.682,16.596,9.818,31.866,22.665,42.509 c6.549,2.068,13.39,3.05,20.262,2.924H153.597z"></path><path style="fill:#333333;" d="M153.179,365.773h-0.01c-36.075-0.073-66.74-27.114-71.336-62.886 c-5.055-39.418,22.894-75.597,62.312-80.663l2.152-0.063c9.034-0.689,18.612,3.259,24.941,10.632 c10.977,12.826,9.473,32.19-3.342,43.146c-12.868,10.747-20.189,26.445-20.137,43.125c0,0,0,0.01,0,0.021 c0,12.262,4.136,24.357,11.635,34.07c1.828,2.371,2.152,5.556,0.825,8.241S156.155,365.773,153.179,365.773z M147.967,237.775 c-0.366,0-0.731,0.01-1.097,0.042l-1.744,0.021c-29.85,3.896-51.721,32.211-47.763,63.053c2.935,22.894,19.5,41.214,40.88,47.178 c-4.021-9.087-6.162-18.978-6.162-28.963c-0.052-21.338,9.306-41.423,25.683-55.095c6.183-5.295,6.925-14.748,1.567-21.004 C156.49,239.676,152.301,237.775,147.967,237.775z"></path></g><path style="fill:#565656;" d="M369.067,319.096c0.01-18.967-8.408-36.953-22.978-49.089c-9.515-8.241-10.591-22.612-2.402-32.169 c4.773-5.431,11.802-8.324,19.009-7.833h1.044c35.188,4.512,60.056,36.692,55.544,71.879c-4.105,31.971-31.25,55.941-63.482,56.066 C364.356,346.795,369.014,333.144,369.067,319.096z"></path><g><path style="fill:#333333;" d="M355.802,357.95c20.879-27.25,16.596-66.103-9.713-88.152c-8.157-6.82-10.35-18.466-5.222-27.782 h0.731c35.229,3.614,60.86,35.104,57.246,70.333c-1.702,16.638-9.849,31.95-22.675,42.676 C369.578,357.083,362.706,358.075,355.802,357.95z"></path><path style="fill:#333333;" d="M355.802,365.773c-2.977,0-5.703-1.682-7.019-4.355c-1.326-2.674-1.024-5.88,0.804-8.241 c7.457-9.745,11.593-21.85,11.635-34.122c0.01-16.68-7.332-32.368-20.158-43.042c-12.847-11.123-14.288-30.498-3.332-43.292 c6.392-7.28,15.813-11.207,25.495-10.549c0.157,0.01,1.347,0.021,1.504,0.042c19.093,2.454,36.086,12.189,47.857,27.417 c11.771,15.228,16.899,34.143,14.455,53.236c-4.585,35.731-35.198,62.771-71.211,62.886 C355.823,365.773,355.813,365.773,355.802,365.773z M361.735,237.744c-4.909,0-9.223,1.911-12.157,5.254 c-5.306,6.194-4.585,15.677,1.64,21.087c16.304,13.567,25.704,33.663,25.683,55.022c0,0,0,0.01,0,0.021 c-0.042,9.954-2.183,19.834-6.194,28.91c21.328-5.974,37.872-24.283,40.796-47.146c1.922-14.946-2.089-29.736-11.301-41.663 c-9.212-11.917-22.518-19.542-37.464-21.453C362.403,237.755,362.069,237.744,361.735,237.744z M369.067,319.096h0.104H369.067z"></path></g><path style="fill:#9B8068;" d="M495.967,433.673c-4.355-21.996-20.983-39.512-42.718-45.016l-44.702-11.176 c-49.632-12.408-100.601-18.696-151.759-18.696h-0.94c-51.157-0.01-102.126,6.267-151.759,18.696l-44.702,11.071 c-21.735,5.536-38.384,23.03-42.822,45.016l-3.133,19.113l0.94,0.627c76.214,33.6,158.61,50.896,241.895,50.76 c83.243,0.125,165.598-17.129,241.79-50.656h0.522L495.967,433.673z"></path><path style="fill:#8C735A;" d="M453.249,415.604l-44.702-11.176c-49.632-12.377-100.601-18.623-151.759-18.591h-0.94 c-51.157-0.042-102.126,6.204-151.759,18.591l-44.702,11.176c-19.709,4.982-35.355,19.928-41.256,39.376 c75.169,32.556,156.218,49.298,238.135,49.194c82.115,0.167,163.383-16.544,238.761-49.089 C489.043,435.469,473.167,420.46,453.249,415.604z"></path><path style="fill:#EDCCC3;" d="M193.599,290.061v89.614c14.09,29.234,35.72,54.186,62.667,72.276 c26.968-18.059,48.609-43.021,62.667-72.276v-89.614L193.599,290.061L193.599,290.061z"></path><g><path style="fill:#E5C2BA;" d="M193.599,290.061v36.556l50.76,51.491c7.854,8.554,12.283,19.719,12.429,31.334v42.405 c26.968-18.059,48.609-43.021,62.667-72.276v-89.509L193.599,290.061L193.599,290.061z"></path><path style="fill:#E5C2BA;" d="M256.266,247.552L256.266,247.552C256.266,247.552,256.162,247.447,256.266,247.552z"></path></g><path style="fill:#EDCCC3;" d="M256.266,347.297c17.693,2.308,35.365-4.439,47-17.965c29.14-30.289,52.223-47,52.223-78.334v-15.667 c20.889,0,28.827-21.411,31.334-41.778c2.924-23.918-2.82-41.778-20.889-41.778v-20.889c0-56.505-25.693-104.445-109.667-104.445 s-109.667,47.94-109.667,104.445v20.889c-18.069,0-23.813,17.86-20.889,41.778c2.507,20.367,10.445,41.778,31.334,41.778v15.667 c0,31.334,23.082,48.045,52.223,78.334C220.911,342.837,238.573,349.584,256.266,347.297"></path><path style="fill:#E5C2BA;" d="M365.933,151.775v-20.889c0-56.505-25.693-104.445-109.667-104.445c-4.7,0-9.296,0-13.682,0 c-20.889,77.185-36.869,168.888-35.825,237.508c0,16.293,1.253,40.211,3.133,65.487c11.646,13.077,29.004,19.563,46.374,17.338 c17.693,2.308,35.365-4.439,47-17.965c29.14-30.289,52.223-47,52.223-78.334v-15.667c20.889,0,28.827-21.411,31.334-41.778 C389.747,169.636,384.002,151.775,365.933,151.775z"></path><g><path style="fill:#333333;" d="M263.201,355.579c-2.319,0-4.648-0.136-6.977-0.397c-19.918,2.047-39.564-5.682-52.818-20.67 c-3.394-3.384-7.029-6.946-10.559-10.392c-23.406-22.884-43.627-42.655-43.627-73.122v-8.711 c-12.095-2.799-27.041-13.453-31.271-47.773c-2.298-18.748,0.522-33.203,8.136-41.799c3.405-3.844,7.708-6.476,12.69-7.792v-14.037 c0-51.22,20.388-112.278,117.501-112.278s117.501,61.059,117.501,112.278v14.037c4.992,1.316,9.306,3.948,12.701,7.802 c7.614,8.596,10.424,23.051,8.126,41.788c-4.22,34.321-19.176,44.974-31.271,47.773v8.711c0,29.36-17.881,47.167-40.525,69.717 c-4.418,4.397-9.066,9.024-13.891,14.048C297.511,348.017,280.779,355.579,263.201,355.579z M256.266,339.463 c0.334,0,0.679,0.021,1.013,0.063c15.092,2.026,30.101-3.739,40.055-15.312c5.191-5.421,9.922-10.131,14.413-14.591 c21.62-21.547,35.908-35.772,35.908-58.625v-15.667c0-4.324,3.509-7.833,7.833-7.833c15.917,0,21.589-18.978,23.563-34.906 c1.682-13.745,0.115-24.503-4.314-29.495c-2.11-2.381-4.909-3.488-8.805-3.488c-4.324,0-7.833-3.509-7.833-7.833v-20.889 c0-64.108-34.258-96.612-101.834-96.612s-101.834,32.503-101.834,96.612v20.889c0,4.324-3.509,7.833-7.833,7.833 c-3.896,0-6.695,1.107-8.794,3.488c-4.418,5.003-5.995,15.75-4.314,29.506c1.964,15.907,7.635,34.895,23.552,34.895 c4.324,0,7.833,3.509,7.833,7.833v15.667c0,23.887,16.325,39.835,38.916,61.925c3.572,3.488,7.259,7.102,11.019,10.873 c10.403,11.74,25.464,17.547,40.546,15.719C255.66,339.484,255.963,339.463,256.266,339.463z"></path><circle style="fill:#333333;" cx="303.308" cy="201.387" r="7.833"></circle><circle style="fill:#333333;" cx="209.308" cy="201.387" r="7.833"></circle><rect x="185.766" y="310.741" style="fill:#333333;" width="15.667" height="52.327"></rect><rect x="311.1" y="310.741" style="fill:#333333;" width="15.667" height="52.327"></rect><path style="fill:#333333;" d="M160.803,235.331c0.731,6.684,0.94,14.205,1.88,20.158c0.888,6.152,2.872,12.095,5.849,17.547 c6.747,11.082,15.124,21.077,24.858,29.662c4.909,4.596,9.713,9.504,14.413,14.622l6.998,7.52c2.099,2.36,4.324,4.585,6.684,6.684 c4.491,4.136,9.786,7.311,15.562,9.296c6.267,1.755,12.711,2.768,19.218,3.029v7.102c-7.196,1.149-14.528,1.149-21.725,0 c-7.51-1.588-14.612-4.679-20.889-9.087c-3.102-2.068-6.037-4.366-8.773-6.893l-7.729-6.893 c-5.118-4.596-10.445-9.191-14.936-14.309c-10.424-10.163-18.978-22.08-25.276-35.198c-2.935-7.029-4.564-14.528-4.804-22.142 c0-7.729,0.94-13.891,1.358-20.889L160.803,235.331z"></path></g><circle style="fill:#DAE4E8;" cx="148.792" cy="241.368" r="8.251"></circle><circle style="fill:#EAF2F4;" cx="146.327" cy="238.883" r="3.029"></circle><path style="fill:#333333;" d="M148.792,252.241c-5.985,0-10.862-4.867-10.862-10.862c0-5.995,4.878-10.862,10.862-10.862 c5.985,0,10.862,4.878,10.862,10.862C159.654,247.364,154.777,252.241,148.792,252.241z M148.792,235.749 c-3.112,0-5.64,2.528-5.64,5.64c0,3.102,2.528,5.64,5.64,5.64c3.112,0,5.64-2.528,5.64-5.64 C154.432,238.277,151.905,235.749,148.792,235.749z"></path><circle style="fill:#DAE4E8;" cx="363.74" cy="241.368" r="8.251"></circle><circle style="fill:#EAF2F4;" cx="361.233" cy="238.883" r="3.029"></circle><g><path style="fill:#333333;" d="M363.74,252.241c-5.985,0-10.862-4.867-10.862-10.862c0-5.995,4.878-10.862,10.862-10.862 c5.985,0,10.862,4.878,10.862,10.862C374.602,247.364,369.725,252.241,363.74,252.241z M363.74,235.749 c-3.112,0-5.64,2.528-5.64,5.64c0,3.102,2.528,5.64,5.64,5.64c3.112,0,5.64-2.528,5.64-5.64 C369.38,238.277,366.852,235.749,363.74,235.749z"></path><path style="fill:#333333;" d="M256.266,7.955c-89.927,0-129.93,74.26-129.93,115.412c0,35.929,30.707,45.225,30.707,73.112V164.1 c81.676,0,108.727-12.847,129.616-39.376c2.392-2.883,6.674-3.28,9.557-0.888c0.324,0.272,0.616,0.564,0.888,0.888 c10.444,14.831,26.738,27.573,58.071,38.018v33.318c0-22.873,30.707-36.765,30.707-73.112 C386.196,82.215,346.193,7.955,256.266,7.955z"></path><path style="fill:#333333;" d="M153.492,196.06l-1.462-31.96c-0.115-2.59,1.89-4.794,4.481-4.909h0.01h0.522 c12.429-1.044,24.649-1.044,37.078-2.716c12.137-1.044,24.179-2.966,36.034-5.744c11.165-2.59,21.777-7.154,31.334-13.473 c9.598-6.674,17.933-14.977,24.649-24.545l0,0c2.444-3.28,7.092-3.958,10.382-1.514c0.021,0.021,0.042,0.031,0.063,0.052 c0.825,0.637,1.535,1.41,2.089,2.298c5.891,10.841,14.173,20.2,24.231,27.365c10.549,7.269,22.038,13.066,34.154,17.233l0,0 c1.932,0.752,3.186,2.632,3.133,4.7c0,11.176-0.94,22.247-1.462,33.318c0,1.901-1.535,3.447-3.436,3.457 c-0.073,0-0.146,0-0.219-0.01c-1.859-0.104-3.342-1.588-3.447-3.447c0-11.071-1.253-22.142-1.567-33.318l3.551,4.804 c-13.379-3.687-26.205-9.17-38.122-16.293c-11.98-7.75-22.017-18.153-29.349-30.394h12.742 c-7.134,11.541-16.638,21.443-27.887,29.036c-11.426,7.123-24.127,11.98-37.391,14.309c-25.14,4.261-50.677,5.724-76.14,4.387 l4.909-5.013l-1.567,32.378c0,1.901-1.535,3.447-3.436,3.457c-0.073,0-0.146,0-0.219-0.01 C155.205,199.507,153.607,197.992,153.492,196.06z"></path></g><path style="fill:#4C4A4A;" d="M256.266,7.955c-89.927,0-129.93,74.26-129.93,115.412c0,27.573,18.173,39.48,26.529,56.087 c0-3.656,0-6.998,0-8.982C123.83,60.282,236.421,8.268,315.904,20.697C297.229,12.028,276.852,7.673,256.266,7.955z"></path><g><path style="fill:#333333;" d="M351.938,196.06c0.052-6.35,1.744-12.565,4.909-18.069c2.841-5.066,5.943-9.985,9.296-14.727 c6.538-8.585,11.291-18.382,13.996-28.827c2.298-21.349-3.071-42.822-15.145-60.578c-11.28-18.497-27.333-33.61-46.478-43.762 c-39.021-19.364-84.851-19.364-123.872,0c-19.228,10.392-35.313,25.756-46.582,44.494c-12.105,17.703-17.515,39.146-15.249,60.474 c2.684,10.361,7.645,19.991,14.518,28.2c8.032,9.118,12.774,20.659,13.473,32.796l0,0c0,1.901-1.535,3.447-3.436,3.457 c-0.073,0-0.146,0-0.219-0.01c-1.922-0.052-3.447-1.629-3.447-3.551c0-20.889-25.276-33.631-30.811-59.116 c-2.517-12.022-2.193-24.471,0.94-36.347c2.893-11.573,7.395-22.675,13.369-33.005c11.823-20.993,29.161-38.373,50.134-50.238 C208.451,5.584,232.244-0.359,256.37,0.017c24.095-0.209,47.836,5.797,68.934,17.442c20.889,11.844,38.206,29.088,50.134,49.925 c5.985,10.33,10.518,21.432,13.473,33.005c3.269,12.032,3.635,24.67,1.044,36.869c-3.332,11.468-8.993,22.132-16.607,31.334 c-7.249,7.604-12.147,17.15-14.1,27.469c-0.052,1.974-1.682,3.551-3.656,3.551C353.64,199.559,352.042,198.013,351.938,196.06z"></path><path style="fill:#333333;" d="M255.953,511.996c-4.324,0-7.833-3.509-7.833-7.833v-51.168c0-4.324,3.509-7.833,7.833-7.833 c4.324,0,7.833,3.509,7.833,7.833v51.168C263.786,508.497,260.277,511.996,255.953,511.996z"></path><path style="fill:#333333;" d="M257.237,511.996c-0.658-0.01-1.306,0-1.974,0c-84.548,0-166.663-17.296-244.057-51.429 c-0.407-0.188-0.794-0.397-1.17-0.648l-0.94-0.627c-2.58-1.713-3.917-4.784-3.394-7.833l0.595-3.708 c2.81-18.069,8.658-55.69,51.126-66.688c37.109-10.392,75.42-18.581,113.709-24.304l2.319,15.5 c-37.652,5.619-75.315,13.672-111.955,23.928c-31.49,8.157-36.556,33.934-39.407,52.014 c74.052,31.929,152.479,48.107,233.205,48.107c0.627-0.01,1.274,0,1.922,0c80.632,0,158.955-16.116,232.975-47.94 c-2.277-20.67-9.254-44.274-38.843-51.721c-47.042-11.74-65.289-15.823-113.292-24.221l2.695-15.427 c48.494,8.491,66.908,12.596,114.399,24.451c45.622,11.489,49.601,54.176,50.906,68.192c0.115,1.128,0.198,2.089,0.282,2.83 c0.292,2.235-0.386,4.491-1.88,6.183c-1.159,1.337-2.747,2.225-4.47,2.538C422.96,494.919,341.295,511.996,257.237,511.996z"></path></g><path style="fill:#9B8068;" d="M318.933,342.283l26.111,20.889v88.778l-52.223-31.334 C308.28,399.415,314.651,374.034,318.933,342.283z"></path><g><path style="fill:#333333;" d="M260.35,458.019l-8.157-12.137c36.859-24.774,53.539-54.061,59.481-104.455l14.528,1.713 C319.769,397.608,300.686,430.894,260.35,458.019z"></path><path style="fill:#333333;" d="M345.044,459.773c-1.4,0-2.799-0.376-4.032-1.107l-52.223-31.333l8.053-13.442l40.358,24.221 v-71.179l-23.176-18.529l9.797-12.241l26.111,20.889c1.859,1.494,2.935,3.739,2.935,6.12v88.778c0,2.83-1.525,5.431-3.979,6.81 C347.708,459.439,346.371,459.773,345.044,459.773z"></path></g><path style="fill:#9B8068;" d="M193.599,342.283l-26.111,20.889v88.778l52.223-31.334 C204.357,399.415,197.881,374.034,193.599,342.283z"></path><g><path style="fill:#333333;" d="M252.182,458.019c-40.222-27.03-59.293-60.307-65.842-114.869l14.518-1.734 c6.058,50.478,22.738,79.775,59.492,104.466L252.182,458.019z"></path><path style="fill:#333333;" d="M167.488,459.773c-1.326,0-2.663-0.334-3.864-1.024c-2.454-1.389-3.969-3.99-3.969-6.81v-88.778 c0-2.381,1.086-4.627,2.935-6.12l26.111-20.889l9.797,12.241l-23.176,18.529v71.179l40.358-24.221l8.053,13.442l-52.223,31.334 C170.276,459.397,168.887,459.773,167.488,459.773z"></path><path style="fill:#333333;" d="M136.154,464.996c-4.324,0-7.833-3.509-7.833-7.833v-94.001c0-4.324,3.509-7.833,7.833-7.833 s7.833,3.509,7.833,7.833v94.001C143.988,461.497,140.478,464.996,136.154,464.996z"></path><path style="fill:#333333;" d="M376.378,464.996c-4.324,0-7.833-3.509-7.833-7.833v-94.001c0-4.324,3.509-7.833,7.833-7.833 c4.324,0,7.833,3.509,7.833,7.833v94.001C384.211,461.497,380.702,464.996,376.378,464.996z"></path></g><path style="fill:#4C4A48;" d="M256.266,504.173c50.301,0.042,100.413-6.235,149.147-18.696 c-4.669-6.841-8.199-14.382-10.444-22.351c-2.705-10.737-12.325-18.288-23.396-18.382H139.914 c-11.082,0.052-20.722,7.624-23.396,18.382c-2.058,7.896-5.368,15.406-9.818,22.247 C155.571,497.854,205.819,504.173,256.266,504.173z"></path><g><path style="fill:#333333;" d="M256.266,504.173c50.301,0.052,100.413-6.235,149.147-18.696c-2.162-3.321-4.042-6.82-5.64-10.445 c-6.11-2.998-12.836-4.502-19.636-4.387H175.634c-15.479-0.073-29.788,8.241-37.391,21.725 C177.097,500.173,216.629,504.131,256.266,504.173z"></path><path style="fill:#333333;" d="M256.746,511.996c-0.209,0-0.418,0-0.606,0c-50.99,0-101.917-6.402-151.383-19.04 c-2.444-0.627-4.439-2.392-5.358-4.742c-0.919-2.35-0.648-5.003,0.731-7.113c4-6.162,6.966-12.868,8.805-19.949 c3.509-14.173,16.252-24.169,30.937-24.242h231.701c14.685,0.125,27.406,10.11,30.999,24.294 c1.964,6.946,5.107,13.703,9.316,19.845c1.441,2.099,1.765,4.784,0.867,7.186c-0.909,2.392-2.914,4.188-5.4,4.825 C358.173,505.625,307.507,511.996,256.746,511.996z M256.266,496.329L256.266,496.329c0.167,0,0.334,0,0.48,0 c45.966,0,91.849-5.368,136.572-15.949c-2.434-4.836-4.408-9.891-5.88-15.134c-1.901-7.478-8.429-12.607-15.917-12.669H139.914 c-7.468,0.031-13.975,5.149-15.792,12.429c-1.379,5.274-3.238,10.361-5.567,15.207c45.068,10.695,91.306,16.116,137.585,16.116 C256.182,496.329,256.224,496.329,256.266,496.329z"></path><path style="fill:#333333;" d="M278.095,295.074h-41.778c-2.883,0-5.222-2.34-5.222-5.222c0-2.883,2.34-5.222,5.222-5.222h41.778 c2.883,0,5.222,2.34,5.222,5.222C283.317,292.734,280.978,295.074,278.095,295.074z"></path><path style="fill:#333333;" d="M264.517,311.994h-13.578c-2.883,0-5.222-2.34-5.222-5.222c0-2.883,2.34-5.222,5.222-5.222h13.578 c2.883,0,5.222,2.34,5.222,5.222C269.739,309.655,267.4,311.994,264.517,311.994z"></path><path style="fill:#333333;" d="M257.279,268.43c-3.75,0-7.551-0.616-11.165-1.838l-11.176-3.05 c-2.778-0.752-4.418-3.624-3.666-6.413c0.752-2.789,3.645-4.408,6.413-3.666l11.489,3.133c5.285,1.786,10.768,1.796,15.74,0.094 l11.792-3.238c2.82-0.742,5.661,0.888,6.413,3.666c0.752,2.789-0.877,5.661-3.666,6.413l-11.489,3.144 C264.601,267.856,260.956,268.43,257.279,268.43z"></path></g></svg>