<!-- icon666.com - MILLIONS vector ICONS FREE --><svg version="1.1" id="Capa_1" xmlns="http://www.w3.org/2000/svg" xmlns:xlink="http://www.w3.org/1999/xlink" x="0px" y="0px" viewBox="0 0 511.999 511.999" style="enable-background:new 0 0 511.999 511.999;" xml:space="preserve"><path style="fill:#494847;" d="M493.172,432.173c-3.895-20.844-20.205-37.154-41.049-41.049 c-12.132-3.101-42.965-10.582-77.537-18.244c-78.057-17.815-159.115-17.815-237.172,0c-33.387,7.663-63.854,14.96-77.72,18.244 c-20.771,3.959-36.999,20.26-40.867,41.049l-4.561,22.805c76.269,33.469,158.714,50.563,242.007,50.171 c83.101,0.31,165.355-16.784,241.46-50.171L493.172,432.173z"></path><g><path style="fill:#333333;" d="M495.908,445.856c-6.513-17.177-21.464-29.738-39.498-33.204 c-12.406-3.102-43.877-10.764-79.179-18.244c-79.644-18.308-162.372-18.49-242.098-0.547 c-34.025,7.936-65.587,15.325-79.361,18.791c-17.934,3.548-32.766,16.1-39.225,33.204l-1.824,9.122 c76.132,33.414,158.413,50.499,241.551,50.171c83.102,0.31,165.355-16.784,241.46-50.171L495.908,445.856z"></path><path style="fill:#333333;" d="M228.36,308.843h55.188c52.296-0.055,94.723,42.299,94.778,94.595c0,0.027,0,0.064,0,0.091v2.737 c0,2.518-2.043,4.561-4.561,4.561h-235.53c-2.518,0-4.561-2.043-4.561-4.561v-2.737 C133.674,351.233,176.063,308.843,228.36,308.843L228.36,308.843z"></path></g><path style="fill:#494847;" d="M283.639,308.843H228.36c-52.233,0.146-94.54,42.454-94.686,94.686v2.737 c0.046,1.514,0.83,2.91,2.098,3.74c9.387-43.676,47.918-74.91,92.588-75.074h55.279c44.67,0.164,83.202,31.398,92.588,75.074 c1.268-0.83,2.052-2.226,2.098-3.74v-2.737C378.171,351.297,335.872,308.989,283.639,308.843z"></path><path style="fill:#333333;" d="M373.765,417.669h-235.53c-6.285,0-11.403-5.117-11.403-11.402v-2.746 c0-55.982,45.546-101.528,101.528-101.528h55.179c0.027,0,0.064,0,0.091,0c55.936,0,101.482,45.482,101.537,101.428v2.846 C385.167,412.56,380.059,417.669,373.765,417.669z M140.515,403.986h230.969v-0.465c-0.055-48.483-39.453-87.845-87.863-87.845 c-0.027,0-0.046,0-0.073,0H228.36c-48.438,0-87.845,39.407-87.845,87.845V403.986z"></path><path style="fill:#A03D30;" d="M256,412.56c-34.481,0-62.668-14.869-68.415-32.109h-4.561c1.46,43.238,5.291,85.838,23.261,122.509 c16.511,1.368,33.204,2.189,49.989,2.189c16.784,0,33.113-0.73,49.35-2.189c18.244-36.488,21.893-79.27,23.352-122.509h-4.561 C318.759,397.691,290.207,412.56,256,412.56z"></path><path style="fill:#333333;" d="M415.908,164.259c-0.073-8-3.64-15.562-9.761-20.707c3.922-4.725,6.139-10.645,6.294-16.784 c0.046-12.059-7.808-22.732-19.339-26.271c0.903-2.709,1.368-5.537,1.368-8.392c-0.347-15.434-13.117-27.676-28.552-27.366h-3.558 c-0.602-15.854-13.948-28.223-29.802-27.621c-1.669,0.064-3.32,0.274-4.953,0.62l-2.007-1.003 c-3.64-12.041-14.787-20.251-27.366-20.16c-5.674,0.128-11.193,1.897-15.872,5.108l0,0c-7.763-13.957-25.368-18.983-39.325-11.229 c-0.055,0.036-0.119,0.064-0.173,0.1c-4.78,2.591-8.757,6.44-11.494,11.129h-1.551c-4.743-3.101-10.299-4.743-15.964-4.743 c-12.607-0.082-23.754,8.173-27.366,20.251l-1.916,1.003c-2.071-0.438-4.178-0.648-6.294-0.639 c-15.416-0.255-28.151,11.959-28.552,27.366c-1.186-0.091-2.372-0.091-3.558,0c-15.434-0.31-28.205,11.932-28.552,27.366 c0,2.855,0.465,5.683,1.368,8.392c-11.43,3.594-19.193,14.203-19.156,26.18c0.018,6.239,2.208,12.269,6.203,17.058 c-6.103,5.127-9.66,12.652-9.761,20.616c0.082,10.071,5.683,19.293,14.595,23.991c-2.554,4.141-3.913,8.912-3.922,13.774 c0.036,12.242,8.192,22.969,19.977,26.271c-0.091,1.551-0.091,3.101,0,4.652c0.109,13.519,9.852,25.031,23.17,27.366 c5.227,8.83,14.732,14.239,24.994,14.23h157.902c12.251,2.317,24.566-3.74,30.194-14.869c13.136-2.217,22.768-13.583,22.805-26.91 c-0.018-1.56-0.173-3.12-0.456-4.652c11.749-3.293,19.904-13.975,19.977-26.18c0-4.899-1.359-9.697-3.922-13.865 C410.417,183.552,415.918,174.303,415.908,164.259z"></path><path style="fill:#3A3A39;" d="M155.384,247.269c0.018-1.56,0.173-3.12,0.456-4.652c-11.749-3.293-19.904-13.975-19.977-26.18 c0.018-4.88,1.341-9.669,3.831-13.865c-8.885-4.689-14.486-13.856-14.595-23.9c0.137-8.046,3.813-15.617,10.034-20.707 c-3.995-4.789-6.185-10.819-6.203-17.058c-0.046-11.95,7.672-22.55,19.065-26.18c-0.876-2.709-1.304-5.546-1.277-8.392 c0.347-15.434,13.117-27.676,28.552-27.366h3.558c0.702-15.854,14.121-28.132,29.975-27.43c1.605,0.073,3.202,0.274,4.78,0.611 l2.007-1.003c3.631-12.059,14.769-20.306,27.366-20.251c5.665,0,11.22,1.642,15.964,4.743h1.642 c4.36-7.954,12.26-13.345,21.254-14.504C273.87,7.443,256.41,2.654,242.59,10.371c-4.698,2.673-8.584,6.586-11.22,11.311h-1.551 c-4.743-3.101-10.299-4.743-15.964-4.743c-12.607-0.082-23.754,8.173-27.366,20.251l-1.916,1.003 c-2.071-0.438-4.178-0.648-6.294-0.639c-15.416-0.255-28.151,11.959-28.552,27.366c-1.186-0.091-2.372-0.091-3.558,0 c-15.434-0.31-28.205,11.932-28.552,27.366c0,2.855,0.465,5.683,1.368,8.392c-11.43,3.594-19.193,14.203-19.156,26.18 c0.018,6.239,2.208,12.269,6.203,17.058c-6.103,5.127-9.66,12.652-9.761,20.616c0.082,10.071,5.683,19.293,14.595,23.991 c-2.554,4.141-3.913,8.912-3.922,13.774c0.036,12.242,8.192,22.969,19.977,26.271c-0.091,1.551-0.091,3.101,0,4.652 c0.109,13.519,9.852,25.031,23.17,27.366c5.227,8.83,14.732,14.239,24.994,14.23c1.122,0.091,2.253,0.091,3.375,0 C164.971,272.674,155.128,260.925,155.384,247.269z"></path><path style="fill:#333333;" d="M175.115,281.659c-11.631,0-22.54-5.674-29.218-15.006c-14.997-4.014-25.669-17.569-25.815-33.341 c-11.95-5.482-19.941-17.578-19.977-31.006c0-3.913,0.693-7.763,2.025-11.393c-7.881-6.358-12.616-15.964-12.698-26.335 c0.1-7.973,2.883-15.489,7.79-21.464c-2.746-4.944-4.223-10.545-4.242-16.255c-0.036-12.889,7.024-24.392,18.071-30.258 c-0.192-1.432-0.283-2.873-0.283-4.324c0.41-18.426,14.942-33.177,32.921-34.162c3.503-15.872,18.043-28.023,34.691-27.412 c1.095,0,2.107,0.036,3.184,0.128c5.665-12.497,18.18-20.835,32.328-20.743c5.181,0,10.271,1.122,14.96,3.266 c2.974-3.594,6.623-6.595,10.755-8.821c15.298-8.493,34.071-4.652,44.853,8.182c4.278-1.87,8.894-2.883,13.61-2.992 c14.03-0.119,26.737,8.21,32.42,20.661c0.593-0.055,1.186-0.091,1.779-0.119c17.56-0.702,32.347,11.293,36.059,27.658 c17.934,0.894,32.547,15.681,32.967,34.016c0,1.514-0.1,2.983-0.274,4.433c11.174,5.847,18.299,17.396,18.253,30.413 c-0.146,5.656-1.66,11.129-4.342,15.964c4.944,6.002,7.735,13.546,7.799,21.446c0,0.018,0,0.036,0,0.055 c0.009,10.353-4.643,20.005-12.452,26.426c1.341,3.667,2.052,7.571,2.052,11.521c-0.082,13.245-7.863,25.149-19.521,30.723 c0,0.009,0,0.027,0,0.036c-0.046,15.69-10.499,29.072-25.304,33.04c-7.662,11.539-21.309,17.441-35.174,14.933H181.947 c-2.217,0.465-4.497,0.712-6.805,0.73C175.133,281.659,175.124,281.659,175.115,281.659z M146.298,71.735 c-12.114,0-21.574,9.204-21.838,20.707c0,1.961,0.347,4.05,1.013,6.066c0.575,1.742,0.438,3.64-0.392,5.282 c-0.83,1.633-2.29,2.864-4.041,3.421c-8.62,2.709-14.395,10.609-14.367,19.64c0.009,4.634,1.651,9.14,4.616,12.698 c2.417,2.892,2.034,7.197-0.848,9.624c-4.579,3.84-7.243,9.478-7.316,15.462c0.055,7.425,4.251,14.322,10.946,17.852 c1.678,0.885,2.91,2.426,3.412,4.251c0.502,1.824,0.219,3.786-0.775,5.391c-1.897,3.065-2.892,6.595-2.901,10.189 c0.027,9.113,6.185,17.213,14.987,19.676c3.092,0.867,5.163,3.777,4.981,6.978c-0.073,1.286-0.073,2.582,0,3.868 c0.091,10.554,7.453,19.257,17.523,21.017c1.97,0.347,3.694,1.532,4.707,3.257c3.968,6.705,11.275,10.873,19.074,10.873 c0.009,0,0.009,0,0.018,0c1.514-0.018,3.056-0.192,4.543-0.547c0.52-0.128,1.04-0.192,1.569-0.192h151.799 c0.456,0,0.912,0.046,1.35,0.137c9.177,1.879,18.363-2.445,22.814-10.682c1.003-1.852,2.8-3.138,4.88-3.494 c9.879-1.678,17.076-10.162,17.104-20.187c-0.009-1.076-0.128-2.244-0.338-3.393c-0.648-3.475,1.469-6.878,4.88-7.836 c8.766-2.463,14.924-10.536,14.978-19.631c0-3.594-1.003-7.152-2.901-10.244c-0.985-1.596-1.268-3.539-0.784-5.346 c0.493-1.815,1.706-3.348,3.348-4.251c6.632-3.585,10.746-10.49,10.746-18.034c-0.064-5.993-2.727-11.64-7.325-15.498 c-2.873-2.417-3.266-6.705-0.867-9.605c2.919-3.53,4.607-8.009,4.725-12.597c0.036-8.958-5.802-16.885-14.504-19.558 c-1.761-0.538-3.229-1.77-4.078-3.403c-0.839-1.642-0.985-3.548-0.41-5.3c0.675-2.016,1.013-4.114,1.013-6.23 c-0.265-11.485-10.071-20.798-21.574-20.525h-3.685c-3.676,0-6.696-2.901-6.832-6.577c-0.465-12.068-10.499-21.72-22.714-21.054 c-1.259,0.046-2.518,0.201-3.767,0.474c-1.533,0.328-3.111,0.128-4.497-0.566l-2.007-1.003c-1.688-0.839-2.946-2.335-3.494-4.141 c-2.737-9.031-11.202-15.307-20.625-15.307c-0.046,0-0.1,0-0.155,0c-4.251,0.091-8.456,1.45-12.05,3.913 c-1.596,1.095-3.576,1.45-5.437,1.013c-1.879-0.438-3.475-1.651-4.406-3.339c-2.864-5.154-7.562-8.885-13.236-10.499 c-5.656-1.605-11.621-0.93-16.784,1.934c-3.922,2.116-6.978,5.081-9.086,8.693c-1.222,2.098-3.475,3.393-5.902,3.393h-1.551 c-1.332,0-2.627-0.383-3.74-1.113c-3.685-2.408-7.69-3.758-12.36-3.631c-9.496,0-17.961,6.303-20.67,15.371 c-0.529,1.77-1.751,3.247-3.384,4.105l-1.916,1.003c-1.405,0.739-3.029,0.958-4.579,0.629c-1.587-0.338-3.357-0.529-4.835-0.493 c-11.749,0.1-21.455,9.095-21.756,20.707c-0.046,1.879-0.867,3.649-2.262,4.908c-1.396,1.259-3.22,1.897-5.117,1.733 c-0.83-0.064-1.66-0.064-2.481,0C146.572,71.735,146.435,71.735,146.298,71.735z"></path><path style="fill:#EFB54D;" d="M256,463.826c-21.044,0.018-41.514,6.905-58.29,19.612c2.645,6.568,5.473,13.136,8.575,19.521 c16.511,1.368,33.204,2.189,49.989,2.189s33.113-0.73,49.35-2.189c3.193-6.385,6.021-12.862,9.122-19.521 C297.842,470.631,277.199,463.744,256,463.826z"></path><path style="fill:#9C7367;" d="M187.858,327.269v59.84c39.307,33.916,97.523,33.916,136.83,0v-59.84H187.858z"></path><path style="fill:#956A5E;" d="M255.087,412.56h1.186c25.131,0.055,49.432-8.985,68.415-25.45v-59.84h-136.83v9.122 c27.366,22.805,43.877,34.755,50.171,41.049C246.604,387.502,252.479,399.589,255.087,412.56z"></path><path style="fill:#333333;" d="M256.273,419.174c-26.052,0-52.114-8.958-72.885-26.892c-1.514-1.295-2.372-3.193-2.372-5.172v-59.84 c0-3.777,3.065-6.842,6.842-6.842h136.83c3.777,0,6.842,3.065,6.842,6.842v59.84c0,1.989-0.867,3.886-2.372,5.172 C308.387,410.216,282.335,419.174,256.273,419.174z M194.7,383.908c35.631,28.807,87.517,28.807,123.147,0v-49.797H194.7 L194.7,383.908L194.7,383.908z"></path><path style="fill:#9C7367;" d="M351.781,187.429v-22.714c0-57.925-25.359-95.872-95.69-95.872s-95.872,37.948-95.872,95.872v22.714 h-4.561c-17.423,0-20.798,19.339-16.602,38.769c3.375,16.146,12.132,38.769,25.815,38.769v22.805 c0,20.981,29.008,52.452,59.202,68.415c10.217,3.694,21.081,5.272,31.927,4.652c10.107,0.629,20.223-0.958,29.647-4.652 c30.285-15.964,61.665-47.434,61.665-68.415v-22.805c13.683,0,23.808-22.623,27.366-38.769c4.105-19.43-0.73-38.13-18.244-38.677 L351.781,187.429z"></path><path style="fill:#956A5E;" d="M356.342,187.52h-4.561v-22.805c0-57.925-25.359-95.872-95.69-95.872c-5.017,0-9.761,0-14.413,0.639 c-18.883,68.05-33.022,149.601-32.201,210.445c0,16.967,1.642,43.33,3.831,69.875c3.558,2.28,7.115,4.47,10.764,6.385 c10.217,3.694,21.081,5.272,31.927,4.652c10.107,0.629,20.223-0.958,29.647-4.652c30.285-15.964,61.665-47.434,61.665-68.415 v-22.805c13.683,0,23.808-22.623,27.366-38.769C378.691,206.768,373.856,188.068,356.342,187.52z"></path><path style="fill:#363636;" d="M331.621,273.45c-0.821,2.372-3.193,8.027-3.193,8.027c-1.086,4.242-4.753,7.325-9.122,7.662 c-12.141-6.34-24.593-12.068-37.309-17.149c-2.198-0.885-4.643-0.885-6.842,0c-12.68,5.747-14.048,6.568-19.065,6.568 c-5.017,0-6.933-0.821-19.704-6.568c-2.171-0.867-4.579-0.867-6.75,0c-12.734,5.044-25.186,10.773-37.309,17.149 c-4.333-0.41-7.964-3.466-9.122-7.662c0,0-2.463-4.379-3.284-7.115c-0.657-2.828-2.189-5.382-4.379-7.298 c-1.916-1.095-10.125-6.841-10.673-7.206v27.913c0,20.981,29.008,52.452,59.202,68.415c10.217,3.694,21.081,5.272,31.927,4.652 c10.107,0.629,20.224-0.958,29.647-4.652c30.285-15.964,61.665-47.434,61.665-68.415v-28.096c0,0-9.122,5.382-11.403,6.477 C333.774,268.095,332.278,270.64,331.621,273.45z M282.727,324.533c-2.253,3.439-6.851,4.415-10.308,2.189 c-4.196-2.737-5.2-3.01-7.206-3.01h-18.974c-2.545,0.1-4.971,1.104-6.842,2.828c-3.275,2.436-7.9,1.761-10.335-1.514 c-0.119-0.155-0.228-0.319-0.338-0.493c-5.382-7.024-9.824-14.723-13.227-22.896c0.237-3.092,2.518-5.637,5.564-6.203 c11.348-3.229,23.051-5.035,34.846-5.382c11.594,0.474,23.097,2.253,34.299,5.291c3.047,0.566,5.327,3.111,5.564,6.203 C292.36,309.701,287.972,317.418,282.727,324.533z"></path><g><path style="fill:#333333;" d="M335.817,266.152c-2.135,1.943-3.631,4.488-4.287,7.298c-0.821,2.372-3.193,8.027-3.193,8.027 c-1.086,4.242-4.753,7.325-9.122,7.662c-12.141-6.34-24.593-12.068-37.309-17.149c-2.198-0.885-4.643-0.885-6.842,0 c-12.68,5.656-14.048,6.568-19.065,6.568v11.402c11.567,0.502,23.042,2.308,34.208,5.382c3.047,0.566,5.327,3.111,5.564,6.203 c-3.475,8.137-7.918,15.818-13.227,22.896c-2.253,3.439-6.851,4.415-10.308,2.189c-4.196-2.737-5.2-3.01-7.206-3.01h-12.315 c-4.588,3.64-9.615,6.705-14.96,9.122c-7.918,6.376-10.171,17.487-5.382,26.454c3.01,0.648,6.057,1.104,9.122,1.368h0.456 c2.737,0,5.382,0.456,7.936,0.456h6.203c10.107,0.629,20.223-0.958,29.647-4.652c3.831-2.007,7.571-4.287,11.311-6.659 c5.701-3.694,11.184-7.717,16.42-12.041c6.577-5.564,12.68-11.667,18.244-18.244c2.563-2.892,4.935-5.938,7.115-9.122 c3.859-5.464,6.531-11.685,7.845-18.244c0.128-1.332,0.128-2.682,0-4.014v-28.369C346.672,259.675,338.006,265.057,335.817,266.152 z"></path><path style="fill:#333333;" d="M250.709,367.808c-9.569,0-19.494-1.733-29.044-5.19c-0.301-0.109-0.593-0.228-0.876-0.383 c-30.221-15.982-62.851-48.994-62.851-74.463v-17.186c-16.566-6.166-23.653-33.797-25.578-42.992 c-3.521-16.301-1.724-30.404,4.944-38.659c3.959-4.908,9.487-7.735,16.082-8.255v-15.964c0-68.151,34.563-102.714,102.714-102.714 c68.032,0,102.531,34.563,102.531,102.714v16.109c7.106,0.721,13.008,3.895,17.231,9.268c6.686,8.52,8.666,22.194,5.428,37.528 c-3.165,14.385-12.16,37.428-27.211,42.965v17.195c0,24.73-33.906,57.907-65.314,74.463c-11.001,4.351-22.249,6.13-33.259,5.428 C253.902,367.753,252.314,367.808,250.709,367.808z M226.754,349.91c9.277,3.266,18.956,4.625,28.762,4.087 c9.888,0.575,19.092-0.876,27.548-4.187c29.665-15.69,57.314-45.418,57.314-62.048v-22.805c0-3.776,3.065-6.841,6.841-6.841 c7.973,0,17.131-17.268,20.689-33.396c2.317-10.965,1.241-21.017-2.819-26.189c-2.107-2.691-5.044-4.059-8.958-4.178l-4.479-0.082 c-3.722-0.073-6.705-3.111-6.705-6.842v-22.714c0-60.743-28.233-89.031-88.848-89.031c-60.743,0-89.031,28.287-89.031,89.031 v22.714c0,3.777-3.065,6.842-6.842,6.842h-4.561c-4.561,0-6.586,1.861-7.717,3.257c-3.932,4.871-4.771,15.298-2.198,27.22 c3.986,19.038,12.16,33.368,19.038,33.368c3.777,0,6.842,3.065,6.842,6.842v22.805C171.621,304.957,197.838,334.476,226.754,349.91 z"></path></g><path style="fill:#9A6F61;" d="M286.102,249.732l7.754,7.298c3.275,3.102,8.401,3.102,11.676,0l7.754-7.298 c5.2-4.926,0.547-13.318-6.842-13.318h-13.683c-4.415-0.356-8.292,2.937-8.648,7.352C283.94,245.938,284.661,248.09,286.102,249.732 z"></path><g><path style="fill:#654B43;" d="M224.529,197.372h-25.086c-9.724-0.055-17.642,7.79-17.697,17.514l0,0v1.551 c-1.149,9.624,1.797,19.284,8.119,26.636c5.601,5.291,13.099,8.091,20.798,7.754c1.25,0.082,2.49,0.082,3.74,0 c18.244-1.46,27.366-13.409,27.366-35.758C241.824,205.445,234.143,197.564,224.529,197.372z"></path><path style="fill:#654B43;" d="M287.471,197.372h25.086c9.724-0.055,17.642,7.79,17.697,17.514l0,0v1.551 c1.149,9.624-1.797,19.284-8.119,26.636c-5.601,5.291-13.099,8.091-20.798,7.754c-1.25,0.082-2.49,0.082-3.74,0 c-18.244-1.46-27.822-13.409-27.822-35.758c-0.055-9.724,7.79-17.642,17.514-17.697 C287.352,197.372,287.407,197.372,287.471,197.372z"></path></g><path style="fill:#59423B;" d="M187.858,225.194v-1.46c0.055-9.724,7.973-17.569,17.697-17.514l0,0h25.086 c3.895,0.064,7.672,1.377,10.764,3.74c-2.244-7.453-9.095-12.561-16.876-12.588h-25.086c-9.724-0.055-17.642,7.79-17.697,17.514l0,0 v1.551c-1.149,9.624,1.797,19.284,8.119,26.636l0.639,0.456C188.396,237.655,187.493,231.415,187.858,225.194z"></path><path style="fill:#6D5148;" d="M188.679,201.112c-4.342,3.257-6.905,8.347-6.933,13.774v0.547l34.846,34.846 c5.528-0.556,10.782-2.673,15.143-6.112L188.679,201.112z"></path><path style="fill:#654B43;" d="M188.041,221.728c0.611-5.346,3.676-10.107,8.301-12.862l-7.662-7.754 c-4.452,3.412-7.015,8.721-6.933,14.322L188.041,221.728z"></path><path style="fill:#6D5148;" d="M235.931,239.516c1.295-1.943,2.372-4.023,3.193-6.203l-35.941-35.941h-3.74 c-1.669,0.046-3.33,0.319-4.926,0.821L235.931,239.516z"></path><path style="fill:#654B43;" d="M194.517,198.193l8.301,8.301c3.038-0.255,6.084-0.255,9.122,0l-9.122-9.122 C200.027,197.244,197.227,197.518,194.517,198.193z"></path><path style="fill:#59423B;" d="M275.886,223.735c0.055-9.724,7.973-17.569,17.697-17.514l0,0h24.994 c3.922,0.046,7.735,1.359,10.855,3.74c-2.244-7.453-9.095-12.561-16.876-12.588h-25.086c-9.724-0.055-17.642,7.79-17.697,17.514l0,0 c-0.885,10.381,2.582,20.652,9.578,28.369C276.88,237.044,275.703,230.403,275.886,223.735z"></path><g><path style="fill:#6D5148;" d="M307.63,250.28c5.364-0.784,10.344-3.238,14.23-7.024l-43.421-43.33 c-4.652,2.7-7.763,7.425-8.392,12.771L307.63,250.28z"></path><path style="fill:#6D5148;" d="M325.783,238.33c1.213-2.043,2.189-4.214,2.919-6.477l-34.481-34.481h-6.75h-2.463L325.783,238.33z"></path></g><g><path style="fill:#654B43;" d="M278.44,199.926c-4.652,2.7-7.763,7.425-8.392,12.771l6.477,6.477 c1.396-5.09,5.017-9.277,9.852-11.403L278.44,199.926z"></path><path style="fill:#654B43;" d="M293.582,206.22h9.122l-9.122-9.122c-3.038-0.219-6.084-0.219-9.122,0L293.582,206.22z"></path></g><g><path style="fill:#333333;" d="M336.365,210.599h-2.007c-2.125-10.353-11.229-17.788-21.802-17.788h-25.086 c-9.596,0.036-18.08,6.212-21.072,15.325c-6.258-4.342-14.54-4.342-20.798,0c-2.992-9.113-11.475-15.288-21.072-15.325h-25.086 c-10.572,0-19.676,7.434-21.802,17.788h-2.007c-2.518,0-4.561,2.043-4.561,4.561c0.046,2.499,2.062,4.515,4.561,4.561h1.551 c-0.721,9.751,2.572,19.375,9.122,26.636c6.413,6.185,15.088,9.487,23.991,9.122c18.016,1.56,33.897-11.777,35.457-29.792 c0.064-0.766,0.109-1.542,0.119-2.317c0.465-5.081,4.661-9.003,9.761-9.122c5.099,0.082,9.295,4.041,9.669,9.122 c0.392,18.18,15.444,32.602,33.633,32.219c0.684-0.018,1.359-0.055,2.034-0.109c8.903,0.365,17.578-2.937,23.991-9.122 c6.55-7.261,9.843-16.885,9.122-26.636h1.551c2.499-0.046,4.515-2.062,4.561-4.561C340.223,212.898,338.59,210.955,336.365,210.599 z M210.663,246.266c-6.486,0.31-12.826-1.989-17.605-6.385c-5.619-7.033-8.064-16.091-6.75-24.994 c0.1-7.179,5.948-12.953,13.136-12.953h25.086c7.188,0,13.035,5.774,13.136,12.953 C237.664,234.681,230.367,246.266,210.663,246.266z M318.941,239.881c-4.78,4.397-11.12,6.696-17.605,6.385 c-19.704,0-27.366-11.585-27.366-31.38c0.1-7.179,5.948-12.953,13.136-12.953h25.086c7.188,0,13.035,5.774,13.136,12.953 C326.777,223.744,324.46,232.802,318.941,239.881z"></path><circle style="fill:#333333;" cx="214.13" cy="217.441" r="7.936"></circle><circle style="fill:#333333;" cx="297.87" cy="217.441" r="7.936"></circle><path style="fill:#333333;" d="M214.859,117.555l-15.507,2.919c-9.505,1.806-16.365,10.125-16.328,19.795v2.281 c-0.018,5.409-2.18,10.6-6.021,14.413c-4.844,4.844-7.59,11.393-7.662,18.244v34.755h-4.561c0-18.244-13.774-18.244-13.774-18.244 c0-13.683-1.551-35.941,0-50.171c10.034-86.933,91.22-86.659,104.903-86.659c13.683,0,94.778,0,104.812,86.659 c1.642,14.23,0,36.488,0,50.171c0,0-13.683,0-13.683,18.244h-4.561v-37.4c-0.009-5.19-1.533-10.262-4.379-14.595l-1.277-1.916 c-2.262-3.339-3.466-7.279-3.466-11.311v-4.47c0.055-9.724-6.933-18.052-16.511-19.704l-19.795-3.558 C269.838,112.282,242.006,112.464,214.859,117.555z"></path><path style="fill:#333333;" d="M253.345,511.999c-83.704,0-165.063-17.076-241.824-50.755c-2.946-1.295-4.588-4.452-3.959-7.608 l4.561-22.805c4.369-23.361,23.06-42.052,46.504-46.431c5.574-1.441,23.416-5.145,45.993-9.843l31.389-6.559 c3.676-0.775,7.325,1.596,8.1,5.291c0.775,3.694-1.587,7.325-5.291,8.109l-31.416,6.559c-21.528,4.47-40.119,8.338-45.829,9.797 c-18.363,3.448-32.666,17.742-36.014,35.676L22.057,450.9c74.399,31.836,152.83,47.991,234.18,47.407 c81.213,0.328,159.48-15.653,233.697-47.407l-3.475-17.377c-3.366-18.025-17.669-32.319-35.594-35.667 c-3.959-0.994-13.181-2.919-25.359-5.473c-14.933-3.129-34.217-7.161-52.88-11.366c-3.685-0.83-5.993-4.488-5.163-8.173 c0.83-3.685,4.461-6.002,8.173-5.163c18.582,4.187,37.802,8.201,52.67,11.311c12.461,2.609,21.911,4.598,25.514,5.51 c22.997,4.287,41.688,22.978,46.075,46.422l4.543,22.714c0.629,3.156-1.013,6.312-3.959,7.608 c-76.771,33.678-158.185,50.746-241.989,50.746C256.784,511.99,255.069,511.999,253.345,511.999z"></path></g><path style="fill:#87312A;" d="M256.62,437.919c-0.21,0-0.429,0-0.648,0c-19.548-0.055-39.161-4.634-56.721-13.236 c-2.262-1.113-3.193-3.849-2.089-6.103c1.104-2.262,3.84-3.184,6.103-2.089c16.319,8,34.554,12.26,52.734,12.315 c0.201,0,0.401,0,0.602,0c17.979,0,35.977-4.151,52.114-12.032c2.271-1.086,4.999-0.173,6.103,2.089 c1.104,2.262,0.173,4.999-2.089,6.103C295.352,433.45,275.959,437.919,256.62,437.919z"></path><g><path style="fill:#333333;" d="M274.061,310.667h-36.488c-2.518,0-4.561-2.043-4.561-4.561c0-2.518,2.043-4.561,4.561-4.561h36.488 c2.518,0,4.561,2.043,4.561,4.561C278.622,308.624,276.588,310.667,274.061,310.667z"></path><path style="fill:#333333;" d="M255.927,281.915c-3.667,0-7.389-0.994-10.7-3.038l-9.633-4.616 c-2.271-1.095-3.22-3.822-2.125-6.084c1.095-2.271,3.813-3.229,6.084-2.125l10.034,4.835c3.995,2.417,8.456,2.408,12.05,0.219 l10.454-5.063c2.253-1.095,4.999-0.146,6.084,2.125c1.095,2.271,0.146,4.999-2.125,6.084l-10.043,4.835 C262.987,280.975,259.484,281.915,255.927,281.915z"></path></g></svg>