<!-- icon666.com - MILLIONS vector ICONS FREE --><svg version="1.1" id="Capa_1" xmlns="http://www.w3.org/2000/svg" xmlns:xlink="http://www.w3.org/1999/xlink" x="0px" y="0px" viewBox="0 0 512.005 512.005" style="enable-background:new 0 0 512.005 512.005;" xml:space="preserve"><rect x="182.911" y="267.336" style="fill:#F5D4CB;" width="146.184" height="135.22"></rect><polygon style="fill:#D1ACA7;" points="329.113,304.832 201.202,304.832 192.065,323.105 301.703,441.879 329.113,414.47 "></polygon><path style="fill:#F5D4CB;" d="M256.021,349.601c19.214,0.037,37.387-8.716,49.337-23.755l6.396-5.482 c34.719-16.446,36.546-37.46,40.201-66.696c19.187,0,33.805-29.237,36.546-46.596c3.655-25.582-11.877-33.805-26.496-30.15v-28.323 c-0.914-55.733-30.15-105.983-105.983-105.983S150.86,92.865,150.86,148.598v28.323c-14.618-2.741-30.15,4.568-26.496,30.15 c1.827,17.359,17.359,46.596,36.546,46.596c3.655,28.323,5.482,49.337,40.201,66.696l6.396,5.482 C215.82,340.464,236.834,349.601,256.021,349.601z"></path><g style="opacity:0.3;enable-background:new ;"><path style="fill:#E0B9B2;" d="M362.004,176.921v-28.323c-0.914-55.733-30.15-105.983-105.983-105.983 c-12.024,0.055-23.983,1.59-35.632,4.568c-10.05,65.783-17.359,139.788-15.532,188.212c0.914,11.877,3.655,56.646,6.396,95.02 c11.64,12.298,27.839,19.241,44.769,19.187c19.214,0.037,37.387-8.716,49.337-23.755l6.396-5.482 c34.719-16.446,36.546-37.46,40.201-66.696c19.187,0,33.805-29.237,36.546-46.596C392.155,181.307,376.623,173.266,362.004,176.921 z"></path></g><path style="fill:#FFFFFF;" d="M500.879,430.916c-2.741-22.841-20.1-39.287-43.855-48.423l-121.515-43.855 c-45.682,65.783-114.206,65.783-158.061,0L55.018,382.309c-23.755,10.05-40.201,25.582-43.855,48.423l-2.741,13.705 c77.779,34.125,161.752,51.85,246.685,52.078c84.979,0.219,169.043-17.533,246.685-52.078h0.914L500.879,430.916z"></path><path style="fill:#DCDCDC;" d="M351.04,488.475c52.297-8.232,103.288-23.28,151.666-44.769h0.914l-2.741-13.705 c-2.741-22.841-20.1-39.287-43.855-48.423l-121.515-43.855c-23.755,34.719-53.905,51.164-83.142,49.337L351.04,488.475z"></path><path style="fill:#36365A;" d="M500.879,430.916c-2.741-22.841-20.1-39.287-43.855-48.423l-83.142-30.15 c-30.744,42.275-70.744,76.957-116.947,101.415h-0.914c-46.203-24.458-86.203-59.141-116.947-101.415l-84.056,29.968 c-23.755,10.05-40.201,25.582-43.855,48.423l-2.741,13.705c77.779,34.125,161.752,51.85,246.685,52.078 c84.979,0.219,169.043-17.533,246.685-52.078h0.914L500.879,430.916z"></path><path style="fill:#313151;" d="M500.879,430.916c-2.741-22.841-20.1-39.287-43.855-48.423l-83.142-30.15 c-21.964,30.415-48.825,56.966-79.488,78.574l56.646,58.474c2.741,0,4.568-0.914,7.309-0.914c6.396-0.914,13.705-2.741,20.1-3.655 c2.741-0.914,6.396-0.914,9.137-1.827l24.669-5.482c2.741-0.914,4.568-0.914,7.309-1.827c7.163-1.581,14.189-3.719,21.014-6.396 c1.827-0.914,3.655-0.914,5.482-1.827c8.223-2.741,16.446-5.482,24.669-9.137c2.056-1.078,4.194-1.992,6.396-2.741 c8.223-3.655,17.359-6.396,25.582-10.05h0.914L500.879,430.916z"></path><g><path style="fill:#333333;" d="M174.706,300.081c-0.831,1.37-1.151,2.988-0.914,4.568v36.546c-0.311,4.733,3.271,8.826,8.004,9.136 c0.375,0.027,0.758,0.027,1.133,0c5.043,0,9.136-4.093,9.136-9.136v-26.496C185.524,310.807,179.658,305.864,174.706,300.081z"></path><path style="fill:#333333;" d="M319.976,315.796v25.582c-0.311,4.733,3.271,8.826,8.004,9.137c0.375,0.027,0.758,0.027,1.133,0 c5.043,0,9.136-4.093,9.136-9.137v-36.546c0.137-1.288-0.183-2.586-0.914-3.655C332.594,307.171,326.692,312.15,319.976,315.796z"></path></g><path style="fill:#444466;" d="M34.918,449.189c2.741-22.841,20.1-39.287,43.855-48.423l76.747-27.409 c-6.396-7.309-11.877-14.618-16.446-21.014l-84.056,29.968c-23.755,10.05-40.201,25.582-43.855,48.423l-2.741,13.705 c8.223,3.655,16.446,7.309,24.669,10.05L34.918,449.189z"></path><g><path style="fill:#333333;" d="M256.935,462.893h-0.914c-1.581,0.146-3.161-0.174-4.568-0.914 c-47.747-24.504-88.816-60.255-119.688-104.156c-2.659-4.121-1.873-9.575,1.827-12.791c4.102-2.741,9.621-1.955,12.791,1.827 c28.515,40.374,66.057,73.53,109.638,96.847c43.773-23.033,81.379-56.244,109.638-96.847c3.033-4.038,8.762-4.851,12.791-1.818 c4.029,3.024,4.842,8.744,1.827,12.782c-31.247,43.901-72.617,79.634-120.602,104.156 C258.817,462.427,257.885,462.738,256.935,462.893z"></path><path style="fill:#333333;" d="M256.021,505.835c-86.276,0.42-171.638-17.643-250.34-52.992c-0.914,0-1.827-0.914-2.741-1.827 c-2.375-2.403-3.408-5.829-2.741-9.137l2.741-13.705c2.741-23.755,21.014-43.855,49.337-55.733L173.792,329.5 c4.057-1.544,8.643-0.018,10.964,3.655c19.187,29.237,44.769,45.682,70.351,45.682s52.078-16.446,72.178-45.682 c2.503-3.435,6.907-4.897,10.964-3.655l121.515,43.672c29.237,11.877,46.596,31.978,49.337,55.733l2.741,12.791 c0.667,3.499-0.758,7.063-3.655,9.137c-0.914,0.914-1.827,0.914-2.741,1.827C426.965,487.726,341.977,505.853,256.021,505.835z M19.386,439.138c74.773,32.042,155.284,48.515,236.635,48.423c81.351,0.091,161.862-16.382,236.635-48.423l-0.914-6.396v-0.914 c-2.741-22.841-21.928-34.719-38.373-41.114l-115.12-41.114c-22.841,31.064-52.078,47.51-83.142,47.51h-0.914 c-30.15,0-59.387-17.359-81.315-47.51l-115.12,41.114c-15.532,6.396-34.719,19.187-37.46,41.114L19.386,439.138z"></path></g><g><path style="fill:#DDDADF;" d="M329.113,194.28h-44.769c-3.709-0.192-7.337,1.124-10.05,3.655 c-5.052,4.797-5.829,12.572-1.827,18.273l10.964,15.532c3.444,4.742,8.78,7.739,14.618,8.223h20.1 c14.125,0,25.582-11.457,25.582-25.582v-6.396C342.808,200.484,336.66,194.71,329.113,194.28z"></path><path style="fill:#DDDADF;" d="M194.806,239.963h20.009c6.057,0.347,11.768-2.86,14.618-8.223l10.964-15.532 c4.002-5.701,3.225-13.476-1.827-18.273c-2.714-2.531-6.341-3.846-10.05-3.655h-44.769c-7.492,0.192-13.513,6.213-13.705,13.705 v6.396c-1.023,13.083,8.753,24.513,21.827,25.536C192.851,239.99,193.829,240.009,194.806,239.963z"></path></g><g><circle style="fill:#6C808C;" cx="205.77" cy="206.158" r="9.136"></circle><circle style="fill:#6C808C;" cx="306.272" cy="206.158" r="9.136"></circle></g><g><path style="fill:#333333;" d="M267.898,300.081c-7.894,0.914-15.861,0.914-23.755,0c-3.655-0.914-6.396,3.655-3.655,7.309 l12.791,16.446c1.243,2.019,3.892,2.65,5.911,1.398c0.566-0.347,1.051-0.831,1.398-1.398l12.791-16.446 C274.294,303.918,271.553,299.35,267.898,300.081z"></path><path style="fill:#333333;" d="M420.478,96.52l-47.51-35.632c6.752-5.555,12.334-12.389,16.446-20.1 c1.261-2.476,0.283-5.5-2.193-6.761c-0.731-0.375-1.553-0.566-2.375-0.548c-9.42,0.914-18.903,0.914-28.323,0 c-7.583-1.032-14.975-3.189-21.928-6.396c-8.241-4.221-17.259-6.715-26.496-7.309c-3.38-0.192-6.761,0.119-10.05,0.914 c-75.833-31.978-112.379-4.568-144.357,19.187c-10.096,7.894-22.896,11.503-35.632,10.05h-0.914 c-3.353-0.018-6.469,1.718-8.223,4.568c-1.836,3.097-1.836,6.953,0,10.05c4.888,7.181,11.092,13.385,18.273,18.273l-31.978,41.114 c-2.147,2.924-2.494,6.788-0.914,10.05c1.434,3.28,4.641,5.427,8.223,5.482h9.136v21.928c-0.091,6.24,3.006,12.097,8.223,15.532 l2.741,2.741c-3.454,7.748-5.025,16.199-4.568,24.669c0,19.187,15.532,53.905,36.546,62.128 c1.827,22.841,12.791,52.992,38.373,63.955c4.568,9.136,21.014,29.237,61.215,29.237s56.646-20.1,61.215-29.237 c25.582-10.964,36.546-41.114,38.373-63.955c21.928-8.223,36.546-43.855,36.546-62.128c1.115-9.602-1.151-19.287-6.396-27.409 c2.741-1.827,4.568-2.741,7.309-4.568c6.834-3.783,10.507-11.494,9.136-19.187l-6.396-40.201l21.014-4.568 c2.138-0.758,3.81-2.43,4.568-4.568C423.219,100.174,422.305,98.347,420.478,96.52z M329.113,187.885H283.43 c-5.4-0.146-10.644,1.818-14.618,5.482c-1.489,1.288-2.723,2.832-3.655,4.568c-6.268-1.827-12.919-1.827-19.187,0 c-0.685-1.882-1.964-3.49-3.655-4.568c-3.974-3.664-9.219-5.628-14.618-5.482h-44.769c-7.976-0.247-15.258,4.486-18.273,11.877 v-53.905c0-29.237,4.568-94.106,91.365-94.106s91.365,64.869,91.365,94.106v53.723C344.115,192.435,336.97,187.857,329.113,187.885 z M336.422,208.899v6.396c0,10.096-8.177,18.273-18.273,18.273h-20.1c-3.6,0.027-6.999-1.672-9.136-4.568l-10.964-15.532 c-2.22-3.125-1.489-7.465,1.635-9.685c1.124-0.804,2.467-1.243,3.846-1.279h45.682c3.554-0.457,6.807,2.056,7.264,5.61 c0.027,0.201,0.046,0.402,0.046,0.603L336.422,208.899z M234.093,212.553l-10.964,15.532c-2.138,2.896-5.537,4.596-9.137,4.568 h-20.1c-10.096,0-18.273-8.177-18.273-18.273v-6.396c0.265-3.92,3.39-7.044,7.309-7.309h45.682c1.69,0.027,3.317,0.685,4.568,1.827 C235.683,205.281,236.058,209.374,234.093,212.553z M302.617,319.45c0,0-8.223,21.014-46.596,21.014s-45.682-20.1-46.596-21.014 c-1.032-1.946-2.622-3.536-4.568-4.568l23.755-28.323h54.819l23.755,28.323C304.444,315.796,302.617,317.623,302.617,319.45z M347.386,250.013c-4.733-0.311-8.826,3.271-9.137,8.004c-0.027,0.375-0.027,0.758,0,1.133c0,14.618-7.309,45.682-28.323,54.819 l-8.223-36.546l-22.933-17.359l-9.136,2.741c-8.616,2.741-17.88,2.741-26.496,0l-9.137-2.741l-23.755,17.359l-8.223,36.546 c-21.014-9.136-28.323-40.201-28.323-54.819c0.311-4.733-3.271-8.826-8.004-9.137c-0.375-0.027-0.758-0.027-1.133,0 c-10.964,0-27.409-30.15-27.409-45.682c-0.311-4.285,0-8.597,0.914-12.791c7.419,5.628,13.12,13.23,16.446,21.928h7.309v1.827 c0.201,17.579,14.399,31.777,31.978,31.978h20.1c8.323-0.201,16.089-4.248,21.014-10.964l10.964-15.532 c1.69-2.065,2.659-4.641,2.741-7.309c4.486-2.75,10.132-2.75,14.618,0c0.758,2.494,1.681,4.934,2.741,7.309l10.964,15.532 c4.495,7.2,12.535,11.393,21.014,10.964h20.1c17.579-0.201,31.777-14.399,31.978-31.978v-1.827h8.223 c3.545-9.146,8.817-17.515,15.532-24.669c1.425,5.043,2.047,10.288,1.827,15.532C374.795,219.863,358.35,250.013,347.386,250.013z"></path></g></svg>