<!-- icon666.com - MILLIONS vector ICONS FREE --><svg version="1.1" id="Capa_1" xmlns="http://www.w3.org/2000/svg" xmlns:xlink="http://www.w3.org/1999/xlink" x="0px" y="0px" viewBox="0 0 512 512" style="enable-background:new 0 0 512 512;" xml:space="preserve"><path style="fill:#836652;" d="M463.132,96.583c0-23.645-88.436,24.111-205.917,24.111S51.018,72.938,51.018,96.583 c0,145.501,91.601,175.104,205.917,175.104S463.132,242.084,463.132,96.583z"></path><path style="fill:#725948;" d="M262.893,120.6c-93.091,0-178.641-29.603-208.71-29.882c-4.729-0.074-8.62,3.705-8.695,8.434 c-0.009,0.54,0.037,1.08,0.13,1.62C62.841,211.364,157.7,232.589,262.893,232.589s194.653-22.063,210.292-136.564 c0.4-2.625-1.313-5.12-3.91-5.679C446.096,86.436,362.5,120.6,262.893,120.6z"></path><path style="fill:#343433;" d="M256.935,278.669c-99.123,0-212.899-20.703-212.899-182.086c0-5.353,2.56-8.49,4.71-10.175 c8.574-6.74,24.995-2.709,57.698,5.288c37.99,9.29,90.01,22.007,150.77,22.007c60.779,0,114.874-13.247,150.668-22.025 c32.619-7.978,48.956-11.999,57.53-5.278c2.141,1.685,4.71,4.822,4.71,10.175C470.113,257.965,356.189,278.669,256.935,278.669z M58.009,97.178c0.335,147.624,100.724,167.526,198.926,167.526c98.378,0,198.945-19.921,199.215-167.526 c-5.651-1.545-26.475,3.547-44.944,8.071c-36.445,8.927-91.518,22.426-153.991,22.426c-62.436,0-117.592-13.489-154.084-22.407 C84.577,100.725,63.716,95.624,58.009,97.178z"></path><path style="fill:#B1304F;" d="M105.197,306.875c14.727-0.084,27.611-9.923,31.558-24.111c7.261-22.156,22.9-31.092,36.305-20.852 C190.934,275.69,161.145,327.914,105.197,306.875z"></path><path style="fill:#333333;" d="M130.294,318.707c-8.509,0-17.752-1.62-27.555-5.297c-3.146-1.182-5.008-4.459-4.413-7.764 c0.586-3.314,3.463-5.734,6.833-5.753c11.553-0.074,21.774-7.894,24.874-19.009c5.018-15.323,13.889-25.814,24.436-29.091 c7.754-2.402,15.835-0.773,22.835,4.58c9.365,7.215,10.538,21.234,2.923,34.9C171.859,306.27,153.921,318.707,130.294,318.707z M130.229,304.855c20.312,0.205,32.833-11.478,37.795-20.387c3.975-7.149,4.301-14.299,0.773-17.026 c-3.37-2.569-6.814-3.351-10.193-2.309c-6.079,1.88-11.767,9.29-15.211,19.8C141.177,292.902,136.466,299.8,130.229,304.855z"></path><path style="fill:#B1304F;" d="M88.534,246.273c10.715,10.082,26.81,11.869,39.471,4.375c20.573-10.985,38.074-6.516,40.681,10.147 C172.036,283.044,114.32,300.173,88.534,246.273z"></path><path style="fill:#333333;" d="M138.849,289.048c-20.089,0-43.036-11.385-56.618-39.759c-1.452-3.035-0.531-6.665,2.178-8.648 c2.709-1.983,6.451-1.75,8.899,0.549c8.406,7.894,21.206,9.328,31.139,3.454c14.178-7.578,27.834-9.002,37.739-4.068 c7.27,3.631,12.027,10.426,13.396,19.149c1.759,11.692-7.121,22.602-22.081,27.192C148.95,288.303,143.988,289.048,138.849,289.048z M107.925,262.07c14.513,14.141,31.707,14.476,41.481,11.478c7.829-2.411,13.033-7.336,12.381-11.729 c-0.661-4.208-2.616-7.177-5.818-8.769c-5.716-2.849-14.941-1.452-24.669,3.742C124.15,261.028,115.968,262.731,107.925,262.07z"></path><path style="fill:#555555;" d="M498.041,425.473c-4.003-21.262-20.629-37.888-41.891-41.891 c-12.381-3.072-43.846-10.799-79.127-18.618c-79.658-18.134-162.378-18.134-242.036,0c-34.071,7.913-65.164,15.267-79.313,18.618 c-21.187,4.068-37.73,20.685-41.705,41.891l-4.655,23.273c77.833,34.155,161.969,51.6,246.97,51.2 c84.806,0.316,168.746-17.129,246.412-51.2L498.041,425.473z"></path><path style="fill:#444444;" d="M502.695,448.839c-4.468-22.435-24.39-36.305-46.545-41.891 c-12.381-3.072-43.846-10.799-79.127-18.618c-79.658-18.181-162.378-18.181-242.036,0c-34.071,7.913-65.164,15.267-79.313,18.618 c-22.156,5.585-42.077,19.456-46.545,41.891c77.898,34.155,162.099,51.563,247.156,51.107 C341.089,500.29,425.02,482.873,502.695,448.839z"></path><path style="fill:#EDCCC3;" d="M186.186,340.388c16.849,39.284,52.038,60.975,69.539,73.542 c19.456-14.057,53.9-35.747,70.097-75.031v-20.387H186.186V340.388z"></path><path style="fill:#E5C2BA;" d="M186.186,327.821c27.927,23.273,44.777,35.468,51.2,41.891 c10.519,12.456,17.017,27.806,18.618,44.032c19.549-14.057,53.713-35.654,69.911-74.473v-20.759H186.279L186.186,327.821z"></path><g><rect x="179.204" y="318.558" style="fill:#333333;" width="13.964" height="32.582"></rect><rect x="318.841" y="318.558" style="fill:#333333;" width="13.964" height="32.582"></rect><path style="fill:#333333;" d="M253.212,509.255c-85.699,0-169.025-17.492-247.64-51.991c-4.003-1.759-6.246-6.06-5.39-10.352 l4.655-23.273c4.766-25.079,24.12-44.395,49.301-49.105c8.145-2.001,29.985-7.038,53.425-12.437 c15.071-3.482,30.804-7.112,44.116-10.203c4.971-1.229,10.007,1.946,11.18,6.954c1.164,5.008-1.946,10.007-6.963,11.171 c-13.321,3.1-29.063,6.74-44.144,10.212c-23.357,5.381-45.103,10.398-53.695,12.493c-18.078,3.398-31.614,16.896-34.946,34.481 l-3.193,15.974c74.221,31.502,152.678,47.467,233.37,47.467c1.75,0,3.491-0.009,5.25-0.009c80.831,0,159.316-15.956,233.546-47.458 l-3.165-15.891c-3.333-17.724-16.868-31.251-34.481-34.574c-13.321-3.286-64.242-14.941-97.885-22.491 c-5.018-1.126-8.173-6.097-7.047-11.115c1.126-5.008,6.135-8.173,11.115-7.047c33.736,7.568,84.862,19.27,97.773,22.472 c24.688,4.627,44.041,23.99,48.789,49.208l4.636,23.161c0.856,4.291-1.378,8.592-5.39,10.352 c-79.341,34.816-163.198,52.196-250.182,51.982C255.241,509.255,254.226,509.255,253.212,509.255z"></path></g><g><path style="fill:#3A3A3F;" d="M232.173,395.404l23.273,22.807l-23.273-6.796l-37.236,31.93c-1.787,1.303-4.291,0.903-5.595-0.884 c-0.233-0.326-0.419-0.689-0.549-1.071l-4.003-11.357L232.173,395.404z"></path><path style="fill:#3A3A3F;" d="M279.836,395.404l-23.273,22.807l23.273-6.796l37.236,31.93c1.787,1.303,4.291,0.903,5.595-0.884 c0.233-0.326,0.419-0.689,0.549-1.071l4.003-11.357L279.836,395.404z"></path></g><g><circle style="fill:#333333;" cx="278.718" cy="433.292" r="6.516"></circle><path style="fill:#333333;" d="M256.004,509.348c-5.139,0-9.309-4.161-9.309-9.309v-87.505c0-5.148,4.17-9.309,9.309-9.309 c5.139,0,9.309,4.161,9.309,9.309v87.505C265.313,505.187,261.143,509.348,256.004,509.348z"></path></g><polyline style="fill:#555555;" points="181.252,326.703 158.259,357.889 176.877,432.362 231.242,396.056 "></polyline><path style="fill:#333333;" d="M176.877,441.661c-1.136,0-2.271-0.205-3.351-0.624c-2.821-1.089-4.943-3.482-5.679-6.423 l-18.618-74.473c-0.67-2.69-0.112-5.548,1.545-7.782l22.993-31.185c3.035-4.133,8.872-5.027,13.014-1.964 c4.133,3.053,5.018,8.881,1.964,13.014l-20.387,27.657l14.345,57.391l43.371-28.961c4.264-2.849,10.045-1.704,12.912,2.569 c2.858,4.282,1.704,10.063-2.569,12.921l-54.365,36.296C180.498,441.14,178.692,441.661,176.877,441.661z"></path><polyline style="fill:#444444;" points="330.198,326.703 353.75,357.889 335.132,432.362 280.394,395.87 "></polyline><g><path style="fill:#333333;" d="M335.132,441.661c-1.806,0-3.612-0.531-5.167-1.564l-54.737-36.492 c-4.282-2.858-5.427-8.629-2.579-12.912c2.849-4.282,8.62-5.436,12.912-2.579l43.743,29.165l14.336-57.335l-20.871-27.639 c-3.1-4.096-2.281-9.933,1.815-13.033c4.096-3.109,9.933-2.299,13.033,1.815l23.552,31.185c1.704,2.243,2.29,5.139,1.601,7.866 l-18.618,74.473c-0.726,2.932-2.849,5.334-5.669,6.423C337.403,441.457,336.267,441.661,335.132,441.661z"></path><path style="fill:#333333;" d="M255.725,423.239c-1.908,0-3.807-0.586-5.427-1.75l-5.474-3.863 c-22.109-15.462-59.131-41.351-72.527-88.371c-1.406-4.943,1.462-10.1,6.405-11.506c4.934-1.424,10.091,1.452,11.506,6.405 c11.581,40.653,45.196,64.177,65.285,78.215l0.205,0.149l0.344-0.233c21.392-15.146,53.723-38.018,65.201-78.15 c1.415-4.943,6.619-7.745,11.515-6.395c4.934,1.415,7.801,6.572,6.395,11.515c-13.284,46.406-50.26,72.583-72.36,88.213 l-5.613,4.003C259.551,422.643,257.643,423.239,255.725,423.239z"></path></g><path style="fill:#EDCCC3;" d="M256.004,53.109c-76.241,0-98.118,42.077-97.839,93.091v32.582 c-9.309-4.655-29.975,1.676-23.273,46.545c0.512,15.304,12.642,27.676,27.927,28.486c0.931,57.437,17.873,45.335,37.236,74.473 c19.363,29.137,44.125,18.618,55.855,18.618c11.729,0,37.236,9.309,55.855-18.618c18.618-27.927,36.119-17.036,37.236-74.473 c15.192-1.024,27.201-13.275,27.927-28.486c6.609-44.87-14.15-51.2-23.273-46.545c0,0,0-20.48,0-32.582 C354.122,95.373,332.246,53.109,256.004,53.109z"></path><path style="fill:#DDBBB6;" d="M353.936,178.968c0,0,0-20.48,0-32.582c0-51.014-21.69-93.091-97.932-93.091 c-7.913-0.028-15.807,0.503-23.645,1.583c-13.954,72.034-21.215,145.203-21.69,218.577c0,18.618,1.024,44.311,2.793,72.332 c14.522,9.309,32.954,5.399,42.543,5.399c11.729,0,36.585,6.144,51.479-13.964c20.852-27.927,40.96-21.69,41.891-79.127 c16.756-0.838,25.507-17.129,27.927-32.582C383.818,180.644,363.059,174.127,353.936,178.968z"></path><path style="fill:#333333;" d="M235.757,358.038c-13.228,0-29.826-4.087-43.455-24.604c-5.474-8.248-10.668-12.707-15.704-17.017 c-12.995-11.143-21.271-20.741-22.854-54.719c-15.816-4.431-27.331-18.441-28.132-35.505c-4.813-32.954,4.245-47.197,12.716-53.341 c3.184-2.309,6.814-3.779,10.529-4.366v-22.295c-0.186-32.545,8.425-57.809,25.581-75.059 c18.041-18.143,45.484-27.341,81.566-27.341c36.091,0,63.535,9.225,81.576,27.434c17.147,17.296,25.693,42.552,25.395,75.059v22.221 c3.621,0.586,7.177,2.029,10.305,4.273c8.583,6.163,17.78,20.517,12.865,53.909c-0.735,16.254-12.316,30.329-28.086,34.928 c-1.704,34.332-10.166,44.125-23.45,55.557c-4.887,4.208-9.942,8.555-15.099,16.282c-18.516,27.769-43.799,24.874-57.363,23.31 c-4.822-0.559-7.829-0.54-12.632,0.121C245.727,357.395,241.007,358.038,235.757,358.038z M152.487,186.797 c-0.903,0-2.048,0.261-3.23,1.126c-4.599,3.333-8.369,14.55-5.157,36.026l0.093,1.071c0.354,10.557,8.564,18.935,19.121,19.503 l8.676,0.456l0.14,8.685c0.568,34.881,6.591,40.048,16.598,48.631c5.427,4.655,12.176,10.445,19.084,20.834 c12.577,18.925,26.708,16.989,39.182,15.304c6.572-0.912,10.696-0.931,17.278-0.177c12.912,1.489,27.536,3.184,39.741-15.137 c6.563-9.858,13.154-15.518,18.441-20.07c9.961-8.564,16.542-14.215,17.231-49.422l0.168-8.536l8.518-0.577 c10.473-0.708,18.758-9.151,19.251-19.642c3.258-22.426-0.577-33.643-5.213-36.976c-2.095-1.508-3.975-1.117-4.524-0.829 l-13.545,6.917V146.2c0.242-27.434-6.479-48.221-19.987-61.868c-14.42-14.55-37.413-21.914-68.357-21.914 s-53.946,7.354-68.366,21.848c-13.535,13.61-20.312,34.425-20.163,61.887v47.7l-13.47-6.74 C153.688,186.946,153.157,186.797,152.487,186.797z"></path><path style="fill:#DDBBB6;" d="M254.701,185.205c33.271,0.158,66.476-2.96,99.142-9.309c0-6.33,0-20.015,0-29.137 c0-51.014-21.69-93.091-97.932-93.091s-98.025,41.705-97.745,92.532v29.696C189.975,182.04,222.305,185.149,254.701,185.205z"></path><path style="fill:#D6B2AE;" d="M232.359,54.878c-7.913,43.846-14.057,87.412-17.78,128.559c13.033,1.024,26.345,1.676,40.122,1.676 c33.271,0.158,66.476-2.96,99.142-9.309c0-7.633,0-21.783,0-29.137c0-51.014-21.69-93.091-97.932-93.091 C248.036,53.463,240.169,53.891,232.359,54.878z"></path><g><circle style="fill:#333333;" cx="211.507" cy="212.667" r="6.796"></circle><circle style="fill:#333333;" cx="300.222" cy="212.667" r="6.796"></circle></g><path style="fill:#B1304F;" d="M349.002,253.999l-78.01-23.552c-9.784-2.886-20.191-2.886-29.975,0l-78.196,23.552v55.855 c-0.065,13.759,5.679,26.913,15.825,36.212l64.326,70.097c6.209,7.066,16.97,7.764,24.045,1.555 c0.549-0.484,1.071-1.005,1.555-1.555l59.764-70.004c10.333-10.705,20.759-21.318,20.759-36.212L349.002,253.999z"></path><path style="fill:#A03353;" d="M227.798,234.45l-16.663,4.841c0,11.636-0.652,22.993-0.465,33.978 c0,13.126,2.979,70.47,5.492,113.664l26.81,29.231c6.209,7.066,16.97,7.764,24.045,1.555c0.549-0.484,1.071-1.005,1.555-1.555 l59.764-70.004c10.333-10.705,20.759-21.318,20.759-36.212v-55.855l-78.01-23.552c-7.298-2.178-14.988-2.746-22.528-1.676 c-2.523,0.372-5.008,0.931-7.447,1.676L227.798,234.45z"></path><g><path style="fill:#333333;" d="M255.818,431.263c-0.586,0-1.164-0.019-1.75-0.056c-7.019-0.465-13.452-3.631-18.088-8.909 l-64.195-69.949c-11.487-10.482-18.358-26.196-18.274-42.552V253.99c0-4.105,2.69-7.727,6.619-8.918l78.196-23.552 c11.59-3.407,23.766-3.407,35.3-0.009l78.066,23.561c3.928,1.182,6.609,4.803,6.619,8.899l0.093,55.948 c0,18.479-12.214,31.13-22.984,42.282l-59.774,69.995c-0.829,0.95-1.62,1.741-2.467,2.495 C268.311,428.973,262.213,431.263,255.818,431.263z M172.129,260.907v48.938c-0.056,11.162,4.608,21.848,12.8,29.352l64.894,70.665 c1.499,1.704,3.379,2.625,5.446,2.765c2.048,0.102,4.049-0.549,5.595-1.899c0.233-0.205,0.475-0.456,0.707-0.707l59.681-69.911 c0.13-0.149,0.642-0.689,0.782-0.829c9.523-9.877,17.752-18.395,17.752-29.333l-0.084-49.04l-71.401-21.551 c-8.015-2.365-16.57-2.365-24.65,0.009L172.129,260.907z"></path><path style="fill:#333333;" d="M256.004,49.199c-59.113,0-111.709,38.912-111.709,93.091c0.382,13.852,1.936,27.648,4.655,41.239 l14.336,18.618h4.655c0,0,0-38.633,0-38.726l9.309-12.847V133.54c0-12.847,4.655-25.6,23.273-25.6 c15.639,0,29.51,8.471,55.855,8.471s40.215-8.471,55.855-8.471c18.618,0,23.273,12.753,23.273,25.6v17.036l9.309,12.847 c0,0,0,38.633,0,38.726h4.655l14.336-18.618c2.718-13.591,4.273-27.387,4.655-41.239C367.713,88.111,315.117,49.199,256.004,49.199 z"></path></g><path style="fill:#BA977F;" d="M327.405,38.122c0-41.146-23.18-12.381-71.401-12.381s-71.401-28.486-71.401,12.381 c0,0-17.036,62.929-35.375,71.68c35.188,6.861,70.926,10.473,106.775,10.799c36.482,0.521,72.909-2.942,108.637-10.333 C346.302,101.517,327.405,38.122,327.405,38.122z"></path><path style="fill:#A37C62;" d="M468.81,96.583c0,23.738-95.232,64.326-212.806,64.326S43.198,120.321,43.198,96.583 S138.524,120.6,256.004,120.6S468.81,72.938,468.81,96.583z"></path><path style="fill:#D6AF94;" d="M468.345,96.397c-2.7-23.738-94.767,24.204-212.34,24.204c-26.205-0.372-52.364-2.486-78.289-6.33 c7.745-15.016,13.982-30.767,18.618-47.011c7.168-24.017,6.051-29.603,13.219-27.369c14.811,5.93,30.59,9.086,46.545,9.309 c26.996,0,62.836-8.564,74.473-9.309c-4.468-47.476-29.324-18.153-74.473-18.618c-15.816-1.313-31.437-4.44-46.545-9.309 c-15.546-5.865-27.927,2.048-27.927,27.927c-11.264,22.602-20.601,46.117-27.927,70.284C87.696,97.7,42.919,80.385,42.919,96.583 c0,8.844,13.312,20.108,36.119,30.627c-3.137-2.774-5.101-6.628-5.492-10.799c0-23.645,65.164,25.786,182.179,25.786 c67.584,0,170.636-21.783,207.034-38.353C465.459,102.727,468.996,102.075,468.345,96.397z"></path><g><path style="fill:#343433;" d="M256.004,167.788c-116.308,0-219.788-39.824-219.788-71.215c0-4.087,1.657-7.661,4.664-10.045 c8.518-6.749,25.2-3.221,62.147,5.399c39.21,9.151,92.914,21.69,152.976,21.69c59.718,0,115.312-12.772,155.89-22.1 c39.471-9.067,57.297-12.791,66.057-5.809c2.988,2.374,4.636,5.911,4.636,9.933C482.588,127.144,372.712,167.788,256.004,167.788z M50.255,97.197c2.681,15.053,85.066,56.627,205.75,56.627c122.405,0,209.79-42.719,212.554-57.484 c-6.405-2.113-31.372,3.686-53.537,8.778c-41.239,9.477-97.708,22.454-159.018,22.454c-61.663,0-116.271-12.744-156.151-22.053 C79.383,100.744,56.296,95.382,50.255,97.197z M468.633,95.642h6.973l-6.982-0.065C468.624,95.605,468.624,95.624,468.633,95.642z"></path><path style="fill:#343433;" d="M358.395,112.036c-3.109,0-5.949-2.095-6.758-5.241c-5.734-22.36-14.857-43.632-27.08-63.199 c-0.987-1.583-1.313-3.5-0.875-5.325c1.61-6.721-3.146-14.234-8.667-18.181c-3.435-2.448-6.954-3.361-8.732-2.225 c-0.447,0.279-0.922,0.512-1.415,0.689c-15.621,5.502-31.93,8.76-48.472,9.7c-17.334-0.931-33.643-4.189-49.264-9.7 c-5.399-2.653-9.486-2.439-12.912,0.289c-5.055,4.003-7.587,12.353-5.893,19.419c0.438,1.815,0.121,3.733-0.866,5.325 c-12.241,19.586-21.346,40.848-27.089,63.199c-0.959,3.724-4.776,5.976-8.499,5.027c-3.733-0.959-5.986-4.766-5.027-8.499 c5.865-22.854,15.053-44.637,27.331-64.791C172.52,26.951,176.97,14.7,185.544,7.895c7.699-6.125,17.566-6.926,27.043-2.178 c13.573,4.729,28.579,7.727,43.818,8.583c14.234-0.838,29.007-3.77,43.194-8.695c6.749-3.789,15.49-2.644,23.552,3.119 c8.341,5.958,16.04,17.51,14.662,29.733c12.288,20.163,21.495,41.965,27.359,64.856c0.959,3.733-1.294,7.54-5.027,8.499 C359.559,111.961,358.981,112.036,358.395,112.036z"></path></g></svg>