<!-- icon666.com - MILLIONS vector ICONS FREE --><svg version="1.1" id="Capa_1" xmlns="http://www.w3.org/2000/svg" xmlns:xlink="http://www.w3.org/1999/xlink" x="0px" y="0px" viewBox="0 0 512.021 512.021" style="enable-background:new 0 0 512.021 512.021;" xml:space="preserve"><path style="fill:#C5D5DD;" d="M373.504,475.015V372.671c-9.389-1.972-18.215-3.662-27.323-5.164l0,0l0,0 c-33.182,49.613-100.306,62.918-149.919,29.736c-11.981-8.018-22.243-18.347-30.168-30.393c-9.389,1.502-18.121,3.286-27.135,5.258 v103.001l0,0c38.693,7.333,77.988,11.07,117.367,11.173C295.648,486.151,334.876,482.376,373.504,475.015z"></path><g><path style="fill:#EDCCC3;" d="M499.978,411.167c-3.962-21.483-20.769-38.29-42.252-42.252 c-12.488-3.192-44.224-10.892-79.809-18.779c-80.344-18.29-163.778-18.29-244.122,0c-34.365,7.981-65.725,15.398-79.997,18.779 c-21.483,3.962-38.29,20.769-42.252,42.252l-4.695,23.473c78.504,34.449,163.365,52.045,249.099,51.641 c85.537,0.319,170.2-17.276,248.535-51.641L499.978,411.167z"></path><path style="fill:#EDCCC3;" d="M326.557,303.19h-140.84v33.144c10.516,32.675,24.318,41.313,70.42,88.917 c46.102-47.604,59.904-56.336,70.42-88.917V303.19z"></path></g><path style="fill:#E5C2BA;" d="M326.557,340.747V303.19h-140.84v9.389c28.168,23.473,45.163,35.773,51.641,42.252 c11.183,13.201,17.774,29.68,18.779,46.947v13.99c44.937,0.028,85.189-27.802,101.029-69.857L326.557,340.747z"></path><g><rect x="178.675" y="303.19" style="fill:#333333;" width="14.084" height="56.336"></rect><rect x="319.515" y="303.19" style="fill:#333333;" width="14.084" height="56.336"></rect></g><path style="fill:#4F4D4B;" d="M499.978,411.167c-3.962-21.483-20.769-38.29-42.252-42.252 c-12.488-3.192-44.224-10.892-79.809-18.779c-6.854-1.596-13.802-2.911-20.75-4.225c-20.985,55.82-83.246,84.053-139.065,63.068 c-29.229-10.986-52.27-34.093-63.181-63.35c-7.042,1.315-14.084,2.723-21.032,4.319c-34.365,7.981-65.725,15.398-79.997,18.779 c-21.483,3.962-38.29,20.769-42.252,42.252l-4.695,23.473c78.504,34.449,163.365,52.045,249.099,51.641 c85.537,0.319,170.2-17.276,248.535-51.641L499.978,411.167z"></path><path style="fill:#333333;" d="M457.726,392.295c-12.488-3.099-44.224-10.798-79.809-18.779 c-10.516-2.347-21.126-4.319-31.736-6.009c-32.928,49.782-99.978,63.444-149.76,30.515c-12.122-8.018-22.497-18.394-30.515-30.515 c-10.704,1.784-21.314,3.85-31.924,6.291c-34.365,7.981-65.725,15.398-79.997,18.779c-22.347,5.634-42.44,19.624-46.947,42.346 c78.504,34.449,163.365,52.045,249.099,51.641c85.537,0.319,170.2-17.276,248.535-51.641 C500.166,411.919,480.073,397.928,457.726,392.295z"></path><path style="fill:#DFEAEF;" d="M138.771,475.109c38.693,7.361,77.978,11.098,117.367,11.173 c39.388-0.066,78.683-3.84,117.367-11.267V349.198l-16.337-3.286c-20.985,55.82-83.246,84.053-139.065,63.068 c-29.229-10.986-52.27-34.093-63.181-63.35l-16.244,3.286L138.771,475.109z"></path><g><path style="fill:#333333;" d="M253.405,493.343c-86.156,0-169.909-17.577-248.92-52.242c-3.033-1.333-4.723-4.582-4.075-7.831 l4.695-23.473c4.441-24.074,23.689-43.332,47.876-47.792c6.46-1.718,30.168-6.666,57.622-12.394 c26.44-5.521,56.42-11.774,73.537-15.708c3.765-0.93,7.568,1.484,8.441,5.286c0.873,3.784-1.493,7.568-5.286,8.432 c-17.248,3.972-47.303,10.244-73.809,15.783c-26.131,5.455-50.815,10.61-57.435,12.338c-18.995,3.521-33.698,18.225-37.107,36.712 l-3.596,17.999c75.687,32.393,155.76,48.806,238.123,48.806c1.728,0,3.455-0.009,5.183-0.009 c82.485,0,162.576-16.403,238.282-48.796l-3.577-17.887c-3.427-18.591-18.14-33.304-36.618-36.712 c-7.399-1.868-38.215-8.375-68.016-14.657c-23.699-4.995-48.12-10.141-63.669-13.558c-3.793-0.836-6.197-4.591-5.361-8.394 c0.836-3.803,4.573-6.159,8.394-5.361c15.511,3.408,39.886,8.544,63.547,13.53c31.332,6.601,60.909,12.845,68.138,14.685 c23.717,4.357,42.975,23.614,47.435,47.801l4.676,23.361c0.648,3.249-1.042,6.497-4.075,7.831 c-79.021,34.665-162.82,52.233-249.08,52.233C256.945,493.333,255.18,493.343,253.405,493.343z"></path><path style="fill:#333333;" d="M253.123,493.249c-86.156,0-169.9-17.577-248.911-52.242c-3.033-1.333-4.723-4.582-4.075-7.831 l4.695-23.473c4.441-24.093,23.689-43.341,47.886-47.792c6.094-1.634,27.454-6.066,52.176-11.211 c16.215-3.361,33.792-7.023,49.303-10.356c3.361-0.667,6.77,1.108,8.028,4.31c10.225,26.055,31.032,46.862,57.078,57.087 c51.81,20.356,110.512-5.267,130.84-57.087c1.258-3.202,4.629-5.061,8.028-4.31c13.323,2.864,28.102,5.981,42.196,8.957 c28.309,5.99,52.749,11.155,59.125,12.807c23.68,4.347,42.919,23.567,47.397,47.735l4.685,23.323 c0.648,3.249-1.042,6.497-4.075,7.831c-79.021,34.665-162.82,52.233-249.08,52.233C256.663,493.24,254.898,493.249,253.123,493.249 z M15.066,430.359c75.687,32.393,155.76,48.806,238.123,48.806c1.728,0,3.455-0.009,5.183-0.009 c82.476,0,162.576-16.403,238.282-48.796l-3.577-17.802c-0.009-0.038-0.019-0.075-0.019-0.113 c-3.408-18.488-18.121-33.191-36.6-36.6c-6.554-1.681-32.027-7.061-58.993-12.76c-12.122-2.563-24.76-5.239-36.543-7.746 c-25.069,55.303-89.602,81.959-146.755,59.519c-27.821-10.92-50.393-32.431-62.702-59.519c-14.065,2.986-29.417,6.178-43.707,9.155 c-23.511,4.892-45.717,9.502-51.97,11.155c-19.004,3.512-33.717,18.215-37.125,36.712L15.066,430.359z"></path><rect x="131.729" y="349.761" style="fill:#333333;" width="14.084" height="126.756"></rect><rect x="366.462" y="349.761" style="fill:#333333;" width="14.084" height="126.756"></rect></g><path style="fill:#EDCCC3;" d="M359.514,167.42v-23.473c0-59.622-30.891-100.935-103.283-100.935S152.949,84.325,152.949,143.947 v23.473c-17.934,0.469-21.502,17.558-17.182,37.557c3.474,16.619,12.488,39.811,26.572,39.811v23.473 c0,21.595,29.858,54.083,60.937,70.42c10.516,3.831,21.689,5.493,32.863,4.882c10.309,0.61,20.619-1.023,30.234-4.789 c31.173-16.337,63.472-48.825,63.472-70.42v-23.473c14.084,0,24.506-23.192,28.168-39.811 C382.424,184.979,377.541,167.89,359.514,167.42z"></path><path style="fill:#E5C2BA;" d="M359.514,167.42v-23.473c0-59.622-30.891-100.935-103.283-100.935c-4.976,0-9.389,0-14.366,0.657 c-17.84,67.697-30.609,146.098-30.046,205.251c0,20.469,2.253,54.27,5.07,86.1l6.385,3.568c10.516,3.831,21.689,5.493,32.863,4.882 c10.3,0.638,20.619-0.958,30.234-4.695c31.173-16.337,63.472-48.825,63.472-70.42v-23.473c14.084,0,24.506-23.192,28.168-39.811 C382.424,184.979,377.541,167.89,359.514,167.42z"></path><g><circle style="fill:#333333;" cx="211.444" cy="205.635" r="9.389"></circle><circle style="fill:#333333;" cx="300.643" cy="205.635" r="9.389"></circle><path style="fill:#333333;" d="M274.916,289.116h-37.557c-2.591,0-4.695-2.103-4.695-4.695c0-2.591,2.103-4.695,4.695-4.695h37.557 c2.591,0,4.695,2.103,4.695,4.695C279.611,287.012,277.517,289.116,274.916,289.116z"></path><path style="fill:#333333;" d="M256.203,255.783c-3.38,0-6.788-0.554-10.037-1.671l-10.037-2.723 c-2.507-0.685-3.981-3.267-3.296-5.765c0.676-2.507,3.286-3.981,5.765-3.296l10.328,2.817c4.751,1.615,9.671,1.615,14.15,0.085 l10.61-2.901c2.545-0.695,5.089,0.798,5.765,3.296c0.676,2.498-0.798,5.08-3.296,5.765l-10.338,2.817 C262.785,255.248,259.518,255.783,256.203,255.783z"></path><path style="fill:#333333;" d="M260.832,307.894h-9.389c-2.591,0-4.695-2.103-4.695-4.695s2.103-4.695,4.695-4.695h9.389 c2.591,0,4.695,2.103,4.695,4.695S263.424,307.894,260.832,307.894z"></path><path style="fill:#333333;" d="M251.011,350.832c-9.962,0-20.253-1.822-30.149-5.427c-0.3-0.113-0.592-0.235-0.864-0.385 c-31.116-16.366-64.702-50.317-64.702-76.654v-17.68c-17.145-6.3-24.45-34.712-26.422-44.167 c-2.084-9.68-4.235-27.699,4.854-39.247c3.117-3.962,7.22-6.676,12.084-8.037v-17.445c0-68.242,39.182-105.818,110.325-105.818 c71.152,0,110.325,37.576,110.325,105.818v17.408c5.239,1.418,9.671,4.357,13.061,8.676c6.882,8.798,8.835,22.91,5.361,38.712 c-3.249,14.732-12.488,38.384-27.999,44.074v17.699c0,25.586-34.91,59.707-67.237,76.654c-11.324,4.507-22.497,6.291-33.905,5.671 C254.175,350.785,252.598,350.832,251.011,350.832z M226.129,332.325c9.53,3.408,19.492,4.901,29.623,4.3 c10.131,0.563,19.295-0.948,28.037-4.394c30.562-16.065,59.012-46.656,59.012-63.876v-23.473c0-3.887,3.155-7.042,7.042-7.042 c8.225,0,17.652-17.727,21.295-34.28c2.498-11.342,1.455-21.689-2.704-27.004c-2.15-2.751-5.164-4.15-9.192-4.253 c-3.812-0.094-6.854-3.221-6.854-7.042v-23.473c0-60.871-32.384-91.734-96.241-91.734s-96.25,30.863-96.25,91.734v23.473 c0,3.821-3.042,6.939-6.854,7.042c-3.728,0.103-6.347,1.268-8.234,3.671c-3.972,5.051-4.779,15.38-2.15,27.623 c4.084,19.539,12.544,34.243,19.689,34.243c3.887,0,7.042,3.155,7.042,7.042v23.473 C169.38,286.139,196.374,316.532,226.129,332.325z"></path></g><path style="fill:#E2B074;" d="M332.191,59.443c0-46.947-136.99-38.684-164.219-11.737h18.779 c-39.557,19.98-58.524,65.904-44.599,107.977c4.882,14.366,18.779,23.473,18.779,51.641v-63.472 c114.08-0.563,93.893-44.505,145.441-44.505c0,39.905,42.252,32.299,42.252,51.641v56.336c0-28.168,13.802-32.675,18.779-48.918 C374.631,131.647,376.884,59.443,332.191,59.443z"></path><path style="fill:#EFC08E;" d="M167.972,47.707h18.779c-39.557,19.98-58.524,65.904-44.599,107.977 c2.479,6,5.634,11.699,9.389,16.995c-8.281-45.463,13.521-91.105,54.083-113.235c-4.507,0-11.737,0-11.737,0 c21.877-21.689,93.893-28.168,137.366-6.76C318.483,13.436,193.792,22.168,167.972,47.707z"></path><g><path style="fill:#CC9A64;" d="M158.864,207.325c-0.469-21.126-1.033-42.252-1.221-63.472v-3.192h3.38l19.248-0.845 c6.385-0.657,12.77-1.127,18.779-1.972c12.516-1.615,24.778-4.77,36.524-9.389c11.568-5.267,22.347-12.122,32.018-20.375 c5.483-4.357,11.68-7.718,18.309-9.953c6.685-2.075,13.661-3.061,20.657-2.911h4.507v4.601c-0.638,9.511,3.305,18.76,10.61,24.882 c4,3.089,8.347,5.709,12.957,7.793c5.352,2.169,10.234,5.352,14.366,9.389c1.099,1.38,1.953,2.939,2.535,4.601 c0.347,1.643,0.573,3.305,0.657,4.976v7.981v15.962l-0.751,32.018c-0.094,1.174-1.08,2.066-2.253,2.066 c-1.146,0-2.066-0.92-2.066-2.066l0,0l-0.751-32.018V159.44v-7.981c0.019-1.906-0.685-3.756-1.972-5.164 c-3.54-3.23-7.69-5.718-12.206-7.324c-5.173-2.206-10.084-4.976-14.647-8.263c-9.53-7.53-14.929-19.126-14.553-31.266l4.507,4.507 c-12.112-0.197-23.905,3.85-33.332,11.455c-10.394,8.751-22.121,15.783-34.741,20.844c-12.525,4.723-25.577,7.878-38.872,9.389 c-6.573,0.751-13.145,1.127-19.718,1.596h-19.624l3.38-3.38c0,21.22-0.751,42.346-1.314,63.472c0,1.145-0.92,2.066-2.066,2.066 c-0.028,0-0.066,0-0.094,0c-1.136,0.103-2.141-0.732-2.244-1.868C158.864,207.457,158.864,207.391,158.864,207.325z"></path><path style="fill:#CC9A64;" d="M327.121,70.523c1.831,7.99-3.164,15.943-11.145,17.774c-0.469,0.113-0.948,0.197-1.437,0.254 c-1.737-8.112,3.427-16.103,11.539-17.84C326.426,70.635,326.773,70.579,327.121,70.523z"></path></g><path style="fill:#333333;" d="M345.43,207.325c-0.319-7.624,0.826-15.248,3.38-22.44c2.958-6.751,6.507-13.22,10.61-19.342 c1.615-2.948,2.817-6.112,3.568-9.389c0.751-3.286,1.408-6.666,1.878-10.14c0.92-6.882,1.427-13.812,1.502-20.75 c0.404-13.699-1.859-27.351-6.666-40.186c-2.507-5.596-6.225-10.572-10.892-14.553c-4.882-3.38-10.685-5.183-16.619-5.164l0,0 c-3.145-0.15-5.596-2.77-5.54-5.915c0-11.549-13.615-18.779-27.229-22.347c-14.441-3.258-29.238-4.648-44.036-4.131 c-14.816,0.169-29.595,1.709-44.13,4.601c-7.155,1.437-14.206,3.314-21.126,5.634c-6.357,2.009-12.281,5.192-17.464,9.389 l-4.695-11.549h18.779l0,0c3.577,0.047,6.432,2.995,6.385,6.573l0,0c-0.075,2.385-1.446,4.544-3.568,5.634 c-12.779,6.441-23.774,15.915-32.018,27.605c-8.253,11.793-13.361,25.492-14.835,39.811c-0.779,7.164-0.526,14.403,0.751,21.502 c0.526,3.596,1.343,7.145,2.441,10.61c0.995,3.286,2.385,6.441,4.131,9.389c4.291,6.619,7.878,13.661,10.704,21.032 c2.62,7.765,3.821,15.943,3.568,24.131c-0.047,1.765-1.521,3.145-3.286,3.098l0,0c-1.709-0.047-3.098-1.39-3.192-3.098 c-0.094-7.258-1.465-14.441-4.037-21.22c-3.061-6.573-6.713-12.854-10.892-18.779c-2.244-3.483-4.047-7.239-5.352-11.173 c-1.277-3.784-2.31-7.634-3.098-11.549c-1.606-7.906-2.141-15.99-1.596-24.037c1.136-16.234,6.404-31.914,15.305-45.538 c8.948-13.699,21.182-24.929,35.586-32.675l3.005,12.3h-18.779l0,0c-3.681,0.056-6.704-2.892-6.76-6.573l0,0 c0.028-1.831,0.77-3.587,2.066-4.882c6.479-5.737,14.046-10.112,22.253-12.863c7.436-2.883,15.098-5.145,22.91-6.76 c15.464-3.08,31.182-4.713,46.947-4.882c15.83-0.207,31.623,1.728,46.947,5.727c8.159,2.16,15.859,5.793,22.722,10.704 c7.934,5.53,12.723,14.553,12.863,24.224l-5.915-6.009c8.516,0.188,16.76,3.042,23.567,8.169 c6.178,5.333,10.948,12.103,13.896,19.718c5.051,14.272,7.249,29.389,6.479,44.505c-0.254,7.389-0.967,14.76-2.16,22.065 c-0.751,3.662-1.502,7.324-2.629,10.986c-1.108,3.793-2.723,7.427-4.789,10.798c-4.131,5.643-7.803,11.615-10.986,17.84 c-2.451,6.319-3.728,13.032-3.756,19.811c0,1.765-1.427,3.192-3.192,3.192s-3.192-1.427-3.192-3.192L345.43,207.325z"></path></svg>