<!-- icon666.com - MILLIONS vector ICONS FREE --><svg version="1.1" id="Capa_1" xmlns="http://www.w3.org/2000/svg" xmlns:xlink="http://www.w3.org/1999/xlink" x="0px" y="0px" viewBox="0 0 512.012 512.012" style="enable-background:new 0 0 512.012 512.012;" xml:space="preserve"><path style="fill:#424241;" d="M500.263,407.45c-4.04-21.457-20.818-38.236-42.275-42.275c-12.495-3.1-44.248-10.804-79.853-18.789 c-80.398-18.254-163.859-18.254-244.257,0c-34.384,7.985-65.761,15.407-80.041,18.789c-21.457,4.04-38.236,20.818-42.275,42.275 l-4.697,23.486C85.383,465.508,170.309,483.141,256.1,482.7c85.593,0.319,170.313-17.314,248.672-51.764L500.263,407.45z"></path><path style="fill:#333333;" d="M504.96,430.936c-4.509-22.641-24.614-36.639-46.972-42.275c-12.495-3.1-44.248-10.804-79.853-18.789 c-80.389-18.3-163.868-18.3-244.257,0c-34.384,7.985-65.761,15.407-80.041,18.789c-22.359,5.637-42.463,19.634-46.972,42.275 C85.383,465.508,170.309,483.141,256.1,482.7C341.759,483.038,426.544,465.405,504.96,430.936z"></path><path style="fill:#71AA7F;" d="M314.722,479.788c17.38-37.578,25.647-77.88,27.526-140.917c-28.747-3.824-57.71-5.768-86.711-5.825 c-28.879,0.047-57.72,2.029-86.335,5.919c1.879,63.037,10.146,103.339,27.526,140.917l0,0c18.789,1.785,39.739,2.912,59.279,2.912 c19.541,0,38.705-0.939,58.716-2.818V479.788z"></path><path style="fill:#9C7367;" d="M326.465,299.413H185.547v18.789c10.522,32.693,24.332,35.605,70.459,83.235 c46.127-47.63,59.937-50.542,70.459-83.235V299.413z"></path><path style="fill:#956A5E;" d="M326.465,315.854v-16.44H185.547v9.395c28.183,23.486,45.188,35.793,51.67,42.275 c11.179,13.218,17.765,29.696,18.789,46.972v6.764C302.133,357.283,315.943,348.64,326.465,315.854z"></path><g><rect x="178.501" y="299.413" style="fill:#333333;" width="14.092" height="32.881"></rect><rect x="319.419" y="299.413" style="fill:#333333;" width="14.092" height="32.881"></rect></g><path style="fill:#9C7367;" d="M359.439,156.053v-23.486c0-59.749-30.908-100.991-103.339-100.991S152.76,72.818,152.76,132.567 v23.486c-18.037,0.47-21.513,17.568-17.286,37.578c3.57,16.628,12.589,39.927,26.68,39.927v23.486 c0,21.607,29.874,54.018,60.97,70.459c10.522,3.805,21.711,5.439,32.881,4.791c10.409,0.648,20.828-0.986,30.532-4.791 c31.19-16.44,63.507-48.851,63.507-70.459v-23.486c14.092,0,24.52-23.298,28.183-39.927 C382.362,173.809,377.383,156.523,359.439,156.053z"></path><path style="fill:#956A5E;" d="M359.439,156.053v-23.486c0-59.749-30.908-100.991-103.339-100.991c-5.919,0-11.555,0-16.91,0.846 c-16.628,65.761-28.183,139.79-28.183,196.533c0,22.453,2.818,60.97,6.012,95.26l5.731,3.288 c10.522,3.805,21.711,5.439,32.881,4.791c10.531,0.705,21.081-0.93,30.908-4.791c31.19-16.44,63.507-48.851,63.507-70.459v-23.486 c14.092,0,24.52-23.298,28.184-39.927C382.362,173.809,377.383,156.523,359.439,156.053z"></path><g><path style="fill:#333333;" d="M250.595,339.471c-9.836,0-20.038-1.785-29.874-5.345c-0.31-0.113-0.601-0.235-0.892-0.395 c-31.124-16.459-64.728-50.458-64.728-76.687v-17.709c-17.042-6.341-24.491-34.769-26.521-44.229 c-2.048-9.714-4.124-27.695,4.932-39.241c3.119-3.974,7.234-6.708,12.1-8.089v-17.474c0-68.213,39.203-105.782,110.385-105.782 s110.395,37.578,110.395,105.791v17.455c5.176,1.437,9.592,4.368,12.974,8.671c6.943,8.821,9.047,22.904,5.759,38.63 c-3.269,14.834-12.532,38.555-28.033,44.267v17.709c0,25.468-34.919,59.646-67.265,76.687c-11.33,4.481-22.923,6.304-34.252,5.59 C253.92,339.424,252.267,339.471,250.595,339.471z M225.981,321.039c9.545,3.382,19.484,4.81,29.611,4.209 c10.127,0.592,19.663-0.902,28.371-4.312c30.551-16.159,59.026-46.766,59.026-63.901v-23.486c0-3.889,3.157-7.046,7.046-7.046 c8.211,0,17.643-17.784,21.307-34.393c2.339-11.226,1.174-21.579-3.053-26.962c-2.189-2.781-5.186-4.19-9.169-4.312 c-3.805-0.122-6.83-3.232-6.83-7.046v-23.486c0-60.839-32.392-91.69-96.294-91.69c-63.883,0.009-96.284,30.861-96.284,91.7v23.486 c0,3.805-3.025,6.924-6.83,7.046c-3.739,0.122-6.379,1.306-8.286,3.73c-3.974,5.064-4.81,15.388-2.236,27.601 c4.199,19.569,12.711,34.337,19.785,34.337c3.889,0,7.046,3.157,7.046,7.046v23.486 C169.201,274.743,196.21,305.144,225.981,321.039z"></path><circle style="fill:#333333;" cx="300.63" cy="190.249" r="8.173"></circle><circle style="fill:#333333;" cx="211.382" cy="190.249" r="8.173"></circle></g><g style="opacity:0.5;enable-background:new ;"><path style="fill:#B9C6CB;" d="M256.288,482.7c15.313,0,30.438-0.658,45.469-1.691c-26.774-81.638-22.735-69.143-26.399-80.135 l14.749-19.447c2.903-4.011,2.903-9.423,0-13.434c-2.367-3.222-6.153-5.082-10.146-4.979h-30.438 c-4.725,0.047-8.953,2.94-10.71,7.328c-1.409,3.964-0.658,8.37,1.973,11.649l14.092,18.789l-28.183,81.168 C236.559,482.418,246.424,482.7,256.288,482.7z"></path></g><g style="enable-background:new ;"><g style="opacity:0.5;"><path style="fill:#B9C6CB;" d="M310.87,420.414l6.012,7.985c0.488,0.573,1.099,1.024,1.785,1.315 c2.405,0.958,5.139-0.216,6.106-2.621v-0.009l20.668-82.296L310.87,420.414z"></path></g><g style="opacity:0.5;"><path style="fill:#B9C6CB;" d="M245.484,366.114l-42.651,54.958c0,0,1.785,3.006,3.852,6.764c3.194,5.919,6.858,1.597,6.858,1.503 c5.261-6.858,42.463-59.185,42.463-59.185L245.484,366.114z"></path></g></g><path style="fill:#494949;" d="M232.52,378.609l17.098,22.641c2.537,3.42,7.365,4.134,10.775,1.597 c0.038-0.028,0.085-0.056,0.122-0.094c0.592-0.404,1.099-0.911,1.503-1.503l17.474-22.641c2.574-3.485,1.86-8.389-1.597-10.992 c-1.343-0.958-2.95-1.475-4.603-1.503h-34.384c-4.284-0.056-7.835,3.326-7.985,7.61C230.913,375.48,231.477,377.19,232.52,378.609z"></path><path style="fill:#424241;" d="M238.908,366.114h-0.658l11.555,15.407c2.63,3.363,7.459,4.03,10.898,1.503 c0.573-0.432,1.071-0.93,1.503-1.503l11.555-15.407H238.908z"></path><g><circle style="fill:#606060;" cx="247.081" cy="390.07" r="1.879"></circle><circle style="fill:#606060;" cx="256.006" cy="390.07" r="1.879"></circle><circle style="fill:#606060;" cx="264.931" cy="390.07" r="1.879"></circle><circle style="fill:#606060;" cx="242.572" cy="382.367" r="1.879"></circle><circle style="fill:#606060;" cx="251.497" cy="382.367" r="1.879"></circle><circle style="fill:#606060;" cx="260.515" cy="382.367" r="1.879"></circle><circle style="fill:#606060;" cx="269.44" cy="382.367" r="1.879"></circle><circle style="fill:#606060;" cx="247.081" cy="374.663" r="1.879"></circle><circle style="fill:#606060;" cx="256.006" cy="374.663" r="1.879"></circle><circle style="fill:#606060;" cx="264.931" cy="374.663" r="1.879"></circle></g><path style="fill:#333333;" d="M255.827,409.056c-3.795,0-7.553-1.738-9.986-5.007l-17.07-22.603 c-0.009-0.019-0.019-0.028-0.028-0.038c-1.635-2.217-2.537-4.951-2.518-7.703c0.244-7.018,5.768-11.931,12.73-12.288h34.327 c2.687,0.047,5.195,0.864,7.318,2.367c5.609,4.218,6.745,12.081,2.659,17.615l-17.53,22.725c-0.564,0.845-1.484,1.766-2.574,2.518 C260.957,408.267,258.383,409.056,255.827,409.056z M236.287,375.8l17.079,22.613c1.015,1.372,2.903,1.644,4.237,0.658 c0.056-0.085,0.639-0.611,0.705-0.695l17.474-22.641c0.977-1.325,0.686-3.326-0.705-4.368c-0.47-0.329-1.146-0.554-1.86-0.564 h-34.309c-2.133-0.31-3.232,1.334-3.297,3.081C235.62,374.475,235.855,375.199,236.287,375.8z"></path><path style="fill:#494949;" d="M222.843,481.76c11.085,0.564,22.265,0.939,33.444,0.939s22.265,0,33.257-0.939l-28.184-79.947 h-11.179L222.843,481.76z"></path><path style="fill:#424241;" d="M289.544,481.76l-28.184-79.947h-11.179l-3.476,10.334h9.395V482.7 C266.81,482.7,278.929,482.324,289.544,481.76z"></path><g><circle style="fill:#606060;" cx="238.344" cy="475.184" r="1.879"></circle><circle style="fill:#606060;" cx="247.269" cy="475.184" r="1.879"></circle><circle style="fill:#606060;" cx="256.288" cy="475.184" r="1.879"></circle><circle style="fill:#606060;" cx="265.213" cy="475.184" r="1.879"></circle><circle style="fill:#606060;" cx="274.137" cy="475.184" r="1.879"></circle><circle style="fill:#606060;" cx="242.854" cy="467.387" r="1.879"></circle><circle style="fill:#606060;" cx="251.778" cy="467.387" r="1.879"></circle><circle style="fill:#606060;" cx="260.703" cy="467.387" r="1.879"></circle><circle style="fill:#606060;" cx="269.722" cy="467.387" r="1.879"></circle><circle style="fill:#606060;" cx="238.344" cy="459.683" r="1.879"></circle><circle style="fill:#606060;" cx="247.269" cy="459.683" r="1.879"></circle><circle style="fill:#606060;" cx="256.288" cy="459.683" r="1.879"></circle><circle style="fill:#606060;" cx="265.213" cy="459.683" r="1.879"></circle><circle style="fill:#606060;" cx="274.137" cy="459.683" r="1.879"></circle><circle style="fill:#606060;" cx="242.854" cy="451.98" r="1.879"></circle><circle style="fill:#606060;" cx="251.778" cy="451.98" r="1.879"></circle><circle style="fill:#606060;" cx="260.703" cy="451.98" r="1.879"></circle><circle style="fill:#606060;" cx="269.722" cy="451.98" r="1.879"></circle><circle style="fill:#606060;" cx="238.344" cy="444.276" r="1.879"></circle><circle style="fill:#606060;" cx="247.269" cy="444.276" r="1.879"></circle><circle style="fill:#606060;" cx="256.288" cy="444.276" r="1.879"></circle><circle style="fill:#606060;" cx="265.213" cy="444.276" r="1.879"></circle><circle style="fill:#606060;" cx="242.854" cy="436.573" r="1.879"></circle><circle style="fill:#606060;" cx="251.778" cy="436.573" r="1.879"></circle><circle style="fill:#606060;" cx="260.703" cy="436.573" r="1.879"></circle><circle style="fill:#606060;" cx="269.722" cy="436.573" r="1.879"></circle><circle style="fill:#606060;" cx="247.269" cy="428.869" r="1.879"></circle><circle style="fill:#606060;" cx="256.288" cy="428.869" r="1.879"></circle><circle style="fill:#606060;" cx="265.213" cy="428.869" r="1.879"></circle><circle style="fill:#606060;" cx="251.778" cy="421.166" r="1.879"></circle><circle style="fill:#606060;" cx="260.703" cy="421.166" r="1.879"></circle><circle style="fill:#606060;" cx="256.288" cy="413.462" r="1.879"></circle></g><path style="fill:#333333;" d="M256.288,487.388c-10.155,0-22.434-0.338-33.689-0.949c-1.475-0.075-2.818-0.836-3.645-2.057 c-0.817-1.221-1.024-2.762-0.554-4.152l27.338-79.947c0.648-1.898,2.433-3.175,4.444-3.175h11.179c1.992,0,3.767,1.259,4.434,3.138 l28.183,79.947c0.479,1.372,0.301,2.884-0.479,4.096c-0.78,1.221-2.086,2.02-3.523,2.151 C279.52,487.388,267.176,487.388,256.288,487.388z M229.307,477.364c9.272,0.404,18.817,0.629,26.981,0.629 c8.615,0,18.16,0,26.784-0.479l-25.036-71.013h-4.5L229.307,477.364z"></path><path style="fill:#96CC9E;" d="M179.911,308.244l-13.434,36.732l35.511,77.505l43.684-56.367 C218.109,354.38,195.054,334.088,179.911,308.244z"></path><path style="fill:#333333;" d="M201.988,429.518c-0.263,0-0.535-0.019-0.799-0.047c-2.452-0.272-4.575-1.813-5.599-4.058 l-35.699-77.505c-0.78-1.691-0.855-3.617-0.216-5.364l13.434-36.723c0.939-2.555,3.279-4.35,5.994-4.594 c2.809-0.197,5.336,1.118,6.708,3.467c14.111,24.144,35.99,43.515,61.656,54.601c0.892,0.235,1.747,0.648,2.527,1.249 c3.072,2.386,3.636,6.811,1.249,9.883l-43.684,56.367C206.215,428.522,204.158,429.518,201.988,429.518z M173.907,344.657 l29.621,64.324l31.105-40.124c-20.978-10.475-39.325-26.032-53.116-45L173.907,344.657z"></path><path style="fill:#96CC9E;" d="M332.195,308.244l13.34,36.451l-35.605,77.786l-43.778-56.367 C293.734,354.296,316.854,334.032,332.195,308.244z"></path><path style="fill:#333333;" d="M309.555,429.518c-2.161,0-4.218-0.986-5.571-2.724l-43.778-56.367 c-2.386-3.072-1.832-7.497,1.24-9.892c0.827-0.639,1.757-1.071,2.724-1.296c25.891-11.32,47.17-30.147,61.581-54.497 c1.381-2.339,4.021-3.673,6.708-3.429c2.715,0.244,5.035,2.039,5.975,4.594l13.34,36.451c0.639,1.747,0.573,3.673-0.207,5.355 l-35.605,77.692c-1.024,2.236-3.147,3.777-5.599,4.068C310.099,429.499,309.827,429.518,309.555,429.518z M276.843,368.867 l31.152,40.115l29.555-64.493l-7.534-20.583C316.131,342.957,298.028,358.279,276.843,368.867z"></path><path style="fill:#424241;" d="M160.276,474.996c11.743,1.879,23.956,3.476,36.732,4.697c-18.789-40.021-27.056-84.55-28.183-156.7 l-37.578,16.816l14.374,14.186l-24.52,25.459C125.695,414.148,139.195,447.057,160.276,474.996z"></path><path style="fill:#333333;" d="M197.009,486.88c-0.225,0-0.46-0.009-0.686-0.028c-12.307-1.184-24.811-2.79-37.183-4.754 c-1.832-0.291-3.485-1.287-4.603-2.771c-21.795-28.869-35.821-63.084-40.565-98.933c-0.291-2.17,0.432-4.359,1.954-5.928 l19.588-20.348l-9.319-9.197c-1.691-1.672-2.443-4.068-2.02-6.398c0.423-2.339,1.973-4.312,4.134-5.289l37.578-16.816 c2.208-0.986,4.754-0.799,6.802,0.498c2.039,1.306,3.288,3.532,3.326,5.956c1.09,69.914,9.056,114.472,27.498,153.76 c1.099,2.339,0.855,5.082-0.629,7.196C201.527,485.762,199.329,486.88,197.009,486.88z M164.288,468.354 c7.036,1.08,14.111,2.048,21.147,2.875c-14.9-36.31-21.964-77.683-23.571-137.244l-18.094,8.089l6.896,6.802 c2.8,2.771,2.856,7.262,0.122,10.099l-22.077,22.932C133.398,413.115,145.658,442.877,164.288,468.354z"></path><path style="fill:#424241;" d="M351.642,475.09c21.147-27.949,34.713-60.895,39.363-95.636l-24.52-25.459l13.998-14.186 l-37.578-16.816c-0.845,72.432-9.395,116.68-28.183,156.794C327.686,478.566,339.899,476.969,351.642,475.09z"></path><g><path style="fill:#333333;" d="M314.722,486.974c-2.32,0-4.519-1.127-5.881-3.044c-1.475-2.114-1.729-4.857-0.62-7.187 c18.723-39.992,26.699-84.56,27.507-153.835c0.028-2.424,1.278-4.669,3.316-5.975c2.048-1.306,4.603-1.494,6.811-0.507 l37.578,16.816c2.151,0.968,3.701,2.922,4.124,5.233c0.432,2.32-0.291,4.707-1.945,6.379l-9.084,9.197l19.663,20.414 c1.522,1.578,2.236,3.758,1.945,5.937c-4.801,35.896-18.902,70.139-40.753,99.027c-1.118,1.475-2.771,2.471-4.594,2.762 c-12.617,2.02-24.848,3.57-37.381,4.754C315.173,486.965,314.947,486.974,314.722,486.974z M349.904,333.985 c-1.39,59.129-8.474,100.521-23.627,137.357c7.093-0.827,14.167-1.785,21.344-2.903c18.704-25.497,31.021-55.287,35.765-86.542 l-22.086-22.932c-2.706-2.809-2.677-7.253,0.056-10.024l6.726-6.811L349.904,333.985z"></path><path style="fill:#333333;" d="M252.943,489.746c-86.11,0-169.787-17.615-248.738-52.365c-3.025-1.334-4.716-4.585-4.068-7.835 l4.697-23.486c4.594-24.407,23.392-43.215,47.884-47.818c7.741-1.945,23.298-5.496,41.683-9.695 c13.03-2.969,27.479-6.276,41.73-9.592c3.805-0.921,7.572,1.475,8.455,5.27c0.883,3.786-1.475,7.581-5.27,8.455 c-14.27,3.326-28.738,6.623-41.787,9.601c-18.263,4.162-33.707,7.685-41.806,9.714c-19.155,3.617-33.538,18-37.061,36.742 l-3.598,17.99c76.603,32.9,157.743,49.518,241.175,48.908c0.78,0,1.56,0,2.33,0c82.512,0,162.637-16.45,238.357-48.908 l-3.579-17.906c-3.542-18.827-17.925-33.21-36.667-36.732c-13.678-3.382-49.387-11.612-83.846-18.817 c-3.805-0.799-6.257-4.528-5.458-8.342s4.5-6.266,8.342-5.458c34.638,7.243,70.581,15.529,83.968,18.855 c24.087,4.509,42.895,23.317,47.508,47.809l4.678,23.402c0.648,3.251-1.043,6.501-4.077,7.835 c-79.769,35.07-164.225,52.562-251.538,52.356C255.16,489.746,254.052,489.746,252.943,489.746z"></path></g><path style="fill:#44413D;" d="M256.006,26.973c-72.432,0-103.339,41.336-103.339,101.085v30.72c9.395,0,14.092,5.261,14.092,18.789 v-18.413c-1.156-10.343,1.559-20.752,7.61-29.217c1.165-1.616,1.794-3.551,1.785-5.543v-10.522c0-14.092,7.422-33.444,25.553-33.444 c15.219,0,28.653,9.394,54.3,9.394s38.799-6.764,54.018-6.764c18.131,0,25.835,16.346,25.835,30.438v10.522 c-0.009,1.992,0.62,3.927,1.785,5.543c5.89,9.413,8.568,20.499,7.61,31.565v15.407c1.221-10.334,6.294-19.822,14.092-18.789v-24.895 C359.345,68.309,328.438,26.973,256.006,26.973z"></path><path style="fill:#545250;" d="M152.667,128.058v30.72c4.838-0.413,9.46,2.095,11.743,6.388v-25.459 c0-69.237,31.378-102.118,118.84-104.467c8.427-0.46,16.882,0.113,25.177,1.691c-16.563-7.027-34.44-10.418-52.421-9.958 C183.199,26.973,152.667,68.309,152.667,128.058z"></path><g><path style="fill:#333333;" d="M345.254,181.7c-0.094,0-0.188,0-0.272-0.009c-2.49-0.15-4.425-2.198-4.425-4.688V161.22 c0.883-10.39-1.578-20.574-6.886-29.076c-1.588-2.161-2.527-5.045-2.508-8.06V113.59c0-12.617-4.368-20.612-12.983-23.777 c-8.183-3.025-18.695-0.996-30.88,1.343c-9.366,1.794-19.991,3.833-31.293,3.833c-13.087,0-24.341-3.326-34.262-6.266 c-9.451-2.79-17.624-5.205-23.627-3.344c-14.327,4.566-17.267,14.693-17.267,28.484v10.522c0.009,2.978-0.911,5.862-2.677,8.295 c-5.374,7.516-7.779,16.741-6.745,25.938l0.028,18.188c0,0.056,0,0.122,0,0.188c0,2.593-2.104,4.697-4.697,4.697 c-2.593,0-4.697-2.104-4.697-4.697c0-11.659-3.006-12.232-10.278-13.613c-2.217-0.423-3.814-2.358-3.814-4.613v-30.72 c0-68.213,38.367-105.782,108.037-105.782c70.675,0,108.037,38.236,108.037,110.573v25.365c0,2.593-2.104,4.697-4.697,4.697 c-5.289,0-8.596,7.591-9.432,14.646C349.641,179.925,347.621,181.7,345.254,181.7z M308.493,78.915 c4.519,0,8.85,0.582,12.936,2.095c8.718,3.194,19.127,11.452,19.127,32.59v10.522c-0.009,1.024,0.301,1.973,0.892,2.781 c5.684,9.066,8.662,19.447,8.69,29.846c1.4-1.08,2.912-1.907,4.509-2.452v-21.448c0-67.133-33.181-101.179-98.642-101.179 c-81.525,0-98.642,52.412-98.642,96.388v26.981c1.625,0.451,3.128,0.986,4.491,1.653c-0.582-10.231,2.461-20.762,8.699-29.489 c0.592-0.817,0.911-1.804,0.911-2.781v-10.55c0-13.894,2.715-30.711,23.843-37.446c8.756-2.696,18.197,0.075,29.104,3.297 c9.319,2.753,19.879,5.872,31.603,5.872c10.409,0,20.132-1.86,29.527-3.664C293.528,80.39,301.259,78.915,308.493,78.915z"></path><path style="fill:#333333;" d="M274.889,274.884h-37.578c-2.593,0-4.697-2.104-4.697-4.697s2.104-4.697,4.697-4.697h37.578 c2.593,0,4.697,2.104,4.697,4.697S277.482,274.884,274.889,274.884z"></path><path style="fill:#333333;" d="M256.166,241.543c-3.373,0-6.792-0.554-10.043-1.663l-10.043-2.734 c-2.508-0.686-3.983-3.269-3.297-5.768c0.676-2.508,3.288-4.002,5.768-3.297l10.334,2.818c4.763,1.616,9.695,1.625,14.157,0.085 l10.616-2.903c2.546-0.695,5.092,0.799,5.768,3.297c0.676,2.499-0.799,5.082-3.297,5.768l-10.334,2.818 C262.751,241.008,259.473,241.543,256.166,241.543z"></path><path style="fill:#333333;" d="M260.797,293.673h-9.395c-2.593,0-4.697-2.104-4.697-4.697s2.104-4.697,4.697-4.697h9.395 c2.593,0,4.697,2.104,4.697,4.697S263.39,293.673,260.797,293.673z"></path></g></svg>