<!-- icon666.com - MILLIONS vector ICONS FREE --><svg version="1.1" id="Capa_1" xmlns="http://www.w3.org/2000/svg" xmlns:xlink="http://www.w3.org/1999/xlink" x="0px" y="0px" viewBox="0 0 511.996 511.996" style="enable-background:new 0 0 511.996 511.996;" xml:space="preserve"><g><path style="fill:#333333;" d="M352.336,332.049c0,53.05-44.138,56.34-98.568,56.34s-98.568-3.395-98.568-56.34 c0-54.44,44.127-98.568,98.568-98.568S352.336,277.608,352.336,332.049z"></path><path style="fill:#333333;" d="M273.185,237.831c-53.528-0.414-97.337,42.493-98.037,96.021c0,36.393,21.22,49.443,51.565,54.005 c8.594,0,17.613,0,27.056,0c54.43,0,98.568-3.395,98.568-56.34C351.604,285.428,318.5,246.256,273.185,237.831z"></path><path style="fill:#333333;" d="M253.768,396.717c-45.114,0-106.897,0-106.897-64.668c0-58.95,47.958-106.897,106.897-106.897 c58.95,0,106.897,47.958,106.897,106.897C360.665,396.717,301.386,396.717,253.768,396.717z M253.768,241.81 c-49.751,0-90.239,40.477-90.239,90.239c0,41.072,27.841,48,90.239,48s90.239-6.928,90.239-48 C344.007,282.287,303.519,241.81,253.768,241.81z"></path></g><path style="fill:#EBEEF2;" d="M255.996,504.038c83.66,0.202,166.557-15.947,244.032-47.533c0,0,0,1.485-5.305-21.22 c-4.562-22.377-20.753-40.594-42.44-47.745c-128.467-35.363-264.106-35.363-392.573,0c-21.687,7.151-37.878,25.369-42.44,47.745 c-5.517,22.706-5.305,21.22-5.305,21.22C89.439,488.081,172.336,504.218,255.996,504.038z"></path><path style="fill:#DFE2E8;" d="M500.028,456.505c-7.151-21.687-25.369-37.878-47.745-42.44 c-128.467-35.363-264.106-35.363-392.573,0c-22.377,4.562-40.594,20.753-47.745,42.44c77.475,31.576,160.371,47.724,244.032,47.533 C339.657,504.24,422.553,488.091,500.028,456.505z"></path><path style="fill:#E4BA98;" d="M255.996,435.179c-32.467-25.676-61.114-55.703-68.966-84.881v-37.135h137.931v37.135 C317.11,379.476,288.463,409.502,255.996,435.179z"></path><path style="fill:#89C1F4;" d="M198.702,501.386L198.702,501.386h1.91H198.702z"></path><path style="fill:#EFA562;" d="M310.426,501.704c21.432-41.984,33.347-88.17,34.907-135.279l-4.456-0.637l-10.61-36.605 c-7.321,27.374-28.329,45.729-58.355,58.355h-31.83c-24.509-8.276-53.899-34.377-58.355-58.355l-11.459,36.817h-3.607 c1.56,47.077,13.475,93.231,34.907,135.172c18.037,1.485,36.286,2.334,54.642,2.334s38.09-0.849,56.764-2.44l0,0L310.426,501.704z"></path><path style="fill:#D38D54;" d="M324.962,345.099l-53.05,42.44h-31.83l-36.605,51.671l6.26,10.61c1.401,2.164,4.286,2.79,6.451,1.401 c0.562-0.361,1.04-0.838,1.401-1.401l26.95-38.621l6.048,7.958l-28.329,83.714c9.761,0,23.767,0.955,33.634,0.955 c15.066,0,31.83-0.743,47.003-1.804l-30.133-80.318l12.202-15.491c12.626,17.613,29.92,41.061,31.83,42.44 c2.111,2.027,5.475,1.963,7.501-0.149c0.403-0.424,0.743-0.912,0.987-1.443l31.194-71.936L324.962,345.099z"></path><g><rect x="179.073" y="313.163" style="fill:#333333;" width="15.915" height="31.936"></rect><rect x="317.004" y="313.163" style="fill:#333333;" width="15.915" height="31.936"></rect></g><polygon style="fill:#4C619B;" points="271.911,387.539 240.081,387.539 233.715,396.77 250.691,419.37 261.301,419.37 278.171,396.664 "></polygon><path style="fill:#46558C;" d="M240.081,387.539l10.61,15.915c1.836,2.928,5.698,3.82,8.626,1.984 c0.806-0.499,1.475-1.178,1.984-1.984l10.61-15.915H240.081z"></path><path style="fill:#333333;" d="M261.301,424.664h-10.61c-1.666,0-3.236-0.785-4.244-2.111l-16.976-22.599 c-1.369-1.836-1.422-4.318-0.127-6.207l6.366-9.231c0.987-1.432,2.621-2.292,4.371-2.292h31.83c1.751,0,3.385,0.859,4.371,2.302 l6.26,9.125c1.284,1.878,1.231,4.35-0.117,6.164l-16.87,22.706C264.559,423.868,262.978,424.664,261.301,424.664z M253.333,414.054 h5.294l13.019-17.517l-2.536-3.703h-26.249l-2.621,3.788L253.333,414.054z"></path><path style="fill:#4C619B;" d="M250.691,419.37l-28.329,83.714c11.141,0.637,22.387,0.955,33.634,0.955s22.281,0,33.103-0.955 l-28.011-83.607L250.691,419.37z"></path><path style="fill:#46558C;" d="M261.301,419.37h-5.305v84.881c10.61,0,22.175,0,33.103-0.849L261.301,419.37z"></path><g><path style="fill:#333333;" d="M255.731,509.216c-11.236,0-22.472-0.276-33.634-0.838c-1.666-0.085-3.183-0.934-4.127-2.313 c-0.934-1.379-1.167-3.109-0.637-4.679l28.329-83.724c0.732-2.154,2.748-3.607,5.029-3.607h10.61c2.281,0,4.318,1.464,5.04,3.639 l27.798,83.724c0.52,1.56,0.276,3.3-0.658,4.658c-0.944,1.369-2.462,2.217-4.127,2.302 C278.214,508.94,266.967,509.216,255.731,509.216z M229.651,498.096c17.347,0.679,34.854,0.679,52.202,0l-24.382-73.432H254.5 L229.651,498.096z"></path><path style="fill:#333333;" d="M257.62,511.996c-1.061,0-2.09,0-3.119,0c-84.573,0-167.183-16.18-245.538-48.127 c-3.82-1.549-5.814-5.772-4.594-9.719c0.032-0.106,0.064-0.212,0.106-0.308c0.318-1.125,1.39-5.305,5.072-20.435 c5.05-24.817,23.342-45.39,47.682-53.422l65.316-16.095l3.798,15.459L61.62,395.264c-18.334,6.069-32.562,22.08-36.541,41.602 c-1.496,6.175-2.674,11.035-3.682,14.833c74.525,29.454,152.912,44.382,233.146,44.382c1.008,0,2.016,0,3.045,0 c80.149,0,158.451-14.897,232.902-44.329c-0.966-3.745-2.08-8.541-3.512-14.663c-4.021-19.745-18.26-35.756-37.188-42.005 l-63.088-15.745l3.851-15.438l63.66,15.915c24.902,8.191,43.194,28.775,48.318,53.878c3.321,14.26,4.446,18.43,4.785,19.607 c0.435,0.997,0.668,2.08,0.668,3.204c0,3.48-2.249,6.493-5.443,7.565C424.368,495.868,341.98,511.996,257.62,511.996z"></path></g><g><path style="fill:#FFC599;" d="M181.726,329.184l-15.915,26.525l37.135,84.881l37.135-53.05 C202.946,371.624,187.031,350.298,181.726,329.184z"></path><path style="fill:#FFC599;" d="M330.267,329.184l15.915,26.525l-37.135,84.881l-37.135-53.05 C309.047,371.624,324.962,350.298,330.267,329.184z"></path></g><g><path style="fill:#333333;" d="M202.946,448.537c-0.255,0-0.52-0.011-0.785-0.042c-2.865-0.276-5.347-2.09-6.504-4.721 l-37.135-84.881c-1.04-2.366-0.859-5.082,0.467-7.289l15.915-26.525c1.655-2.759,4.806-4.202,7.989-3.777 c3.183,0.477,5.761,2.822,6.557,5.942c5.592,22.26,23.682,40.085,53.772,52.976c2.207,0.944,3.862,2.833,4.52,5.135 c0.658,2.302,0.244,4.775-1.135,6.737l-37.135,53.05C207.964,447.285,205.524,448.537,202.946,448.537z M174.744,356.272 l29.814,68.138l23.544-33.634c-22.918-11.353-38.981-25.899-47.989-43.438L174.744,356.272z"></path><path style="fill:#333333;" d="M309.047,448.537c-2.578,0-5.029-1.252-6.515-3.395l-37.135-53.05 c-1.379-1.963-1.793-4.435-1.135-6.737c0.658-2.313,2.313-4.202,4.52-5.135c30.08-12.891,48.18-30.727,53.772-52.976 c0.785-3.119,3.363-5.464,6.546-5.942c3.257-0.424,6.345,1.029,8,3.777l15.915,26.525c1.316,2.207,1.496,4.923,0.467,7.289 l-37.135,84.881c-1.156,2.631-3.65,4.446-6.504,4.721C309.577,448.526,309.301,448.537,309.047,448.537z M283.89,390.776 l23.554,33.634l29.814-68.138l-5.369-8.934C322.882,364.876,306.808,379.423,283.89,390.776z"></path></g><path style="fill:#EBEEF2;" d="M152.336,495.55c15.491,2.546,31.83,4.668,49.231,6.154 c-24.308-48.573-36.573-102.292-35.756-156.605l-47.745,15.915l15.915,26.525l-26.525,15.915 C114.033,437.566,129.524,469.343,152.336,495.55z"></path><path style="fill:#333333;" d="M201.566,509.131c-0.212,0-0.424-0.011-0.637-0.032c-16.668-1.432-32.955-3.459-49.804-6.228 c-1.708-0.276-3.268-1.135-4.403-2.44c-23.65-27.172-39.756-60.223-46.578-95.576c-0.594-3.066,0.796-6.175,3.469-7.777 l20.159-12.095l-12.095-20.148c-1.157-1.942-1.379-4.286-0.605-6.409c0.785-2.111,2.483-3.756,4.626-4.467l47.745-15.915 c2.281-0.775,4.796-0.361,6.737,1.061s3.077,3.692,3.034,6.101c-0.785,52.891,11.3,105.867,34.971,153.178 c1.199,2.409,1.019,5.273-0.499,7.491C206.32,507.921,204.017,509.131,201.566,509.131z M156.208,488.654 c11.141,1.782,22.048,3.247,33.019,4.403c-19.533-43.141-30.101-90.292-30.843-137.666l-29.188,9.729l11.151,18.589 c2.111,3.523,0.966,8.085-2.546,10.196l-22.005,13.199C122.447,437.12,136.336,465.163,156.208,488.654z"></path><path style="fill:#EBEEF2;" d="M359.657,495.55c-15.491,2.546-31.83,4.668-49.231,6.154 c24.308-48.573,36.573-102.292,35.756-156.605l47.745,15.915l-15.915,26.525l26.525,15.915 C397.959,437.566,382.468,469.343,359.657,495.55z"></path><path style="fill:#333333;" d="M310.426,509.131c-2.44,0-4.753-1.21-6.143-3.268c-1.517-2.217-1.698-5.082-0.499-7.491 c23.671-47.321,35.767-100.286,34.971-153.178c-0.032-2.409,1.103-4.679,3.045-6.101c1.942-1.422,4.467-1.825,6.737-1.061 l47.745,15.915c2.133,0.711,3.83,2.355,4.615,4.467s0.573,4.467-0.594,6.408l-12.106,20.149l20.159,12.095 c2.674,1.602,4.064,4.711,3.469,7.777c-6.822,35.353-22.918,68.403-46.568,95.576c-1.135,1.305-2.695,2.164-4.403,2.44 c-16.849,2.769-33.135,4.796-49.804,6.228C310.85,509.12,310.628,509.131,310.426,509.131z M353.609,355.391 c-0.732,47.363-11.3,94.504-30.844,137.676c10.971-1.167,21.889-2.631,33.029-4.414c19.862-23.491,33.761-51.533,40.403-81.549 l-22.005-13.199c-3.512-2.111-4.647-6.674-2.546-10.196l11.162-18.589L353.609,355.391z"></path><path style="fill:#E5C2BA;" d="M255.996,251.412L255.996,251.412C255.996,251.412,255.996,251.306,255.996,251.412z"></path><path style="fill:#333333;" d="M158.808,238.998c0.637,6.79,0.955,14.43,1.91,20.477c0.987,6.228,3.066,12.223,6.154,17.719 c6.907,11.215,15.491,21.316,25.464,29.92c4.987,4.668,9.761,9.655,14.536,14.854l7.109,7.745c2.164,2.366,4.467,4.594,6.897,6.684 c4.541,4.233,9.931,7.448,15.809,9.443c6.26,2.048,12.743,3.289,19.31,3.714v7.215c-7.31,1.167-14.759,1.167-22.069,0 c-7.629-1.602-14.844-4.743-21.22-9.231c-3.13-2.122-6.111-4.467-8.912-7.003l-7.745-7.003c-5.199-4.562-10.61-9.337-15.279-14.536 c-10.546-10.334-19.204-22.44-25.57-35.756c-3.162-7.215-4.966-14.95-5.305-22.812c0-7.851,0.955-14.218,1.379-21.22 L158.808,238.998z"></path><path style="fill:#EFC8A5;" d="M255.996,29.131c84.881,0,111.406,48.7,111.406,106.101c0,3.395,0,17.931,0,21.22 c18.355,0,24.191,18.143,21.22,42.44c-2.546,20.69-10.61,42.44-31.83,42.44v15.915c0,31.83-25.676,45.517-55.279,76.286 c-10.886,13.772-28.053,21.019-45.517,19.204c-17.645,1.857-35.034-5.369-46.154-19.204c-29.602-30.769-54.642-44.456-54.642-76.286 v-15.915c-21.22,0-29.284-21.751-31.83-42.44c-2.971-24.297,2.865-42.44,21.22-42.44c0-3.289,0-17.825,0-21.22 C144.59,77.831,171.116,29.131,255.996,29.131z"></path><path style="fill:#E4BA98;" d="M367.402,156.452c0-3.289,0-17.825,0-21.22c0-57.401-26.101-106.101-111.406-106.101 c-3.714,0-7.215,0-10.61,0c-20.371,76.711-35.332,166.048-34.377,233.422c0,18.462,1.592,46.472,3.926,75.332 c10.79,10.822,25.846,16.276,41.061,14.854c17.464,1.814,34.631-5.432,45.517-19.204c29.602-30.769,55.279-44.456,55.279-76.286 v-15.915c21.22,0,29.284-21.751,31.83-42.44C391.593,174.595,385.757,156.452,367.402,156.452z"></path><g><path style="fill:#333333;" d="M250.458,360.982c-18.133,0-35.279-8.138-46.812-22.472c-6.355-6.546-12.828-12.626-19.098-18.504 c-20.838-19.544-37.294-34.971-37.294-62.759v-8.859c-12.286-2.843-27.469-13.666-31.767-48.531 c-2.334-19.045,0.531-33.729,8.265-42.462c3.459-3.905,7.83-6.578,12.891-7.915v-14.26c0-73.549,42.387-114.058,119.363-114.058 S375.37,61.672,375.37,135.221v14.26c5.072,1.337,9.454,4.011,12.902,7.926c7.735,8.732,10.589,23.416,8.255,42.451 c-4.286,34.865-19.48,45.687-31.767,48.531v8.859c0,27.597-16.467,42.886-37.316,62.26c-6.472,6.016-13.167,12.244-20.191,19.544 c-11.958,15.204-31.225,23.427-51.247,21.687C254.15,360.908,252.293,360.982,250.458,360.982z M255.996,37.088 c-68.647,0-103.448,33.019-103.448,98.143v21.22c0,4.393-3.565,7.958-7.958,7.958c-3.958,0-6.801,1.125-8.934,3.544 c-4.488,5.082-6.09,16-4.382,29.973c1.995,16.159,7.756,35.448,23.926,35.448c4.393,0,7.958,3.565,7.958,7.958v15.915 c0,20.902,12.838,32.934,32.265,51.141c6.111,5.74,13.05,12.233,20.149,19.618c9.942,12.318,24.626,18.398,39.586,16.817 c0.552-0.053,1.103-0.064,1.655,0c14.886,1.528,29.21-4.52,38.451-16.223c7.83-8.191,15.013-14.865,21.347-20.743 c19.406-18.037,32.223-29.952,32.223-50.61v-15.915c0-4.393,3.565-7.958,7.958-7.958c16.17,0,21.931-19.279,23.936-35.459 c1.708-13.963,0.117-24.891-4.382-29.963c-2.143-2.419-4.987-3.544-8.944-3.544c-4.393,0-7.958-3.565-7.958-7.958v-21.22 C359.444,70.107,324.643,37.088,255.996,37.088z"></path><path style="fill:#333333;" d="M255.996,8.017c-91.353,0-126.684,70.133-126.684,111.936c0,36.499,25.889,51.247,25.889,79.151 v-32.361c82.971-0.531,110.451-13.156,131.671-40.106c2.345-2.928,6.61-3.406,9.538-1.072c0.393,0.318,0.753,0.668,1.072,1.072 c10.61,15.066,27.268,28.011,59.098,38.621v33.846c0-23.236,25.889-42.44,25.889-79.151C382.681,78.15,347.349,8.017,255.996,8.017 z"></path></g><path style="fill:#3D3F3F;" d="M185.333,136.081c9.125-5.517,18.143-10.08,26.95-14.642l25.995-14.111l25.676-14.748 c8.488-5.093,17.082-10.61,26.525-15.385c-4.796,9.464-11.225,18.016-18.992,25.252c-7.618,7.363-16.18,13.676-25.464,18.78 c-9.21,5.167-19.056,9.125-29.284,11.777C206.521,135.773,195.901,136.813,185.333,136.081z"></path><path style="fill:#333333;" d="M151.593,199.104l-1.698-32.361c-0.18-2.631,1.814-4.912,4.446-5.082c0.042,0,0.085,0,0.117-0.011 h0.531c12.52-0.743,25.146-1.273,37.666-2.653c12.318-1.157,24.552-3.151,36.605-5.942c11.342-2.631,22.122-7.268,31.83-13.687 c9.517-6.833,17.772-15.268,24.403-24.934l0,0c2.536-3.31,7.257-3.968,10.61-1.485c0.838,0.615,1.528,1.411,2.016,2.334 c6.048,10.971,14.462,20.467,24.615,27.798c10.684,7.427,22.324,13.379,34.589,17.719l0,0c1.963,0.69,3.257,2.589,3.183,4.668 c0,11.353-0.955,22.599-1.485,33.846c-0.117,2.005-1.804,3.565-3.82,3.501c-1.867-0.106-3.342-1.634-3.395-3.501 c0.743-11.459-0.318-22.706-0.318-33.952l3.501,4.775c-13.56-3.745-26.557-9.316-38.621-16.552 c-12.414-7.777-22.865-18.302-30.557-30.769h13.05c-7.215,11.745-16.881,21.814-28.329,29.496 c-11.618,7.215-24.509,12.149-37.984,14.536c-25.581,4.318-51.554,5.814-77.454,4.456l5.093-4.987l-1.485,32.361 c0,1.995-1.613,3.607-3.607,3.607c-1.995,0-3.607-1.613-3.607-3.607L151.593,199.104z"></path><path style="fill:#3D3F3F;" d="M255.996,8.017c-91.353,0-126.684,70.133-126.684,111.936c0,28.117,13.05,45.411,21.22,62.281 c0-3.714,0-7.003,0-9.125C120.93,61.279,235.413,8.335,316.049,20.961C297.248,12.229,276.728,7.805,255.996,8.017z"></path><g><path style="fill:#333333;" d="M353.185,204.409c1.093-12.106,4.711-23.851,10.61-34.483c4.944-10.196,8.849-20.859,11.671-31.83 c4.329-21.56,0.552-43.968-10.61-62.918c-10.217-19.215-25.963-34.918-45.199-45.093c-19.777-9.751-41.613-14.589-63.66-14.111 c-21.867-0.265-43.48,4.721-63.024,14.536c-19.279,10.239-35.088,25.973-45.411,45.199c-11.151,18.875-14.928,41.21-10.61,62.706 c3.321,10.653,7.65,20.955,12.944,30.769c5.761,10.727,8.997,22.631,9.443,34.801c-0.053,2.005-1.708,3.607-3.714,3.607 c-1.931,0-3.501-1.57-3.501-3.501l0,0c-0.849-21.22-18.355-39.469-24.615-63.66c-5.91-24.053-2.737-49.443,8.912-71.3 c10.79-22.345,28.149-40.859,49.761-53.05c21.528-11.215,45.56-16.721,69.814-16.021c24.446-0.297,48.562,5.698,70.027,17.401 c21.464,12.053,38.801,30.271,49.761,52.308c11.66,21.772,14.981,47.045,9.337,71.088c-3.501,11.353-8.127,22.334-13.793,32.785 c-5.528,9.464-9.125,19.915-10.61,30.769l0,0c-0.117,1.963-1.74,3.501-3.714,3.501c-1.984,0.117-3.692-1.401-3.82-3.385 C353.185,204.484,353.185,204.441,353.185,204.409z"></path><path style="fill:#333333;" d="M155.2,166.744c15.703-3.395,31.088-5.411,46.048-9.019c14.769-2.918,29.178-7.427,42.971-13.475 c13.454-5.74,25.698-13.995,36.074-24.297c10.313-11.353,19.098-24.021,26.101-37.666c-1.305,16.424-7.024,32.18-16.552,45.623 c-10.207,13.401-23.692,23.958-39.151,30.663c-15.098,6.663-31.268,10.546-47.745,11.459 C186.956,171.168,170.882,170.054,155.2,166.744z"></path><circle style="fill:#333333;" cx="209.418" cy="209.184" r="9.337"></circle><circle style="fill:#333333;" cx="302.574" cy="209.184" r="9.337"></circle><path style="fill:#333333;" d="M276.686,296.611h-39.469c-2.928,0-5.305-2.377-5.305-5.305s2.377-5.305,5.305-5.305h39.469 c2.928,0,5.305,2.377,5.305,5.305S279.625,296.611,276.686,296.611z"></path><path style="fill:#333333;" d="M263.848,312.526h-12.732c-2.928,0-5.305-2.377-5.305-5.305s2.377-5.305,5.305-5.305h12.732 c2.928,0,5.305,2.377,5.305,5.305S266.787,312.526,263.848,312.526z"></path><path style="fill:#333333;" d="M256.803,271.412c-3.586,0-7.204-0.573-10.642-1.708l-10.366-2.886 c-2.822-0.785-4.467-3.714-3.682-6.536c0.796-2.822,3.756-4.435,6.536-3.682l10.61,2.96c4.902,1.613,10.058,1.613,14.737,0.074 l10.844-3.034c2.833-0.828,5.751,0.859,6.536,3.682c0.785,2.833-0.859,5.751-3.682,6.536l-10.61,2.96 C263.816,270.86,260.325,271.412,256.803,271.412z"></path></g></svg>