<!-- icon666.com - MILLIONS vector ICONS FREE --><svg version="1.1" id="Capa_1" xmlns="http://www.w3.org/2000/svg" xmlns:xlink="http://www.w3.org/1999/xlink" x="0px" y="0px" viewBox="0 0 511.995 511.995" style="enable-background:new 0 0 511.995 511.995;" xml:space="preserve"><path style="fill:#5B5B5B;" d="M500.256,419.62c-4.04-21.457-20.818-38.236-42.275-42.275 c-24.783-6.238-49.866-11.226-75.156-14.937v-17.943c0.103-23.242-18.657-42.172-41.899-42.275c-0.122,0-0.254,0-0.376,0H171.449 c-23.242-0.103-42.172,18.657-42.275,41.899c0,0.122,0,0.254,0,0.376v17.943c-25.29,3.711-50.373,8.699-75.156,14.937 c-21.457,4.04-38.236,20.818-42.275,42.275l-4.697,23.486c77.664,37.343,162.778,56.621,248.954,56.367 c86.176,0.254,171.29-19.024,248.954-56.367L500.256,419.62z"></path><path style="fill:#4C4C4C;" d="M459.014,404.965c-22.359-5.543-46.972-12.307-76.189-18.037v-23.674 c-0.592-23.101-19.174-41.683-42.275-42.275H171.449c-23.082,0.639-41.636,19.193-42.275,42.275v23.674 c-28.653,5.731-53.455,12.495-75.814,18.037c-20.114,5.129-36.15,20.311-42.369,40.115c76.706,35.849,160.345,54.413,245.008,54.394 c84.767,0.047,168.509-18.554,245.29-54.488C495.089,425.219,479.09,410.066,459.014,404.965z"></path><g><path style="fill:#333333;" d="M389.871,400.831h-14.092v-56.367c-0.038-9.705-3.72-18.498-10.372-25.083 c-6.604-6.548-15.351-10.146-24.651-10.146c-0.056,0-0.113,0-0.169,0H171.449c-9.705,0.038-18.488,3.72-25.074,10.372 c-6.586,6.642-10.193,15.463-10.155,24.83v56.395h-14.092v-56.367c-0.056-13.096,4.998-25.459,14.233-34.778 c9.235-9.319,21.551-14.486,34.675-14.543H340.55c13.256,0.282,25.45,4.988,34.778,14.233c9.319,9.235,14.486,21.56,14.543,34.684 V400.831z"></path><rect x="122.128" y="419.62" style="fill:#333333;" width="14.092" height="14.092"></rect><path style="fill:#333333;" d="M143.265,454.85h-28.183c-3.11,0-5.843-2.039-6.745-4.998c-0.902-2.969,0.254-6.182,2.837-7.91 l14.092-9.395c2.367-1.578,5.449-1.578,7.816,0l14.092,9.395c2.583,1.729,3.73,4.932,2.837,7.91 C149.109,452.811,146.375,454.85,143.265,454.85z"></path><path style="fill:#333333;" d="M133.871,440.758h-9.394c-3.889,0-7.046-3.157-7.046-7.046c0-3.889,3.157-7.046,7.046-7.046h9.394 c3.889,0,7.046,3.157,7.046,7.046C140.917,437.601,137.76,440.758,133.871,440.758z"></path></g><path style="fill:#EFC8A5;" d="M255.905,384.579c32.223,0,59.561-10.522,70.553-25.365v-57.025H185.541v57.212 C196.626,374.151,223.87,384.579,255.905,384.579z"></path><path style="fill:#E4BA98;" d="M255.811,384.579L255.811,384.579c32.223,0,59.561-10.522,70.553-25.365v-57.025H185.447v14.092 c28.183,23.486,44.624,34.008,51.858,39.739C247.319,362.408,254.064,372.826,255.811,384.579z"></path><path style="fill:#EFC8A5;" d="M359.339,165.969v-28.183c0-57.494-33.914-93.945-103.339-93.945S152.66,80.103,152.66,137.786 v28.183c-18.789,0-22.171,14.937-17.943,35.229c3.476,16.628,17.943,35.229,27.338,35.229v9.395 c0,21.607,29.874,72.807,61.064,89.248c10.531,3.767,21.72,5.374,32.881,4.697c11.161,0.582,22.331-1.005,32.881-4.697 c31.096-16.44,61.064-67.64,61.064-89.248v-9.395c9.395,0,23.956-18.789,28.183-35.135 C381.698,180.906,378.034,165.969,359.339,165.969z"></path><path style="fill:#E4BA98;" d="M359.339,165.969v-28.183c0-57.494-33.82-93.945-103.339-93.945c-4.228,0-8.361,0-12.401,0 c-18.131,68.204-31.472,147.775-30.626,207.712c0,18.789,1.973,49.885,4.603,79.759c1.785,1.221,3.664,2.349,5.543,3.382 c10.531,3.767,21.72,5.374,32.881,4.697c11.161,0.582,22.331-1.005,32.881-4.697c31.096-16.44,61.064-67.64,61.064-89.248v-9.395 c9.395,0,23.956-18.789,28.183-35.135C381.698,180.906,377.94,165.969,359.339,165.969z"></path><g><path style="fill:#333333;" d="M185.729,172.827c2.95-3.485,6.933-5.956,11.367-7.046c4.284-1.156,8.727-1.569,13.152-1.221 c4.472,0.357,8.831,1.531,12.87,3.476c4.171,1.879,7.516,5.223,9.395,9.394c-3.833-1.137-7.769-1.916-11.743-2.349 c-3.852-0.47-7.61-0.939-11.367-1.221c-3.758-0.282-7.61-0.564-11.461-0.846C194.09,172.733,190.238,172.639,185.729,172.827z"></path><path style="fill:#333333;" d="M326.646,172.827c-4.509,0-8.361,0-12.307,0s-7.703,0.47-11.461,0.846 c-3.758,0.376-7.516,0.752-11.367,1.221c-4.011,0.451-7.976,1.268-11.837,2.443c1.879-4.171,5.223-7.516,9.395-9.395 c4.04-1.945,8.399-3.119,12.87-3.476c4.425-0.348,8.868,0.066,13.152,1.221C319.609,166.768,323.659,169.266,326.646,172.827z"></path></g><path style="fill:#DAAD8C;" d="M328.807,199.789c-0.169-16.29-13.519-29.358-29.809-29.189 c-13.199,0.141-24.698,9.028-28.155,21.767c-3.795-2.922-8.455-4.509-13.246-4.509c-4.819,0.009-9.498,1.597-13.34,4.509 c-4.105-15.717-20.17-25.121-35.878-21.015c-15.717,4.105-25.121,20.17-21.015,35.878c4.105,15.717,20.17,25.121,35.878,21.015 c7.591-1.982,14.082-6.924,18.009-13.707c2.029-0.507,3.457-2.32,3.476-4.415c0-7.112,5.759-12.87,12.87-12.87 s12.87,5.759,12.87,12.87c-0.009,2.104,1.428,3.936,3.476,4.415c8.126,14.064,26.107,18.874,40.171,10.747 C323.217,220.025,328.816,210.302,328.807,199.789z"></path><g><circle style="fill:#DBD4D7;" cx="213.818" cy="196.219" r="24.708"></circle><circle style="fill:#DBD4D7;" cx="297.429" cy="196.219" r="24.708"></circle></g><g><ellipse style="fill:#6C7881;" cx="213.912" cy="193.965" rx="7.046" ry="5.919"></ellipse><ellipse style="fill:#6C7881;" cx="298.462" cy="193.965" rx="7.046" ry="5.919"></ellipse></g><g><path style="fill:#333333;" d="M327.491,184.288h-3.382c-6.586-14.843-23.956-21.542-38.799-14.956 c-8.192,3.636-14.27,10.794-16.534,19.465c-7.873-6.012-18.808-6.012-26.68,0c-4.096-15.717-20.151-25.14-35.868-21.044 c-8.671,2.255-15.83,8.342-19.465,16.534h-3.194c-2.593,0-4.697,2.104-4.697,4.697c0,2.593,2.104,4.697,4.697,4.697h0.752 c0,0.846,0,1.691,0,2.537c-0.395,16.234,12.438,29.724,28.672,30.119c11.039,0.272,21.297-5.665,26.568-15.369 c2.039-0.554,3.467-2.396,3.476-4.509c0-7.112,5.768-12.87,12.88-12.861c7.102,0,12.861,5.759,12.861,12.861 c0.009,2.114,1.437,3.955,3.476,4.509c8.126,14.064,26.107,18.874,40.171,10.747c9.103-5.261,14.702-14.984,14.693-25.497 c0-0.846,0-1.691,0-2.537h0.752c2.574-0.047,4.65-2.123,4.697-4.697c0.009-2.593-2.086-4.707-4.678-4.716 C327.755,184.269,327.623,184.279,327.491,184.288z M213.818,216.23c-11.104,0-20.104-9-20.104-20.104 c0-11.104,9-20.104,20.104-20.104c11.104,0,20.104,9,20.104,20.104c0,0.028,0,0.066,0,0.094 C233.875,207.286,224.885,216.23,213.818,216.23z M297.429,216.23c-11.104,0.056-20.142-8.906-20.198-20.01 c-0.056-11.104,8.906-20.142,20.01-20.198c11.104-0.056,20.142,8.906,20.198,20.01c0,0.066,0,0.122,0,0.188 C317.392,207.248,308.458,216.173,297.429,216.23z"></path><path style="fill:#333333;" d="M250.494,346.973c-9.827,0-19.973-1.766-29.752-5.27c-0.31-0.113-0.611-0.244-0.911-0.404 c-32.157-16.948-64.822-69.848-64.822-95.486v-4.932c-14.608-7.732-24.886-22.171-27.263-38.687 c-3.269-15.642-1.916-27.122,4.218-34.666c3.363-4.134,7.938-6.802,13.65-7.948v-21.805c0-64.183,40.237-100.991,110.385-100.991 c70.158,0,110.385,36.808,110.385,100.991v21.805c5.637,1.146,10.184,3.748,13.584,7.807c6.257,7.45,7.929,18.939,5.092,35.117 c-2.734,16.459-13.321,30.814-28.071,38.423v4.885c0,25.6-32.665,78.482-64.813,95.486c-0.31,0.169-0.629,0.301-0.977,0.423 c-11.471,4.011-23.439,5.674-35.577,5.082C253.933,346.916,252.213,346.973,250.494,346.973z M225.965,328.607 c9.545,3.344,19.503,4.735,29.611,4.124c10.926,0.517,20.893-0.864,30.466-4.134c28.277-15.313,56.855-63.986,56.855-82.775v-9.395 c0-2.875,1.747-5.458,4.415-6.529c12.504-5.054,21.654-16.45,23.862-29.752c2.555-14.58,0.319-20.922-1.992-23.684 c-0.714-0.855-2.903-3.448-9.845-3.448c-3.889,0-7.046-3.157-7.046-7.046v-28.183c0-56.038-34.205-86.899-96.294-86.899 c-62.999,0-96.294,30.053-96.294,86.899v28.183c0,3.889-3.157,7.046-7.046,7.046c-6.99,0-9.075,2.565-9.761,3.41 c-3.157,3.88-3.607,12.166-1.287,23.336c1.973,13.65,10.813,25.036,23.139,30.156c2.63,1.09,4.35,3.654,4.35,6.51v9.395 C169.1,265.118,197.133,313.068,225.965,328.607z"></path><path style="fill:#333333;" d="M359.902,48.538c-26.568-13.641-56.226-20.114-86.054-18.789l33.82-14.092 c-164.498-19.541-150.312,51.67-150.312,51.67l-14.092,9.395c-16.44,12.213-14.092,27.15-14.092,46.972 c0,39.645,37.578,42.275,37.578,79.853v-42.275c1.484-16.863,12.41-31.425,28.183-37.578c0,0,5.637,24.332,42.275,37.578 c0,0-11.273-28.183,0-42.275c7.516,8.267,31.002,27.15,75.156,32.881c18.789,2.443,33.163,14.374,32.881,32.881v18.789 c0-28.183,37.578-34.572,37.578-75.156V81.419C382.158,66.951,373.243,54.165,359.902,48.538z"></path></g><path style="fill:#494948;" d="M157.357,67.327l-14.092,9.395c-16.44,12.213-14.092,27.15-14.092,46.972 c0,39.645,37.578,56.367,37.578,79.853v-37.578c-6.097-9.892-9.338-21.269-9.395-32.881c0-19.822-2.443-30.062,14.092-42.275 l18.789-14.092C179.81,22.985,306.26,14.812,307.669,15.657C143.265-3.977,157.357,67.327,157.357,67.327z"></path><g><path style="fill:#333333;" d="M342.053,203.547c0.15-6.135,1.963-12.109,5.261-17.286c2.818-4.81,5.956-9.423,9.395-13.81 c6.802-8.117,12.457-17.126,16.816-26.774c1.898-4.697,3.166-9.629,3.758-14.655c0-2.537,0-4.979,0.47-7.516v-8.267V82.358 c0.16-9.488-4.462-18.423-12.307-23.768c-8.774-5.702-18.244-10.24-28.183-13.528c-20.161-6.661-41.364-9.592-62.567-8.643 c-3.683,0.056-6.708-2.894-6.764-6.576l0,0c-0.019-2.668,1.522-5.092,3.946-6.2l0,0L305.32,9.175l1.973,13.434 c-14.655-1.221-29.217-3.006-43.872-3.006c-7.262-0.423-14.533-0.423-21.795,0c-7.234,0-14.28,1.127-21.419,1.879 c-14.092,1.738-27.639,6.482-39.739,13.904c-5.43,3.579-10.015,8.286-13.434,13.81c-2.987,5.317-4.359,11.386-3.946,17.474v0.47 c0.301,2.161-0.695,4.284-2.537,5.449c-5.261,3.57-11.461,7.234-15.971,10.616c-4.34,3.438-7.469,8.183-8.925,13.528 c-1.362,6.163-1.898,12.485-1.597,18.789v9.394c-0.047,3.147,0.207,6.294,0.752,9.395c2.706,12.016,8.286,23.204,16.252,32.599 c3.852,5.261,8.079,10.428,11.837,16.252c4.274,5.937,6.717,12.983,7.046,20.292c0,1.766-1.428,3.194-3.194,3.194l0,0 c-1.672-0.038-3.053-1.334-3.194-3.006l0,0c-0.658-11.555-10.804-21.232-18.789-31.566c-9.291-10.447-15.755-23.092-18.789-36.732 c-0.686-3.504-1.099-7.046-1.221-10.616v-9.864c-0.451-7.046,0.028-14.12,1.409-21.044c1.87-7.563,6.031-14.355,11.931-19.447 c5.919-4.791,11.086-7.797,16.722-11.837l-2.537,6.012c-1.193-8.821,0.413-17.793,4.603-25.647 c4.171-7.469,9.986-13.894,17.004-18.789c13.256-8.314,28.099-13.754,43.59-15.971c7.581-1.287,15.238-2.076,22.923-2.349 c7.6-0.423,15.228-0.423,22.829,0c15.219,0,30.25,1.785,45.281,3.1c3.824,0.395,6.595,3.805,6.21,7.619 c0,0.028-0.009,0.056-0.009,0.085c-0.15,2.602-1.804,4.876-4.228,5.825l0,0l-33.35,13.434l-2.63-12.777 c22.678-0.489,45.244,3.175,66.607,10.804c5.317,1.992,10.531,4.284,15.595,6.858c5.383,2.555,10.456,5.702,15.125,9.394 c4.988,3.814,9.066,8.69,11.931,14.28c2.875,5.543,4.359,11.696,4.321,17.943v32.881v8.267c0,2.912,0,5.825-0.658,8.737 c-0.883,5.834-2.555,11.527-4.979,16.91c-4.942,10.212-11.264,19.691-18.789,28.183c-7.431,7.074-12.513,16.252-14.561,26.305l0,0 c0,1.766-1.428,3.194-3.194,3.194s-3.194-1.428-3.194-3.194L342.053,203.547z"></path><rect x="178.495" y="302.217" style="fill:#333333;" width="14.092" height="56.367"></rect><rect x="319.412" y="302.217" style="fill:#333333;" width="14.092" height="56.367"></rect></g><path style="fill:#FDB359;" d="M308.233,497.031c22.744-44.568,34.628-93.889,34.666-143.924c-3.946-0.564-7.985-0.939-11.931-1.409 c-6.2,18.789-37.578,32.881-74.592,32.881s-68.392-14.092-74.592-32.881c-4.04,0-8.079,0.845-12.119,1.409 c0.094,49.96,11.771,99.225,34.102,143.924"></path><g><path style="fill:#333333;" d="M256.469,506.04c-17.22,0-34.656-0.808-53.323-2.471c-2.546-0.225-4.772-1.813-5.815-4.143 c-0.404-0.601-1.109-1.682-1.522-3.128c-21.589-44.361-33.069-93.842-33.191-143.172c-0.009-3.523,2.574-6.501,6.069-6.999 l2.875-0.432c3.26-0.517,6.633-1.043,10.231-1.043c3.044,0,5.74,1.954,6.689,4.838c4.547,13.791,31.19,28.043,67.903,28.043 s63.357-14.261,67.913-28.043c1.052-3.175,4.218-5.12,7.516-4.791l3.927,0.451c2.734,0.291,5.477,0.592,8.183,0.986 c3.467,0.498,6.05,3.476,6.041,6.98c-0.075,49.913-11.865,99.92-34.083,144.609c-0.254,0.592-0.658,1.174-0.977,1.635 c-0.892,2.546-3.204,4.434-6.022,4.688C293.483,505.43,277.334,506.04,256.469,506.04z M315.279,497.022c0,0.009,0,0.009,0,0.019 C315.279,497.031,315.279,497.031,315.279,497.022z M209.591,494.006c0,0.009,0,0.009,0,0.019 C209.591,494.015,209.591,494.015,209.591,494.006z M208.36,489.882c16.76,1.39,32.533,2.076,48.109,2.076 c18.686,0,33.482-0.507,47.311-1.616c19.991-40.547,31.011-85.715,31.998-131.006c-0.16-0.019-0.301-0.038-0.46-0.056 c-10.569,19.306-41.768,32.345-78.942,32.345c-37.306,0-68.58-13.134-79.045-32.543c-0.188,0.028-0.366,0.047-0.554,0.075 C177.79,404.26,188.66,449.307,208.36,489.882z"></path><path style="fill:#333333;" d="M257.465,413.429c-1.005,0.009-2.01,0.009-3.044,0c-16.121,0-32.204-2.311-47.752-6.867 c-2.49-0.723-3.917-3.335-3.185-5.825s3.335-3.918,5.834-3.185c15.125,4.434,30.927,6.379,46.55,6.473 c16.271,0.329,32.092-2.123,47.433-6.755c2.48-0.752,5.101,0.648,5.853,3.138s-0.648,5.101-3.138,5.853 C290.27,411.015,273.933,413.429,257.465,413.429z"></path><path style="fill:#333333;" d="M345.247,207.07c-1.945,0-3.523-1.578-3.523-3.523v-18.789c0.235-15.482-11.471-27-29.818-29.386 c-42.397-5.505-65.47-22.819-74.047-30.748c-6.078,13.162,2.527,35.107,2.621,35.342c0.517,1.287,0.225,2.762-0.742,3.758 c-0.977,0.996-2.433,1.325-3.73,0.864c-29.489-10.663-39.861-28.277-43.149-36.131c-12.786,6.313-21.335,18.714-22.603,33.125 l0.009,41.965c0,1.945-1.578,3.523-3.523,3.523s-3.523-1.578-3.523-3.523v-42.275c1.625-18.639,13.284-34.177,30.429-40.866 c0.949-0.385,2.029-0.31,2.922,0.169c0.911,0.479,1.559,1.325,1.785,2.32c0.207,0.836,5.092,19.7,33.144,32.279 c-2.743-9.921-5.768-27.488,2.94-38.386c0.648-0.799,1.606-1.287,2.64-1.325c1.015,0.028,2.029,0.395,2.715,1.156 c3.833,4.218,25.384,25.581,73.005,31.753c22.133,2.884,36.244,17.183,35.953,36.432v18.733 C348.77,205.492,347.192,207.07,345.247,207.07z"></path><rect x="375.779" y="419.62" style="fill:#333333;" width="14.092" height="14.092"></rect><path style="fill:#333333;" d="M396.917,454.85h-28.184c-3.1,0-5.843-2.039-6.745-4.998c-0.902-2.969,0.244-6.182,2.837-7.91 l14.092-9.395c2.367-1.578,5.449-1.578,7.816,0l14.092,9.395c2.583,1.729,3.73,4.932,2.837,7.91 C402.76,452.811,400.017,454.85,396.917,454.85z"></path><path style="fill:#333333;" d="M387.522,440.758h-9.395c-3.889,0-7.046-3.157-7.046-7.046c0-3.889,3.157-7.046,7.046-7.046h9.395 c3.889,0,7.046,3.157,7.046,7.046C394.568,437.601,391.412,440.758,387.522,440.758z"></path><path style="fill:#333333;" d="M257.596,506.519c-1.08,0-2.161,0-3.241,0c-86.138,0-172.69-19.719-250.363-57.062 c-2.903-1.39-4.491-4.575-3.852-7.732l4.697-23.486c4.594-24.407,23.392-43.215,47.884-47.818 c24.482-6.21,50.007-11.32,75.428-15.078l2.067,13.941c-24.952,3.692-50.007,8.709-74.461,14.9 c-19.174,3.617-33.557,18-37.08,36.742l-3.645,18.169c74.987,35.145,158.156,53.351,240.95,53.333c0.526,0,1.052,0,1.578,0 c82.296,0,164.892-18.413,239.4-53.333l-3.617-18.094c-3.542-18.827-17.925-33.21-36.667-36.732 c-26.699-6.633-51.059-11.48-74.855-14.9l2.001-13.941c24.275,3.485,49.096,8.417,75.861,15.078 c24.078,4.509,42.886,23.317,47.499,47.809l4.678,23.402c0.629,3.157-0.958,6.341-3.852,7.732 C430.342,486.8,343.782,506.519,257.596,506.519z"></path><path style="fill:#333333;" d="M275.164,281.052h-37.578c-2.593,0-4.697-2.104-4.697-4.697c0-2.593,2.104-4.697,4.697-4.697h37.578 c2.593,0,4.697,2.104,4.697,4.697C279.861,278.947,277.757,281.052,275.164,281.052z"></path><path style="fill:#333333;" d="M256.441,247.692c-3.373,0-6.792-0.545-10.033-1.653l-10.052-2.734 c-2.499-0.686-3.974-3.269-3.297-5.768c0.686-2.499,3.279-3.946,5.768-3.297l10.334,2.818c4.744,1.606,9.667,1.616,14.148,0.085 l10.616-2.912c2.537-0.658,5.092,0.799,5.768,3.297c0.676,2.508-0.789,5.092-3.297,5.768l-10.334,2.818 C263.026,247.166,259.748,247.692,256.441,247.692z"></path><path style="fill:#333333;" d="M261.072,299.841h-9.395c-2.593,0-4.697-2.104-4.697-4.697s2.104-4.697,4.697-4.697h9.395 c2.593,0,4.697,2.104,4.697,4.697S263.665,299.841,261.072,299.841z"></path></g></svg>