<!-- icon666.com - MILLIONS vector ICONS FREE --><svg version="1.1" id="Capa_1" xmlns="http://www.w3.org/2000/svg" xmlns:xlink="http://www.w3.org/1999/xlink" x="0px" y="0px" viewBox="0 0 512.002 512.002" style="enable-background:new 0 0 512.002 512.002;" xml:space="preserve"><path style="fill:#333333;" d="M401.359,374.084c39.366-108.256-29.524-147.621-29.524-177.146c0,0,29.524-186.987-118.097-186.987 c-21.631-0.413-42.997,4.812-62.001,15.156C72.951,26.092,114.384,192.412,64.684,236.698c8.198,1.073,16.534-0.226,24.013-3.74 c-31.591,57.08,0.886,108.256-22.045,141.126"></path><path style="fill:#EFC8A5;" d="M468.281,386.977l-165.336-48.026v-53.439H184.848v59.049L43.722,386.977 c-28.442,8.168-28.245,32.969-33.756,65.938c76.901,33.343,159.962,50.113,243.772,49.207 c85.266,0.846,169.794-15.904,248.299-49.207C496.428,419.06,496.624,395.145,468.281,386.977z"></path><polygon style="fill:#E7B890;" points="302.945,338.852 302.945,285.512 184.848,285.512 184.848,344.462 293.104,452.717 332.47,352.04 "></polygon><path style="fill:#FFFFFF;" d="M468.281,386.977L332.47,352.138l-57.868,149.393c78.229-1.476,155.445-17.98,227.435-48.617 C496.428,419.06,496.624,395.145,468.281,386.977z"></path><path style="fill:#61513D;" d="M401.359,374.183v105.795c-41.049,11.278-83.17,18.207-125.675,20.667l56.195-147.621 L401.359,374.183z"></path><rect x="224.583" y="417.098" transform="matrix(-0.3564 0.9343 -0.9343 -0.3564 810.584 295.5278)" style="fill:#343433;" width="157.852" height="19.682"></rect><path style="fill:#FFFFFF;" d="M155.914,353.221L43.722,386.977c-28.442,8.168-28.245,32.969-33.756,65.938 c64.255,27.999,133.036,44.168,203.029,47.731L155.914,353.221z"></path><path style="fill:#61513D;" d="M86.434,374.183v105.795c41.186,11.288,83.436,18.216,126.069,20.667l-56.195-147.621L86.434,374.183 z"></path><path style="fill:#343433;" d="M246.957,512.002c-83.199,0-164.273-16.829-240.908-50.053c-4.143-1.801-6.535-6.19-5.797-10.639 l5.708-34.543c3.11-18.659,16.868-34.071,35.065-39.257l133.981-40.261v-51.736c0-5.442,4.409-9.841,9.841-9.841h118.097 c5.442,0,9.841,4.399,9.841,9.841v46.048l158.25,45.969c18.138,5.167,31.896,20.578,35.006,39.228v0.01l5.708,34.543 c0.738,4.478-1.683,8.887-5.865,10.668C425.658,496,340.815,512.75,253.65,511.963C251.416,511.982,249.191,512.002,246.957,512.002 z M20.939,446.891c74.057,30.991,152.532,46.137,232.7,45.389c81.94,0.777,161.813-14.477,237.424-45.448l-4.429-26.847 c-1.86-11.2-10.117-20.431-21.041-23.551L300.2,348.388c-4.202-1.22-7.096-5.068-7.096-9.448v-43.597H194.69v49.207 c0,4.34-2.854,8.178-7.007,9.428L46.557,396.395c-11.052,3.149-19.309,12.39-21.169,23.58L20.939,446.891z"></path><path style="fill:#EFC8A5;" d="M352.152,167.611v-29.524c0-53.537-18.994-98.414-98.414-98.414s-98.414,44.877-98.414,98.414v29.524 c-19.683,0-23.619,27.359-19.683,49.207c4.035,17.911,14.664,34.445,29.524,39.366c0,0,1.279,8.365,2.854,24.21 c3.346,32.575,11.219,23.029,41.137,49.207c12.4,11.022,14.861,14.762,44.582,14.762s32.181-3.74,44.68-14.762 c29.524-26.572,37.791-17.026,41.137-49.207c1.575-15.845,2.559-24.013,2.559-24.013c15.805-7.361,26.877-22.133,29.524-39.366 C375.87,194.971,372.032,167.611,352.152,167.611z"></path><g><path style="fill:#E5BE9E;" d="M343.886,87.896c-11.711-28.737-37.693-48.42-90.147-48.42c-79.322,0-98.414,44.877-98.414,98.414 v29.524c-19.683,0-23.619,27.359-19.683,49.207c4.035,17.911,14.664,34.445,29.524,39.366c0,0,1.279,8.365,2.854,24.21 c2.362,22.537,6.791,24.997,19.683,33.067V128.049c0-54.718,55.998-68.89,78.731-68.89 C294.944,58.647,322.608,68.912,343.886,87.896z"></path><path style="fill:#E5BE9E;" d="M352.152,167.611v-29.524c0-53.537-18.994-98.414-98.414-98.414 c-9.133-0.01-18.256,0.748-27.261,2.264c-9.251,72.236-18.994,179.901-21.454,284.811l4.035,3.444 c12.4,11.022,14.861,14.762,44.582,14.762s32.181-3.74,44.68-14.762c29.524-26.572,37.791-17.026,41.137-49.207 c1.575-15.845,2.559-24.013,2.559-24.013c15.805-7.361,26.877-22.133,29.524-39.366 C375.87,194.971,372.032,167.611,352.152,167.611z"></path></g><g><path style="fill:#333333;" d="M240.57,354.638c-18.797,0-25.086-0.925-37.949-12.371c-9.389-8.336-17.085-13.197-23.275-17.095 c-14.959-9.448-23.551-16.022-26.139-41.314c-0.905-7.361-0.718-14.811,0.581-22.173c-13.138-7.932-23.423-23.501-27.743-42.702 c-3.021-16.74-2.382-38.696,8.237-51.402c3.139-3.75,6.928-6.466,11.209-8.08v-21.415c0-72.846,35.409-108.256,108.256-108.256 s108.256,35.409,108.256,108.256v21.395c4.379,1.634,8.247,4.409,11.426,8.247c10.589,12.814,11.013,34.819,7.893,51.136 c-2.805,18.315-13.886,34.435-30.007,43.804c-0.443,3.966-1.102,10.225-1.949,18.689c-2.775,27.054-9.418,33.126-25.529,45.438 c-4.999,3.828-11.229,8.582-18.827,15.422c-14.181,12.518-20.332,12.528-43.479,12.39l-7.775-0.02l-7.775,0.02 C244.054,354.628,242.263,354.638,240.57,354.638z M253.738,334.916l7.853,0.02c21.799,0.089,21.818,0.089,30.312-7.401 c8.109-7.302,14.683-12.331,19.958-16.366c13.453-10.294,15.884-12.144,17.892-31.778c1.584-15.943,2.578-24.18,2.578-24.18 c0.413-3.376,2.539-6.318,5.619-7.755c12.853-5.984,21.799-17.921,23.954-31.926c2.844-14.88,1.319-29.229-3.671-35.262 c-1.624-1.978-3.454-2.815-6.092-2.815c-5.442,0-9.841-4.409-9.841-9.841v-29.524c0-61.253-27.31-88.573-88.573-88.573 s-88.573,27.32-88.573,88.573v29.524c0,5.432-4.409,9.841-9.841,9.841c-2.559,0-4.33,0.817-5.944,2.756 c-5.009,5.984-6.672,20.323-4.055,34.868c3.543,15.707,12.577,28.343,22.931,31.768c5.029,1.663,7.834,7.017,6.348,12.105 c-2.165,7.401-2.785,15.028-1.84,22.704c1.762,17.193,5.009,19.25,17.085,26.867c6.791,4.291,15.244,9.625,25.844,19.033 c8.405,7.47,8.424,7.519,30.184,7.381L253.738,334.916z"></path><rect x="332.47" y="177.246" style="fill:#333333;" width="39.366" height="98.414"></rect></g><g><path style="fill:#444444;" d="M365.438,157.573v1.279c0.325,1.88-0.945,3.651-2.815,3.976c-1.88,0.325-3.651-0.945-3.976-2.815 c-0.069-0.384-0.069-0.777,0-1.161v-1.575c0.325-1.88,2.096-3.139,3.976-2.815c1.437,0.246,2.569,1.378,2.815,2.815V157.573z"></path><path style="fill:#444444;" d="M366.324,179.716v2.559c0.108,2.391-1.742,4.419-4.124,4.527c-0.039,0-0.069,0-0.108,0 c-2.391,0.108-4.419-1.732-4.527-4.124v-0.01v-2.952c0.108-2.352,2.077-4.192,4.429-4.133 C364.307,175.583,366.216,177.404,366.324,179.716z"></path><path style="fill:#444444;" d="M367.21,202.155v2.559c0.108,2.874-2.136,5.305-5.009,5.413c0,0,0,0-0.01,0 c-2.824,0.108-5.206-2.096-5.314-4.921c0-0.069,0-0.138,0-0.197v-2.854c0.955-2.716,3.937-4.143,6.653-3.189 c1.496,0.522,2.667,1.703,3.189,3.189L367.21,202.155z"></path><path style="fill:#444444;" d="M367.899,225.184v2.559c0.108,3.208-2.401,5.895-5.61,6.003c-0.03,0-0.069,0-0.098,0 c-3.208,0.108-5.895-2.401-6.003-5.61c0-0.03,0-0.069,0-0.098l0,0v-2.559c0.423-3.238,3.385-5.511,6.613-5.098 c2.657,0.344,4.753,2.441,5.098,5.098L367.899,225.184z"></path><path style="fill:#444444;" d="M368.391,248.606v2.559c0.443,3.563-2.086,6.8-5.649,7.243c-3.563,0.443-6.8-2.086-7.243-5.649 c-0.069-0.531-0.069-1.063,0-1.594v-2.559c0.108-3.553,3.041-6.358,6.594-6.299C365.566,242.308,368.391,245.132,368.391,248.606 L368.391,248.606z"></path><path style="fill:#444444;" d="M368.883,271.045v2.559c0.453,3.828-2.283,7.312-6.112,7.765s-7.312-2.283-7.765-6.112 c-0.069-0.551-0.069-1.102,0-1.653v-2.854c0.049-3.75,3.139-6.751,6.889-6.692c0.029,0,0.069,0,0.098,0 c3.809,0,6.889,3.08,6.889,6.889C368.883,270.986,368.883,271.015,368.883,271.045z"></path><path style="fill:#444444;" d="M369.375,294.074v2.559c0.059,4.035-3.149,7.371-7.184,7.479c-4.055,0.059-7.42-3.13-7.578-7.184 v-2.854c0.472-4.045,4.133-6.948,8.178-6.486c3.405,0.394,6.082,3.08,6.486,6.486H369.375z"></path><path style="fill:#444444;" d="M369.572,317.496v2.559c-0.472,4.153-4.232,7.145-8.395,6.663c-3.504-0.404-6.269-3.169-6.663-6.663 v-2.559c0.472-4.153,4.232-7.145,8.395-6.663C366.403,311.237,369.168,313.993,369.572,317.496z"></path><path style="fill:#444444;" d="M369.276,339.935v2.559c-0.463,3.937-4.035,6.761-7.972,6.299c-3.307-0.384-5.905-2.992-6.299-6.299 v-2.559c-0.463-3.996,2.391-7.607,6.387-8.08c3.996-0.463,7.607,2.391,8.08,6.387c0.069,0.561,0.069,1.132,0,1.693H369.276z"></path><path style="fill:#444444;" d="M368.686,362.964v2.559c-0.049,3.582-3.002,6.456-6.594,6.397c-0.03,0-0.069,0-0.098,0 c-3.504-0.098-6.338-2.893-6.495-6.397v-2.559c-0.167-3.641,2.657-6.722,6.289-6.879c0.069,0,0.138-0.01,0.207-0.01 c3.671,0,6.682,2.923,6.791,6.594L368.686,362.964z"></path><path style="fill:#444444;" d="M367.997,386.386v2.559c-0.423,3.238-3.385,5.511-6.613,5.098c-2.657-0.344-4.753-2.441-5.098-5.098 v-2.559c0.423-3.287,3.435-5.61,6.722-5.186c2.706,0.344,4.842,2.48,5.186,5.186H367.997z"></path><path style="fill:#444444;" d="M367.21,408.825v2.559c-0.955,2.716-3.937,4.143-6.653,3.189c-1.496-0.522-2.667-1.703-3.189-3.189 v-2.559c0-2.884,2.332-5.216,5.216-5.216c2.884,0,5.216,2.332,5.216,5.216l0,0H367.21z"></path><path style="fill:#444444;" d="M366.521,431.854v2.559c-0.108,2.391-2.126,4.242-4.517,4.133h-0.01 c-2.303,0-4.183-1.831-4.232-4.133v-2.559c-0.059-2.46,1.87-4.517,4.33-4.625c2.441-0.108,4.517,1.781,4.625,4.222v0.01 L366.521,431.854z"></path><path style="fill:#444444;" d="M365.438,455.276v1.279c-0.108,1.84-1.683,3.258-3.533,3.149h-0.01 c-1.712-0.089-3.1-1.437-3.248-3.149v-1.279c0.325-1.88,2.096-3.139,3.976-2.815C364.06,452.708,365.192,453.839,365.438,455.276z"></path><path style="fill:#444444;" d="M335.914,101.772v1.181c0.325,1.88-0.945,3.651-2.815,3.976c-1.88,0.325-3.651-0.945-3.976-2.815 c-0.069-0.384-0.069-0.777,0-1.161v-1.476c0.108-1.86,1.673-3.307,3.543-3.248c1.85,0.049,3.307,1.594,3.248,3.435 C335.914,101.703,335.914,101.743,335.914,101.772z"></path><path style="fill:#444444;" d="M336.701,122.833v2.46c0.059,2.332-1.791,4.271-4.133,4.33l0,0c-2.332,0.108-4.32-1.693-4.429-4.025 v-0.01v-2.756c0.049-2.283,1.949-4.094,4.222-4.035c0.039,0,0.069,0,0.108,0C334.733,118.798,336.593,120.579,336.701,122.833z"></path><path style="fill:#444444;" d="M337.489,145.074v2.46c0.108,2.765-2.047,5.108-4.812,5.216h-0.01c-2.765,0-5.058-2.155-5.216-4.921 v-2.756c0.049-2.716,2.293-4.881,5.019-4.822c0.039,0,0.069,0,0.098,0C335.225,140.301,337.38,142.417,337.489,145.074z"></path><path style="fill:#444444;" d="M338.079,167.415v2.46c0,3.1-2.519,5.61-5.619,5.6c-3.09,0-5.6-2.51-5.6-5.6v-2.756 c0.413-3.071,3.228-5.226,6.298-4.822c2.51,0.335,4.488,2.313,4.822,4.822L338.079,167.415z"></path><path style="fill:#444444;" d="M338.67,189.558v2.46c0.108,3.425-2.578,6.289-5.993,6.397c0,0,0,0-0.01,0 c-3.444,0.059-6.289-2.657-6.397-6.102v-2.756c0.108-3.385,2.913-6.062,6.299-6.003 C335.875,183.604,338.561,186.251,338.67,189.558z"></path><path style="fill:#444444;" d="M339.063,211.996v2.46c-0.443,3.671-3.789,6.279-7.45,5.836c-3.051-0.374-5.462-2.775-5.836-5.836 v-2.657c0-3.592,2.903-6.495,6.495-6.495c0.069,0,0.138,0,0.197,0c3.641,0,6.594,2.952,6.594,6.594 C339.063,211.937,339.063,211.967,339.063,211.996z"></path><path style="fill:#444444;" d="M339.457,234.238v2.46c-0.463,3.887-3.986,6.663-7.873,6.2c-3.258-0.384-5.816-2.952-6.2-6.2v-2.756 c0.453-3.828,3.937-6.564,7.765-6.112c3.198,0.384,5.728,2.903,6.112,6.112L339.457,234.238z"></path><path style="fill:#444444;" d="M339.851,256.578v2.46c-0.472,4.104-4.183,7.046-8.286,6.574c-3.454-0.394-6.18-3.12-6.574-6.574 v-2.657c0.472-4.045,4.133-6.948,8.178-6.486c3.405,0.394,6.082,3.08,6.486,6.486L339.851,256.578z"></path><path style="fill:#444444;" d="M340.047,278.819v2.46c-0.049,4.143-3.435,7.479-7.578,7.479c-4.133,0-7.479-3.346-7.479-7.479 v-2.46c-0.472-4.153,2.51-7.913,6.663-8.395c4.153-0.482,7.913,2.51,8.395,6.663C340.116,277.668,340.116,278.249,340.047,278.819z "></path><path style="fill:#444444;" d="M339.851,301.159v2.46c-0.463,3.996-4.084,6.859-8.08,6.387c-3.356-0.394-5.993-3.031-6.387-6.387 v-2.46c-0.059-4.035,3.149-7.371,7.184-7.479c4.025-0.108,7.371,3.061,7.479,7.076c0,0,0,0,0,0.01L339.851,301.159z"></path><path style="fill:#444444;" d="M339.359,323.401v2.46c-0.049,3.75-3.139,6.741-6.889,6.692l0,0 c-3.651-0.098-6.594-3.041-6.692-6.692v-2.46c-0.453-3.779,2.244-7.204,6.013-7.666s7.204,2.244,7.666,6.013 c0.069,0.541,0.069,1.102,0,1.644h-0.098V323.401z"></path><path style="fill:#444444;" d="M338.768,345.741v2.46c-0.108,3.425-2.972,6.112-6.387,6.003c0,0,0,0-0.01,0 c-3.307-0.049-5.993-2.697-6.102-6.003v-2.46c0-3.474,2.824-6.298,6.308-6.289c3.474,0,6.289,2.815,6.289,6.289H338.768z"></path><path style="fill:#444444;" d="M338.178,367.983v2.46c-0.413,3.071-3.228,5.226-6.299,4.822c-2.51-0.335-4.488-2.313-4.822-4.822 v-2.46c-0.108-3.1,2.313-5.698,5.413-5.806c0.03,0,0.069,0,0.098,0c3.12-0.059,5.698,2.401,5.806,5.511L338.178,367.983z"></path><path style="fill:#444444;" d="M337.489,390.323v2.46c-0.551,2.716-3.189,4.478-5.905,3.937c-1.988-0.404-3.533-1.949-3.937-3.937 v-2.46c-0.108-2.765,2.047-5.108,4.812-5.216h0.01c2.775-0.059,5.059,2.145,5.118,4.921l0,0L337.489,390.323z"></path><path style="fill:#444444;" d="M336.898,412.564v2.46c-0.108,2.352-2.077,4.192-4.429,4.133c-2.244-0.098-4.035-1.89-4.133-4.133 v-2.46c0.364-2.421,2.618-4.084,5.039-3.72c1.919,0.285,3.435,1.801,3.72,3.72H336.898z"></path><path style="fill:#444444;" d="M335.914,434.904v1.181c-0.325,1.88-2.096,3.139-3.976,2.815c-1.437-0.246-2.569-1.378-2.815-2.815 v-1.181c-0.108-1.899,1.338-3.533,3.238-3.641h0.01c1.88,0,3.435,1.466,3.543,3.346V434.904z"></path></g><path style="fill:#AE8469;" d="M273.323,290.442h-39.366c-2.716,0-4.921-2.204-4.921-4.921s2.204-4.921,4.921-4.921h39.366 c2.716,0,4.921,2.204,4.921,4.921S276.039,290.442,273.323,290.442z"></path><g><path style="fill:#343433;" d="M209.452,199.891c-4.783,0-8.66,3.878-8.66,8.66c0,4.783,3.878,8.66,8.66,8.66 c4.783,0,8.66-3.878,8.66-8.66l0,0c0.059-4.724-3.73-8.601-8.464-8.66C209.58,199.891,209.521,199.891,209.452,199.891z"></path><path style="fill:#343433;" d="M298.025,199.891c4.783-0.059,8.7,3.779,8.759,8.562c0.059,4.783-3.779,8.7-8.562,8.759 c-4.783,0.059-8.7-3.779-8.759-8.562c0-0.03,0-0.069,0-0.098c-0.059-4.724,3.73-8.601,8.464-8.66 C297.956,199.891,297.995,199.891,298.025,199.891z"></path><path style="fill:#343433;" d="M298.123,335.604c1.673-7.479-12.695,4.133-19.683,0c-6.781-5.964-15.234-9.714-24.21-10.727h-0.492 c-8.995,0.935-17.469,4.685-24.21,10.727c-7.184,4.133-21.553-7.479-19.683,0c1.87,7.479,16.927,23.816,44.09,24.013h0.492 C281.196,359.421,296.45,342.986,298.123,335.604z"></path><path style="fill:#343433;" d="M239.37,305.785l12.203,11.711c1.161,1.22,3.09,1.279,4.311,0.118 c0.039-0.039,0.079-0.079,0.118-0.118l12.302-12.105c1.201-1.26,1.142-3.258-0.118-4.448c-0.551-0.531-1.279-0.837-2.047-0.866 h-24.604c-1.732-0.197-3.287,1.043-3.484,2.775C237.913,303.994,238.425,305.126,239.37,305.785z"></path><path style="fill:#343433;" d="M243.897,371.919c-0.049-3.592-2.047-6.869-5.216-8.562c4.724-2.677,6.387-8.69,3.71-13.414 c-0.876-1.545-2.165-2.834-3.71-3.71h-9.153c-3.208,1.663-5.245,4.95-5.314,8.562c0.069,3.612,2.106,6.899,5.314,8.562 c-3.208,1.663-5.245,4.95-5.314,8.562c0.069,3.612,2.106,6.899,5.314,8.562c-3.208,1.663-5.245,4.95-5.314,8.562 c0.069,3.612,2.106,6.899,5.314,8.562c-3.208,1.663-5.245,4.95-5.314,8.562c0.069,3.612,2.106,6.899,5.314,8.562 c-3.208,1.663-5.245,4.95-5.314,8.562c-0.069,5.432,4.281,9.9,9.713,9.969s9.9-4.281,9.969-9.713 c0.049-3.681-1.968-7.076-5.216-8.808c4.724-2.677,6.387-8.69,3.71-13.414c-0.876-1.545-2.165-2.834-3.71-3.71 c4.724-2.677,6.387-8.69,3.71-13.414c-0.876-1.545-2.165-2.834-3.71-3.71C241.85,378.798,243.848,375.511,243.897,371.919z"></path><path style="fill:#343433;" d="M283.262,371.919c-0.049-3.592-2.047-6.869-5.216-8.562c4.724-2.677,6.387-8.69,3.71-13.414 c-0.876-1.545-2.165-2.834-3.71-3.71h-9.152c-3.208,1.663-5.245,4.95-5.314,8.562c0.069,3.612,2.106,6.899,5.314,8.562 c-3.208,1.663-5.245,4.95-5.314,8.562c0.069,3.612,2.106,6.899,5.314,8.562c-3.208,1.663-5.245,4.95-5.314,8.562 c0.069,3.612,2.106,6.899,5.314,8.562c-3.208,1.663-5.245,4.95-5.314,8.562c0.069,3.612,2.106,6.899,5.314,8.562 c-3.208,1.663-5.245,4.95-5.314,8.562c-0.069,5.432,4.281,9.9,9.713,9.969s9.9-4.281,9.969-9.713 c0.049-3.681-1.968-7.076-5.216-8.808c4.724-2.677,6.387-8.69,3.71-13.414c-0.876-1.545-2.165-2.834-3.71-3.71 c4.724-2.677,6.387-8.69,3.71-13.414c-0.876-1.545-2.165-2.834-3.71-3.71C281.215,378.798,283.213,375.511,283.262,371.919z"></path><path style="fill:#343433;" d="M195.28,213.866c5.216,0,9.841,0,14.172-0.59c2.165,0,4.429,0,6.791,0s4.921,0,7.479,0l1.083,4.33 c-2.293,1.348-4.694,2.5-7.184,3.444c-2.569,1.014-5.305,1.545-8.07,1.575c-5.472-0.423-10.776-2.145-15.451-5.019L195.28,213.866z "></path><path style="fill:#343433;" d="M283.361,213.866c5.118,0,9.841,0,14.172-0.59c2.165,0,4.429,0,6.791,0s4.822,0,7.381,0l1.083,4.33 c-2.283,1.368-4.694,2.519-7.184,3.444c-2.569,1.024-5.305,1.555-8.07,1.575c-5.442-0.423-10.707-2.145-15.353-5.019 L283.361,213.866z"></path></g><path style="fill:#E16251;" d="M371.835,177.256c-38.903,7.509-78.495,10.806-118.097,9.841c-78.731,0-108.256-9.841-108.256-9.841 v-49.207c0,0,19.683-68.89,108.256-68.89s118.097,68.89,118.097,68.89V177.256z"></path><path style="fill:#D1574A;" d="M253.738,59.159c-88.573,0-108.256,68.89-108.256,68.89v49.207 c13.699,3.563,27.704,5.836,41.826,6.791v-55.998c0-50.486,47.534-66.43,72.827-68.89C257.97,59.356,256.002,59.159,253.738,59.159z "></path><g><path style="fill:#343433;" d="M253.738,196.939c-79.41,0-110.106-9.92-111.366-10.343c-4.015-1.338-6.732-5.098-6.732-9.339 v-49.207c0-0.915,0.128-1.83,0.384-2.706c0.217-0.758,22.822-76.025,117.713-76.025s117.497,75.267,117.713,76.025 c0.246,0.876,0.374,1.791,0.374,2.706v49.207c0,4.242-2.706,8.001-6.732,9.339C363.834,187.019,333.149,196.939,253.738,196.939z M361.984,177.256h0.098H361.984z M155.324,169.589c12.469,2.687,43.046,7.666,98.414,7.666c55.348,0,85.925-4.98,98.414-7.666 v-40.005C349.141,120.815,328.218,69,253.738,69c-74.096,0-95.442,52.15-98.414,60.603 C155.324,129.604,155.324,169.589,155.324,169.589z"></path><path style="fill:#343433;" d="M306.095,289.251c-4.625-25.883-37.496-21.553-52.258-28.245 c-14.368,6.594-47.928,2.952-52.455,28.245c-1.703,7.174-0.531,14.733,3.248,21.061c3.937-11.022,6.692-23.521,17.911-26.473 c11.219-2.952,31.197-4.232,31.197-12.302c0,8.07,19.683,9.251,31.296,12.302s13.975,15.451,17.911,26.473 C306.695,303.974,307.817,296.416,306.095,289.251z"></path></g><path style="fill:#AE8469;" d="M253.709,265.061c-3.356,0-6.702-0.413-9.95-1.25l-11.022-3.08c-2.618-0.728-4.143-3.445-3.415-6.062 c0.728-2.628,3.464-4.163,6.062-3.415l10.924,3.051c4.832,1.23,10.048,1.23,14.979-0.03l10.816-3.021 c2.618-0.768,5.334,0.797,6.062,3.415c0.728,2.618-0.797,5.334-3.415,6.062l-10.924,3.051 C260.489,264.638,257.094,265.061,253.709,265.061z"></path><circle style="fill:#D6AB56;" cx="234.055" cy="406.158" r="7.381"></circle><path style="fill:#333333;" d="M234.055,416.009c-5.423,0-9.841-4.409-9.841-9.841c0-5.432,4.419-9.841,9.841-9.841 c5.423,0,9.841,4.409,9.841,9.841C243.897,411.6,239.478,416.009,234.055,416.009z M234.055,401.247 c-2.716,0-4.921,2.214-4.921,4.921c0,2.706,2.204,4.921,4.921,4.921s4.921-2.214,4.921-4.921 C238.976,403.461,236.772,401.247,234.055,401.247z"></path><circle style="fill:#D6AB56;" cx="273.421" cy="406.158" r="7.381"></circle><path style="fill:#333333;" d="M273.411,416.009c-5.432,0-9.841-4.409-9.841-9.841c0-5.432,4.409-9.841,9.841-9.841 s9.841,4.409,9.841,9.841C283.253,411.6,278.844,416.009,273.411,416.009z M273.411,401.247c-2.706,0-4.921,2.214-4.921,4.921 c0,2.706,2.214,4.921,4.921,4.921c2.706,0,4.921-2.214,4.921-4.921C278.332,403.461,276.127,401.247,273.411,401.247z"></path><g><rect x="76.593" y="374.173" style="fill:#343433;" width="19.683" height="105.795"></rect><rect x="174.593" y="347.983" transform="matrix(-0.9345 0.356 -0.356 -0.9345 508.7645 760.1982)" style="fill:#343433;" width="19.683" height="157.858"></rect><path style="fill:#343433;" d="M253.738,0.11c-23.324-1.23-46.009,7.873-62.001,24.899c-94.576,0-65.445,88.573-115.145,132.564 h19.683l0,0c-29.524,49.207-9.841,68.89-30.902,105.5c10.117-0.945,19.653-5.157,27.162-12.007 c-11.977,15.333-18.177,34.386-17.518,53.833c0,12.597,1.673,24.505,1.673,35.724c0.246,13.315-3.71,26.365-11.318,37.299 c33.264-9.054,80.404-21.848,109.633-28.343v-221.53c0-54.718,55.998-68.89,78.731-68.89c33.904-0.689,66.361,13.739,88.573,39.366 l29.524,39.366V98.525C371.835,65.261,342.311,0.11,253.738,0.11z"></path></g><path style="fill:#E16251;" d="M253.738,59.159c88.573,0,118.097,68.89,118.097,68.89v49.207 c-38.903,7.509-78.495,10.806-118.097,9.841"></path><path style="fill:#343433;" d="M267.132,197.106c-4.547,0-9.093-0.059-13.63-0.167c-5.432-0.128-9.733-4.645-9.595-10.078 c0.138-5.432,4.931-9.684,10.078-9.595c36.167,0.866,72.413-1.87,108.01-8.188v-38.834C356.916,120.018,327.874,69,253.738,69 c-5.432,0-9.841-4.409-9.841-9.841s4.409-9.841,9.841-9.841c93.976,0,125.832,71.793,127.131,74.854 c0.531,1.23,0.797,2.549,0.797,3.878v49.207c0,4.714-3.346,8.769-7.981,9.664C338.63,193.691,302.847,197.106,267.132,197.106z"></path><g><path style="fill:#444444;" d="M99.72,206.78v1.279c0.108,1.899-1.338,3.533-3.238,3.641h-0.01 c-1.87,0.059-3.435-1.388-3.543-3.248l0,0v-1.279c0.325-1.88,2.096-3.139,3.976-2.815c1.437,0.246,2.569,1.378,2.815,2.815 C99.72,207.174,99.72,206.78,99.72,206.78z"></path><path style="fill:#444444;" d="M100.901,226.857v2.067c0.502,2.559-1.171,5.039-3.73,5.541c-2.559,0.502-5.039-1.171-5.541-3.73 c-0.079-0.404-0.108-0.817-0.079-1.22v-2.854c0.157-2.519,2.303-4.438,4.822-4.33C98.834,222.428,100.802,224.406,100.901,226.857z "></path><path style="fill:#444444;" d="M101.885,248.016v2.264c-0.413,3.13-3.277,5.324-6.407,4.911c-2.559-0.335-4.576-2.352-4.911-4.911 v-2.756c0.108-3.041,2.657-5.423,5.698-5.314c0.039,0,0.069,0,0.108,0c3.1,0.049,5.57,2.608,5.511,5.708 C101.885,247.947,101.885,247.986,101.885,248.016z"></path><path style="fill:#444444;" d="M102.672,269.076v2.362c0.059,3.553-2.746,6.486-6.299,6.594c-3.533,0.108-6.486-2.667-6.594-6.19 c0,0,0,0,0-0.01v-2.756c0.433-3.504,3.631-5.993,7.135-5.56c2.903,0.364,5.196,2.647,5.56,5.56H102.672z"></path><path style="fill:#444444;" d="M103.263,290.235v2.362c0.108,3.858-2.933,7.076-6.791,7.184c-0.03,0-0.069,0-0.098,0 c-3.799,0.167-7.017-2.785-7.174-6.584c0-0.069,0-0.138-0.01-0.207v-2.756c0.453-3.828,3.937-6.564,7.765-6.112 c3.198,0.384,5.728,2.903,6.112,6.112L103.263,290.235z"></path><path style="fill:#444444;" d="M103.755,311.395v2.362c0,4.133-3.346,7.479-7.479,7.479c-4.133,0-7.479-3.346-7.479-7.479v-2.559 c0-4.074,3.307-7.381,7.381-7.381c0.03,0,0.069,0,0.098,0c4.133,0,7.479,3.346,7.479,7.479 C103.755,311.335,103.755,311.365,103.755,311.395z"></path><path style="fill:#444444;" d="M103.656,332.554v2.362c-0.049,3.917-3.258,7.046-7.174,6.997c-0.098,0-0.207,0-0.305-0.01 c-3.818-0.098-6.889-3.169-6.987-6.987v-2.362c0.315-4.064,3.868-7.105,7.922-6.791c3.445,0.266,6.239,2.884,6.741,6.298 L103.656,332.554z"></path><path style="fill:#444444;" d="M102.968,353.713v2.362c-0.443,3.612-3.73,6.18-7.352,5.738c-3.002-0.374-5.373-2.736-5.738-5.738 v-2.362c-0.443-3.671,2.165-7.007,5.836-7.45c3.671-0.443,7.007,2.165,7.45,5.836c0.069,0.541,0.069,1.083,0,1.624h-0.197V353.713z "></path><path style="fill:#444444;" d="M101.983,374.872v2.362c-0.413,3.071-3.228,5.226-6.299,4.822c-2.51-0.335-4.488-2.313-4.822-4.822 v-2.362c-0.413-3.13,1.781-5.993,4.911-6.407c3.13-0.413,5.993,1.781,6.407,4.911c0.069,0.492,0.069,1.004,0,1.496H101.983z"></path><path style="fill:#444444;" d="M100.999,396.228v2.362c-0.374,2.529-2.726,4.271-5.245,3.907c-2.017-0.295-3.602-1.88-3.907-3.907 v-2.362c-0.167-2.549,1.771-4.753,4.32-4.911c0.039,0,0.079,0,0.108-0.01c2.549-0.167,4.753,1.771,4.911,4.32 c0,0.039,0,0.079,0.01,0.108L100.999,396.228z"></path><path style="fill:#444444;" d="M99.818,417.19v1.181c-0.157,1.86-1.771,3.267-3.641,3.149c-1.693-0.098-3.051-1.457-3.149-3.149 v-1.181c0.157-1.949,1.87-3.405,3.818-3.248c1.545,0.128,2.824,1.24,3.169,2.756L99.818,417.19z"></path></g><ellipse style="fill:#D25949;" cx="361.994" cy="318.274" rx="10.826" ry="11.416"></ellipse><g><path style="fill:#444444;" d="M129.244,204.812v1.279c0.167,1.84-1.191,3.464-3.031,3.631c-0.039,0-0.079,0.01-0.118,0.01 c-1.919,0.118-3.582-1.329-3.74-3.248v-1.673c0.157-1.86,1.771-3.267,3.641-3.149C127.709,201.761,129.097,203.1,129.244,204.812z"></path><path style="fill:#444444;" d="M130.524,225.085v2.362c0.167,2.716-1.909,5.049-4.625,5.216c-2.716,0.167-5.049-1.909-5.216-4.625 v-0.59v-2.362c0.157-2.569,2.352-4.537,4.921-4.429C128.171,220.548,130.366,222.517,130.524,225.085z"></path><path style="fill:#444444;" d="M131.606,246.441v2.165c-0.226,3.257-3.041,5.708-6.299,5.482c-2.716-0.187-4.96-2.214-5.413-4.891 v-2.952c0.207-3.149,2.854-5.57,6.003-5.511C129.008,240.841,131.508,243.331,131.606,246.441z"></path><path style="fill:#444444;" d="M132.393,268.289v2.362c-0.285,3.681-3.513,6.436-7.194,6.151c-3.1-0.246-5.619-2.588-6.092-5.659 v-2.854c0.443-3.612,3.73-6.18,7.352-5.738c3.002,0.374,5.373,2.736,5.738,5.738H132.393L132.393,268.289z"></path><path style="fill:#444444;" d="M133.082,289.153v2.46c0.167,3.966-2.913,7.312-6.879,7.479c-0.039,0-0.069,0-0.108,0 c-4.035,0.108-7.42-3.051-7.578-7.086v-2.854c0.157-3.986,3.494-7.096,7.479-6.987 C129.805,282.313,132.885,285.344,133.082,289.153z"></path><path style="fill:#444444;" d="M133.279,310.607v2.362c-0.472,4.104-4.183,7.046-8.286,6.574c-3.454-0.394-6.18-3.12-6.574-6.574 v-2.362c0-4.133,3.346-7.479,7.479-7.479s7.479,3.346,7.479,7.479H133.279L133.279,310.607z"></path><path style="fill:#444444;" d="M132.689,331.963v2.362c-0.453,3.72-3.838,6.377-7.558,5.925c-3.1-0.374-5.551-2.824-5.925-5.925 v-2.362c-0.453-3.779,2.244-7.204,6.013-7.666c3.779-0.453,7.204,2.244,7.666,6.013c0.069,0.541,0.069,1.102,0,1.643h-0.197 V331.963z"></path><path style="fill:#444444;" d="M131.705,353.319v2.362c-0.157,3.198-2.884,5.669-6.082,5.511c-0.01,0-0.01,0-0.02,0 c-2.962-0.148-5.314-2.549-5.413-5.511v-2.362c-0.217-3.198,2.195-5.974,5.393-6.19c0.039,0,0.079-0.01,0.118-0.01 c3.258-0.167,6.033,2.342,6.2,5.6v0.01L131.705,353.319z"></path><path style="fill:#444444;" d="M130.622,374.675v2.46c-0.157,2.569-2.352,4.537-4.921,4.429c-2.401-0.098-4.33-2.027-4.429-4.429 v-2.46c-0.108-2.657,1.958-4.911,4.616-5.019h0.01c2.608-0.167,4.852,1.811,5.009,4.419c0,0.039,0,0.079,0.01,0.108 L130.622,374.675z"></path><path style="fill:#444444;" d="M129.343,396.228v1.181c-0.157,1.86-1.771,3.267-3.641,3.149c-1.693-0.098-3.051-1.457-3.149-3.149 v-1.181c-0.167-1.899,1.24-3.563,3.13-3.73c0.039,0,0.079-0.01,0.118-0.01c1.919-0.118,3.582,1.329,3.74,3.248L129.343,396.228z"></path></g><path style="fill:#D6AB56;" d="M121.863,286.889h7.873c3.258,0,5.905,2.647,5.905,5.905v11.022c0,3.258-2.647,5.905-5.905,5.905 h-7.873c-3.258,0-5.905-2.647-5.905-5.905v-11.022C115.958,289.537,118.606,286.889,121.863,286.889z"></path><path style="fill:#343433;" d="M319.085,91.734v-1.181c-0.049-2.332-1.427-4.438-3.543-5.413c2.214-1.083,3.632-3.336,3.641-5.806 v-1.083c0-3.336-2.667-6.052-6.003-6.102c-3.445-0.059-6.289,2.657-6.397,6.102v1.378c0.098,2.372,1.496,4.488,3.641,5.511 c-2.155,0.945-3.572,3.061-3.641,5.413v1.378c0.098,2.372,1.496,4.488,3.641,5.511c-2.145,0.964-3.553,3.061-3.641,5.413v1.476 c0.128,2.578,1.801,4.832,4.232,5.708c-2.313,0.876-3.818,3.13-3.74,5.61v1.181c0.216,2.136,1.575,3.976,3.543,4.822 c-1.693,0.797-2.677,2.578-2.46,4.429v1.181c0.177,1.634,1.23,3.031,2.756,3.641c-0.817,0.581-1.27,1.555-1.181,2.559v0.59 c0.138,1.299,1.161,2.323,2.46,2.46c1.545,0.177,2.943-0.915,3.149-2.46v-1.378c0.138-0.758-0.039-1.535-0.492-2.165 c1.447-0.64,2.451-1.978,2.657-3.543V124.9c-0.315-1.447-1.299-2.657-2.657-3.248c2.037-0.777,3.444-2.647,3.641-4.822v-1.968 c-0.197-2.224-1.653-4.133-3.74-4.921c2.519-0.876,4.212-3.238,4.232-5.905v-1.181c-0.049-2.332-1.427-4.438-3.543-5.413 C317.786,96.359,319.125,94.145,319.085,91.734z"></path><g><path style="fill:#444444;" d="M158.768,226.463v1.279c0.167,1.84-1.191,3.464-3.031,3.631c-0.039,0-0.079,0.01-0.118,0.01 c-1.89,0.118-3.533-1.27-3.74-3.149v-1.771c0.157-1.86,1.771-3.267,3.641-3.149C157.223,223.452,158.581,224.77,158.768,226.463z"></path><path style="fill:#444444;" d="M160.245,247.425v2.46c0.059,2.716-2.017,5.009-4.724,5.216c-2.716,0.167-5.049-1.899-5.206-4.616 c0-0.039,0-0.079-0.01-0.108v-2.952c0.157-2.677,2.431-4.734,5.118-4.625C157.971,242.898,160.048,244.886,160.245,247.425z"></path><path style="fill:#444444;" d="M161.327,269.568v2.46c0.167,3.336-2.372,6.19-5.708,6.397c-3.385,0.167-6.289-2.421-6.495-5.806 v-0.59v-2.46c0.108-3.257,2.834-5.816,6.092-5.708c0.039,0,0.069,0,0.108,0C158.503,263.91,161.121,266.39,161.327,269.568z"></path><path style="fill:#444444;" d="M162.115,291.712v2.46c0.453,3.779-2.244,7.204-6.013,7.666c-3.779,0.453-7.204-2.244-7.666-6.013 c-0.069-0.541-0.069-1.102,0-1.644v-2.854c0.207-3.74,3.336-6.653,7.086-6.594C159.27,284.833,162.223,287.962,162.115,291.712 L162.115,291.712z"></path><path style="fill:#444444;" d="M162.803,313.855v2.46c0,4.133-3.346,7.479-7.479,7.479c-4.133,0-7.479-3.346-7.479-7.479v-2.657 c0-4.074,3.307-7.381,7.381-7.381c0.03,0,0.069,0,0.098,0C159.467,306.336,162.803,309.712,162.803,313.855z"></path><path style="fill:#444444;" d="M162.508,335.998v2.46c-0.463,3.887-3.986,6.663-7.873,6.2c-3.258-0.384-5.816-2.952-6.2-6.2v-2.46 c-0.6-3.927,2.096-7.588,6.023-8.178c3.927-0.6,7.588,2.096,8.178,6.023c0.079,0.522,0.098,1.043,0.069,1.575L162.508,335.998z"></path><path style="fill:#444444;" d="M161.524,358.141v2.46c-0.423,3.346-3.484,5.708-6.83,5.275c-2.756-0.354-4.931-2.519-5.275-5.275 v-2.46c-0.581-3.376,1.693-6.574,5.068-7.155c3.376-0.581,6.574,1.693,7.155,5.068c0.079,0.463,0.108,0.925,0.079,1.397 L161.524,358.141z"></path><path style="fill:#444444;" d="M160.343,380.284v2.46c-0.108,2.608-2.303,4.635-4.911,4.537c-0.039,0-0.079,0-0.108-0.01 c-2.46-0.138-4.429-2.077-4.625-4.527v-2.46c-0.679-2.687,0.945-5.423,3.631-6.102c2.687-0.679,5.423,0.945,6.102,3.631 c0.157,0.62,0.197,1.26,0.108,1.88L160.343,380.284z"></path><path style="fill:#444444;" d="M158.867,402.428v1.181c-0.325,1.88-2.096,3.139-3.976,2.815c-1.437-0.246-2.569-1.378-2.815-2.815 v-1.181c-0.167-1.899,1.24-3.563,3.13-3.73c0.039,0,0.079-0.01,0.118-0.01c1.89-0.118,3.533,1.27,3.74,3.149L158.867,402.428z"></path></g><rect x="391.508" y="369.853" style="fill:#343433;" width="19.683" height="110.125"></rect><g><path style="fill:#444444;" d="M394.963,265.829v1.279c0.167,1.919-1.23,3.631-3.149,3.838c-1.89,0.226-3.602-1.132-3.828-3.011 c-0.01-0.039-0.01-0.089-0.01-0.138v-1.968c0.207-1.87,1.87-3.228,3.74-3.051C393.378,262.906,394.736,264.175,394.963,265.829z"></path><path style="fill:#444444;" d="M396.734,287.972v2.559c-0.167,2.982-2.716,5.275-5.698,5.108c-2.5-0.138-4.576-1.958-5.029-4.419 v-0.689v-2.559c0.207-2.844,2.667-4.99,5.511-4.822C394.283,283.041,396.626,285.197,396.734,287.972L396.734,287.972z"></path><path style="fill:#444444;" d="M398.112,310.902v2.559c-0.256,3.69-3.444,6.476-7.135,6.22c-3.11-0.217-5.659-2.549-6.151-5.629 v-3.149c0.443-3.612,3.73-6.18,7.352-5.738c3.002,0.374,5.373,2.736,5.738,5.738H398.112L398.112,310.902z"></path><path style="fill:#444444;" d="M398.998,334.03v2.559c0.108,4.133-3.149,7.568-7.273,7.676c0,0,0,0-0.01,0 c-4.055,0.069-7.46-3.041-7.775-7.086v-2.854c0.472-4.104,4.183-7.046,8.286-6.574c3.454,0.394,6.18,3.12,6.574,6.574 L398.998,334.03z"></path><path style="fill:#444444;" d="M398.407,356.862v2.559c-0.157,3.691-3.277,6.564-6.968,6.407c-0.039,0-0.079,0-0.118-0.01 c-3.444-0.197-6.2-2.952-6.397-6.397v-2.559c-0.787-3.72,1.604-7.381,5.324-8.159c3.72-0.787,7.381,1.604,8.159,5.324 C398.604,354.963,398.604,355.927,398.407,356.862z"></path><path style="fill:#444444;" d="M397.029,380.383v2.657c0,2.933-2.382,5.314-5.314,5.314c-2.933,0-5.314-2.382-5.314-5.314l0,0 v-2.657c-0.167-3.031,2.096-5.639,5.118-5.905c3.031-0.226,5.678,2.057,5.905,5.088c0,0.01,0,0.02,0,0.03 C397.413,379.901,397.265,380.186,397.029,380.383z"></path><path style="fill:#444444;" d="M395.061,403.609v1.181c-0.207,1.87-1.87,3.228-3.74,3.051c-1.624-0.138-2.913-1.427-3.051-3.051 v-1.181c-0.453-1.899,0.728-3.818,2.628-4.261c1.899-0.453,3.818,0.728,4.261,2.628c0.079,0.315,0.108,0.63,0.098,0.945 L395.061,403.609z"></path></g><g><path style="fill:#D6AB56;" d="M139.086,405.183c0.049-1.811,1.535-3.248,3.346-3.248c1.703-0.01,3.149,1.26,3.346,2.952l0,0 c2.008,0,3.641,1.634,3.641,3.641c0,2.027-1.614,3.691-3.641,3.74c-0.945-0.01-1.85-0.364-2.559-0.984l-2.165,2.165 c-1.033-1.555-2.293-2.952-3.74-4.133l2.165-2.067C139.115,406.63,138.977,405.902,139.086,405.183z"></path><path style="fill:#D6AB56;" d="M108.38,411.285c-0.659,0.63-1.545,0.984-2.46,0.984c-2.027-0.049-3.641-1.712-3.641-3.74 c0-2.008,1.634-3.641,3.641-3.641l0,0c0.197-1.693,1.644-2.962,3.346-2.952c1.791,0,3.248,1.457,3.248,3.248l0,0 c0.03,0.748-0.217,1.486-0.689,2.067l2.067,2.067c-1.417,1.191-2.647,2.578-3.641,4.133L108.38,411.285z"></path><path style="fill:#D6AB56;" d="M109.266,449.174c-2.067-0.039-3.7-1.752-3.661-3.818c0-0.108,0.01-0.207,0.02-0.315 c-1.693-0.148-3.011-1.545-3.051-3.248c0-1.85,1.496-3.346,3.346-3.346l0,0c0.718,0,1.407,0.246,1.968,0.689l2.657-2.559 l2.362,1.673v3.74l-0.984,0.984c0.63,0.659,0.984,1.545,0.984,2.46C112.907,447.462,111.293,449.125,109.266,449.174z"></path><path style="fill:#D6AB56;" d="M140.562,423.292c0-8.149-6.613-14.762-14.762-14.762s-14.762,6.613-14.762,14.762 c0,10.629-0.787,8.66,5.61,12.892v5.61h3.641v-3.74h3.74v3.74h4.035v-3.74h3.74v3.74h3.641v-5.61 C141.644,431.854,140.562,433.723,140.562,423.292z M118.222,430.673c-2.037-0.335-3.415-2.254-3.09-4.291 c0.256-1.584,1.506-2.824,3.09-3.09c2.037-0.335,3.966,1.043,4.291,3.09c0.335,2.037-1.043,3.966-3.09,4.291 C119.029,430.741,118.625,430.741,118.222,430.673z M123.831,434.412c0-2.067,0.787-3.74,1.771-3.74s1.87,1.673,1.87,3.74H123.831z M132.984,430.673c-2.037-0.335-3.415-2.254-3.09-4.291c0.256-1.584,1.506-2.824,3.09-3.09c2.037-0.335,3.966,1.043,4.291,3.09 c0.335,2.037-1.043,3.966-3.09,4.291C133.791,430.741,133.387,430.741,132.984,430.673z"></path><path style="fill:#D6AB56;" d="M146.073,445.435L146.073,445.435c0.335,2.037-1.043,3.966-3.09,4.291 c-2.037,0.335-3.966-1.043-4.291-3.09c-0.069-0.404-0.069-0.807,0-1.211c0.01-0.915,0.354-1.791,0.984-2.46l-0.984-0.984v-3.74 l2.362-1.673l2.559,2.559c0.61-0.433,1.329-0.669,2.067-0.689c1.821,0.315,3.041,2.047,2.726,3.868 c-0.246,1.397-1.329,2.48-2.726,2.726L146.073,445.435z"></path></g></svg>