<!-- icon666.com - MILLIONS vector ICONS FREE --><svg version="1.1" id="Capa_1" xmlns="http://www.w3.org/2000/svg" xmlns:xlink="http://www.w3.org/1999/xlink" x="0px" y="0px" viewBox="0 0 511.977 511.977" style="enable-background:new 0 0 511.977 511.977;" xml:space="preserve"><path style="fill:#F1D0C7;" d="M499.594,411.741c-3.702-23.414-20.569-42.585-43.323-49.231l-125.538-36.431v-43.815l-149.169,0.985 v42.831L56.517,362.018c-22.656,6.794-39.463,25.895-43.323,49.231l-3.348,21.268l0.985,0.492 c76.711,37.189,160.906,56.389,246.154,56.123c85.218-0.039,169.344-19.22,246.154-56.123l-0.985-0.492L499.594,411.741z"></path><path style="fill:#E5C4BD;" d="M256.689,370.584c30.395,30.306,79.586,30.306,109.982,0l27.175-25.994l-63.212-18.511v-43.815 l-149.169,0.985v12.603L256.689,370.584z"></path><path style="fill:#4F4E4D;" d="M499.594,411.741c-3.702-23.414-20.569-42.585-43.323-49.231l-90.092-25.6 c-21.563,11.323-62.523,37.415-110.178,37.415s-88.615-26.092-109.785-37.908l-89.6,25.6c-22.656,6.794-39.463,25.895-43.323,49.231 l-3.446,21.268l0.985,0.492c76.711,37.189,160.906,56.389,246.154,56.123c85.218-0.039,169.344-19.22,246.154-56.123l-0.985-0.492 L499.594,411.741z"></path><path style="fill:#424242;" d="M56.024,388.603c-21.642,6.479-38.046,24.202-42.831,46.277 C89.029,471.015,171.992,489.693,256,489.526c83.938-0.089,166.823-18.747,242.708-54.646l0,0 c-4.647-22.144-21.11-39.936-42.831-46.277l-122.191-34.855c-24.084,12.327-50.639,19.062-77.686,19.692 c-27.077-0.679-53.652-7.404-77.785-19.692L56.024,388.603z"></path><g><path style="fill:#333333;" d="M255.311,498.486c-85.002,0-170.319-19.426-246.971-56.241c-2.314-0.354-4.441-1.526-5.977-3.338 c-1.871-2.186-2.688-5.081-2.245-7.926l3.348-21.268c4.244-27.097,23.956-49.713,50.215-57.63l89.728-25.639l5.415,18.944 l-89.6,25.61c-18.924,5.691-33.231,22.105-36.313,41.767l-2.137,13.588c73.482,34.57,155.422,52.687,236.17,52.441 c80.561-0.177,161.526-18.196,234.624-52.175l-1.664-14.651c-3.042-19.121-17.31-35.348-36.313-40.891l-90.023-25.58l5.386-18.944 l90.082,25.6c26.348,7.69,46.09,30.129,50.353,57.167l2.521,22.085c0.482,4.165-1.743,8.172-5.524,9.994 c-77.351,37.159-163.594,56.911-249.413,57.098C256.443,498.486,255.872,498.486,255.311,498.486z"></path><path style="fill:#333333;" d="M430.868,355.323c-2.619-4.894-5.573-9.6-8.862-14.08c-3.348-5.12-8.468-12.8-16.148-24.615 c-10.634-16.148-9.354-29.538-7.582-50.117c0-3.249,0.591-6.695,0.886-9.846c1.516-44.642-6.193-89.127-22.646-130.658 c-13.785-36.923-20.578-53.957-36.529-70.498c-28.948-29.538-46.08-37.022-73.551-41.551c-10.171-1.703-20.569,1.221-28.357,7.975 c-12.534-4.884-26.486-4.706-38.892,0.492c-18.186,8.832-32.542,23.985-40.369,42.634c-7.68,21.563-13.588,37.809-18.117,50.412 c-7.906,19.781-14.681,40.005-20.283,60.554c-0.788,3.151-1.772,6.892-3.151,11.618c-4.037,17.103-3.732,34.934,0.886,51.889 c0,2.363,0.886,4.825,1.28,7.483c-13.686,24.615-12.603,29.538-3.938,52.48c-22.607,19.456-34.53,48.551-32.098,78.277 c-0.059,24.704,19.899,44.79,44.603,44.898h6.794c6.538,5.79,14.996,8.95,23.729,8.862c19.466-0.266,35.18-15.98,35.446-35.446 c-0.079-9.905-4.293-19.328-11.618-25.994l6.105-13.883c0.394-0.935,0.591-1.94,0.591-2.954v-70.498l133.908-0.886v48.148 c-0.098,6.764,1.241,13.479,3.938,19.692c-2.56,4.962-3.909,10.466-3.938,16.049c0.01,4.884,1.044,9.718,3.052,14.178 c-2.068,4.51-3.102,9.413-3.052,14.375c0.266,19.466,15.98,35.18,35.446,35.446c7.06-0.089,13.932-2.324,19.692-6.4h11.815 c16.148,0.098,31.134-8.369,39.385-22.252C437.927,387.214,438.528,369.777,430.868,355.323z"></path></g><path style="fill:#EDCCC3;" d="M256,43.003c62.523,0,100.923,37.415,100.923,93.538v14.277c18.215,0,21.169,15.262,17.231,34.954 c-3.446,16.246-12.308,36.923-26.585,36.923c0,0,0.492,7.385,0.492,12.8c-1.477,38.4-31.015,60.554-61.046,76.8 c-9.354,5.415-19.761,8.773-30.523,9.846c-10.762-1.073-21.169-4.431-30.523-9.846c-30.523-15.754-59.569-27.569-61.046-76.8 c0-5.415,0.492-12.8,0.492-12.8c-14.277,0-23.138-20.677-26.585-36.923c-4.431-19.692-0.985-34.954,17.231-34.954v-13.686 C154.978,80.418,193.378,43.003,256,43.003z"></path><path style="fill:#E5C4BD;" d="M356.824,150.818v-14.277c0-56.123-38.4-93.538-100.923-93.538h-2.658 c-21.662,66.265-46.474,145.034-46.474,259.545c6.006,3.348,12.406,6.498,18.806,9.846c9.354,5.415,19.761,8.773,30.523,9.846 c10.762-1.073,21.169-4.431,30.523-9.846c29.538-16.246,59.077-38.4,61.046-76.8c0-5.415-0.492-12.8-0.492-12.8 c14.277,0,23.138-20.677,26.585-36.923C377.994,166.079,375.04,150.818,356.824,150.818z"></path><path style="fill:#DDB9B3;" d="M347.963,235.593c0-5.415-0.492-12.8-0.492-12.8c14.277,0,23.138-20.677,26.585-36.923 c3.938-19.692,0.985-34.954-17.231-34.954v-14.375c0-56.123-38.4-93.538-100.923-93.538s-100.923,37.415-99.938,94.129v13.785 c-18.215,0-21.662,15.262-17.231,34.954c3.446,16.246,12.308,36.923,26.585,36.923c0,0-0.492,7.385-0.492,12.8 c-0.433,16.748,5.002,33.113,15.36,46.277v-63.902c0-14.021,3.377-27.835,9.846-40.271l20.578-39.385 c2.806-6.183,4.254-12.898,4.234-19.692V96.27c0.187-7.995,6.489-14.503,14.474-14.966l19.692-1.378l60.751,119.335l0,0 c12.308,21.465,13.588,65.083,8.369,91.668C335.655,277.705,346.545,257.501,347.963,235.593z"></path><g><path style="fill:#333333;" d="M390.301,298.018c-1.113-14.11-0.778-28.298,0.985-42.338c1.378-43.569-6.164-86.961-22.154-127.508 c-13.292-36.923-19.692-52.677-34.462-67.938c-27.077-28.062-42.338-34.954-69.415-39.385c-8.842-1.447-17.841,1.487-24.123,7.877 l-1.477,1.477c-11.737-5.662-25.295-6.164-37.415-1.378c-16.394,7.966-29.342,21.612-36.431,38.4 c-38.892,108.308-31.015,84.185-41.354,122.092c-5.908,21.662-1.477,35.938,2.462,59.077c-3.446,5.908-5.908,10.831-7.877,14.769 h48.345v-59.077c32-70.892,31.015-70.4,34.462-83.2c1.733-6.085,2.56-12.386,2.462-18.708c0-13.292,4.431-25.108,17.723-27.077 c13.292-3.003,27.077-3.003,40.369,0l106.831,222.523H390.4L390.301,298.018z"></path><path style="fill:#333333;" d="M255.901,383.68c-18.402,0-79.508-2.954-93.43-40.911l18.491-6.784 c7.582,20.677,45.105,28.012,74.939,28.012s67.367-7.335,74.939-28.002l18.481,6.774 C335.409,380.726,274.294,383.68,255.901,383.68z"></path><path style="fill:#333333;" d="M334.769,175.926c0,15.852,0,36.923,0,49.231c0,27.766,1.28,48.049-28.554,67.938 c-1.438,0.985-3.397,0.61-4.382-0.827c-0.325-0.482-0.522-1.054-0.542-1.634l1.969-26.585c1.359-9.57-3.348-18.974-11.815-23.631 l-15.754-8.862c-3.249-2.018-7.266-2.383-10.831-0.985L256,233.526l-9.354-2.954c-3.594-1.172-7.513-0.817-10.831,0.985 l-15.754,8.862c-8.438,4.726-13.273,14.011-12.308,23.631l1.969,26.585c0.03,1.684-1.319,3.072-3.003,3.102 c-0.699,0.01-1.369-0.217-1.92-0.64c-28.751-19.102-27.569-41.354-27.569-67.938v-49.231h-19.692v49.231 c-1.339,31.321,13.263,61.184,38.794,79.36l37.415,25.6c6.695,4.559,14.553,7.119,22.646,7.385 c8.133-0.069,16.039-2.649,22.646-7.385l37.415-25.6c25.108-18.235,39.503-47.764,38.4-78.769v-49.231L334.769,175.926z M295.384,282.756c0.187,2.235-0.975,4.362-2.954,5.415l-9.846,6.4c-3.052,2.087-7.217,1.31-9.305-1.743 c-1.034-1.506-1.408-3.367-1.034-5.15c0.463-3.22,2.028-6.183,4.431-8.369c0.876-1.684,0.226-3.771-1.467-4.647 c-0.758-0.394-1.644-0.492-2.471-0.276c-11.077,1.969-22.4,1.969-33.477,0c-1.989-0.295-3.85,1.073-4.145,3.062 c-0.098,0.63-0.02,1.27,0.207,1.861c2.402,2.186,3.968,5.15,4.431,8.369c0.758,3.623-1.566,7.168-5.189,7.926 c-1.782,0.374-3.653,0-5.15-1.034l-9.846-6.4c-1.792-1.231-2.895-3.239-2.954-5.415v-18.215c0.167-2.146,1.487-4.037,3.446-4.923 l22.646-6.4c4.342-1.132,8.802-1.792,13.292-1.969c4.51-0.069,8.999,0.591,13.292,1.969l22.646,6.4 c2.137,0.67,3.545,2.688,3.446,4.923L295.384,282.756L295.384,282.756z"></path></g><g><path style="fill:#444444;" d="M313.994,173.464l-35.545-79.36l2.56,3.052c10.25,13.154,19.623,26.969,28.062,41.354 c22.548,42.24,38.695,74.535,46.277,90.092c-26.092-64.197-48.345-127.409-96.689-178.314c-2.393-3.318-7.02-4.066-10.338-1.674 c-3.318,2.393-4.066,7.02-1.674,10.338c113.132,219.865,103.975,194.954,108.308,241.034 C354.461,256.664,351.212,255.975,313.994,173.464z"></path><path style="fill:#444444;" d="M215.532,63.679c-8.35,3.968-14.366,11.618-16.246,20.677 c-35.052,76.111-55.926,112.246-57.6,161.969c2.757-42.732,23.04-80.049,56.123-140.111c0,46.572-53.071,98.462-48.738,187.865 c0-84.972,51.594-135.778,58.585-175.754c2.757-13.982-2.363-31.114,8.369-39.877c3.604-2.274,7.68-3.692,11.914-4.135 C238.375,73.132,236.308,53.341,215.532,63.679z"></path></g><g><circle style="fill:#333333;" cx="210.314" cy="180.652" r="7.385"></circle><circle style="fill:#333333;" cx="300.701" cy="180.652" r="7.385"></circle><path style="fill:#333333;" d="M275.2,269.464h-38.695c-2.718,0-4.923-2.206-4.923-4.923s2.206-4.923,4.923-4.923H275.2 c2.718,0,4.923,2.206,4.923,4.923S277.927,269.464,275.2,269.464z"></path><path style="fill:#333333;" d="M256.069,234.51c-3.545,0-7.129-0.581-10.535-1.753l-10.526-2.855 c-2.629-0.719-4.175-3.426-3.456-6.046c0.719-2.629,3.456-4.185,6.046-3.456l10.831,2.954c4.982,1.694,10.142,1.694,14.828,0.098 l11.136-3.052c2.668-0.738,5.337,0.837,6.046,3.456c0.709,2.619-0.837,5.327-3.456,6.046l-10.841,2.954 C262.961,233.959,259.535,234.51,256.069,234.51z"></path></g></svg>