<!-- icon666.com - MILLIONS vector ICONS FREE --><svg version="1.1" id="Capa_1" xmlns="http://www.w3.org/2000/svg" xmlns:xlink="http://www.w3.org/1999/xlink" x="0px" y="0px" viewBox="0 0 512.001 512.001" style="enable-background:new 0 0 512.001 512.001;" xml:space="preserve"><path style="fill:#91D8AE;" d="M456.286,441.438c-1.821-17.67-14.593-32.263-31.863-36.415 c-41.149-10.287-92.766-27.311-168.418-27.311s-127.452,17.115-168.418,27.311c-17.27,4.151-30.042,18.744-31.863,36.415 l-4.552,18.207c63.99,30.379,133.997,45.937,204.833,45.518c70.836,0.419,140.843-15.139,204.833-45.518L456.286,441.438z"></path><path style="fill:#8AC89F;" d="M256.005,377.713c-28.977-0.027-57.89,2.595-86.394,7.829 c-1.529,55.305,42.059,101.388,97.364,102.917s101.388-42.059,102.917-97.364C332.576,382.201,294.359,377.704,256.005,377.713z"></path><path style="fill:#7BBF97;" d="M460.838,459.737l-3.824-15.476c-5.99-8.457-14.976-14.311-25.126-16.387 c-42.969-10.287-96.954-27.311-175.883-27.311s-132.914,17.115-175.883,27.311c-10.151,2.076-19.136,7.929-25.126,16.387 l-3.824,15.476c63.99,30.379,133.997,45.937,204.833,45.518C326.832,505.674,396.848,490.116,460.838,459.737z"></path><g><path style="fill:#333333;" d="M258.718,512.001c-1.839,0-3.678,0-5.508,0c-70.444,0-141.28-15.95-204.969-46.183 c-2.94-1.393-4.488-4.67-3.696-7.82l4.433-17.752c2.303-20.292,17.115-37.07,37.006-41.859c5.972-1.484,12.244-3.141,18.781-4.861 c38.263-10.078,85.884-22.632,151.23-22.632c65.546,0,113.222,12.59,151.531,22.695c6.427,1.702,12.599,3.332,18.544,4.816 c19.828,4.761,34.64,21.548,36.952,41.841l4.433,17.752c0.792,3.159-0.756,6.427-3.696,7.82 C400.08,496.051,329.244,512.001,258.718,512.001z M255.96,498.336c67.795,0.737,135.526-14.275,196.876-42.496l-3.186-12.745 c-0.082-0.31-0.137-0.628-0.173-0.947c-1.52-14.757-12.244-27.011-26.674-30.479c-6.063-1.52-12.29-3.168-18.781-4.87 c-37.544-9.914-84.273-22.249-148.044-22.249c-63.58,0-110.246,12.308-147.744,22.186c-6.609,1.739-12.927,3.414-19.018,4.925 c-14.484,3.487-25.199,15.74-26.719,30.497c-0.036,0.319-0.091,0.637-0.173,0.947l-3.186,12.745 C120.515,484.053,188.137,499.01,255.96,498.336z"></path><path style="fill:#333333;" d="M447.82,192.362c0.055-9.404-4.725-18.171-12.654-23.214c10.861-15.476,7.119-36.824-8.348-47.685 c-2.504-1.757-5.244-3.177-8.13-4.206c5.754-17.952-4.133-37.179-22.086-42.933c-4.625-1.484-9.504-1.957-14.329-1.402 c-0.865-20.492-18.18-36.406-38.682-35.541c-1.557,0.064-3.113,0.228-4.652,0.492l0,0c-4.67-17.907-22.978-28.631-40.876-23.952 c-3.778,0.983-7.347,2.622-10.56,4.834c-6.373-11.498-18.444-18.663-31.59-18.754c-12.627-0.1-24.225,6.955-29.951,18.207 c-17.106-10.578-39.546-5.28-50.125,11.826c-1.702,2.758-3.032,5.735-3.951,8.84l0,0c-18.271-3.978-36.315,7.611-40.293,25.882 c-0.583,2.676-0.838,5.417-0.765,8.166c-18.672-2.23-35.614,11.097-37.844,29.769c-0.583,4.898-0.1,9.868,1.429,14.566 c-17.825,6.454-27.038,26.128-20.593,43.953c1.02,2.813,2.403,5.48,4.115,7.938c-7.929,5.043-12.709,13.81-12.654,23.214 c0,8.867,4.315,17.188,11.562,22.304c-9.969,16.123-4.98,37.27,11.143,47.239c2.03,1.256,4.188,2.294,6.427,3.104 c-5.754,17.952,4.133,37.179,22.086,42.933c4.625,1.484,9.504,1.957,14.329,1.402c0.865,20.492,18.18,36.406,38.682,35.541 c1.557-0.064,3.113-0.228,4.652-0.492l0,0c4.67,17.907,22.978,28.631,40.876,23.952c3.778-0.983,7.347-2.622,10.56-4.834 c6.354,11.525,18.426,18.735,31.59,18.845c12.727-0.009,24.334-7.247,29.951-18.663c17.106,10.578,39.546,5.28,50.125-11.826 c1.702-2.758,3.032-5.735,3.951-8.84l0,0c18.216,4.024,36.242-7.474,40.266-25.691c0.583-2.622,0.847-5.307,0.792-7.993 c18.672,2.23,35.614-11.097,37.844-29.769c0.583-4.898,0.1-9.868-1.429-14.566c17.834-6.418,27.093-26.082,20.674-43.916 c-0.81-2.249-1.848-4.397-3.104-6.427C443.504,209.55,447.81,201.238,447.82,192.362z"></path></g><path style="fill:#75B18A;" d="M256.005,400.472c-27.93-0.018-55.815,2.203-83.39,6.646c13.656,53.593,68.168,85.975,121.762,72.32 c33.793-8.612,60.676-34.175,70.963-67.495C329.39,404.341,292.748,400.499,256.005,400.472z"></path><path style="fill:#AC8164;" d="M328.926,383.266c-6.072-0.91-12.445-1.73-19.118-2.458v-49.706H202.111v49.797 c-6.555,0.728-12.927,1.548-19.027,2.458c-4.452,51.5,25.035,99.931,72.829,119.622 C303.809,483.343,333.386,434.847,328.926,383.266z"></path><path style="fill:#9B7059;" d="M202.111,331.102v10.378l43.789,45.518c6.473,6.655,10.096,15.567,10.105,24.853 c-0.055,12.672,10.178,22.978,22.85,23.032c0.027,0,0.064,0,0.091,0h4.552c14.529,0,26.31-11.78,26.31-26.31v-77.472 L202.111,331.102L202.111,331.102z"></path><path style="fill:#CE4829;" d="M395.473,328.007c-8.648,3.723-17.907,5.817-27.311,6.19c-32.5,4.097-51.709,37.416-51.709,37.416 l37.871,15.931c2.394-6.782,7.365-12.345,13.838-15.476c11.471-6.008,37.325-3.368,37.325-3.368 C404.714,354.626,401.318,340.825,395.473,328.007z"></path><g><path style="fill:#333333;" d="M361.116,389.821l-12.873-4.552c3.013-8.53,9.167-15.394,17.297-19.345 c8.73-4.57,23.424-4.907,32.719-4.561c-1.156-8.457-3.314-16.705-6.464-24.644c-7.538,2.54-15.376,3.987-23.369,4.297 c-28.067,3.569-45.892,33.72-46.074,34.02l-11.826-6.837c0.856-1.475,21.312-36.305,56.771-40.775 c9.186-0.382,17.552-2.276,25.463-5.681c3.368-1.475,7.328,0.018,8.894,3.377c6.363,13.628,10.06,28.149,11.006,43.151 c0.127,2.003-0.637,3.96-2.085,5.344c-1.438,1.393-3.45,2.103-5.426,1.875c-9.213-0.938-26.437-1.047-33.465,2.622 C366.624,380.58,362.937,384.704,361.116,389.821z"></path><path style="fill:#333333;" d="M408.492,322.599c-1.202,0-2.376-0.637-2.995-1.766c-0.91-1.657-0.3-3.733,1.347-4.643l11.289-6.2 c1.648-0.892,3.723-0.3,4.643,1.347c0.91,1.657,0.3,3.733-1.347,4.643l-11.289,6.2 C409.611,322.462,409.047,322.599,408.492,322.599z"></path><path style="fill:#333333;" d="M416.221,336.974c-1.338,0-2.604-0.792-3.159-2.103c-0.719-1.739,0.109-3.742,1.848-4.461 l12.299-5.098c1.73-0.728,3.733,0.109,4.461,1.848c0.719,1.739-0.109,3.742-1.848,4.461l-12.299,5.098 C417.104,336.892,416.658,336.974,416.221,336.974z"></path><path style="fill:#333333;" d="M421.046,352.814c-1.611,0-3.05-1.138-3.35-2.786c-0.355-1.848,0.865-3.632,2.722-3.987 l13.018-2.458c1.884-0.41,3.642,0.874,3.987,2.722c0.355,1.848-0.865,3.632-2.722,3.987l-13.018,2.458 C421.464,352.796,421.255,352.814,421.046,352.814z"></path><path style="fill:#333333;" d="M434.701,370.393h-12.472c-1.884,0-3.414-1.529-3.414-3.414c0-1.884,1.529-3.414,3.414-3.414h12.472 c1.884,0,3.414,1.529,3.414,3.414C438.115,368.864,436.595,370.393,434.701,370.393z"></path><path style="fill:#333333;" d="M255.914,509.716c-0.883,0-1.766-0.173-2.604-0.519c-50.808-20.929-81.769-71.783-77.026-126.514 l13.601,1.174c-4.133,47.831,22.313,92.32,66.029,111.611c43.725-19.291,70.162-63.78,66.029-111.611l13.601-1.174 c4.743,54.74-26.219,105.584-77.026,126.514C257.68,509.552,256.797,509.716,255.914,509.716z"></path><path style="fill:#333333;" d="M309.808,387.636c-3.769,0-6.828-3.059-6.828-6.828v-42.969h-94.041v42.969 c0,3.769-3.059,6.828-6.828,6.828s-6.828-3.059-6.828-6.828v-49.797c0-3.769,3.059-6.828,6.828-6.828h107.697 c3.769,0,6.828,3.059,6.828,6.828v49.797C316.636,384.577,313.577,387.636,309.808,387.636z"></path></g><path style="fill:#AB8166;" d="M256.005,82.207c72.829,0,95.589,45.974,95.589,95.316c0,2.822,0,10.742,0,13.656 c15.749,0,19.391,16.478,16.842,37.325c-2.185,17.752-9.104,39.51-25.945,40.056v9.104c0,27.311-21.758,41.513-47.157,67.913 c-16.751,17.479-28.221,14.02-39.328,14.02c-11.106,0-22.577,3.459-39.328-14.02c-25.399-26.401-47.157-40.602-47.157-67.913 c0-4.552,0-10.378,0-9.104c-16.933-0.546-23.761-22.304-25.945-40.056c-2.549-20.847,1.092-37.325,16.842-37.325v-13.656 C160.416,128.181,182.811,82.207,256.005,82.207z"></path><path style="fill:#A3775D;" d="M351.594,191.178c0-2.913,0-10.833,0-13.656c0-49.342-22.395-95.316-95.589-95.316 c-4.188,0-8.193,0-12.017,0.455c-17.752,66.366-31.226,144.02-30.042,202.921c0,15.021,1.275,37.507,3.095,60.813 c16.569,17.024,27.948,13.656,38.964,13.656c11.015,0,22.577,3.459,39.328-14.02c25.399-26.401,47.157-40.602,47.157-67.913v-9.104 c16.933-0.546,23.761-22.304,25.945-40.056C370.985,207.656,367.525,191.178,351.594,191.178z"></path><path style="fill:#333333;" d="M265.746,366.706c-1.857,0-3.632-0.082-5.344-0.155c-2.959-0.146-5.845-0.146-8.803,0 c-10.396,0.419-23.315,1.01-39.856-16.259c-5.062-5.253-9.987-10.032-14.611-14.529c-19.245-18.672-34.439-33.42-34.439-58.109 v-3.368c-13.546-4.188-22.832-20.101-25.891-44.954c-2.158-17.625,0.1-30.333,6.691-37.78c2.713-3.068,6.136-5.189,10.096-6.309 v-7.72c0-38.144,13.3-102.143,102.416-102.143c65.082,0,102.416,37.225,102.416,102.143v7.729c3.969,1.12,7.392,3.241,10.096,6.309 c6.6,7.447,8.849,20.156,6.682,37.771c-3.05,24.853-12.326,40.775-25.891,44.954v3.368c0,24.689-15.203,39.437-34.439,58.118 c-4.634,4.488-9.55,9.268-14.621,14.539C286.439,364.722,275.15,366.706,265.746,366.706z M256.005,352.769 c1.657,0,3.314,0.073,4.989,0.146c9.204,0.41,17.142,0.737,29.414-12.053c5.189-5.398,10.223-10.287,14.957-14.884 c18.244-17.698,30.297-29.396,30.297-48.313v-9.104c0-3.687,2.922-6.7,6.609-6.828c14.174-0.455,18.417-26.182,19.391-34.057 c1.593-12.991,0.364-22.85-3.359-27.056c-0.983-1.12-2.768-2.613-6.7-2.613c-3.769,0-6.828-3.059-6.828-6.828v-13.656 c0-40.366-15.394-88.488-88.761-88.488s-88.761,48.122-88.761,88.488v13.656c0,3.769-3.059,6.828-6.828,6.828 c-3.942,0-5.708,1.493-6.7,2.613c-3.723,4.206-4.943,14.065-3.359,27.065c0.938,7.638,4.98,32.09,18.153,33.948 c3.924-0.528,7.847,2.64,7.838,6.755v9.286c0,18.908,12.053,30.607,30.297,48.313c4.734,4.597,9.768,9.477,14.957,14.866 c12.272,12.809,20.192,12.472,29.414,12.071C252.691,352.841,254.348,352.769,256.005,352.769z"></path><path style="fill:#9C6F57;" d="M326.559,237.789l-2.185-8.375c-6.145-14.156-22.604-20.656-36.761-14.511 c-8.039,3.487-13.974,10.542-16.041,19.063c-7.556-6.054-18.298-6.054-25.854,0c-3.632-15.003-18.735-24.216-33.738-20.593 c-8.521,2.057-15.576,8.002-19.063,16.041l-2.094,8.375l0,0c-1.484,15.367,9.777,29.023,25.135,30.497 c10.934,1.056,21.476-4.397,26.938-13.929c1.083-1.539,2.057-3.15,2.913-4.825c2.276-4.37,2.003-7.647,5.735-9.832 c9.741-5.644,16.205,1.001,20.21,9.104c0.883,1.784,1.848,3.514,2.913,5.189c7.775,13.337,24.889,17.843,38.217,10.069 c9.368-5.462,14.73-15.84,13.765-26.637L326.559,237.789z"></path><path style="fill:#9F9289;" d="M239.527,235.968c0,13.173-10.679,23.852-23.852,23.852c-13.173,0-23.852-10.679-23.852-23.852 c0-13.173,10.679-23.852,23.852-23.852l0,0C228.849,212.117,239.527,222.795,239.527,235.968z"></path><g style="opacity:0.4;enable-background:new ;"><path style="fill:#C1E0F5;" d="M198.015,242.25c-0.055-13.173,10.588-23.888,23.761-23.943c0.027,0,0.064,0,0.091,0 c4.816-0.009,9.513,1.457,13.473,4.188c-7.456-10.861-22.304-13.619-33.165-6.163c-6.473,4.443-10.342,11.789-10.351,19.637 c0.009,7.893,3.887,15.276,10.378,19.755C199.462,251.763,198.006,247.066,198.015,242.25z"></path></g><path style="fill:#9F9289;" d="M320.186,235.968c0.055,13.219-10.624,23.979-23.852,24.034 c-13.219,0.055-23.979-10.624-24.034-23.852c-0.055-13.219,10.624-23.979,23.852-24.034c0.027,0,0.064,0,0.091,0 C309.425,212.117,320.131,222.786,320.186,235.968z"></path><g style="opacity:0.4;enable-background:new ;"><path style="fill:#C1E0F5;" d="M278.127,242.25c0-13.228,10.715-23.943,23.943-23.943c4.816-0.009,9.513,1.457,13.473,4.188 c-7.374-10.97-22.258-13.892-33.228-6.509c-10.97,7.374-13.892,22.258-6.509,33.228c1.73,2.567,3.942,4.779,6.509,6.509 C279.574,251.763,278.118,247.066,278.127,242.25z"></path></g><path style="fill:#333333;" d="M323.919,235.968c0.146-15.686-12.445-28.522-28.139-28.667c-12.909-0.118-24.28,8.476-27.666,20.929 c-3.569-2.44-7.784-3.742-12.108-3.732c-4.324-0.018-8.548,1.284-12.108,3.732c-4.215-15.212-19.973-24.125-35.186-19.91 c-15.212,4.215-24.125,19.973-19.91,35.186c4.215,15.212,19.973,24.125,35.186,19.91c10.506-2.913,18.435-11.543,20.456-22.258 c2.777-6.363,10.178-9.268,16.541-6.491c2.904,1.265,5.225,3.587,6.491,6.491l0,0c3.059,15.44,18.053,25.472,33.492,22.413 C314.178,260.949,323.746,249.433,323.919,235.968z M216.495,255.359c-10.706,0-19.391-8.685-19.391-19.391 s8.685-19.391,19.391-19.391c10.706,0,19.391,8.685,19.391,19.391S227.201,255.359,216.495,255.359L216.495,255.359z M295.424,255.359c-10.706,0-19.391-8.685-19.391-19.391s8.685-19.391,19.391-19.391c10.706,0,19.391,8.685,19.391,19.391 S306.13,255.359,295.424,255.359L295.424,255.359z"></path><g><circle style="fill:#53616A;" cx="215.312" cy="229.687" r="6.373"></circle><circle style="fill:#53616A;" cx="296.607" cy="229.687" r="6.373"></circle></g><path style="fill:#333333;" d="M256.005,63.727c-75.415,0-136.555,61.14-136.555,136.555l0,0h34.594 c8.193-6.646,18.845,3.459,19.937,16.114c0.091,1.183,1.083,2.094,2.276,2.094l0,0c1.256,0,2.276-1.02,2.276-2.276v-16.022 c0.046-2.494,2.057-4.506,4.552-4.552c77.654-0.455,84.482-13.2,104.692-40.876c8.712,18.399,24.261,32.664,43.334,39.783 c1.648,0.747,2.713,2.376,2.731,4.188c0,6.373,0,13.838,0,17.57c0,1.256,1.02,2.276,2.276,2.276l0,0 c1.138,0,2.094-0.865,2.185-2.003c0.819-12.927,11.015-23.123,20.119-16.296h34.594c0-75.415-61.14-136.555-136.555-136.555 C256.305,63.727,256.151,63.727,256.005,63.727z"></path><g><path style="fill:#7BBF97;" d="M343.737,272.319l2.513-2.513c1.675-1.675,4.379-1.675,6.054,0l2.513,2.513 c1.675,1.675,1.675,4.379,0,6.054l-2.513,2.513c-1.675,1.675-4.379,1.675-6.054,0l-2.513-2.513 C342.062,276.698,342.062,273.994,343.737,272.319z"></path><path style="fill:#7BBF97;" d="M157.075,272.31l2.513-2.513c1.675-1.675,4.379-1.675,6.054,0l2.513,2.513 c1.675,1.675,1.675,4.379,0,6.054l-2.513,2.513c-1.675,1.675-4.379,1.675-6.054,0l-2.513-2.513 C155.4,276.689,155.4,273.985,157.075,272.31z"></path></g><path style="fill:#CE4829;" d="M256.005,95.59c48.25,0,75.378,17.297,88.67,43.971c0.319,0.628,1.083,0.883,1.711,0.564 c0.537-0.273,0.81-0.892,0.655-1.475c-9.104-34.685-35.868-61.268-91.037-61.268s-81.478,26.583-91.037,61.177 c-0.373,0.628-0.173,1.447,0.455,1.821s1.447,0.173,1.821-0.455l0,0C180.627,112.614,207.665,95.59,256.005,95.59z"></path><g><path style="fill:#F7A392;" d="M292.42,99.686c3.186,0.819,6.191,1.639,9.104,2.64V85.303c-2.913-1.183-5.917-2.276-9.104-3.277 V99.686z"></path><path style="fill:#F7A392;" d="M274.212,96.5c3.05,0.273,6.09,0.701,9.104,1.275V79.567c-3.004-0.637-6.045-1.129-9.104-1.457V96.5 z"></path><path style="fill:#F7A392;" d="M310.627,106.15c3.132,1.548,6.172,3.277,9.104,5.189V95.954c-2.849-2.294-5.899-4.333-9.104-6.099 V106.15z"></path></g><path style="fill:#ED8A48;" d="M256.005,464.289c46.438,0.319,87.241-30.725,99.321-75.561c1.784-7.374-2.74-14.812-10.123-16.596 c-0.237-0.055-0.473-0.109-0.71-0.155l-16.387-2.64c-5.153-0.683-10.251,1.52-13.291,5.735 c-23.724,32.482-69.288,39.574-101.77,15.85c-6.072-4.434-11.416-9.777-15.85-15.85c-3.041-4.215-8.139-6.418-13.291-5.735 l-16.387,2.64c-7.465,1.393-12.381,8.576-10.988,16.041c0.046,0.237,0.091,0.473,0.155,0.71 C168.765,433.564,209.567,464.607,256.005,464.289z"></path><path style="fill:#E5653E;" d="M344.22,371.977l-5.917-1.001c-3.168-0.583-6.318,1.074-7.647,4.006 c-18.681,41.212-67.231,59.483-108.443,40.812c-13.228-5.99-24.625-15.394-33.028-27.247c-1.702-2.349-4.652-3.432-7.465-2.731 l-16.387,3.732c-3.96,0.947-6.4,4.934-5.444,8.894c0.073,0.291,0.155,0.574,0.255,0.847c20.975,52.911,80.868,78.801,133.779,57.827 c29.987-11.889,52.674-37.125,61.313-68.205c1.83-7.419-2.704-14.921-10.123-16.742C344.811,372.096,344.511,372.032,344.22,371.977 z"></path><g><rect x="302.311" y="390.724" transform="matrix(-0.7792 0.6267 -0.6267 -0.7792 807.8845 551.2023)" style="fill:#F7A392;" width="9.103" height="54.328"></rect><rect x="288.315" y="397.721" transform="matrix(-0.8757 0.4829 -0.4829 -0.8757 755.0258 657.6152)" style="fill:#F7A392;" width="9.095" height="56.553"></rect><rect x="273.762" y="402.01" transform="matrix(-0.9448 0.3277 -0.3277 -0.9448 682.6452 747.8795)" style="fill:#F7A392;" width="9.104" height="58.884"></rect></g><path style="fill:#333333;" d="M256.715,471.025c-0.473,0-0.947,0-1.42,0c-49.151,0-92.302-33.028-105.111-80.549 c-0.046-0.173-0.237-1.056-0.273-1.238c-2.076-11.088,5.271-21.812,16.368-23.888l16.56-2.667 c7.802-1.065,15.331,2.203,19.828,8.448c3.987,5.48,8.831,10.314,14.356,14.347c29.423,21.485,70.854,15.039,92.357-14.384 c4.47-6.2,11.917-9.495,19.618-8.439l16.569,2.667c0.218,0.036,1.165,0.237,1.384,0.291c5.153,1.247,9.65,4.534,12.499,9.204 c2.849,4.67,3.705,10.169,2.422,15.485C349.017,437.997,305.857,471.025,256.715,471.025z M256.005,457.552 c0.246-0.018,0.473,0.009,0.71,0.009c43.07,0,80.886-28.941,92.102-70.581c0.401-1.657,0.109-3.541-0.874-5.134 c-0.965-1.602-2.513-2.722-4.333-3.168l-16.587-2.686c-2.485-0.31-5.162,0.828-6.746,3.022 c-25.927,35.468-75.797,43.224-111.211,17.352c-6.646-4.861-12.481-10.688-17.315-17.315c-1.611-2.249-4.279-3.377-6.964-3.032 l-16.205,2.613c-3.632,0.683-6.145,4.352-5.435,8.157c11.252,41.831,49.078,70.763,92.138,70.772 C255.523,457.561,255.714,457.479,256.005,457.552z"></path><path style="fill:#3A3A39;" d="M113.35,232.964c-11.407-8.084-14.092-23.879-6.008-35.286c1.884-2.658,4.27-4.925,7.01-6.682 c-9.978-14.311-6.473-34.002,7.838-43.98c2.276-1.593,4.752-2.868,7.365-3.814c-5.398-16.432,3.55-34.13,19.983-39.528 c4.324-1.42,8.913-1.884,13.428-1.347c-0.355-17.142,13.246-31.326,30.388-31.69c2.485-0.055,4.971,0.191,7.392,0.737l0,0 c5.171-17.761,23.77-27.967,41.531-22.796c2.904,0.847,5.69,2.085,8.266,3.678c5.963-12.217,19.291-19.008,32.682-16.66 c-5.963-9.331-16.241-15.012-27.311-15.112c-11.27,0.1-21.53,6.5-26.583,16.569c-15.221-9.504-35.277-4.88-44.781,10.351 c-1.529,2.449-2.731,5.089-3.56,7.856l0,0c-16.277-3.469-32.282,6.91-35.759,23.187c-0.482,2.258-0.701,4.552-0.655,6.855 c-16.678-1.93-31.772,10.032-33.693,26.71c-0.501,4.342-0.064,8.73,1.284,12.891c-15.904,5.699-24.179,23.205-18.49,39.109 c0.919,2.567,2.176,4.998,3.742,7.228c-11.425,7.328-14.739,22.541-7.41,33.966c1.684,2.631,3.86,4.916,6.409,6.728 c-8.876,14.375-4.406,33.219,9.969,42.095c1.011,0.628,2.067,1.193,3.141,1.693C107.824,247.931,109.199,239.783,113.35,232.964z"></path><g><path style="fill:#333333;" d="M275.023,308.07h-36.415c-2.513,0-4.552-2.039-4.552-4.552s2.039-4.552,4.552-4.552h36.415 c2.513,0,4.552,2.039,4.552,4.552S277.544,308.07,275.023,308.07z"></path><path style="fill:#333333;" d="M263.279,322.818h-11.835c-2.513,0-4.552-2.039-4.552-4.552s2.039-4.552,4.552-4.552h11.835 c2.513,0,4.552,2.039,4.552,4.552S265.801,322.818,263.279,322.818z"></path><path style="fill:#333333;" d="M256.888,285.128c-3.277,0-6.582-0.537-9.732-1.62l-9.732-2.64c-2.431-0.655-3.86-3.168-3.195-5.59 c0.665-2.422,3.177-3.842,5.59-3.195l10.014,2.731c4.606,1.575,9.386,1.575,13.719,0.091l10.287-2.822 c2.458-0.646,4.934,0.783,5.59,3.195c0.655,2.431-0.774,4.934-3.195,5.59l-10.014,2.731 C263.261,284.618,260.093,285.128,256.888,285.128z"></path></g></svg>