<!-- icon666.com - MILLIONS vector ICONS FREE --><svg version="1.1" id="Capa_1" xmlns="http://www.w3.org/2000/svg" xmlns:xlink="http://www.w3.org/1999/xlink" x="0px" y="0px" viewBox="0 0 512 512" style="enable-background:new 0 0 512 512;" xml:space="preserve"><path style="fill:#AAE286;" d="M497.889,428.827c-5.805-22.467-23.878-39.678-46.602-44.383l-13.847-3.284 c-119.345-28.174-243.617-28.174-362.963,0l-13.759,3.284c-22.751,4.651-40.85,21.881-46.602,44.383l-4.438,22.191 c77.697,33.997,161.518,51.733,246.325,52.105c84.807-0.373,168.628-18.108,246.325-52.105L497.889,428.827z"></path><path style="fill:#76CE42;" d="M256.003,503.123c82.685-0.568,164.456-17.398,240.644-49.531 c-7.083-20.407-24.26-35.666-45.359-40.3l-13.847-3.284c-19.351-4.527-38.879-8.255-58.408-11.362v-43.673 c0-20.345-16.493-36.838-36.838-36.838l0,0H174.161c-20.292-0.098-36.829,16.28-36.926,36.571c0,0.089,0,0.178,0,0.266v42.963 c-21.126,3.196-42.164,7.19-62.935,12.072l-13.759,3.284c-21.126,4.607-38.347,19.875-45.448,40.3 C91.352,485.805,173.22,502.635,256.003,503.123z"></path><path style="fill:#CDD1CB;" d="M344.769,368.91l-17.753-28.05c-12.693,44.383-44.383,61.603-71.012,83.351 c-23.878-18.286-58.053-37.282-71.012-83.351l-17.753,28.05v73.232l13.492-7.012c5.246,22.768,13.084,44.871,23.345,65.864 c17.043,1.536,34.352,2.308,51.928,2.308c17.753,0,34.264-0.799,51.218-2.219c10.279-21.073,18.161-43.22,23.523-66.042 l14.025,7.279L344.769,368.91z"></path><g><path style="fill:#A5A5A5;" d="M233.279,407.7l22.103,22.28l-22.103-6.48l-35.506,30.447c-1.766,1.243-4.199,0.817-5.441-0.95 c-0.213-0.311-0.391-0.648-0.506-1.003l-6.391-18.818L233.279,407.7z"></path><path style="fill:#A5A5A5;" d="M278.638,407.7l-22.103,22.28l22.103-6.48l35.506,30.447c1.766,1.243,4.199,0.817,5.441-0.95 c0.213-0.311,0.391-0.648,0.506-1.003l7.723-17.753L278.638,407.7z"></path></g><path style="fill:#333333;" d="M256.003,509.958c-17.363,0-35.036-0.79-52.514-2.335c-2.317-0.204-4.358-1.607-5.388-3.693 c-21.117-42.936-32.249-90.914-32.195-138.767c0-3.32,2.45-6.125,5.743-6.586c2.565-0.355,5.175-0.63,7.767-0.914l3.923-0.435 c3.098-0.293,5.992,1.456,7.03,4.367c4.696,13.102,29.168,27.011,65.278,27.011c35.267,0,60.849-13.697,65.225-26.931 c0.985-3.036,4.021-4.891,7.181-4.527l11.548,1.509c3.32,0.435,5.796,3.267,5.796,6.604c-0.027,47.809-11.158,95.787-32.195,138.741 c-1.03,2.095-3.098,3.515-5.424,3.702C289.778,509.222,272.851,509.958,256.003,509.958z M208.416,494.682 c31.281,2.565,61.568,2.654,94.455,0.071c18.259-38.507,28.29-81.052,29.142-123.65l-0.763-0.098 c-10.119,18.445-39.998,30.917-75.611,30.917c-35.222,0-65.145-12.489-75.566-30.944c-0.266,0.035-0.541,0.062-0.808,0.089 C180.082,413.683,190.095,456.22,208.416,494.682z"></path><path style="fill:#A3ADAC;" d="M379.032,371.75v119.39c15.8-3.196,31.334-7.101,46.779-11.628v-96.843l-16.688-4.172 C399.004,376.189,388.974,373.881,379.032,371.75z"></path><path style="fill:#8F9998;" d="M378.943,490.075c17.043-3.462,32.754-7.456,46.868-11.451v-70.48l-46.868-7.634V490.075z"></path><path style="fill:#A3ADAC;" d="M90.544,382.846v96.666c15.383,4.554,30.979,8.459,46.779,11.717V372.017 c-9.764,1.953-19.528,4.083-29.204,6.48L90.544,382.846z"></path><path style="fill:#8F9998;" d="M90.633,479.867c14.114,3.906,29.825,7.723,46.779,11.096v-92.405l-46.779,8.433 C90.633,406.99,90.633,479.867,90.633,479.867z"></path><path style="fill:#333333;" d="M256.039,512c-86.591-0.382-170.652-18.161-249.92-52.851c-3.826-1.669-5.965-5.779-5.148-9.871 l4.438-22.191c6.285-26.381,27.322-46.416,53.668-51.36c52.611-11.14,77.288-15.419,77.537-15.463l3.018,17.496 c-0.24,0.044-24.659,4.279-77.084,15.374c-19.662,3.693-35.213,18.499-39.802,37.761l-2.956,14.824 c75.113,31.849,154.559,48.182,236.25,48.537c81.62-0.355,161.056-16.688,236.17-48.537l-3.027-15.143 c-4.669-18.738-20.256-33.589-39.625-37.415c-16.599-3.817-47.641-10.696-72.016-14.593l2.787-17.531 c24.908,3.968,56.393,10.945,72.939,14.753c25.813,5.104,46.806,25.103,53.233,50.889l4.527,22.591 c0.826,4.092-1.323,8.202-5.14,9.871C426.611,493.839,342.549,511.618,256.039,512z"></path><path style="fill:#AAE286;" d="M341.396,318.136H174.783c-20.665,0-37.45,16.706-37.548,37.37v17.753 c0.098-20.602,16.768-37.273,37.37-37.37h166.791c20.602,0.098,37.273,16.768,37.37,37.37v-17.753 C378.668,334.904,361.989,318.234,341.396,318.136z"></path><path style="fill:#333333;" d="M387.811,414.18h-17.753v-56.721c-0.071-16.697-13.75-30.376-30.491-30.447H176.558 c-16.697,0.071-30.367,13.75-30.447,30.491v56.686h-17.753v-56.73c0.115-26.47,21.721-48.084,48.155-48.2H339.62 c26.47,0.115,48.084,21.721,48.2,48.155v56.766H387.811z"></path><path style="fill:#EFC8A5;" d="M191.559,322.219v35.506c10.031,21.57,20.86,33.908,64.621,66.219 c42.963-35.506,54.147-44.383,64.089-65.953v-35.506L191.559,322.219z"></path><path style="fill:#E0B794;" d="M191.648,322.308v8.877l47.845,55.834c8.797,8.664,14.558,19.928,16.422,32.133v4.882l0,0 c41.986-28.671,53.259-45.981,64.178-65.953v-35.773H191.648z"></path><path style="fill:#EFC8A5;" d="M356.131,188.716v-24.411c0-55.745-32.311-94.092-99.861-94.092s-99.861,38.347-99.861,94.092v24.411 c-17.753,0-22.369,16.51-17.753,36.305c3.373,16.155,13.759,32.222,27.251,36.305v17.753c0,20.949,29.648,53.259,60.006,69.237 c9.871,3.506,20.363,4.891,30.802,4.083c10.412,0.808,20.878-0.586,30.713-4.083c30.358-15.978,60.094-48.288,60.094-69.237v-17.753 c13.492-4.083,23.789-20.15,27.162-36.305C378.5,205.226,374.239,188.716,356.131,188.716z"></path><path style="fill:#E8C09E;" d="M356.131,188.716v-24.411c0-55.745-32.311-94.092-99.861-94.092c-3.728,0-7.368,0-10.829,0 c-16.244,50.951-31.423,97.642-30.269,174.336c0,14.824,1.42,61.159,2.84,98.796c2.485,1.509,4.971,3.018,7.545,4.35 c9.871,3.506,20.363,4.891,30.802,4.083c10.412,0.808,20.878-0.586,30.713-4.083c30.358-15.978,60.094-48.288,60.094-69.237v-17.132 c13.492-4.083,23.789-20.15,27.162-36.305C378.5,205.226,374.239,188.716,356.131,188.716z"></path><g><rect x="184.902" y="323.107" style="fill:#333333;" width="13.315" height="39.678"></rect><rect x="313.612" y="323.728" style="fill:#333333;" width="13.315" height="34.539"></rect></g><path style="fill:#E0B794;" d="M375.038,204.161c-1.198-9.356-9.507-16.138-18.907-15.445c0-16.599,0-27.695-0.976-39.412 c-5.503-47.49-37.637-79.09-98.974-79.09s-94.18,32.311-99.062,80.688c-0.888,11.273-0.71,18.818-0.799,37.814 c-9.533-0.781-17.966,6.125-19.085,15.623c0,1.331,0,2.752,0,4.261c15.179,6.302,64.089,16.599,118.768,16.599 s104.566-10.563,119.212-17.132C375.215,206.913,375.126,205.581,375.038,204.161z"></path><g><path style="fill:#333333;" d="M250.855,361.507c-9.516,0-18.872-1.616-27.917-4.82c-0.399-0.142-0.79-0.311-1.163-0.515 c-31.263-16.457-64.746-51.36-64.746-77.093v-11.877c-14.424-7.687-23.86-25.032-27.065-40.371 c-3.622-15.507-1.926-28.822,4.793-37.299c2.485-3.133,6.533-6.693,12.773-8.504v-16.723c0-64.47,40.655-102.968,108.738-102.968 s108.738,38.489,108.738,102.968v16.706c6.178,1.758,10.208,5.184,12.711,8.202c6.844,8.3,8.806,21.259,5.69,37.486 c-3.231,15.463-12.64,32.817-27.011,40.504v11.877c0,25.707-33.518,60.609-64.834,77.093c-0.373,0.195-0.763,0.373-1.163,0.515 c-10.883,3.861-22.245,5.361-33.687,4.625C254.751,361.436,252.799,361.507,250.855,361.507z M229.471,340.159 c8.566,2.947,17.478,4.065,26.559,3.391c0.462-0.036,0.914-0.036,1.367,0c9.01,0.692,17.922-0.444,26.461-3.391 c28.236-15.064,54.777-44.605,54.777-61.08v-17.753c0-3.906,2.556-7.368,6.302-8.495c9.196-2.787,18.046-15.241,21.055-29.621 c1.979-10.261,1.252-18.792-1.971-22.697c-1.039-1.26-2.991-2.929-7.9-2.929c-4.909,0-8.877-3.977-8.877-8.877v-24.411 c0-54.946-32.32-85.215-90.985-85.215s-90.985,30.26-90.985,85.215v24.411c0,4.9-3.977,8.877-8.877,8.877 c-4.811,0-6.728,1.704-7.74,2.983c-3.196,4.03-3.702,12.409-1.367,22.431c3.054,14.566,11.939,27.029,21.188,29.825 c3.737,1.136,6.302,4.589,6.302,8.495v17.753C174.783,295.572,201.279,325.113,229.471,340.159z"></path><path style="fill:#333333;" d="M340.597,112.732v107.673c0,1.864,1.518,3.373,3.382,3.364c1.855,0,3.364-1.509,3.364-3.364 c0.533-9.764,3.728-25.742,17.753-25.742c0-15.534,11.096-22.191,11.096-37.725S363.587,125.603,340.597,112.732z"></path><ellipse style="fill:#333333;" cx="214.993" cy="225.376" rx="11.096" ry="6.657"></ellipse><path style="fill:#333333;" d="M171.853,112.732v107.673c0,1.811-1.474,3.284-3.284,3.284c-0.027,0-0.062,0-0.089,0 c-1.749,0-3.187-1.367-3.284-3.107c-0.533-9.764-3.728-25.742-17.753-25.742c0-15.534-11.096-22.191-11.096-37.725 S148.774,125.603,171.853,112.732z"></path><circle style="fill:#333333;" cx="277.573" cy="443.828" r="6.214"></circle><path style="fill:#333333;" d="M256.003,509.781c-3.675,0-6.657-2.983-6.657-6.657v-79.09c0-3.675,2.983-6.657,6.657-6.657 c3.675,0,6.657,2.983,6.657,6.657v79.09C262.66,506.798,259.678,509.781,256.003,509.781z"></path><path style="fill:#333333;" d="M256.003,430.691c-1.358,0-2.725-0.417-3.888-1.252l-22.724-16.333 c-2.983-2.148-3.666-6.311-1.518-9.294c2.157-2.991,6.32-3.657,9.285-1.527l18.836,13.537l18.747-13.528 c3-2.148,7.155-1.456,9.294,1.509c2.148,2.983,1.474,7.146-1.509,9.294L259.9,429.43 C258.737,430.273,257.37,430.691,256.003,430.691z"></path></g><path style="fill:#D8DBD7;" d="M184.991,341.215l-17.753,28.05v73.232l66.13-34.441C210.679,391.35,193.769,367.987,184.991,341.215 z"></path><path style="fill:#333333;" d="M167.237,449.154c-1.198,0-2.397-0.32-3.453-0.959c-1.988-1.216-3.204-3.373-3.204-5.699v-73.232 c0-1.26,0.364-2.494,1.03-3.56l17.753-28.041c1.376-2.175,3.861-3.364,6.453-3.045c2.556,0.32,4.696,2.077,5.503,4.536 c8.388,25.6,24.295,47.569,45.998,63.547c1.846,1.358,2.867,3.577,2.69,5.867c-0.178,2.299-1.518,4.332-3.559,5.388l-66.13,34.441 C169.35,448.897,168.285,449.154,167.237,449.154z M173.895,371.191v60.325l47.303-24.632 c-16.315-13.945-29.124-31.254-37.69-50.872L173.895,371.191z"></path><path style="fill:#D8DBD7;" d="M327.016,341.215l17.753,28.05v73.232l-66.13-34.441C301.318,391.35,318.228,367.987,327.016,341.215 z"></path><g><path style="fill:#333333;" d="M344.769,449.154c-1.056,0-2.104-0.249-3.08-0.754l-66.13-34.441 c-2.033-1.056-3.382-3.098-3.559-5.388c-0.178-2.29,0.843-4.509,2.698-5.867c21.694-15.978,37.601-37.947,45.998-63.547 c0.808-2.45,2.947-4.216,5.503-4.536c2.61-0.302,5.069,0.879,6.453,3.045l17.753,28.041c0.675,1.065,1.03,2.308,1.03,3.56v73.232 c0,2.326-1.216,4.483-3.204,5.699C347.156,448.826,345.967,449.154,344.769,449.154z M290.808,406.884l47.303,24.632v-60.325 l-9.613-15.188C319.932,375.629,307.123,392.939,290.808,406.884z"></path><path style="fill:#333333;" d="M256.181,509.781c-3.675,0-6.657-2.983-6.657-6.657v-55.567c0-3.675,2.983-6.657,6.657-6.657 s6.657,2.982,6.657,6.657v55.567C262.838,506.798,259.855,509.781,256.181,509.781z"></path><ellipse style="fill:#333333;" cx="295.415" cy="225.376" rx="11.096" ry="6.657"></ellipse><path style="fill:#333333;" d="M273.756,306.774H238.25c-2.45,0-4.438-1.988-4.438-4.438c0-2.45,1.988-4.438,4.438-4.438h35.506 c2.45,0,4.438,1.988,4.438,4.438C278.194,304.786,276.206,306.774,273.756,306.774z"></path><path style="fill:#333333;" d="M256.243,274.916c-3.187,0-6.418-0.524-9.489-1.58l-9.489-2.583c-2.37-0.648-3.755-3.089-3.116-5.45 c0.648-2.379,3.098-3.746,5.45-3.116l9.764,2.672c4.492,1.536,9.143,1.527,13.359,0.089l10.03-2.761 c2.406-0.621,4.811,0.755,5.45,3.116c0.639,2.37-0.746,4.802-3.116,5.45l-9.764,2.672 C262.465,274.41,259.367,274.916,256.243,274.916z"></path><path style="fill:#333333;" d="M259.199,325.148h-6.48c-2.45,0-4.438-1.988-4.438-4.438c0-2.45,1.988-4.438,4.438-4.438h6.48 c2.45,0,4.438,1.988,4.438,4.438C263.637,323.16,261.649,325.148,259.199,325.148z"></path></g><path style="fill:#F9CF00;" d="M260.086,41.365h-7.989c-62.518,1.26-112.226,52.878-111.135,115.395v21.836 c0,4.971,51.395,19.972,115.395,19.972s115.395-15.09,115.395-19.972v-22.103c0.985-62.597-48.954-114.144-111.552-115.129 C260.157,41.365,260.122,41.365,260.086,41.365z"></path><path style="fill:#FFD836;" d="M175.226,190.313v-8.255c-1.092-62.518,48.617-114.135,111.135-115.395h7.989 c15.88,0,31.556,3.542,45.892,10.386c-0.426-0.541-0.905-1.047-1.42-1.509l-0.799-0.621c-1.065-1.065-2.042-2.13-3.196-3.107v-0.444 c-20.105-19.022-46.7-29.692-74.386-29.825h-7.989c-62.518,1.26-112.226,52.878-111.135,115.395v21.836 C140.963,180.904,154.1,185.964,175.226,190.313z"></path><path style="fill:#333333;" d="M256.003,207.001c-32.24,0-124.272-5.557-124.272-30.269V156.76 C130.932,89.795,184.84,33.997,251.902,32.488h8.184c0.071,0,0.142,0,0.213,0c66.947,1.607,120.996,57.378,120.508,124.334v22.129 C380.799,202.013,280.769,207.001,256.003,207.001z M149.484,173.981c9.205,5.69,50.916,15.268,106.519,15.268 c54.289,0,96.257-9.143,107.051-14.14V156.76C363.48,99.409,317.251,51.67,259.98,50.241h-7.882 c-57.174,1.287-103.297,49.025-102.613,106.412V173.981z"></path><path style="fill:#FFD836;" d="M371.132,178.951c0,7.19-51.395,19.351-115.395,19.351s-115.395-12.338-115.395-19.351 c0-7.012,51.395-13.315,115.395-13.315S371.132,171.584,371.132,178.951z"></path><path style="fill:#F9CF00;" d="M147.265,183.656c15.445,6.746,58.319,14.469,108.827,14.469s93.381-7.811,108.827-14.469 c-15.445-5.06-58.319-3.373-108.827-3.373S162.71,178.508,147.265,183.656z"></path><g><path style="fill:#333333;" d="M142.916,170.075v11.362c12.862-5.104,26.062-9.312,39.501-12.605 C169.244,167.598,155.982,168.016,142.916,170.075z"></path><path style="fill:#333333;" d="M369.268,170.075v11.362c-12.862-5.104-26.062-9.312-39.501-12.605 C342.931,167.607,356.202,168.024,369.268,170.075z"></path></g><path style="fill:#FFD836;" d="M169.723,98.264l-2.485-5.592c-5.841-13.377-0.178-28.982,12.871-35.506 c2.228-1.03,4.864-0.053,5.885,2.175c0.018,0.044,0.044,0.089,0.062,0.133l4.882,12.427"></path><path style="fill:#333333;" d="M161.61,101.867l-2.485-5.592c-7.758-17.762-0.266-38.409,17.016-47.046 c3.48-1.607,7.092-1.749,10.439-0.515c3.329,1.234,5.983,3.693,7.474,6.915l5.14,13.031l-16.519,6.489l-2.823-7.199 c-5.69,5.148-7.749,13.679-4.474,21.171l2.459,5.539L161.61,101.867z"></path><path style="fill:#F9CF00;" d="M342.727,98.264l2.485-5.77c5.752-13.279,0.195-28.742-12.693-35.329 c-2.228-1.03-4.864-0.053-5.885,2.175c-0.027,0.044-0.044,0.089-0.062,0.133L321.69,71.9"></path><path style="fill:#333333;" d="M350.867,101.779l-16.297-7.03l2.485-5.77c3.169-7.332,1.243-15.685-4.323-20.913l-2.778,7.083 l-16.519-6.498l4.882-12.427c0.071-0.186,0.16-0.382,0.257-0.586h-0.009c1.491-3.231,4.145-5.699,7.483-6.933 c3.338-1.234,6.95-1.092,10.19,0.399c17.336,8.85,24.712,29.39,17.123,46.921L350.867,101.779z"></path><path style="fill:#FFD836;" d="M256.269,12.782c-18.055,0.337-32.426,15.232-32.133,33.287v46.602h64V46.069 C288.429,28.112,274.218,13.27,256.269,12.782z"></path><path style="fill:#F9CF00;" d="M256.269,39.412c-18.055,0.337-32.426,15.232-32.133,33.287V97.11h64V72.699 C288.429,54.742,274.218,39.9,256.269,39.412z"></path><g><path style="fill:#333333;" d="M300.386,98.175h-17.753V44.915c0.107-7.243-2.556-13.972-7.518-19.076 c-4.953-5.104-11.602-7.98-18.712-8.087l0,0c-15.09,0-27.029,11.948-27.029,26.63v53.259H211.62V44.383 C211.62,19.91,231.53,0,256.003,0c12.525,0.186,23.594,4.971,31.858,13.475c8.255,8.504,12.702,19.724,12.525,31.574V98.175z"></path><path style="fill:#333333;" d="M256.358,207.179c-1.243,0-124.272-1.216-124.272-28.227c0-4.9,3.977-8.877,8.877-8.877 c3.435,0,6.418,1.953,7.891,4.811c7.696,4.483,47.916,14.54,107.504,14.54c56.774,0,99.355-9.835,107.54-14.62 c1.491-2.814,4.447-4.731,7.856-4.731c4.909,0,8.877,3.977,8.877,8.877C380.63,205.519,257.601,207.179,256.358,207.179z M149.839,178.951h0.089H149.839z"></path></g></svg>