<!-- icon666.com - MILLIONS vector ICONS FREE --><svg version="1.1" id="Capa_1" xmlns="http://www.w3.org/2000/svg" xmlns:xlink="http://www.w3.org/1999/xlink" x="0px" y="0px" viewBox="0 0 511.992 511.992" style="enable-background:new 0 0 511.992 511.992;" xml:space="preserve"><path style="fill:#E9F0F2;" d="M496.544,419.059c-4.379-22.053-21.074-39.598-42.88-45.074l-44.8-11.154 c-50.075-12.352-101.477-18.496-153.051-18.286c-11.977,0-32.64,0.64-48.183,1.463c-9.737-9.097-18.085-19.566-24.777-31.086 l-12.891,35.2c-22.272,3.09-44.361,7.333-66.194,12.709l-44.8,11.154c-21.806,5.477-38.501,23.022-42.88,45.074l-3.291,19.291 l1.006,0.549c76.297,33.673,158.793,51.054,242.194,51.017c83.447,0.101,165.998-17.216,242.377-50.834h0.549L496.544,419.059z"></path><path style="fill:#DAE4E8;" d="M453.664,400.316l-44.8-10.971c-25.792-6.29-51.922-11.081-78.263-14.354l11.337-24.869l-12.8-35.2 c-14.747,24.768-36.955,44.224-63.451,55.589h-9.691c-51.301-0.146-102.427,5.998-152.229,18.286l-44.8,11.154 c-20.005,5.019-35.867,20.251-41.691,40.046c75.31,32.841,156.562,49.838,238.72,49.92c82.249,0.101,163.63-16.741,239.086-49.463 C489.33,420.705,473.586,405.446,453.664,400.316z"></path><g><path style="fill:#BAC7CC;" d="M341.938,349.939l8.046,1.28l-25.874,77.806c-0.75,2.304-3.227,3.566-5.531,2.816 c-0.859-0.283-1.609-0.814-2.149-1.536l-7.04-9.143L341.938,349.939z"></path><path style="fill:#BAC7CC;" d="M263.767,492.659c-11.063,0-22.583,0-34.103-1.006c-1.426-0.046-2.743-0.759-3.566-1.92 c-0.777-1.189-0.978-2.67-0.549-4.023l27.429-81.829l-15.269-20.389c-3.995-5.339-2.907-12.901,2.423-16.896 c1.947-1.454,4.288-2.295,6.72-2.395h32.823c6.656,0.283,11.822,5.915,11.538,12.571c-0.101,2.432-0.942,4.773-2.395,6.72 l-14.537,20.389l27.429,81.829c0.466,1.353,0.265,2.843-0.549,4.023c-0.814,1.189-2.13,1.929-3.566,2.011 C285.984,492.385,274.281,492.659,263.767,492.659z"></path><path style="fill:#BAC7CC;" d="M245.847,370.419l-40.96,52.754l1.737,9.143c0.43,2.03,2.414,3.319,4.443,2.889 c0.896-0.192,1.682-0.695,2.231-1.426l42.697-59.429L245.847,370.419z"></path></g><path style="fill:#EFC8A5;" d="M191.995,297.917v30.263c16.512,21.056,38.729,36.919,64,45.714 c25.307-8.722,47.543-24.603,64-45.714v-30.263H191.995z"></path><path style="fill:#E4BA98;" d="M265.687,370.511c21.339-9.289,40.009-23.781,54.309-42.149v-30.446h-128v7.589l73.143,64.731 L265.687,370.511z"></path><path style="fill:#EFC8A5;" d="M355.835,160.134v-24.137c0-56.046-31.909-94.08-99.84-94.08s-99.84,38.034-99.84,94.08v24.137 c-18.286,0-22.4,16.549-18.286,36.571c3.474,16.091,18.286,36.571,27.429,36.571v8.137c0,21.029,29.714,71.589,59.977,87.497 c9.865,3.383,20.334,4.663,30.72,3.749c10.45,0.777,20.946-0.658,30.811-4.206c30.263-15.909,59.977-66.469,59.977-87.497v-8.137 c9.143,0,23.771-20.206,27.429-36.571C378.235,176.682,374.03,160.134,355.835,160.134z"></path><path style="fill:#E4BA98;" d="M374.03,196.522c4.206-19.84,0-36.571-18.286-36.571v-23.954c0.091-56.046-31.817-94.08-99.749-94.08 c-5.467,0.018-10.935,0.32-16.366,0.914c-17.646,70.491-29.349,155.429-29.257,274.926c4.526,4.05,9.49,7.579,14.811,10.514 c9.847,3.611,20.343,5.111,30.811,4.389c10.45,0.777,20.946-0.658,30.811-4.206c30.263-15.909,59.977-66.469,59.977-87.497v-8.137 C355.835,232.819,370.555,212.614,374.03,196.522z"></path><path style="fill:#333333;" d="M261.856,340.211c-1.947,0-3.904-0.073-5.861-0.201c-11.566,0.777-22.967-0.768-33.893-4.681 c-0.411-0.146-0.814-0.32-1.198-0.53c-32.485-17.17-65.481-70.08-65.481-95.57v-2.706c-12.571-7.122-24.174-26.88-27.227-41.097 c-3.465-16.347-1.655-29.467,5.248-37.97c2.505-3.099,6.574-6.619,12.837-8.43v-19.511c0-63.918,39.991-100.571,109.714-100.571 S365.71,65.596,365.71,129.514v19.511c6.263,1.81,10.322,5.33,12.837,8.43c6.894,8.512,8.704,21.632,5.248,37.952 c-3.054,14.235-14.647,33.993-27.227,41.115v2.697c0,25.49-32.997,78.4-65.481,95.579c-0.393,0.201-0.786,0.384-1.198,0.53 C280.809,338.575,271.401,340.211,261.856,340.211z M255.995,321.697c0.238,0,0.475,0.009,0.713,0.027 c8.987,0.686,17.883-0.439,26.395-3.392c26.926-14.683,55.177-61.769,55.177-79.104v-9.143c0-5.047,4.087-9.143,9.143-9.143 c3.849-1.097,15.57-15.744,18.487-29.349c2.167-10.258,1.591-18.725-1.582-22.629c-0.997-1.234-2.889-2.88-7.771-2.88 c-5.056,0-9.143-4.096-9.143-9.143v-27.429c0-53.833-31.616-82.286-91.429-82.286s-91.429,28.453-91.429,82.286v27.429 c0,5.047-4.096,9.143-9.143,9.143c-4.873,0-6.766,1.646-7.771,2.88c-3.163,3.904-3.749,12.37-1.573,22.647 c2.917,13.586,14.638,28.224,18.935,29.367c5.047,0,8.695,4.05,8.695,9.106v9.143c0,17.344,28.251,64.421,55.177,79.104 c8.521,2.953,17.417,4.105,26.405,3.392C255.52,321.706,255.758,321.697,255.995,321.697z"></path><path style="fill:#E4BA98;" d="M257.641,38.076c-67.2,0-98.926,38.949-98.926,96.549v24.869h-3.291l13.257,23.954h2.194 c3.182-0.146,5.641-2.834,5.495-6.016c0-0.037,0-0.073-0.009-0.11c0-8.594,0-23.314,0-23.406l9.143-14.08v-18.651 c0-14.08,2.926-25.051,20.571-22.583c20.297,2.834,14.354,12.526,50.194,12.526c21.211,0,36.571-13.623,51.474-13.623 c18.286,0,22.583,9.143,22.583,23.68c1.801,6.217,4.581,12.114,8.229,17.463v36.571c0,0,11.063-18.286,18.286-18.286v-22.309 C356.567,77.025,324.932,38.076,257.641,38.076z"></path><path style="fill:#DAAD8C;" d="M355.835,157.117v-21.12c0-56.046-31.909-94.08-99.84-94.08c-5.467,0.018-10.935,0.32-16.366,0.914 c-5.029,19.84-9.143,40.869-13.349,63.451c9.417,3.803,19.584,5.403,29.714,4.663c21.211,0,36.571-13.623,51.474-13.623 c18.286,0,22.583,9.143,22.583,23.68c1.801,6.217,4.581,12.114,8.229,17.463v36.571 C338.281,175.036,348.704,158.122,355.835,157.117z"></path><path style="fill:#D9CDC1;" d="M238.258,198.259c0.055,14.336-11.538,26.002-25.874,26.057 c-14.336,0.055-26.002-11.538-26.057-25.874s11.538-26.002,25.874-26.057c0.064,0,0.119,0,0.183,0 C226.674,172.385,238.258,183.969,238.258,198.259z"></path><path style="fill:#D3D1CD;" d="M230.67,179.974c-8.274,15.561-21.01,28.297-36.571,36.571c9.189,11.017,25.554,12.498,36.571,3.31 c11.017-9.189,12.498-25.554,3.31-36.571C232.983,182.086,231.867,180.979,230.67,179.974z"></path><path style="fill:#333333;" d="M212.283,228.888c-8.11,0-15.744-3.145-21.504-8.869c-5.787-5.742-8.987-13.403-9.024-21.559 c-0.055-16.841,13.595-30.592,30.427-30.647c16.978,0,30.638,13.65,30.647,30.427l0,0c0.027,8.155-3.118,15.835-8.869,21.623 c-5.742,5.787-13.403,8.987-21.559,9.015C212.356,228.888,212.32,228.888,212.283,228.888z M212.384,176.956 c-11.968,0.037-21.522,9.673-21.486,21.467c0.046,11.776,9.627,21.321,21.385,21.321c0.027,0,0.055,0,0.082,0 c5.714-0.018,11.081-2.267,15.104-6.318c4.023-4.05,6.235-9.435,6.217-15.15v-0.018C233.687,186.52,224.132,176.956,212.384,176.956 z M242.83,198.269h0.091H242.83z"></path><path style="fill:#D9CDC1;" d="M325.572,198.259c0,14.29-11.584,25.874-25.874,25.874c-14.29,0-25.874-11.584-25.874-25.874 s11.584-25.874,25.874-25.874S325.572,183.969,325.572,198.259L325.572,198.259z"></path><path style="fill:#D3D1CD;" d="M317.984,179.974c-8.293,15.552-21.019,28.279-36.571,36.571 c9.765,10.432,26.139,10.981,36.571,1.216c10.432-9.765,10.981-26.139,1.216-36.571 C318.807,180.778,318.404,180.367,317.984,179.974z"></path><g><path style="fill:#333333;" d="M299.698,228.714c-16.786,0-30.446-13.659-30.446-30.446s13.659-30.446,30.446-30.446 s30.446,13.659,30.446,30.446S316.484,228.714,299.698,228.714z M299.698,176.956c-11.749,0-21.303,9.554-21.303,21.303 s9.554,21.303,21.303,21.303s21.303-9.554,21.303-21.303S311.447,176.956,299.698,176.956z"></path><path style="fill:#333333;" d="M274.281,213.72c-2.523,0-4.571-2.048-4.571-4.571c0-7.561-6.153-13.714-13.714-13.714 c-7.561,0-13.714,6.153-13.714,13.714c0,2.523-2.048,4.571-4.571,4.571c-2.523,0-4.571-2.048-4.571-4.571 c0-12.599,10.258-22.857,22.857-22.857c12.608,0,22.857,10.258,22.857,22.857C278.852,211.672,276.804,213.72,274.281,213.72z"></path><rect x="182.852" y="294.031" style="fill:#333333;" width="18.286" height="36.571"></rect><path style="fill:#333333;" d="M294.487,256.865l-20.206-5.577c-11.977-3.237-24.594-3.237-36.571,0l-20.297,5.577 c-6.93,1.929-11.721,8.256-11.703,15.451v41.326c5.769,5.824,12.325,10.807,19.474,14.811c9.865,3.547,20.361,4.983,30.811,4.206 c10.45,0.777,20.946-0.658,30.811-4.206c7.15-4.005,13.705-8.987,19.474-14.811v-41.326 C306.29,265.103,301.454,258.767,294.487,256.865z M292.567,287.494c0,7.57-6.144,13.714-13.714,13.714h-4.571 c-2.523,0-4.571-2.048-4.571-4.571s-2.048-4.571-4.571-4.571h-18.286c-2.523,0-4.571,2.048-4.571,4.571s-2.048,4.571-4.571,4.571 h-4.571c-7.57,0-13.714-6.144-13.714-13.714v-13.806c-0.027-3.246,2.222-6.071,5.394-6.766l22.034-4.754 c6.025-1.317,12.261-1.317,18.286,0l21.851,4.663c3.154,0.722,5.394,3.529,5.394,6.766L292.567,287.494z"></path><path style="fill:#333333;" d="M255.995,22.351c-58.066,0-105.143,47.077-105.143,105.143l0,0v33.28l13.714,22.857h4.571 c0,0,0-33.189,0-33.28l9.143-13.714v-18.286c0-13.714,4.571-25.509,22.857-25.509c15.36,0,28.983,9.143,54.857,9.143 s39.497-9.143,54.857-9.143c18.286,0,22.857,11.794,22.857,25.509v18.286l9.143,13.714c0,0,0,33.189,0,33.28h4.571l13.714-22.857 v-33.28C361.138,69.427,314.062,22.351,255.995,22.351L255.995,22.351z"></path></g><g><path style="fill:#444444;" d="M301.71,63.494c-7.04-0.914-13.257-1.829-19.383-2.377c-6.089-0.375-12.197-0.375-18.286,0 c-12.297,0.238-24.448,2.752-35.84,7.406c2.898-6.711,8.037-12.206,14.537-15.543c6.391-3.52,13.55-5.44,20.846-5.577 c7.205-0.293,14.391,1.015,21.029,3.84C291.332,53.683,297.248,57.916,301.71,63.494z"></path><path style="fill:#444444;" d="M286.624,79.768c-9.143,0-17.371-0.823-25.234,0c-8.183,0.997-16.165,3.218-23.68,6.583 c1.856-4.48,5.047-8.283,9.143-10.88c4.123-2.67,8.823-4.297,13.714-4.754C270.158,69.775,279.684,73.084,286.624,79.768z"></path><path style="fill:#444444;" d="M255.995,36.065l23.314,0.64c15.963,0.055,31.662,4.041,45.714,11.611 c-20.626-18.048-47.506-27.31-74.88-25.783c-56.201,3.822-99.712,50.734-99.291,107.063v20.754c7.57,0,13.714-6.144,13.714-13.714 v-4.571c-1.381-51.639,39.369-94.61,91.008-95.991C255.712,36.074,255.849,36.074,255.995,36.065z"></path></g><path style="fill:#333333;" d="M356.567,163.754c-3.758,0-6.811-3.045-6.811-6.811v-36.571c0.768-24.439-7.945-47.515-24.549-65.179 c-16.585-17.673-39.067-27.813-63.296-28.581c-1.911-0.064-3.813-0.064-5.696,0c-50.469-1.591-92.416,37.842-93.989,87.845 c-0.055,1.902-0.055,3.803,0,5.714v36.782c0,3.767-3.045,6.811-6.811,6.811s-6.811-3.045-6.811-6.811V120.38 c-0.064-1.975-0.064-4.16,0-6.345c1.819-57.527,50.158-102.912,107.602-101.047c1.746-0.073,3.95-0.073,6.135,0 c27.849,0.878,53.714,12.553,72.786,32.869c19.09,20.325,29.12,46.857,28.242,74.725v36.361 C363.378,160.701,360.324,163.754,356.567,163.754z"></path><path style="fill:#444444;" d="M233.595,382.488l16.457,21.76c2.441,3.282,7.077,3.968,10.359,1.527 c0.576-0.43,1.097-0.942,1.527-1.527l16.457-21.76c2.478-3.319,1.792-8.018-1.527-10.496c-1.28-0.951-2.825-1.472-4.416-1.481 h-32.914c-4.142,0.037-7.47,3.429-7.424,7.561C232.123,379.672,232.644,381.217,233.595,382.488z"></path><path style="fill:#333333;" d="M256.023,411.809c-0.585,0-1.17-0.037-1.765-0.128c-3.163-0.466-5.961-2.13-7.872-4.699 l-16.448-21.76c-1.545-2.066-2.377-4.517-2.395-7.113c-0.027-3.218,1.198-6.263,3.456-8.558c2.258-2.304,5.285-3.593,8.503-3.621 h32.951c2.624,0.027,5.074,0.85,7.131,2.386c5.349,3.995,6.455,11.575,2.478,16.896l-16.475,21.797 c-0.695,0.933-1.527,1.746-2.459,2.441C261.06,410.995,258.583,411.809,256.023,411.809z M237.243,379.736l16.457,21.76 c0.475,0.631,1.134,1.033,1.883,1.143c0.759,0.119,1.499-0.073,2.094-0.53l17.07-22.382c0.942-1.271,0.667-3.099-0.622-4.069 c-0.503-0.366-1.097-0.567-1.728-0.576h-32.859c-0.741,0.009-1.472,0.32-2.021,0.878c-0.549,0.558-0.841,1.298-0.832,2.075 C236.686,378.666,236.887,379.251,237.243,379.736z"></path><path style="fill:#444444;" d="M250.418,404.705l-27.977,84.114c11.246,0.64,22.491,1.006,33.829,1.006 c11.337,0,22.309,0,33.28-0.914l-27.977-84.114L250.418,404.705z"></path><g><path style="fill:#333333;" d="M255.995,489.917c11.246,0,22.309,0,33.28-0.914l-27.977-84.114h-5.303V489.917z"></path><path style="fill:#333333;" d="M256.27,494.397c-10.907,0-22.062-0.329-34.085-1.006c-1.417-0.082-2.725-0.814-3.52-1.993 s-1.006-2.661-0.558-4.014l27.977-84.114c0.622-1.865,2.368-3.127,4.343-3.127c0.009,0,0.018,0,0.037,0l11.154,0.091 c1.957,0.018,3.685,1.28,4.297,3.127l27.986,84.114c0.439,1.335,0.247,2.798-0.53,3.968c-0.768,1.17-2.039,1.92-3.438,2.039 C278.761,494.397,267.835,494.397,256.27,494.397z M228.676,484.577c19.648,0.942,37.367,1.152,54.674,0.192l-25.088-75.419 l-4.553-0.037L228.676,484.577z"></path></g><path style="fill:#E9F0F2;" d="M182.852,314.922l-12.891,35.2l33.92,74.514l41.966-54.217 C219.47,359.119,197.399,339.672,182.852,314.922z"></path><g><path style="fill:#333333;" d="M203.881,433.779c-0.347,0-0.704-0.018-1.061-0.064c-3.182-0.366-5.934-2.377-7.259-5.294 l-33.92-74.514c-0.997-2.185-1.088-4.681-0.265-6.93l12.891-35.2c1.17-3.2,4.014-5.477,7.387-5.915 c3.374-0.475,6.711,1.015,8.677,3.794c16.229,23.013,26.021,36.891,59.392,52.48c2.514,1.179,4.361,3.438,5.019,6.135 c0.649,2.706,0.037,5.55-1.664,7.753l-41.966,54.217C209.367,432.49,206.688,433.779,203.881,433.779z M179.835,349.747 l26.094,57.317l25.865-33.408c-22.281-11.803-34.158-23.57-46.254-39.461L179.835,349.747z"></path><rect x="310.852" y="294.031" style="fill:#333333;" width="18.286" height="36.571"></rect></g><path style="fill:#DAE4E8;" d="M329.138,314.922l12.8,35.017l-34.194,74.697l-42.057-54.126 C292.174,359.155,314.391,339.69,329.138,314.922z"></path><path style="fill:#E9F0F2;" d="M265.687,370.511l8.594,10.423c24.411-10.999,45.413-28.37,60.8-50.286l-5.943-15.726 C314.391,339.69,292.174,359.155,265.687,370.511z"></path><g><path style="fill:#333333;" d="M307.744,433.779c-2.807,0-5.477-1.289-7.223-3.538l-42.057-54.126 c-1.737-2.231-2.341-5.157-1.627-7.899c0.713-2.743,2.661-5.01,5.266-6.117c24.914-10.615,45.376-28.544,59.173-51.84 c1.792-3.035,5.257-4.791,8.704-4.443c3.52,0.329,6.537,2.651,7.753,5.961l12.8,35.017c0.823,2.267,0.722,4.763-0.274,6.949 l-34.194,74.697c-1.335,2.907-4.078,4.91-7.259,5.275C308.448,433.761,308.091,433.779,307.744,433.779z M279.886,373.894 l25.819,33.234l26.359-57.573l-5.403-14.757C314.043,351.046,298.19,364.303,279.886,373.894z"></path><rect x="242.281" y="430.351" style="fill:#333333;" width="22.857" height="6.857"></rect><rect x="233.138" y="448.637" style="fill:#333333;" width="41.143" height="6.857"></rect><rect x="228.567" y="466.922" style="fill:#333333;" width="41.143" height="6.857"></rect></g><g><ellipse style="fill:#6C7881;" cx="214.03" cy="188.934" rx="6.4" ry="5.029"></ellipse><ellipse style="fill:#6C7881;" cx="297.961" cy="188.934" rx="6.4" ry="5.029"></ellipse></g><g><path style="fill:#333333;" d="M256.123,499.059c-87.177-1.28-171.447-20.005-250.734-55.662c-3.785-1.71-5.943-5.742-5.266-9.829 c8.165-49.298,38.135-66.048,61.851-71.433c58.194-12.059,105.847-20.919,106.313-21.01c5.001-0.951,9.737,2.359,10.661,7.323 c0.923,4.965-2.359,9.737-7.323,10.661c-0.475,0.091-47.945,8.914-105.774,20.901c-24.759,5.614-40.009,21.897-46.345,49.637 c75.054,32.722,154.633,49.92,236.617,51.127c81.81-1.17,161.435-18.395,236.535-51.2c-3.694-17.947-14.647-42.853-46.555-49.573 l-105.947-21.01c-4.955-0.978-8.174-5.787-7.186-10.743c0.969-4.955,5.815-8.21,10.743-7.186l106.057,21.029 c34.551,7.269,57.17,33.426,62.144,71.79c0.53,4.005-1.637,7.854-5.312,9.518C427.332,479.091,343.054,497.816,256.123,499.059z"></path><path style="fill:#333333;" d="M274.281,280.362H237.71c-2.523,0-4.571-2.048-4.571-4.571c0-2.523,2.048-4.571,4.571-4.571h36.571 c2.523,0,4.571,2.048,4.571,4.571C278.852,278.314,276.804,280.362,274.281,280.362z"></path><path style="fill:#333333;" d="M256.059,257.057c-3.291,0-6.619-0.539-9.783-1.627l-9.774-2.651 c-2.441-0.667-3.877-3.182-3.209-5.614c0.667-2.45,3.209-3.877,5.614-3.209l10.057,2.743c4.635,1.582,9.426,1.582,13.769,0.091 l10.341-2.834c2.478-0.677,4.955,0.777,5.614,3.209s-0.777,4.946-3.209,5.614l-10.066,2.743 C262.468,256.545,259.278,257.057,256.059,257.057z"></path></g></svg>