<!-- icon666.com - MILLIONS vector ICONS FREE --><svg version="1.1" id="Capa_1" xmlns="http://www.w3.org/2000/svg" xmlns:xlink="http://www.w3.org/1999/xlink" x="0px" y="0px" viewBox="0 0 512.004 512.004" style="enable-background:new 0 0 512.004 512.004;" xml:space="preserve"><path style="fill:#333333;" d="M93.853,274.333v2.197c0.251,13.077,8.589,24.626,20.923,28.978l101.161,36.824l81.599-0.732 l95.617-35.882c11.915-4.749,19.741-16.257,19.772-29.083V167.313c0.167-40.004-14.771-78.607-41.845-108.066 c-16.006-18.307-46.658-33.163-66.953-26.363l-7.218,2.406l-5.231-7.009c-7.344-12.731-20.975-20.525-35.673-20.4 C168.087,6.26,95.496,76.226,93.885,164.143c-0.021,1.057-0.031,2.113-0.031,3.17V274.333z"></path><path style="fill:#EFC8A5;" d="M491.385,430.939c-4.352-21.048-20.797-37.494-41.845-41.845 c-16.529-3.661-55.55-12.24-97.709-20.923c-10.461-2.302-21.969-4.289-33.058-5.858v-51.261H193.236v51.156 c-11.612,1.569-23.224,3.661-34.732,6.172c-40.172,8.683-78.356,17.157-96.035,20.923c-21.048,4.352-37.494,20.797-41.845,41.845 l-5.231,20.923c2.929,2.197,100.952,52.307,240.611,52.307s237.682-50.11,240.611-52.307L491.385,430.939z"></path><path style="fill:#EFCDB1;" d="M167.083,395.057l-6.904,1.465l-47.808,10.461c-14.782-5.565-29.208-12.031-43.205-19.354 l91.014-20.295c10.984-2.302,21.969-4.289,33.058-5.858v1.255C193.445,378.392,182.45,391.981,167.083,395.057z"></path><path style="fill:#E4BA98;" d="M256.004,430.102v73.857c139.659,0,237.682-50.11,240.611-52.307l-5.231-20.923 c-4.352-21.048-20.797-37.494-41.845-41.845c-16.529-3.661-55.55-12.24-97.709-20.923c-10.461-2.301-21.969-4.289-33.058-5.858 v-51.261H193.236v36.615l50.215,51.261C251.391,407.255,255.868,418.438,256.004,430.102z"></path><path style="fill:#E8C2A6;" d="M344.926,395.057l6.905,1.465l47.808,10.461c14.782-5.565,29.208-12.031,43.205-19.354 l-91.014-20.295c-10.461-2.302-21.969-4.289-33.058-5.858v1.255C318.574,378.392,329.569,391.981,344.926,395.057z"></path><path style="fill:#D3677F;" d="M491.385,430.939c-4.352-21.048-20.797-37.494-41.845-41.845l-6.695-1.569 c-42.735,21.822-88.629,36.824-135.998,44.461l-50.842,51.261l-51.47-51.365c-47.149-7.679-92.813-22.649-135.37-44.356 l-6.695,1.569c-21.048,4.352-37.494,20.797-41.845,41.845l-5.231,20.923c2.929,2.197,100.952,52.307,240.611,52.307 s237.682-50.11,240.611-52.307L491.385,430.939z"></path><path style="fill:#C14F62;" d="M449.539,418.699l-47.076-10.461l-4.185-0.837c-29.585,11.319-60.257,19.552-91.537,24.584 l-50.738,51.261l-51.575-51.365c-30.945-5.105-61.293-13.307-90.595-24.48l-4.289,0.837l-47.076,10.461 c-19.563,4.917-41.322,14.437-47.076,33.163c2.929,2.197,100.952,52.307,240.611,52.307s237.682-50.11,240.611-52.307 C490.862,433.136,469.102,423.616,449.539,418.699z"></path><g><rect x="185.39" y="331.546" style="fill:#333333;" width="15.692" height="52.411"></rect><rect x="310.926" y="331.546" style="fill:#333333;" width="15.692" height="52.411"></rect><path style="fill:#333333;" d="M256.004,512.004c-146.909,0-244.597-53.342-245.319-53.876c-2.521-1.893-3.672-5.116-2.898-8.17 l5.231-20.923c4.917-23.821,23.737-42.641,47.871-47.631c44.377-9.928,130.045-26.017,130.913-26.185 c4.205-0.785,8.359,1.998,9.154,6.266c0.795,4.258-2.009,8.369-6.266,9.164c-0.858,0.167-86.264,16.205-130.505,26.091 c-18.119,3.745-32.148,17.784-35.872,35.788l-3.808,15.242c20.274,9.729,108.934,48.551,231.499,48.551 c122.053,0,210.504-38.508,231.489-48.603l-3.714-14.887c-3.787-18.307-17.826-32.346-35.83-36.06 c-44.241-9.813-129.763-25.955-130.621-26.122c-4.258-0.806-7.061-4.906-6.266-9.164c0.806-4.258,4.906-7.061,9.164-6.266 c0.868,0.167,86.631,16.351,131.008,26.206c24.03,4.969,42.85,23.779,47.829,47.913l5.157,20.619 c0.764,3.065-0.377,6.287-2.908,8.181C500.601,458.672,402.809,512.004,256.004,512.004z"></path><path style="fill:#333333;" d="M318.772,370.159c-4.331,0-7.846-3.515-7.846-7.846v-30.547c0-4.331,3.515-7.846,7.846-7.846 c4.331,0,7.846,3.515,7.846,7.846v30.547C326.618,366.644,323.103,370.159,318.772,370.159z"></path></g><path style="fill:#EFC8A5;" d="M256.004,49.1c83.691,0,109.844,48.018,109.844,104.614v20.923c18.098,0,23.852,17.889,20.923,41.845 c-2.511,20.923-10.461,41.845-31.384,41.845v15.692c0,31.384-25.003,45.507-54.19,75.845c-10.88,13.516-27.974,20.441-45.193,18.307 c-17.219,2.134-34.313-4.791-45.193-18.307c-29.187-30.338-54.19-44.461-54.19-75.845v-15.692 c-20.923,0-28.873-20.923-31.384-41.845c-2.929-23.957,2.825-41.845,20.923-41.845v-20.923C146.16,97.117,172.313,49.1,256.004,49.1 z"></path><path style="fill:#E4BA98;" d="M365.849,174.636v-20.923c0-56.596-25.735-104.614-109.844-104.614c-4.289,0-8.264,0-12.344,0 c-19.04,74.59-32.953,159.431-32.116,224.082c0,19.772,1.883,50.738,4.498,81.808c10.692,10.137,25.337,14.97,39.962,13.181 c17.219,2.134,34.313-4.791,45.193-18.307c29.187-30.338,54.19-44.461,54.19-75.845v-15.692c20.923,0,28.873-20.923,31.384-41.845 C389.701,192.525,383.947,174.636,365.849,174.636z"></path><g><ellipse style="fill:#333333;" cx="211.544" cy="219.097" rx="10.461" ry="7.846"></ellipse><ellipse style="fill:#333333;" cx="300.465" cy="219.097" rx="10.461" ry="7.846"></ellipse><path style="fill:#333333;" d="M277.555,316.074h-41.845c-2.887,0-5.231-2.343-5.231-5.231c0-2.887,2.343-5.231,5.231-5.231h41.845 c2.887,0,5.231,2.343,5.231,5.231C282.785,313.73,280.442,316.074,277.555,316.074z"></path><path style="fill:#333333;" d="M263.955,333.021h-13.6c-2.887,0-5.231-2.343-5.231-5.231c0-2.887,2.343-5.231,5.231-5.231h13.6 c2.887,0,5.231,2.343,5.231,5.231C269.186,330.678,266.842,333.021,263.955,333.021z"></path><path style="fill:#333333;" d="M256.705,289.387c-3.756,0-7.564-0.617-11.173-1.852l-11.194-3.034 c-2.793-0.753-4.436-3.641-3.672-6.423c0.764-2.783,3.661-4.404,6.423-3.672l11.508,3.138c5.314,1.799,10.786,1.81,15.765,0.094 l11.811-3.233c2.825-0.732,5.67,0.9,6.423,3.672c0.753,2.793-0.889,5.67-3.672,6.423l-11.508,3.138 C264.039,288.801,260.388,289.387,256.705,289.387z"></path><path style="fill:#333333;" d="M250.512,376.3c-17.868,0-34.763-8.013-46.135-22.147c-6.266-6.465-12.658-12.459-18.841-18.266 c-20.536-19.259-36.761-34.47-36.761-61.868v-8.714c-12.167-2.804-27.2-13.464-31.332-47.882 c-2.291-18.757,0.523-33.225,8.149-41.845c3.41-3.85,7.72-6.486,12.711-7.804v-14.06c0-72.518,41.793-112.46,117.69-112.46 s117.69,39.941,117.69,112.46v14.06c5.001,1.318,9.321,3.954,12.721,7.815c7.626,8.61,10.44,23.088,8.139,41.856 c-4.132,34.407-19.155,45.068-31.321,47.861v8.714c0,27.2-16.236,42.285-36.782,61.387c-6.381,5.932-12.993,12.072-19.918,19.27 c-11.8,15.012-30.809,23.193-50.528,21.383C254.174,376.216,252.343,376.3,250.512,376.3z M256.004,56.946 c-67.685,0-101.998,32.556-101.998,96.768v20.923c0,4.331-3.515,7.846-7.846,7.846c-3.902,0-6.706,1.109-8.808,3.494 c-4.425,5.011-6.005,15.776-4.321,29.553c2.783,23.193,10.723,34.951,23.59,34.951c4.331,0,7.846,3.515,7.846,7.846v15.692 c0,20.609,12.648,32.472,31.803,50.424c6.036,5.66,12.867,12.072,19.877,19.364c9.802,12.125,24.155,18.098,39.031,16.56 c0.534-0.052,1.088-0.063,1.642,0c14.656,1.621,28.79-4.457,37.901-15.985c7.731-8.087,14.803-14.656,21.048-20.462 c19.134-17.784,31.771-29.532,31.771-49.901v-15.692c0-4.331,3.515-7.846,7.846-7.846c12.867,0,20.808-11.759,23.59-34.93 c1.695-13.788,0.126-24.563-4.31-29.564c-2.113-2.385-4.917-3.494-8.819-3.494c-4.331,0-7.846-3.515-7.846-7.846v-20.923 C358.003,89.501,323.689,56.946,256.004,56.946z"></path><path style="fill:#333333;" d="M371.079,59.247c-16.006-18.307-46.658-33.163-66.953-26.363l-7.218,2.406l-5.231-7.009 c-7.344-12.731-20.975-20.525-35.673-20.4C168.087,6.26,95.496,76.226,93.885,164.143c-0.021,1.057-0.031,2.113-0.031,3.17V276.53 h70.614v-65.488c0-2.814,2.218-5.116,5.021-5.231c26.624-1.046,53.018-5.398,78.565-12.972 c25.589-8.275,48.311-23.664,65.488-44.356c9.352,13.307,19.856,25.766,31.384,37.242c2.061,1.914,3.201,4.613,3.138,7.428v83.691 h64.86v-109.53C413.103,127.298,398.153,88.706,371.079,59.247z"></path><path style="fill:#333333;" d="M256.004,491.082c-2.082,0-4.069-0.826-5.545-2.291l-49.691-49.597 c-47.108-7.93-92.573-22.952-135.171-44.68c-3.86-1.967-5.398-6.695-3.421-10.556s6.685-5.388,10.556-3.421 c41.898,21.373,86.672,36.039,133.069,43.592c1.622,0.262,3.117,1.036,4.279,2.186l45.904,45.81l45.308-45.664 c1.161-1.172,2.678-1.956,4.31-2.218c46.626-7.553,91.61-22.262,133.686-43.708c3.881-1.967,8.589-0.429,10.556,3.421 c1.967,3.86,0.439,8.589-3.421,10.556c-42.777,21.801-88.44,36.866-135.778,44.796l-49.053,49.461 c-1.465,1.485-3.463,2.312-5.545,2.322C256.025,491.082,256.015,491.082,256.004,491.082z"></path></g><path style="fill:#444444;" d="M117.391,287.514V178.193C117.203,90.317,188.288,18.919,276.163,18.73 c1.13,0,2.249,0.01,3.379,0.031c1.465,0,2.825,0,4.185,0c-7.302-7.354-17.366-11.309-27.723-10.88 C168.087,6.26,95.496,76.226,93.885,164.143c-0.021,1.057-0.031,2.113-0.031,3.17V276.53c0.251,13.077,8.589,24.626,20.923,28.978 l13.704,5.021C121.691,304.775,117.663,296.406,117.391,287.514z"></path><path style="fill:#333333;" d="M194.607,343.304l-82.54-30.443c-15.221-5.377-25.735-19.929-26.049-36.186l0.021-112.69 C87.733,71.895,164.154-1.565,256.151,0.025c17.355-0.429,33.581,9.175,42.327,24.323l1.297,1.705l1.873-0.628 c24.009-8.045,57.809,8.589,75.343,28.643c28.371,30.871,43.969,71.148,43.791,113.265v109.279 c-0.146,16.142-10.336,30.746-25.379,36.426l-73.24,27.513l-5.513-14.688l73.23-27.513c9.154-3.452,15.127-12.01,15.211-21.812 V167.313c0.167-38.184-13.966-74.663-39.774-102.762c-14.112-16.131-41.615-29.93-58.688-24.229l-7.218,2.406 c-3.212,1.078-6.748-0.031-8.767-2.751l-5.231-7.009c-6.381-10.953-17.303-17.251-29.051-17.251c-0.084,0-0.178,0-0.272,0 c-83.942-1.465-152.82,65.122-154.357,148.572l-0.021,3.023V276.53c0.188,9.593,6.497,18.328,15.692,21.582l82.645,30.474 L194.607,343.304z"></path></svg>