<!-- icon666.com - MILLIONS vector ICONS FREE --><svg version="1.1" id="Capa_1" xmlns="http://www.w3.org/2000/svg" xmlns:xlink="http://www.w3.org/1999/xlink" x="0px" y="0px" viewBox="0 0 512.004 512.004" style="enable-background:new 0 0 512.004 512.004;" xml:space="preserve"><path style="fill:#333333;" d="M399.815,304.851c-4.494-42.539-26.443-44.315-26.443-111.102H143.434 c0,66.787-21.844,68.564-26.443,111.102c-3.993,22.398,2.258,45.413,17.036,62.711h248.752 C397.558,350.264,403.808,327.259,399.815,304.851z"></path><path style="fill:#444444;" d="M152.213,239.632c-5.435,18.604-11.183,37.104-15.782,55.603c-2.947,8.759-4.494,17.935-4.599,27.175 c-0.345,8.999,1.756,17.914,6.062,25.816v0.627c0.658,1.097,0.334,2.529-0.732,3.24c-0.878,0.721-2.153,0.721-3.031,0 c-6.396-8.299-10.055-18.374-10.452-28.847c-0.627-5.174-0.627-10.4,0-15.573c0.502-5.006,1.369-9.971,2.613-14.841 c2.676-9.563,5.843-18.991,9.511-28.22c3.763-9.093,7.734-17.977,12.124-26.756c0.606-1.181,2.049-1.651,3.23-1.045c0,0,0,0,0.01,0 C152.13,237.395,152.569,238.566,152.213,239.632z"></path><path style="fill:#333333;" d="M382.779,375.4H134.027c-2.289,0-4.473-1.003-5.957-2.749c-16.378-19.148-23.224-44.368-18.792-69.18 c1.944-18.165,7.191-29.746,12.249-40.94c6.919-15.291,14.068-31.094,14.068-68.783c0-4.327,3.512-7.839,7.839-7.839h229.939 c4.327,0,7.839,3.512,7.839,7.839c0,37.616,7.159,53.419,14.079,68.699c5.059,11.162,10.285,22.712,12.291,41.295 c4.327,24.718-2.529,49.824-18.845,68.908C387.242,374.397,385.068,375.4,382.779,375.4z M137.758,359.722h241.279 c11.696-15.186,16.441-34.491,13.054-53.492c-0.031-0.188-0.063-0.366-0.084-0.554c-1.714-16.242-6.02-25.753-11.006-36.759 c-6.773-14.956-14.392-31.773-15.375-67.33h-214.47c-0.972,35.609-8.591,52.436-15.354,67.403 c-4.975,10.995-9.271,20.485-11.027,36.707C121.318,325.2,126.063,344.536,137.758,359.722z"></path><path style="fill:#EFC8A5;" d="M491.164,431.003c-4.348-21.029-20.778-37.459-41.807-41.807 c-16.514-3.658-55.499-12.229-97.619-20.904c-10.452-2.299-21.949-4.285-33.028-5.853v-51.214H193.289v51.109 c-11.601,1.568-23.203,3.658-34.7,6.167c-40.135,8.675-78.284,17.141-95.947,20.904c-21.029,4.348-37.459,20.778-41.807,41.807 l-5.226,20.904c2.926,2.195,100.859,52.259,240.39,52.259s237.464-50.064,240.39-52.259L491.164,431.003z"></path><path style="fill:#EFCDB1;" d="M167.159,395.154c15.646-3.156,26.704-17.183,26.129-33.132 c-20.276,2.926-31.355,5.121-130.647,27.175c-19.952,4.264-35.829,19.367-41.075,39.09 C21.566,428.286,155.035,397.871,167.159,395.154z"></path><path style="fill:#E4BA98;" d="M255.999,430.376v73.789c139.531,0,237.464-50.064,240.39-52.259l-5.226-20.904 c-4.348-21.029-20.778-37.459-41.807-41.807c-16.514-3.658-55.499-12.229-97.619-20.904c-10.452-2.299-21.949-4.285-33.028-5.853 v-51.214H193.289v36.581l50.168,51.527C251.317,407.79,255.78,418.838,255.999,430.376z"></path><path style="fill:#E8C2A6;" d="M344.839,395.154c-15.646-3.156-26.704-17.183-26.129-33.132 c20.276,2.926,31.355,5.121,130.647,27.175c19.952,4.264,35.829,19.367,41.075,39.09 C490.432,428.286,356.963,397.871,344.839,395.154z"></path><path style="fill:#E0B75A;" d="M491.164,431.003c-7.525-37.522-44.211-42.33-54.036-44.524 c-43.396,55.405-110.81,86.53-181.129,83.614c-70.685,3.919-138.737-27.384-181.756-83.614c-9.825,2.195-45.988,7.212-53.408,44.42 l-5.226,20.904c2.926,2.195,100.859,52.259,240.39,52.259s237.464-50.064,240.39-52.259L491.164,431.003z"></path><g><path style="fill:#EAC16E;" d="M96.714,411.25c-8.037-7.703-15.542-15.949-22.471-24.666l-11.601,2.613 c-20.005,4.243-35.902,19.409-41.075,39.194L96.714,411.25z"></path><path style="fill:#EAC16E;" d="M490.432,428.39c-5.132-19.806-21.05-35.003-41.075-39.194l-12.229-2.717 c-6.93,8.685-14.434,16.89-22.471,24.562L490.432,428.39z"></path></g><path style="fill:#333333;" d="M255.999,512.004c-146.774,0-244.372-53.293-245.094-53.827c-2.519-1.892-3.669-5.111-2.895-8.163 l5.226-20.904c4.912-23.799,23.715-42.601,47.827-47.587c37.24-8.34,103.619-21.018,124.397-24.959v-19.628 c0-4.327,3.512-7.839,7.839-7.839s7.839,3.512,7.839,7.839v26.129c0,3.773-2.686,7.013-6.396,7.703 c-0.857,0.167-86.185,16.19-130.386,26.067c-18.102,3.742-32.118,17.768-35.839,35.755l-3.804,15.228 c20.255,9.72,108.834,48.507,231.287,48.507c121.941,0,210.31-38.473,231.276-48.559l-3.71-14.873 c-3.784-18.291-17.81-32.317-35.797-36.027c-44.221-10.326-129.602-25.931-130.459-26.088c-3.721-0.679-6.428-3.93-6.428-7.713 v-31.355c0-4.327,3.512-7.839,7.839-7.839s7.839,3.512,7.839,7.839v24.833c20.841,3.857,87.303,16.305,124.595,25.022 c23.914,4.944,42.716,23.736,47.691,47.848l5.153,20.6c0.763,3.062-0.376,6.282-2.906,8.173 C500.372,458.721,402.669,512.004,255.999,512.004z"></path><path style="fill:#EFC8A5;" d="M255.999,49.514c83.614,0,109.743,47.974,109.743,104.518c0,3.345,0,17.559,0,20.904 c18.082,0,23.83,17.872,20.904,41.807c-2.508,20.381-10.452,41.807-31.355,41.807v15.678c0,31.355-25.293,44.838-54.454,75.148 c-10.724,13.566-27.634,20.705-44.838,18.918c-17.381,1.829-34.512-5.289-45.465-18.918c-29.16-30.31-53.827-43.793-53.827-75.148 v-15.678c-20.904,0-28.847-21.426-31.355-41.807c-2.926-23.935,2.822-41.807,20.904-41.807c0-3.345,0-17.559,0-20.904 C146.256,97.488,171.967,49.514,255.999,49.514z"></path><path style="fill:#E4BA98;" d="M365.742,174.935c0-3.345,0-17.559,0-20.904c0-56.544-25.711-104.518-109.743-104.518 c-3.763,0-7.316,0-10.452,0c-18.291,72.535-31.355,154.477-30.519,217.083c0,21.74,2.299,56.858,5.226,90.721 c10.232,8.058,23.203,11.8,36.163,10.452c17.204,1.787,34.115-5.351,44.838-18.918c29.16-30.31,54.454-43.793,54.454-75.148v-15.678 c20.904,0,28.847-21.426,31.355-41.807C389.572,192.808,383.824,174.935,365.742,174.935z"></path><g><circle style="fill:#333333;" cx="211.579" cy="224.686" r="7.839"></circle><circle style="fill:#333333;" cx="300.419" cy="224.686" r="7.839"></circle><path style="fill:#333333;" d="M250.512,376.424c-17.852,0-34.731-8.006-46.092-22.126c-6.261-6.459-12.647-12.448-18.824-18.249 c-20.517-19.242-36.727-34.439-36.727-61.812v-8.717c-12.103-2.812-27.06-13.472-31.293-47.806 c-2.299-18.761,0.523-33.226,8.142-41.828c3.407-3.846,7.713-6.48,12.699-7.797v-14.047c0-51.255,20.402-112.356,117.582-112.356 c75.827,0,117.582,39.905,117.582,112.356v14.047c4.996,1.317,9.313,3.951,12.709,7.807c7.619,8.602,10.431,23.067,8.131,41.817 c-4.222,34.344-19.189,45.005-31.293,47.817v8.717c0,27.175-16.221,42.246-36.748,61.331c-6.376,5.926-12.981,12.061-19.9,19.252 c-11.79,14.998-30.78,23.203-50.482,21.363C254.16,376.341,252.331,376.424,250.512,376.424z M255.999,57.353 c-67.623,0-101.905,32.526-101.905,96.679v20.904c0,4.327-3.512,7.839-7.839,7.839c-3.898,0-6.7,1.108-8.8,3.491 c-4.421,5.006-5.999,15.761-4.317,29.526c1.965,15.918,7.64,34.919,23.569,34.919c4.327,0,7.839,3.512,7.839,7.839v15.678 c0,20.59,12.636,32.442,31.773,50.377c6.031,5.654,12.856,12.061,19.858,19.346c9.793,12.114,24.133,18.102,38.995,16.545 c0.533-0.063,1.087-0.063,1.641,0c14.643,1.599,28.763-4.442,37.867-15.97c7.724-8.079,14.789-14.643,21.029-20.444 c19.116-17.768,31.742-29.505,31.742-49.855v-15.678c0-4.327,3.512-7.839,7.839-7.839c15.928,0,21.604-18.991,23.579-34.93 c1.683-13.755,0.115-24.52-4.317-29.516c-2.111-2.383-4.912-3.491-8.811-3.491c-4.327,0-7.839-3.512-7.839-7.839v-20.904 C357.904,89.89,323.611,57.353,255.999,57.353z"></path><path style="fill:#333333;" d="M255.999,0.078c-32.024-1.233-62.836,12.281-83.614,36.686 c-52.259,10.452-62.711,59.993-62.711,94.066c0,31.355,20.904,52.259,37.522,73.162c6.177,7.849,8.382,18.113,5.958,27.802 l-8.048,32.818l19.44,5.121v-74.207c-0.293-16.754,8.779-32.275,23.516-40.239l22.471-12.124 c36.268,28.847,80.269,33.446,136.604,48.287v75.253l18.604-2.927l-6.689-30.206c-2.414-10.525,0.617-21.552,8.048-29.369 l16.723-17.872c7.316-14.319,18.5-24.248,18.5-55.499C402.324,62.788,345.675,0.078,255.999,0.078z"></path></g><circle style="fill:#DAE4E8;" cx="147.468" cy="263.702" r="7.839"></circle><circle style="fill:#EAF2F4;" cx="145.106" cy="261.267" r="2.926"></circle><path style="fill:#333333;" d="M147.51,274.133c-5.759,0-10.452-4.682-10.452-10.452c0-5.759,4.693-10.452,10.452-10.452 s10.452,4.693,10.452,10.452C157.962,269.44,153.269,274.133,147.51,274.133z M147.51,258.455c-2.885,0-5.226,2.341-5.226,5.226 c0,2.874,2.341,5.226,5.226,5.226c2.885,0,5.226-2.352,5.226-5.226C152.736,260.797,150.395,258.455,147.51,258.455z"></path><circle style="fill:#DAE4E8;" cx="364.488" cy="263.702" r="7.839"></circle><circle style="fill:#EAF2F4;" cx="362.084" cy="261.267" r="2.926"></circle><g><path style="fill:#333333;" d="M364.488,274.133c-5.769,0-10.452-4.682-10.452-10.452c0-5.759,4.682-10.452,10.452-10.452 s10.452,4.693,10.452,10.452C374.94,269.44,370.247,274.133,364.488,274.133z M364.488,258.455c-2.874,0-5.226,2.341-5.226,5.226 c0,2.874,2.352,5.226,5.226,5.226c2.874,0,5.226-2.352,5.226-5.226C369.714,260.797,367.363,258.455,364.488,258.455z"></path><path style="fill:#333333;" d="M248.756,478.109c-25.628,0-116.61-6.125-180.659-86.75c-2.686-3.386-2.132-8.33,1.265-11.016 c3.386-2.707,8.32-2.132,11.016,1.254c68.689,86.488,174.043,80.677,175.098,80.677c1.975-0.01,108.186,4.045,175.506-80.677 c2.697-3.386,7.64-3.951,11.016-1.254c3.386,2.697,3.951,7.619,1.254,11.016c-72.441,91.15-183.01,86.77-187.651,86.561 C255.111,477.963,252.707,478.109,248.756,478.109z"></path><path style="fill:#333333;" d="M335.537,440.514c-3.794-1.327-7.337-3.313-10.452-5.853c-3.48-2.676-6.093-6.302-7.525-10.452 c-1.505-4.965-0.899-10.337,1.672-14.841c2.352-3.804,5.529-7.013,9.302-9.407c2.926-1.881,5.121-4.076,4.39-3.763 c-0.732,0.314,0,1.463-0.836,1.045c-3.825-2.414-8.152-3.919-12.647-4.39c-5.351-0.46-9.302-5.174-8.842-10.525 c0.366-4.149,3.334-7.609,7.379-8.602h1.254c4.149-1.15,8.205-2.613,12.124-4.39c1.735-0.679,3.386-1.557,4.912-2.613 c1.254-0.836,2.09-1.777,1.986-1.568c-0.115,0.449-0.115,0.909,0,1.359c-0.063,1.338,0.387,2.644,1.254,3.658 c0.836,0.627,0-0.627-1.986-1.359c-3.898-1.725-7.964-3.062-12.124-3.972h-1.777h-1.463c-1.516-0.449-2.906-1.233-4.076-2.299 c-4.034-4.128-3.961-10.744,0.167-14.779c0.554-0.543,1.16-1.014,1.819-1.421c1.254-0.69,2.644-1.118,4.076-1.254h2.195h6.794 c3.585-0.251,7.118-1.066,10.452-2.404c0,0,0,0.627,0,0c0-0.627,0,1.15,0.523,1.359c0.523,0.209-0.627-1.15-2.299-1.881 c-3.951-2.017-8.173-3.428-12.542-4.181l0,0c-2.603-0.554-4.254-3.104-3.71-5.696c0.47-2.237,2.467-3.836,4.756-3.815 c5.623-0.031,11.215,0.742,16.618,2.299c3.867,1.035,7.212,3.449,9.407,6.794c1.516,2.582,1.996,5.644,1.359,8.57 c-0.512,2.613-1.787,5.006-3.658,6.898c-4.965,4.202-10.943,7.013-17.35,8.152l-7.943,1.568h-1.986l0,0 c1.097-0.115,2.164-0.429,3.135-0.941c2.32-1.296,3.878-3.627,4.181-6.271c0.418-3.899-1.996-7.546-5.748-8.675 c-1.672,0,0,0-0.627,0h1.986c5.665,0.617,11.236,1.881,16.618,3.763c4.003,1.296,7.598,3.606,10.452,6.689 c2.435,2.926,3.7,6.647,3.554,10.452c-0.094,2.947-0.92,5.822-2.404,8.361c-4.139,6.031-10.17,10.514-17.141,12.751 c-5.309,2.017-10.807,3.491-16.409,4.39v-19.44c3.428,0.763,6.783,1.819,10.034,3.135c4.369,1.819,8.257,4.609,11.392,8.152 c4.839,5.247,5.728,13.023,2.195,19.231c-2.655,3.784-6.261,6.815-10.452,8.779c-5.539,2.926-6.689,4.39-6.689,7.839 s4.494,8.152,8.884,11.183l0,0c2.237,1.317,2.979,4.202,1.662,6.438c-1.254,2.122-3.94,2.916-6.156,1.819L335.537,440.514z"></path></g><path style="fill:#444444;" d="M187.227,53.904c5.153,14.11,12.918,27.122,22.889,38.358c9.731,11.424,20.705,21.729,32.714,30.728 c11.925,9.135,24.781,16.984,38.358,23.412c13.692,6.355,28.021,11.225,42.748,14.528l0,0c1.881,0.512,3.052,2.373,2.717,4.285 c-0.293,1.359-1.359,2.425-2.717,2.717c-16.127-1.097-32.014-4.411-47.242-9.825c-15.49-5.289-30.08-12.897-43.27-22.576 c-12.73-10.17-23.987-22.053-33.446-35.327C190.32,86.9,183.725,71.62,180.642,55.472c-0.366-1.871,0.857-3.679,2.728-4.045 c0.063-0.01,0.136-0.021,0.199-0.031c1.704-0.303,3.386,0.669,3.972,2.299L187.227,53.904z"></path><path style="fill:#333333;" d="M172.385,431.944c4.39-3.031,8.989-7.839,8.884-11.183c-0.105-3.345-1.15-4.912-6.689-7.839 c-4.191-1.965-7.797-4.996-10.452-8.779c-3.533-6.208-2.644-13.984,2.195-19.231c3.125-3.449,6.982-6.167,11.288-7.943 c3.669-1.651,7.483-2.937,11.392-3.867v19.44c-5.602-0.899-11.1-2.373-16.409-4.39c-6.971-2.237-13.002-6.72-17.141-12.751 c-1.484-2.54-2.31-5.414-2.404-8.361c-0.261-3.993,1.056-7.933,3.658-10.974c2.853-3.083,6.449-5.393,10.452-6.689 c5.215-1.84,10.609-3.104,16.096-3.763h1.986c0,0,1.045,0-0.627,0c-3.752,1.129-6.167,4.776-5.748,8.675 c0.303,2.644,1.86,4.975,4.181,6.271c0.972,0.512,2.038,0.826,3.136,0.941h-0.523h-1.986l-7.943-1.568 c-6.407-1.139-12.385-3.951-17.35-8.152c-1.871-1.892-3.146-4.285-3.658-6.898c-0.638-2.926-0.157-5.989,1.359-8.57 c2.195-3.345,5.539-5.759,9.407-6.794c5.404-1.557,10.995-2.331,16.618-2.299c2.655,0,4.808,2.153,4.808,4.808 c0.042,2.268-1.536,4.254-3.763,4.703l0,0c-4.369,0.753-8.591,2.164-12.542,4.181c-1.672,0.732-2.926,2.299-2.299,1.881 c0.627-0.418,0.523-1.15,0.523-1.359c0-0.209,0,0,0,0c3.334,1.338,6.867,2.153,10.452,2.404h6.794h1.986 c1.432,0.136,2.822,0.564,4.076,1.254c4.912,3.031,6.438,9.469,3.407,14.382c-0.408,0.658-0.878,1.265-1.421,1.819 c-1.171,1.066-2.561,1.85-4.076,2.299h-1.463h-1.777c-4.16,0.909-8.226,2.247-12.124,3.972c-1.463,0.732-2.822,1.986-1.986,1.359 c0.867-1.014,1.317-2.32,1.254-3.658c0.115-0.449,0.115-0.909,0-1.359c0,0,0.732,0.732,1.986,1.568 c1.526,1.056,3.177,1.934,4.912,2.613c3.919,1.777,7.975,3.24,12.124,4.39h1.254c5.184,1.38,8.278,6.7,6.909,11.884 c0,0.01,0,0.021-0.01,0.031c-1.181,3.804-4.432,6.595-8.361,7.212c-4.494,0.47-8.821,1.975-12.647,4.39c-0.523,0,0,0-0.836-1.045 s1.463,1.881,4.39,3.763c3.773,2.393,6.95,5.602,9.302,9.407c2.571,4.505,3.177,9.877,1.672,14.841 c-1.432,4.149-4.045,7.776-7.525,10.452c-3.115,2.54-6.658,4.526-10.452,5.853c-2.383,1.045-5.153-0.042-6.198-2.425 c-0.031-0.063-0.052-0.125-0.073-0.188c-0.857-2.059-0.105-4.442,1.777-5.644L172.385,431.944z"></path><g><path style="fill:#444444;" d="M167.159,335.161c-3.773,1.986-6.616,5.362-7.943,9.407c-0.366,1.568-0.021,3.209,0.941,4.494 c1.212,1.484,2.749,2.665,4.494,3.449l0,0c1.181,0.721,1.557,2.268,0.836,3.449c-0.209,0.345-0.491,0.627-0.836,0.836 c-3.01,1.986-5.142,5.059-5.957,8.57c-0.418,1.86-0.418,3.784,0,5.644c0.429,2.028,1.087,3.993,1.986,5.853 c-3.407-2.989-5.383-7.285-5.435-11.81c0.052-2.404,0.658-4.766,1.777-6.898c1.223-2.111,2.853-3.961,4.808-5.435v4.285 c-2.623-1.024-4.923-2.717-6.689-4.912c-1.934-2.54-2.446-5.884-1.359-8.884c1.035-2.592,2.916-4.766,5.33-6.167 C161.526,335.6,164.348,334.941,167.159,335.161z"></path><path style="fill:#444444;" d="M172.594,434.452c5.644-3.24,11.079-8.257,10.452-13.901s-5.017-9.198-10.452-12.438 c-3.512-1.683-6.396-4.421-8.257-7.839c-1.275-3.93-0.617-8.236,1.777-11.601c4.421-5.613,10.964-9.135,18.082-9.72 c-6.041,2.216-11.215,6.323-14.737,11.706c-1.275,2.383-1.505,5.184-0.627,7.734c1.599,2.299,3.804,4.108,6.376,5.226 c3.167,1.641,6.083,3.71,8.675,6.167c2.676,2.801,4.076,6.585,3.867,10.452C186.641,427.941,180.349,433.846,172.594,434.452z"></path></g><path style="fill:#F7D2DF;" d="M182.837,169.71c0.052-5.184-2.874-9.94-7.525-12.229c2.341-7.065-1.495-14.695-8.56-17.036 c-2.749-0.909-5.717-0.909-8.476,0c-3.24-6.637-11.257-9.386-17.893-6.146c-2.676,1.306-4.839,3.47-6.146,6.146 c-7.065-2.341-14.695,1.495-17.036,8.56c-0.909,2.749-0.909,5.717,0,8.476c-6.637,3.24-9.386,11.257-6.146,17.893 c1.306,2.676,3.47,4.839,6.146,6.146c-2.906,6.794,0.251,14.653,7.044,17.559c3.177,1.359,6.752,1.432,9.992,0.209 c3.24,6.637,11.257,9.386,17.893,6.146c2.676-1.306,4.839-3.47,6.146-6.146c6.982,2.435,14.601-1.254,17.036-8.226 c0.993-2.853,0.993-5.957,0-8.811C180.067,179.921,183.004,175.009,182.837,169.71z"></path><g><circle style="fill:#F4B5C7;" cx="128.592" cy="162.393" r="8.466"></circle><circle style="fill:#F4B5C7;" cx="138.939" cy="152.046" r="8.466"></circle><circle style="fill:#F4B5C7;" cx="153.572" cy="152.046" r="8.466"></circle><circle style="fill:#F4B5C7;" cx="163.919" cy="162.393" r="8.466"></circle><circle style="fill:#F4B5C7;" cx="163.919" cy="177.026" r="8.466"></circle><circle style="fill:#F4B5C7;" cx="153.572" cy="187.373" r="8.466"></circle><circle style="fill:#F4B5C7;" cx="138.939" cy="187.373" r="8.466"></circle><circle style="fill:#F4B5C7;" cx="128.592" cy="177.026" r="8.466"></circle></g><g><path style="fill:#D17196;" d="M146.256,172.323h-22.053c-1.442,0-2.613-1.171-2.613-2.613s1.171-2.613,2.613-2.613h15.74 l-11.11-11.11c-1.024-1.024-1.024-2.676,0-3.7c1.024-1.024,2.676-1.024,3.7,0l15.573,15.573c0.742,0.742,0.972,1.871,0.564,2.843 C148.262,171.674,147.311,172.323,146.256,172.323z"></path><path style="fill:#D17196;" d="M146.256,194.386c-1.442,0-2.613-1.171-2.613-2.613v-15.688l-11.11,11.257 c-1.014,1.024-2.665,1.045-3.7,0.021c-1.024-1.014-1.035-2.665-0.021-3.7l15.573-15.782c0.742-0.753,1.871-0.972,2.843-0.585 c0.982,0.408,1.62,1.359,1.62,2.414v22.053C148.869,193.216,147.698,194.386,146.256,194.386z"></path><path style="fill:#D17196;" d="M161.829,187.791c-0.658,0-1.327-0.251-1.84-0.763l-15.573-15.469 c-0.753-0.742-0.972-1.871-0.575-2.843c0.397-0.972,1.359-1.62,2.414-1.62h22.053c1.442,0,2.613,1.171,2.613,2.613 s-1.171,2.613-2.613,2.613h-15.719l11.079,11.006c1.024,1.014,1.035,2.665,0.01,3.7 C163.167,187.54,162.498,187.791,161.829,187.791z"></path><path style="fill:#D17196;" d="M146.256,172.323c-0.334,0-0.669-0.063-0.993-0.199c-0.982-0.408-1.62-1.359-1.62-2.414v-22.053 c0-1.442,1.171-2.613,2.613-2.613s2.613,1.171,2.613,2.613v15.709l11.006-11.079c1.024-1.024,2.665-1.024,3.7-0.01 c1.024,1.014,1.035,2.665,0.01,3.7l-15.469,15.573C147.604,172.061,146.935,172.323,146.256,172.323z"></path></g><g><circle style="fill:#FFFFFF;" cx="146.256" cy="169.71" r="10.556"></circle><circle style="fill:#FFFFFF;" cx="146.256" cy="169.71" r="10.556"></circle></g><g><path style="fill:#333333;" d="M146.256,182.889c-7.264,0-13.169-5.905-13.169-13.169c0-7.264,5.905-13.169,13.169-13.169 s13.169,5.905,13.169,13.169C159.425,176.984,153.509,182.889,146.256,182.889z M146.256,161.777c-4.379,0-7.943,3.564-7.943,7.943 s3.564,7.943,7.943,7.943s7.943-3.564,7.943-7.943C154.189,165.33,150.635,161.777,146.256,161.777z"></path><path style="fill:#333333;" d="M146.287,210.189c-5.383,0-10.588-2.519-13.901-6.961c-5.299,0.794-10.744-0.92-14.695-4.808 l-0.021-0.021c-3.972-3.951-5.769-9.605-4.944-15.04c-2.184-1.641-3.982-3.794-5.195-6.261c-3.71-7.619-1.317-16.65,5.268-21.51 c-0.314-2.498-0.063-5.038,0.721-7.473c2.634-8.1,10.671-12.929,18.845-11.884c1.641-2.205,3.804-4.024,6.302-5.236 c4.139-2.028,8.842-2.31,13.211-0.826c3.355,1.15,6.208,3.261,8.278,6.052c2.602-0.376,5.309-0.125,7.839,0.721 c4.411,1.463,7.996,4.547,10.076,8.706c1.61,3.198,2.174,6.731,1.693,10.19c2.195,1.641,4.003,3.794,5.226,6.282 c3.7,7.588,1.338,16.587-5.195,21.468c0.408,2.759,0.146,5.602-0.773,8.257c-2.78,7.975-10.849,12.626-18.897,11.413 c-1.641,2.184-3.794,3.982-6.261,5.195C151.408,209.625,148.827,210.189,146.287,210.189z M136.243,193.947l1.516,3.104 c2.289,4.693,7.964,6.647,12.647,4.348c1.881-0.92,3.428-2.456,4.348-4.348l1.526-3.125l3.282,1.139 c2.383,0.826,4.954,0.7,7.222-0.418c2.278-1.097,3.982-3.021,4.818-5.404c0.7-2.007,0.7-4.212,0-6.219l-1.15-3.282l3.125-1.526 c4.682-2.289,6.637-7.964,4.348-12.657c-0.92-1.881-2.467-3.428-4.348-4.348l-3.073-1.505l1.077-3.261 c0.805-2.425,0.617-5.017-0.533-7.295c-1.15-2.278-3.115-3.982-5.539-4.787c-1.954-0.648-4.066-0.638-6.01,0l-3.25,1.077 l-1.505-3.073c-2.289-4.693-7.975-6.647-12.647-4.348c-1.881,0.92-3.428,2.456-4.348,4.348l-1.495,3.052l-3.24-1.045 c-5.006-1.62-10.42,1.129-12.051,6.135c-0.606,1.892-0.627,3.898-0.031,5.79l1.003,3.209l-3.031,1.484 c-4.682,2.289-6.637,7.964-4.348,12.647c0.92,1.881,2.467,3.428,4.358,4.348l3.125,1.526l-1.15,3.282 c-1.223,3.48-0.324,7.41,2.289,10.023c2.602,2.54,6.334,3.397,9.783,2.216L136.243,193.947z"></path></g><path style="fill:#F7D2DF;" d="M402.324,169.71c0.052-5.184-2.874-9.94-7.525-12.229c2.341-7.065-1.495-14.695-8.56-17.036 c-2.749-0.909-5.717-0.909-8.476,0c-3.24-6.637-11.257-9.386-17.893-6.146c-2.676,1.306-4.839,3.47-6.146,6.146 c-7.065-2.341-14.695,1.495-17.036,8.56c-0.909,2.749-0.909,5.717,0,8.476c-6.637,3.24-9.386,11.257-6.146,17.893 c1.306,2.676,3.47,4.839,6.146,6.146c-2.906,6.794,0.251,14.653,7.044,17.559c3.177,1.359,6.752,1.432,9.992,0.209 c3.24,6.637,11.257,9.386,17.893,6.146c2.676-1.306,4.839-3.47,6.146-6.146c6.982,2.435,14.601-1.254,17.036-8.226 c0.993-2.853,0.993-5.957,0-8.811C399.554,179.921,402.491,175.009,402.324,169.71z"></path><g><circle style="fill:#F4B5C7;" cx="348.037" cy="162.393" r="8.466"></circle><circle style="fill:#F4B5C7;" cx="358.384" cy="152.046" r="8.466"></circle><circle style="fill:#F4B5C7;" cx="373.059" cy="152.046" r="8.466"></circle><circle style="fill:#F4B5C7;" cx="383.406" cy="162.393" r="8.466"></circle><circle style="fill:#F4B5C7;" cx="383.406" cy="177.026" r="8.466"></circle><circle style="fill:#F4B5C7;" cx="373.059" cy="187.373" r="8.466"></circle><circle style="fill:#F4B5C7;" cx="358.384" cy="187.373" r="8.466"></circle><circle style="fill:#F4B5C7;" cx="348.037" cy="177.026" r="8.466"></circle></g><g><path style="fill:#D17196;" d="M365.742,172.323h-22.053c-1.442,0-2.613-1.171-2.613-2.613s1.171-2.613,2.613-2.613h15.751 l-11.11-11.11c-1.024-1.024-1.024-2.676,0-3.7c1.024-1.024,2.676-1.024,3.7,0l15.573,15.573c0.742,0.742,0.972,1.871,0.575,2.843 C367.749,171.685,366.798,172.323,365.742,172.323z"></path><path style="fill:#D17196;" d="M365.742,194.386c-1.442,0-2.613-1.171-2.613-2.613v-15.688l-11.11,11.257 c-1.014,1.024-2.665,1.045-3.7,0.021c-1.024-1.014-1.045-2.665-0.021-3.7l15.573-15.782c0.742-0.753,1.902-0.972,2.843-0.585 c0.982,0.408,1.62,1.359,1.62,2.414v22.053C368.355,193.216,367.174,194.386,365.742,194.386z"></path><path style="fill:#D17196;" d="M381.316,187.791c-0.658,0-1.327-0.251-1.84-0.763l-15.573-15.469 c-0.753-0.742-0.982-1.871-0.585-2.843c0.408-0.982,1.359-1.62,2.414-1.62h22.053c1.442,0,2.613,1.171,2.613,2.613 s-1.171,2.613-2.613,2.613h-15.709l11.079,11.006c1.035,1.014,1.035,2.665,0.021,3.7 C382.664,187.54,381.985,187.791,381.316,187.791z"></path><path style="fill:#D17196;" d="M365.742,172.323c-0.334,0-0.669-0.063-1.003-0.199c-0.972-0.408-1.61-1.359-1.61-2.414v-22.053 c0-1.442,1.171-2.613,2.613-2.613s2.613,1.171,2.613,2.613v15.709l11.006-11.079c1.024-1.014,2.686-1.024,3.7-0.01 c1.035,1.014,1.035,2.665,0.021,3.7l-15.469,15.573C367.101,172.061,366.422,172.323,365.742,172.323z"></path></g><g><circle style="fill:#FFFFFF;" cx="365.742" cy="169.71" r="10.556"></circle><circle style="fill:#FFFFFF;" cx="365.742" cy="169.71" r="10.556"></circle></g><g><path style="fill:#333333;" d="M365.742,182.889c-7.254,0-13.169-5.905-13.169-13.169c0-7.264,5.905-13.169,13.169-13.169 c7.264,0,13.169,5.905,13.169,13.169C378.912,176.984,372.996,182.889,365.742,182.889z M365.742,161.777 c-4.379,0-7.943,3.564-7.943,7.943s3.564,7.943,7.943,7.943s7.943-3.564,7.943-7.943 C373.675,165.33,370.122,161.777,365.742,161.777z"></path><path style="fill:#333333;" d="M365.774,210.189c-5.383,0-10.598-2.519-13.901-6.961c-5.309,0.794-10.734-0.92-14.685-4.808 l-0.021-0.01c-3.982-3.961-5.78-9.605-4.954-15.051c-2.195-1.641-3.993-3.794-5.195-6.261c-3.721-7.609-1.327-16.65,5.268-21.51 c-0.303-2.498-0.073-5.027,0.721-7.473c2.623-8.111,10.64-12.939,18.845-11.884c1.641-2.205,3.804-4.024,6.292-5.236 c7.619-3.71,16.639-1.327,21.499,5.226c2.613-0.355,5.309-0.115,7.839,0.721c8.079,2.676,12.887,10.744,11.769,18.897 c2.205,1.641,4.013,3.804,5.226,6.292c3.7,7.588,1.338,16.587-5.195,21.468c0.408,2.759,0.157,5.592-0.763,8.246 c-2.801,7.975-10.912,12.626-18.907,11.424c-1.641,2.184-3.784,3.982-6.261,5.195C370.906,209.625,368.324,210.189,365.774,210.189 z M355.719,193.947l1.526,3.104c2.289,4.682,7.975,6.647,12.657,4.348c1.892-0.92,3.428-2.456,4.348-4.348l1.526-3.125l3.271,1.15 c4.944,1.725,10.326-0.888,12.051-5.822c0.69-2.007,0.69-4.212-0.01-6.229l-1.129-3.282l3.115-1.526 c4.682-2.289,6.637-7.975,4.348-12.657c-0.92-1.881-2.456-3.428-4.348-4.348l-3.073-1.505l1.077-3.25 c1.662-5.006-1.066-10.431-6.072-12.082c-1.954-0.648-4.076-0.648-5.999,0l-3.25,1.087l-1.516-3.083 c-2.299-4.682-7.975-6.647-12.657-4.348c-1.892,0.92-3.428,2.456-4.348,4.348l-1.495,3.052l-3.24-1.045 c-5.017-1.63-10.42,1.118-12.051,6.135c-0.617,1.892-0.627,3.899-0.031,5.79l0.993,3.209l-3.01,1.474 c-2.278,1.108-3.972,3.041-4.797,5.435c-0.815,2.393-0.658,4.954,0.449,7.222c0.92,1.881,2.456,3.428,4.348,4.348l3.125,1.526 l-1.15,3.282c-1.212,3.48-0.303,7.421,2.31,10.023c2.582,2.529,6.334,3.397,9.772,2.216L355.719,193.947z"></path><path style="fill:#333333;" d="M275.742,317.288h-41.807c-2.885,0-5.226-2.341-5.226-5.226s2.341-5.226,5.226-5.226h41.807 c2.885,0,5.226,2.341,5.226,5.226S278.638,317.288,275.742,317.288z"></path><path style="fill:#333333;" d="M262.155,334.231h-13.587c-2.885,0-5.226-2.341-5.226-5.226s2.341-5.226,5.226-5.226h13.587 c2.885,0,5.226,2.341,5.226,5.226S265.05,334.231,262.155,334.231z"></path><path style="fill:#333333;" d="M254.923,290.647c-3.752,0-7.557-0.617-11.173-1.86l-11.173-3.031 c-2.791-0.753-4.432-3.637-3.669-6.417c0.763-2.78,3.658-4.411,6.417-3.669l11.497,3.135c5.289,1.819,10.765,1.798,15.74,0.105 l11.81-3.24c2.812-0.742,5.665,0.899,6.417,3.669c0.753,2.791-0.888,5.665-3.669,6.417l-11.497,3.135 C262.239,290.051,258.602,290.647,254.923,290.647z"></path></g></svg>