<!-- icon666.com - MILLIONS vector ICONS FREE --><svg version="1.1" id="Capa_1" xmlns="http://www.w3.org/2000/svg" xmlns:xlink="http://www.w3.org/1999/xlink" x="0px" y="0px" viewBox="0 0 512.014 512.014" style="enable-background:new 0 0 512.014 512.014;" xml:space="preserve"><path style="fill:#333333;" d="M145.574,375.237h-8.828v-13.241h-8.828c-4.864,0-8.828-3.955-8.828-8.828v-8.828 c0-4.873,3.964-8.828,8.828-8.828h8.828v-8.828h-8.828c-4.864,0-8.828-3.955-8.828-8.828v-8.828c0-4.873,3.964-8.828,8.828-8.828 h8.828v-8.828h-8.828c-4.864,0-8.828-3.955-8.828-8.828v-8.828c0-4.873,3.964-8.828,8.828-8.828h8.828v-13.241h8.828v13.241 c0,4.873-3.964,8.828-8.828,8.828h-8.828v8.828h8.828c4.864,0,8.828,3.955,8.828,8.828v8.828c0,4.873-3.964,8.828-8.828,8.828 h-8.828v8.828h8.828c4.864,0,8.828,3.955,8.828,8.828v8.828c0,4.873-3.964,8.828-8.828,8.828h-8.828v8.828h8.828 c4.864,0,8.828,3.955,8.828,8.828V375.237z"></path><path style="fill:#FC9500;" d="M496.462,407.281c-5.773-22.343-23.746-39.459-46.345-44.138 c-127.453-32.362-260.961-32.362-388.414,0c-22.599,4.679-40.572,21.795-46.345,44.138l-6.621,20.921 c77.912,34.33,162.03,52.356,247.172,52.966c85.142-0.609,169.26-18.635,247.172-52.966L496.462,407.281z"></path><path style="fill:#F97C00;" d="M450.117,389.626c-81.92-19.95-132.414-32.132-194.207-32.132s-111.492,12.094-194.207,32.132 c-21.451,5.473-42.726,19.597-48.022,40.783c76.615,32.689,158.932,49.938,242.229,50.759 c83.297-0.821,165.614-18.07,242.229-50.759C492.842,409.223,471.568,395.099,450.117,389.626z"></path><g><path style="fill:#9B7368;" d="M255.91,428.203L255.91,428.203L255.91,428.203z"></path><path style="fill:#9B7368;" d="M326.266,313.444c0,52.966-26.483,72.916-70.621,114.759h0.441 c-44.138-41.843-70.621-61.793-70.621-114.759v-45.197h141.241L326.266,313.444z"></path></g><path style="fill:#8C665D;" d="M185.024,304.263l99.046,97.103c26.483-26.483,42.196-47.404,42.196-87.658v-45.462H185.024V304.263z "></path><path style="fill:#333333;" d="M256.069,489.996c-86.978-0.609-171.317-18.688-250.801-53.716 c-4.122-1.818-6.215-6.444-4.855-10.743l6.621-20.913c7.459-24.549,27.63-43.767,52.612-50.035l97.201-23.252l4.105,17.17 l-97.103,23.225c-18.909,4.74-34.251,19.359-39.945,38.109l-4.246,13.427c75.132,31.982,154.624,48.49,236.42,49.073 c81.664-0.574,161.148-17.09,236.288-49.073l-4.22-13.321c-5.72-18.856-21.071-33.474-40.077-38.241l-97.006-23.199l4.105-17.17 l97.103,23.225c25.088,6.294,45.259,25.503,52.745,50.167l6.585,20.807c1.359,4.29-0.733,8.925-4.855,10.743 C427.253,471.299,342.915,489.378,256.069,489.996z"></path><path style="fill:#B5E25D;" d="M255.91,481.168c59.789-0.662,119.199-9.569,176.552-26.483V348.754 c-14.036-2.56-36.458-10.681-79.448-17.655c0,79.448-58.615,114.759-97.103,114.759c-51.641,0-97.103-35.31-97.103-114.759 c-40.254,6.444-66.913,15.537-79.448,17.655v105.931C136.693,471.661,196.121,480.577,255.91,481.168z"></path><path style="fill:#87C947;" d="M432.462,454.244v-68.943c-31.779-7.857-58.792-13.948-83.862-18.626 c-14.389,54.378-60.469,79.448-92.601,79.448c-43.167,0-81.832-24.717-93.484-79.448c-24.806,4.679-51.553,10.946-83.068,18.538 v69.032c57.291,17.178,116.745,26.094,176.552,26.483C315.779,480.312,375.197,471.396,432.462,454.244z"></path><path style="fill:#E7F2B8;" d="M114.669,340.103V463.69c16.243,3.796,34.074,7.327,52.966,10.152v-88.982 c-6.118-17.249-9.101-35.46-8.828-53.76C141.504,333.836,126.851,337.102,114.669,340.103z"></path><path style="fill:#D5ED98;" d="M114.669,463.69c17.655,4.237,35.31,7.768,52.966,10.417v-89.512 c-2.11-5.764-3.849-11.661-5.208-17.655h-1.412c-11.564,2.119-23.57,4.679-36.281,7.592l-3.972,0.883l-6.091,2.03V463.69z"></path><path style="fill:#E7F2B8;" d="M335.358,475.43c19.068-2.648,37.076-6.003,53.672-9.71V338.073 c-10.063-2.295-21.892-4.679-36.017-6.974c0.521,23.384-5.597,46.433-17.655,66.472L335.358,475.43L335.358,475.43z"></path><path style="fill:#D5ED98;" d="M335.358,475.342c17.655-2.472,35.31-5.65,53.672-9.71v-90.483l0,0l-2.825-0.618l-15.713-3.443 l-4.237-0.883l-17.655-3.443c-2.878,10.823-7.3,21.169-13.153,30.72L335.358,475.342z"></path><g><path style="fill:#333333;" d="M255.919,489.996c-0.026,0-0.053,0-0.088,0c-60.628-0.591-120.832-9.631-178.97-26.845 c-3.743-1.112-6.321-4.555-6.321-8.466V348.754c0-4.308,3.116-7.989,7.362-8.704c3.981-0.671,9.931-2.216,17.452-4.175 c14.945-3.893,35.416-9.225,62.067-13.489c2.542-0.433,5.146,0.318,7.124,2.004c1.969,1.668,3.098,4.131,3.098,6.718 c0,78.107,45.603,105.931,88.276,105.931c35.602,0,88.276-33.66,88.276-105.931c0-2.586,1.139-5.041,3.107-6.727 c1.977-1.686,4.582-2.419,7.142-1.995c28.875,4.687,48.419,9.825,62.694,13.586c6.991,1.845,12.518,3.293,16.931,4.105 c4.193,0.759,7.239,4.414,7.239,8.678v105.931c0,3.911-2.578,7.362-6.329,8.466c-58.147,17.143-118.351,26.183-178.953,26.845 C255.981,489.996,255.945,489.996,255.919,489.996z M88.195,448.056c54.572,15.554,110.963,23.72,167.724,24.285 c56.744-0.627,113.134-8.801,167.724-24.294v-92.178c-3.284-0.794-6.903-1.748-11.008-2.825 c-12.217-3.213-28.398-7.477-51.112-11.546c-4.961,77.144-64.68,113.178-105.604,113.178c-46.963,0-101.491-29.89-105.675-113.17 c-21.063,3.796-37.782,8.148-50.441,11.441c-4.37,1.139-8.227,2.145-11.608,2.957L88.195,448.056L88.195,448.056z"></path><rect x="247.091" y="428.229" style="fill:#333333;" width="17.655" height="17.655"></rect><rect x="176.471" y="295.789" style="fill:#333333;" width="17.655" height="26.483"></rect><rect x="317.712" y="295.789" style="fill:#333333;" width="17.655" height="26.483"></rect></g><g><path style="fill:#FFA022;" d="M158.807,331.099v88.276l61.793-26.483c-26.483-26.483-35.31-44.138-35.31-79.448L158.807,331.099z"></path><path style="fill:#FFA022;" d="M353.013,331.099v88.276l-61.793-26.483c26.483-26.483,35.31-44.138,35.31-79.448L353.013,331.099z"></path></g><path style="fill:#333333;" d="M255.919,437.03c-2.189,0-4.37-0.812-6.073-2.419l-10.743-10.116 c-7.768-7.283-14.989-14.062-21.566-20.683l-55.234,23.676c-2.728,1.174-5.87,0.9-8.333-0.741c-2.481-1.642-3.972-4.405-3.972-7.371 v-88.276c0-2.948,1.474-5.703,3.928-7.345l26.483-17.655c2.71-1.801,6.188-1.977,9.057-0.441c2.869,1.536,4.661,4.529,4.661,7.786 c0,44.685,20.259,63.682,57.053,98.172l4.74,4.467l4.74-4.467c36.785-34.489,57.053-53.495,57.053-98.172 c0-3.257,1.792-6.25,4.661-7.786c2.86-1.536,6.356-1.368,9.057,0.441l26.483,17.655c2.454,1.642,3.928,4.396,3.928,7.345v88.276 c0,2.966-1.492,5.729-3.964,7.371c-2.489,1.633-5.632,1.907-8.333,0.741l-55.243-23.676c-6.577,6.621-13.798,13.4-21.566,20.683 l-10.743,10.116C260.288,436.218,258.099,437.03,255.919,437.03z M307.057,390.068l37.129,15.916v-70.162l-9.684-6.444 C331.686,354.651,321.879,372.704,307.057,390.068z M167.643,335.822v70.162l37.129-15.916 c-14.822-17.364-24.62-35.416-27.454-60.698L167.643,335.822z"></path><path style="fill:#9B7368;" d="M352.307,163.375v-23.57c0-54.378-30.897-91.189-96.397-91.189s-96.486,36.811-96.486,91.189v23.57 c-17.655,0-21.539,16.066-17.655,35.31c3.354,15.713,17.655,35.31,26.483,35.31v25.688c0,20.392,28.69,51.818,57.997,67.266 c9.481,3.46,19.597,4.846,29.661,4.061c10.09,0.724,20.224-0.662,29.749-4.061c29.219-15.448,57.909-46.874,57.909-67.266v-25.512 c8.828,0,23.04-19.597,26.483-35.31C373.935,179.441,369.874,163.375,352.307,163.375z"></path><path style="fill:#8C665D;" d="M352.395,163.375v-23.57c0-54.378-30.897-91.189-96.486-91.189 c-5.394,0.018-10.787,0.309-16.154,0.883c-13.453,62.773-20.551,126.746-21.186,190.941c0,20.833,1.766,52.171,4.326,84.657 c1.059,0.618,2.207,1.324,3.354,1.854c9.481,3.46,19.597,4.846,29.661,4.061c10.09,0.724,20.224-0.662,29.749-4.061 c29.308-15.448,57.997-46.874,57.997-67.266v-25.512c8.828,0,22.952-19.597,26.483-35.31 C373.935,179.441,369.874,163.375,352.395,163.375z"></path><g><path style="fill:#333333;" d="M250.349,340.095c-9.251,0-18.353-1.615-27.136-4.811c-0.371-0.141-0.742-0.3-1.103-0.494 c-30.464-16.049-63.347-49.037-63.347-74.319v-20.127c-12.412-6.841-23.375-26.156-26.289-39.812 c-3.231-16.013-1.421-28.716,5.217-36.829c2.401-2.94,6.285-6.268,12.244-8.007v-18.803c0-61.74,38.621-97.148,105.975-97.148 c67.346,0,105.975,35.407,105.975,97.148v18.812c5.906,1.721,9.754,5.014,12.147,7.91c6.621,8.051,8.474,20.762,5.341,36.776 c-3.099,13.771-14.089,32.998-26.315,39.892v20.198c0,25.238-32.83,58.236-63.25,74.319c-0.38,0.194-0.768,0.371-1.174,0.512 c-10.549,3.769-21.539,5.305-32.697,4.599C254.074,340.033,252.211,340.095,250.349,340.095z M229.851,318.811 c8.183,2.904,16.728,4.043,25.379,3.354c0.441-0.035,0.883-0.035,1.324,0c8.695,0.583,17.284-0.512,25.538-3.363 c27.445-14.716,53.23-42.92,53.23-58.324v-26.483c0-4.899,3.972-8.872,8.872-8.872c3.725-1.086,14.804-14.954,17.832-28.39 c1.942-9.931,1.324-18.194-1.677-21.848c-0.936-1.13-2.719-2.648-7.318-2.648c-4.899,0-8.872-3.972-8.872-8.872v-26.483 c0-51.95-30.508-79.404-88.232-79.404s-88.232,27.454-88.232,79.404v26.483c0,4.899-3.972,8.872-8.872,8.872 c-4.643,0-6.435,1.536-7.38,2.692c-3.019,3.69-3.61,11.917-1.58,21.99c2.781,13.021,14.08,27.136,18.22,28.239 c4.899,0,8.439,3.928,8.439,8.828v26.483C176.506,275.918,202.353,304.131,229.851,318.811z"></path><path style="fill:#333333;" d="M340.213,198.774c0.459-5.517,1.739-10.929,3.796-16.066c1.88-4.829,3.822-9.596,5.826-14.301 l6.356-13.859c2.074-4.078,3.505-8.457,4.237-12.977c2.604-18.679-1.095-37.685-10.505-54.025 c-9.225-16.137-23.27-28.981-40.165-36.723c-17.329-7.521-36.114-11.079-54.996-10.417c-18.9-0.256-37.667,3.284-55.172,10.417 c-35.354,15.325-55.42,53.045-48.375,90.924c0.953,4.529,2.463,8.916,4.502,13.065l6.356,13.859 c2.03,4.679,3.972,9.357,5.738,14.301c2.225,5.014,3.655,10.346,4.237,15.801c-0.15,2.233-2.083,3.928-4.317,3.778 c-1.827-0.124-3.354-1.457-3.716-3.249v-0.53c-0.697-4.467-2.039-8.801-3.972-12.888c-1.854-4.502-4.061-8.828-6.268-13.418 l-6.886-13.241c-2.639-4.793-4.687-9.896-6.091-15.183c-10.47-43.997,11.238-89.326,52.083-108.756 c19.456-9.137,40.748-13.665,62.234-13.241c21.389-0.291,42.549,4.423,61.793,13.771c19.641,9.746,35.619,25.565,45.55,45.109 c10.01,19.368,13.127,41.569,8.828,62.941c-1.28,5.341-3.302,10.487-6.003,15.272l-6.885,13.33 c-2.207,4.414-4.326,8.828-6.179,13.418c-1.81,4.105-3.028,8.439-3.619,12.888v0.53c-0.141,2.189-2.03,3.849-4.22,3.708 c-0.009,0-0.009,0-0.018,0c-2.242,0.053-4.105-1.721-4.149-3.964C340.213,198.95,340.213,198.862,340.213,198.774z"></path><path style="fill:#333333;" d="M163.662,207.601l-0.441-21.628c-0.274-3.849-0.274-7.715,0-11.564 c0.424-3.972,1.315-7.883,2.648-11.652c2.145-6.374,3.478-12.985,3.972-19.686c0-3.469,0-6.912,0-10.328v-5.297 c0.009-2.242,0.185-4.493,0.53-6.709c0.865-5.005,3.231-9.622,6.797-13.241c3.513-3.372,7.83-5.8,12.535-7.062 c7.821-2.101,15.934-2.904,24.011-2.383c15.007,0.53,29.837,3.09,42.549,3.354c12.712,0.265,27.454-3.266,42.549-3.708 c8.139-0.494,16.313,0.344,24.188,2.472c4.661,1.386,8.907,3.902,12.359,7.327c3.566,3.619,5.932,8.236,6.797,13.241 c0.344,2.251,0.521,4.52,0.53,6.797v5.297c0,3.469,0,6.912,0,10.328c0.415,6.744,1.757,13.391,3.972,19.774 c1.227,3.734,2.083,7.574,2.56,11.476c0.265,3.822,0.265,7.654,0,11.476l-0.618,21.716c-0.097,2.242-1.986,3.981-4.228,3.884 h-0.009c-2.092-0.132-3.752-1.792-3.884-3.884l-0.883-21.628c0.185-6.603-1.05-13.162-3.619-19.244 c-2.957-7.115-4.943-14.601-5.914-22.246c-0.53-3.796-0.794-7.503-1.059-11.299v-5.473c-0.062-1.342-0.274-2.675-0.618-3.972 c-1.033-4.67-4.882-8.201-9.622-8.828c-6.162-1.183-12.473-1.421-18.714-0.706c-13.771,1.059-27.366,4.502-43.52,4.679 c-16.154,0.177-29.661-4.061-43.432-4.943c-6.303-0.733-12.676-0.468-18.891,0.794c-4.714,0.697-8.519,4.193-9.622,8.828 c-0.318,1.298-0.494,2.631-0.53,3.972v5.473c0,3.796-0.53,7.503-1.059,11.299c-0.98,7.636-2.94,15.113-5.826,22.246 c-2.684,6.047-3.946,12.632-3.708,19.244l-1.412,21.804c-0.097,2.242-1.986,3.981-4.228,3.884h-0.009 c-2.189,0.097-4.052-1.598-4.149-3.787C163.662,207.663,163.662,207.628,163.662,207.601z"></path><path style="fill:#333333;" d="M344.186,198.774c0-9.269,14.301-33.986,17.655-44.138C379.496,101.67,353.013,31.05,255.91,31.05 S132.324,101.67,149.979,154.636c3.354,10.152,17.655,34.869,17.655,44.138v-17.655c0-17.655,8.828-17.655,8.828-52.966 s52.966-17.655,79.448-17.655s79.448-17.655,79.448,17.655s8.828,35.31,8.828,52.966V198.774z"></path></g><path style="fill:#B0AFB5;" d="M167.634,163.375v35.31c0,22.069,23.481,33.103,46.257,33.103 c11.564-0.794,15.36-2.737,31.073-13.241c6.691-4.414,15.378-4.414,22.069,0c10.593,7.062,11.034,13.241,26.483,13.241 c22.775,0,50.67-11.034,50.67-33.103v-35.31H167.634z"></path><rect x="167.634" y="163.375" style="fill:#B1D2E5;" width="176.552" height="15.448"></rect><path style="fill:#9F9FA3;" d="M293.516,236.203c-12.579,0-16.967-3.928-22.06-8.483c-1.969-1.766-4.008-3.593-6.877-5.5 c-5.199-3.425-11.953-3.443-17.187,0.009c-16.022,10.708-20.648,13.091-33.201,13.965c-0.009,0-0.018,0-0.026,0 c-25.468,0-50.944-12.888-50.944-37.508v-39.724H348.6v39.724C348.608,223.05,320.228,236.203,293.516,236.203z M256.007,210.815 c4.687,0,9.375,1.351,13.453,4.043c3.407,2.269,5.782,4.405,7.892,6.276c4.493,4.017,6.956,6.232,16.163,6.232 c19.209,0,46.257-8.898,46.257-28.69V167.78H172.048v30.897c0,18.838,21.045,28.69,41.843,28.69 c9.922-0.697,12.888-1.977,28.619-12.5C246.615,212.165,251.32,210.815,256.007,210.815z"></path><rect x="158.815" y="156.754" style="fill:#333333;" width="194.207" height="13.241"></rect><path style="fill:#FC9500;" d="M114.669,172.203v61.793c-0.768,8.986,5.906,16.887,14.892,17.655c0.918,0.079,1.845,0.079,2.763,0 h26.483v-97.103h-26.483c-8.986-0.768-16.887,5.906-17.655,14.892C114.589,170.358,114.589,171.285,114.669,172.203z"></path><path style="fill:#F97C00;" d="M158.807,172.203h-17.655c-4.873,0-8.828,3.955-8.828,8.828v70.621h26.483V172.203z"></path><path style="fill:#333333;" d="M158.815,260.479h-26.483c-14.46-1.236-25.256-12.041-26.447-25.724l-0.035-62.561 c0-0.256,0.009-0.512,0.035-0.768c1.192-13.683,11.997-24.488,25.679-25.679l27.251-0.035c4.873,0,8.828,3.955,8.828,8.828v97.103 C167.643,256.524,163.688,260.479,158.815,260.479z M123.505,172.644v61.352c0.415,4.361,4.467,8.413,9.596,8.863l16.887-0.018 v-79.457h-17.655C128.06,163.781,124.088,167.665,123.505,172.644z"></path><path style="fill:#FC9500;" d="M397.151,172.203v61.793c0.768,8.986-5.906,16.887-14.892,17.655c-0.918,0.079-1.845,0.079-2.763,0 h-26.483v-97.103h26.483c8.987-0.768,16.887,5.906,17.655,14.892C397.231,170.358,397.231,171.285,397.151,172.203z"></path><path style="fill:#F97C00;" d="M353.013,172.203h17.655c4.873,0,8.828,3.955,8.828,8.828v70.621h-26.483V172.203z"></path><g><path style="fill:#333333;" d="M353.022,260.479c-4.882,0-8.828-3.955-8.828-8.828v-97.103c0-4.873,3.946-8.828,8.828-8.828h26.483 c14.46,1.227,25.256,12.032,26.447,25.715c0.026,0.256,0.035,0.512,0.035,0.768v61.793c-1.227,14.451-12.023,25.247-25.715,26.456 L353.022,260.479z M361.85,242.823h17.655c4.361-0.415,8.413-4.467,8.863-9.596l-0.035-60.584 c-0.583-4.979-4.573-8.863-9.596-9.304l-16.887,0.018V242.823z"></path><rect x="138.953" y="154.548" style="fill:#333333;" width="4.414" height="97.103"></rect><rect x="368.471" y="154.548" style="fill:#333333;" width="4.414" height="97.103"></rect></g><g><circle style="fill:#9AA2B2;" cx="215.391" cy="202.923" r="8.828"></circle><circle style="fill:#9AA2B2;" cx="296.429" cy="202.923" r="8.828"></circle></g><g><path style="fill:#333333;" d="M300.057,284.754v-13.241h57.379c3.381-0.212,6.409-3.24,6.629-7.018l-0.009-21.672h13.241v22.069 c-0.644,10.849-9.013,19.218-19.465,19.853L300.057,284.754z"></path><rect x="291.22" y="273.746" style="fill:#333333;" width="17.655" height="8.828"></rect><path style="fill:#333333;" d="M308.884,289.168h-17.655c-3.655,0-6.621-2.966-6.621-6.621v-8.828c0-3.655,2.966-6.621,6.621-6.621 h17.655c3.655,0,6.621,2.966,6.621,6.621v8.828C315.505,286.202,312.539,289.168,308.884,289.168z"></path><path style="fill:#333333;" d="M273.574,282.548h-35.31c-2.436,0-4.414-1.977-4.414-4.414s1.977-4.414,4.414-4.414h35.31 c2.436,0,4.414,1.977,4.414,4.414S276.01,282.548,273.574,282.548z"></path><path style="fill:#333333;" d="M255.972,251.218c-3.178,0-6.391-0.521-9.446-1.571l-9.428-2.56 c-2.357-0.644-3.743-3.072-3.098-5.42c0.636-2.357,3.09-3.752,5.42-3.098l9.71,2.648c4.476,1.527,9.101,1.527,13.294,0.088 l9.984-2.737c2.33-0.644,4.785,0.742,5.42,3.098c0.636,2.348-0.75,4.776-3.098,5.42l-9.719,2.648 C262.16,250.715,259.088,251.218,255.972,251.218z"></path><path style="fill:#333333;" d="M260.333,300.203h-8.828c-2.436,0-4.414-1.977-4.414-4.414s1.977-4.414,4.414-4.414h8.828 c2.436,0,4.414,1.977,4.414,4.414S262.769,300.203,260.333,300.203z"></path></g></svg>