<!-- icon666.com - MILLIONS vector ICONS FREE --><svg version="1.1" id="Capa_1" xmlns="http://www.w3.org/2000/svg" xmlns:xlink="http://www.w3.org/1999/xlink" x="0px" y="0px" viewBox="0 0 511.999 511.999" style="enable-background:new 0 0 511.999 511.999;" xml:space="preserve"><path style="fill:#A08470;" d="M502.82,407.651c-4.507-22.592-21.609-40.565-43.948-46.197l-45.916-11.432 c-10.308-2.624-20.709-4.873-31.11-6.934v-16.961c-0.047-21.459-17.429-38.841-38.888-38.888h-173.45 c-21.431,0.103-38.785,17.457-38.888,38.888v17.148c-10.214,1.968-20.334,4.217-30.454,6.747L54.25,361.454 c-22.311,5.669-39.394,23.633-43.948,46.197l-3.28,19.678l1.031,0.656c78.301,34.493,162.945,52.241,248.508,52.101 c85.516,0.122,170.123-17.589,248.414-52.007l0,0L502.82,407.651z"></path><path style="fill:#846D59;" d="M458.872,388.442l-45.916-11.526c-10.308-2.53-20.709-4.779-31.11-6.841v-17.617 c-0.047-21.459-17.429-38.841-38.888-38.888h-173.45c-21.431,0.103-38.785,17.457-38.888,38.888v17.71 c-10.214,2.062-20.334,4.217-30.454,6.747L54.25,388.442c-20.559,5.191-36.808,20.934-42.636,41.324 c77.307,33.519,160.687,50.742,244.947,50.601c84.354,0.178,167.837-17.045,245.228-50.601 C495.905,409.31,479.544,393.549,458.872,388.442z"></path><path style="fill:#333333;" d="M389.811,385.546h-14.056v-60.909c0-19.781-18.104-30.454-35.14-30.454H171.944 c-17.036,0-35.14,10.673-35.14,30.454v60.909h-14.056v-60.909c0-25.376,21.149-44.51,49.196-44.51h168.671 c28.046,0,49.196,19.135,49.196,44.51V385.546z"></path><path style="fill:#493223;" d="M344.363,183.788c-3.879,0-7.028-3.149-7.028-7.028v-28.112c0.056-3.598-1.049-7.065-3.13-9.886 c-3.936-5.201-6.11-11.479-6.241-18.095v-18.882c0-18.685-8.771-21.084-16.399-21.084H199.119c-4.535,0-16.586,0-16.586,21.084 v18.741c0.019,6.541-2.146,13.044-6.1,18.282c-1.987,2.746-3.111,6.26-3.083,9.774v28.159c0,3.879-3.149,7.028-7.028,7.028 s-7.028-3.13-7.028-7.009v-28.112c-0.047-6.438,2.024-12.913,5.829-18.17c2.202-2.924,3.364-6.409,3.355-9.923v-18.76 c0-22.33,11.17-35.14,30.642-35.14h112.447c19.35,0,30.454,12.81,30.454,35.14v18.741c0.075,3.486,1.265,6.925,3.448,9.82 c3.945,5.341,6.035,11.854,5.922,18.404v27.999C351.391,180.639,348.243,183.788,344.363,183.788z"></path><path style="fill:#D1D8DB;" d="M255.343,385.068c-35.421,0-64.845-13.494-70.748-31.11h-6.466 c1.499,44.323,7.778,86.303,26.238,123.879c16.867,1.499,34.015,2.249,51.257,2.249s34.015-0.75,50.695-2.155 c18.741-37.482,24.738-79.65,26.331-124.067h-6.466C320.281,371.575,290.857,385.068,255.343,385.068z"></path><path style="fill:#333333;" d="M255.624,487.123c-17.429,0-34.887-0.768-51.876-2.277c-2.446-0.216-4.601-1.696-5.688-3.898 c-16.605-33.8-25.169-74.075-26.95-126.737c-0.066-1.902,0.647-3.748,1.968-5.126c1.321-1.368,3.149-2.146,5.051-2.146h6.466 c3.017,0,5.707,1.93,6.662,4.798c4.339,12.941,29.489,26.322,64.086,26.322c34.662,0,59.85-13.428,64.17-26.397 c0.965-2.867,3.645-4.807,6.672-4.807h6.466c1.902,0,3.729,0.778,5.06,2.146c1.321,1.368,2.033,3.224,1.968,5.135 c-1.949,54.246-10.298,93.406-27.072,126.943c-1.096,2.193-3.261,3.664-5.688,3.861 C289.517,486.402,272.735,487.123,255.624,487.123z M208.968,471.175c30.398,2.493,61.349,2.53,92.788,0.075 c13.147-27.662,20.447-59.831,23.117-102.289c-13.306,14.093-39.366,23.145-69.53,23.145c-30.117,0-56.158-9.043-69.455-23.099 C188.502,410.425,195.952,443.288,208.968,471.175z"></path><path style="fill:#9C7367;" d="M185.438,297.359v61.565c40.35,34.924,100.209,34.924,140.559,0v-61.565L185.438,297.359 L185.438,297.359z"></path><path style="fill:#956A5E;" d="M185.438,297.359v9.371c16.492,13.868,54.631,49.196,84.335,77.307 c20.803-2.736,40.34-11.498,56.224-25.207v-61.471L185.438,297.359L185.438,297.359z"></path><path style="fill:#333333;" d="M255.718,391.956c-26.762,0-53.534-9.239-74.88-27.709c-1.546-1.34-2.427-3.28-2.427-5.313v-61.565 c0-3.879,3.149-7.028,7.028-7.028h140.559c3.879,0,7.028,3.149,7.028,7.028v61.565c0,2.043-0.89,3.982-2.427,5.313 C309.252,382.716,282.489,391.956,255.718,391.956z M192.466,355.654c36.602,29.686,89.902,29.686,126.503,0v-51.267H192.466 V355.654z"></path><path style="fill:#9C7367;" d="M353.734,153.708v-23.239c0-59.503-26.05-98.579-98.298-98.579s-98.485,39.075-98.485,98.579v23.239 h-4.685c-17.898,0.469-21.365,19.866-17.054,39.919c3.467,16.586,12.463,39.731,26.519,39.731v23.426 c0,21.552,29.799,53.975,60.815,70.279c10.495,3.823,21.646,5.482,32.797,4.873c10.57,0.572,21.131-1.218,30.923-5.248 c31.11-16.305,63.345-48.727,63.345-70.279v-23.426c14.056,0,24.457-23.145,28.112-39.731c4.217-20.053-0.75-39.263-18.741-39.731 L353.734,153.708z"></path><path style="fill:#956A5E;" d="M358.419,153.896h-4.685v-23.426c0-59.503-26.05-98.579-98.298-98.579 c-5.716,0-11.151,0-16.399,0.843c-16.68,65.594-28.674,139.903-28.112,196.783c0,22.302,2.717,60.44,5.903,94.643l5.435,2.999 c10.495,3.823,21.646,5.482,32.797,4.873c10.673,0.59,21.337-1.237,31.204-5.341c31.11-16.305,63.345-48.727,63.345-70.279v-23.426 c14.056,0,24.457-23.145,28.112-39.731C381.377,173.574,376.411,154.364,358.419,153.896z"></path><g><path style="fill:#333333;" d="M250.142,339.096c-9.952,0-20.222-1.818-30.098-5.416c-0.3-0.112-0.59-0.234-0.862-0.384 c-31.054-16.324-64.573-50.217-64.573-76.502v-17.57c-17.026-6.325-24.307-34.718-26.275-44.154 c-2.08-9.699-4.235-27.765,4.882-39.357c4.067-5.163,9.802-8.209,16.708-8.883v-16.352c0-70.073,35.505-105.607,105.513-105.607 c69.886,0,105.325,35.533,105.325,105.607v16.136c7.675,0.647,13.84,3.889,18.216,9.436c6.897,8.733,8.949,22.817,5.622,38.654 c-3.252,14.759-12.482,38.373-27.962,44.051v17.654c0,25.535-34.84,59.588-67.103,76.502c-11.32,4.695-23.155,6.719-34.671,6.044 C253.3,339.049,251.726,339.096,250.142,339.096z M225.301,320.627c9.521,3.402,19.463,4.891,29.564,4.292 c10.261,0.534,19.931-1.096,28.712-4.723c30.604-16.071,58.997-46.6,58.997-63.786v-23.426c0-3.879,3.148-7.028,7.028-7.028 c8.209,0,17.607-17.692,21.253-34.212c2.38-11.329,1.284-21.693-2.905-26.978c-2.155-2.736-5.154-4.114-9.164-4.217l-4.816,0.187 c-1.902,0.028-3.748-0.647-5.126-1.968s-2.137-3.148-2.137-5.06v-23.239c0-62.464-29.002-91.551-91.27-91.551 c-62.399,0-91.457,29.086-91.457,91.551v23.239c0,3.879-3.149,7.028-7.028,7.028h-4.685c-3.514,0.094-6.11,1.256-8.002,3.655 c-4.001,5.088-4.826,15.471-2.174,27.756c4.086,19.556,12.491,34.278,19.547,34.278c3.879,0,7.028,3.149,7.028,7.028v23.333 C168.665,274.533,195.605,304.856,225.301,320.627z"></path><path style="fill:#333333;" d="M255.53,487.123c-86.715,0-170.929-17.729-250.307-52.7c-0.319-0.141-0.628-0.3-0.918-0.497 l-1.031-0.647c-2.39-1.509-3.645-4.301-3.177-7.094l3.28-19.688c5.088-25.291,24.364-45.55,49.149-51.848l76.473-18.198 l3.261,13.672l-76.37,18.17c-19.472,4.948-34.699,20.953-38.682,40.753l-2.371,14.234c76.427,33.041,157.398,49.786,240.721,49.786 c0.628,0,1.256,0,1.865,0c83.052,0,163.714-16.586,239.897-49.317l-1.921-14.702c-3.889-19.36-19.107-35.365-38.71-40.303 l-76.97-18.732l3.327-13.653l77.026,18.741c24.879,6.269,44.164,26.538,49.177,51.66l2.689,20.419 c0.412,3.102-1.274,6.091-4.132,7.347c-79.397,34.905-163.629,52.597-250.364,52.597 C256.805,487.133,256.177,487.123,255.53,487.123z"></path><path style="fill:#333333;" d="M344.27,206.652l-12.182,45.073c-1.359,3.833-3.917,7.122-7.309,9.371l-13.213,14.431 c0.375-12.407-7.15-23.689-18.741-28.112c-6.128-2.015-12.388-3.617-18.741-4.779c-7.215-0.843-4.966,4.966-18.741,4.966 c-9.371,0-11.526-5.903-18.741-5.06c-6.4,0.965-12.678,2.596-18.741,4.873c-11.695,4.301-19.266,15.668-18.741,28.112 l-13.587-13.775c-3.42-2.23-6.025-5.519-7.403-9.371l-12.182-45.447c-0.497-1.19-1.874-1.752-3.064-1.256 c-0.815,0.347-1.368,1.115-1.434,2.005v44.042c-0.056,11.32,3.598,22.349,10.401,31.392c12.66,17.617,28.796,32.45,47.415,43.573 c8.181,4.301,17.279,6.559,26.519,6.559h18.741c9.211-0.019,18.282-2.268,26.425-6.559c18.31-10.861,34.25-25.291,46.853-42.449 c7.215-9.511,11.095-21.14,11.057-33.078v-43.761c0.056-1.293-0.946-2.389-2.24-2.446 C345.544,204.918,344.569,205.621,344.27,206.652z M280.362,301.014h-2.905l-3.936-7.496c-0.975-1.771-2.849-2.849-4.873-2.811 h-27.081c-1.996-0.047-3.851,1.04-4.779,2.811l-3.936,7.496h-2.811c-4.498,0-14.243-26.706-14.243-30.08 c0.319-2.952,2.596-5.304,5.529-5.716l22.115-5.716c3.908-0.89,7.899-1.359,11.901-1.406c3.973,0.047,7.937,0.515,11.807,1.406 l22.115,5.716c2.952,0.384,5.248,2.755,5.529,5.716C294.605,274.308,284.86,301.014,280.362,301.014z"></path><circle style="fill:#333333;" cx="211.207" cy="191.284" r="9.371"></circle><circle style="fill:#333333;" cx="300.228" cy="191.284" r="9.371"></circle><path style="fill:#333333;" d="M275.302,279.658H237.82c-2.586,0-4.685-2.099-4.685-4.685c0-2.586,2.099-4.685,4.685-4.685h37.482 c2.586,0,4.685,2.099,4.685,4.685C279.987,277.559,277.888,279.658,275.302,279.658z"></path><path style="fill:#333333;" d="M256.626,249.85c-3.364,0-6.775-0.553-10.017-1.659l-10.017-2.727 c-2.502-0.684-3.973-3.261-3.289-5.754c0.675-2.502,3.28-3.982,5.754-3.289l10.308,2.811c4.76,1.621,9.67,1.621,14.112,0.084 l10.589-2.896c2.539-0.684,5.079,0.796,5.754,3.289c0.675,2.493-0.796,5.07-3.289,5.754l-10.317,2.811 C263.186,249.326,259.925,249.85,256.626,249.85z"></path></g></svg>