<!-- icon666.com - MILLIONS vector ICONS FREE --><svg version="1.1" id="Capa_1" xmlns="http://www.w3.org/2000/svg" xmlns:xlink="http://www.w3.org/1999/xlink" x="0px" y="0px" viewBox="0 0 512 512" style="enable-background:new 0 0 512 512;" xml:space="preserve"><path style="fill:#333333;" d="M255.991,251.985c-77.68,0-140.884-56.513-140.884-125.992S178.311,0,255.991,0 c77.691,0,140.884,56.524,140.884,125.992S333.682,251.985,255.991,251.985z M255.991,17.125 c-68.245,0-123.759,48.833-123.759,108.867s55.524,108.867,123.759,108.867c68.245,0,123.769-48.833,123.769-108.857 S324.237,17.125,255.991,17.125z"></path><path id="SVGCleanerId_0" style="fill:#333333;" d="M256.257,467.858c-16.561,0-33.123-5.616-46.632-16.838 c-27.124-22.433-49.652-49.386-66.948-80.084l13.902-7.829c16.338,28.996,37.612,54.439,63.235,75.627 c21.125,17.551,51.78,17.561,72.883,0.011c25.39-21.199,46.493-46.589,62.714-75.425l13.902,7.829 c-17.168,30.517-39.505,57.396-66.405,79.85C289.391,462.241,272.819,467.858,256.257,467.858z"></path><path style="fill:#D8AB8D;" d="M495.318,429.565c-4.425-21.401-21.146-38.122-42.547-42.547 c-16.806-3.723-56.481-12.445-99.347-21.274c-10.637-2.34-22.337-4.361-33.612-5.957v-52.12H192.171v52.014 c-11.807,1.596-23.614,3.723-35.314,6.276c-40.845,8.829-79.669,17.444-97.645,21.274c-21.401,4.425-38.122,21.146-42.547,42.547 l-5.318,21.273c2.978,2.234,102.645,53.184,244.645,53.184s241.667-50.95,244.645-53.184L495.318,429.565z"></path><path style="fill:#D0A183;" d="M255.991,428.927v75.095c142.001,0,241.667-50.95,244.645-53.184l-5.318-21.273 c-4.425-21.401-21.146-38.122-42.547-42.547c-16.806-3.723-56.481-12.445-99.347-21.273c-10.637-2.34-22.337-4.361-33.612-5.957 v-52.12H192.171v37.229l51.056,52.439C251.237,405.93,255.779,417.184,255.991,428.927z"></path><path style="fill:#D8AB8D;" d="M346.085,392.975c5.425,1.064,61.055,10.637,61.055,10.637c13.339-4.978,26.305-10.881,38.824-17.657 l-92.54-20.103c-10.637-2.34-22.337-4.361-33.612-5.957C318.972,375.967,330.236,390.156,346.085,392.975z"></path><path style="fill:#5D8987;" d="M495.318,429.565c-4.425-21.401-21.146-38.122-42.547-42.547l-90.412-19.784 c-16.636,29.581-38.516,55.896-64.565,77.648c-24.082,20.008-58.991,20.008-83.073,0c-26.283-21.741-48.355-48.131-65.097-77.861 c-38.292,8.297-73.713,16.168-90.625,19.997c-21.401,4.425-38.122,21.146-42.547,42.547l-5.318,21.273 c2.978,2.234,102.645,53.184,244.645,53.184s241.667-50.95,244.645-53.184L495.318,429.565z"></path><path style="fill:#4E7574;" d="M500.637,450.839l-1.915-7.765c-7.999-15.445-22.539-26.464-39.569-29.996 c-0.532,0-82.967-15.636-113.069-20.529c-13.828,19.444-30.091,37.037-48.397,52.333c-24.082,20.008-58.991,20.008-83.073,0 c-18.316-15.168-34.612-32.612-48.504-51.907c-10.637,1.489-21.912,3.191-32.761,5.212c-38.399,7.233-72.117,13.509-80.52,15.317 c-17.029,3.531-31.57,14.551-39.569,29.996l-1.915,7.339c2.978,2.234,102.645,53.184,244.645,53.184 S497.658,453.072,500.637,450.839z"></path><g><path id="SVGCleanerId_0_1_" style="fill:#333333;" d="M256.257,467.858c-16.561,0-33.123-5.616-46.632-16.838 c-27.124-22.433-49.652-49.386-66.948-80.084l13.902-7.829c16.338,28.996,37.612,54.439,63.235,75.627 c21.125,17.551,51.78,17.561,72.883,0.011c25.39-21.199,46.493-46.589,62.714-75.425l13.902,7.829 c-17.168,30.517-39.505,57.396-66.405,79.85C289.391,462.241,272.819,467.858,256.257,467.858z"></path></g><g><path style="fill:#333333;" d="M255.991,512C106.62,512,7.294,457.763,6.56,457.221c-2.563-1.925-3.734-5.201-2.946-8.307 l5.318-21.273c4.999-24.22,24.135-43.355,48.674-48.429c45.068-10.084,132.14-27.485,133.013-27.666 c4.34-0.819,8.52,1.936,9.382,6.265c0.862,4.319-1.936,8.52-6.254,9.382c-0.872,0.181-87.764,17.54-132.779,27.613 c-18.423,3.808-32.687,18.082-36.473,36.388l-3.872,15.498c20.614,9.892,110.76,49.365,235.381,49.365 c124.099,0,214.033-39.154,235.37-49.418l-3.776-15.136c-3.85-18.614-18.125-32.889-36.431-36.665 c-98.103-21.008-132.491-27.56-132.821-27.624c-4.329-0.83-7.18-4.999-6.361-9.328c0.819-4.34,5.063-7.148,9.328-6.361 c0.34,0.074,34.835,6.648,133.151,27.698c24.486,5.063,43.621,24.188,48.684,48.727l5.244,20.965 c0.777,3.117-0.383,6.393-2.957,8.318C504.689,457.763,405.268,512,255.991,512z"></path><rect x="311.866" y="318.092" style="fill:#333333;" width="15.955" height="63.704"></rect><rect x="184.193" y="328.516" style="fill:#333333;" width="15.955" height="53.29"></rect><path style="fill:#333333;" d="M184.087,278.417c17.285-15.913,18.402-42.834,2.489-60.119c-0.255-0.277-0.521-0.553-0.787-0.83 c-3.723-3.84-8.073-6.999-12.87-9.36l0,0c-21.465,10.137-30.73,35.697-20.742,57.226c2.266,4.797,5.403,9.126,9.254,12.764l0,0 c-17.178,16.04-18.093,42.962-2.053,60.14c0.287,0.308,0.585,0.617,0.883,0.915l1.702,1.808 c-12.445,11.094-17.274,28.432-12.339,44.355c3.138,10.828,13.307,18.093,24.571,17.551c8.85-0.723,16.53-6.414,19.784-14.679 c6.361-16.413,2.159-35.037-10.637-47.121l0,0c17.178-16.04,18.104-42.962,2.064-60.14c-0.16-0.17-0.308-0.33-0.468-0.489 l-1.702-1.808L184.087,278.417z"></path></g><path style="fill:#454749;" d="M168.983,392.017c-5.68-17.37-2.234-36.441,9.148-50.737c-10.637-14.679-18.933-30.421-5.106-51.376 c3.095-4.595,3.095-10.615,0-15.211c-13.147-19.21-8.403-45.43,10.637-58.821c-3.319-3.202-7.127-5.861-11.275-7.871 c-21.369,10.286-30.4,35.92-20.21,57.332c2.255,4.893,5.435,9.297,9.36,12.977c-17.146,16.072-18.019,42.994-1.947,60.14 c0.223,0.234,0.447,0.468,0.67,0.702l1.702,1.808c-13.03,11.998-17.263,30.804-10.637,47.227 c4.074,10.456,15.062,16.466,26.06,14.253C173.631,399.857,170.717,396.24,168.983,392.017z"></path><g><path style="fill:#333333;" d="M172.546,410.696c-12.69,0-23.369-7.35-28.911-20.018c-5.861-13.402-5.637-33.793,7.137-49.971 c-7.212-9.307-10.956-20.699-10.637-32.602c0.298-11.009,4.031-21.391,10.679-29.921c-2.255-2.904-4.202-6.031-5.808-9.382 c-11.86-25.486-0.893-55.896,24.39-67.905c2.149-1,4.627-1.021,6.765-0.032c5.85,2.691,11.052,6.446,15.455,11.147l0.872,0.925 c17.029,18.497,17.572,46.461,2.372,65.597c13.7,17.7,14.253,42.675,0.415,61.151c-0.447,0.617-0.447,1.532,0.043,2.191 c10.456,14.126,12.956,34.601,6.042,49.791c-5.074,11.126-14.7,18.029-26.422,18.955 C174.131,410.664,173.333,410.696,172.546,410.696z M172.855,217.149c-14.966,9.233-21.029,28.538-13.445,44.823 c1.861,3.861,4.457,7.414,7.648,10.467c1.574,1.521,2.457,3.606,2.457,5.786c0,2.181-0.904,4.265-2.489,5.776 c-6.808,6.435-10.69,15.157-10.945,24.528c-0.245,9.382,3.159,18.285,9.605,25.092l1.308,1.298c1.606,1.51,2.521,3.617,2.521,5.829 c0,2.202-0.904,4.308-2.521,5.818c-11.743,11.02-13.296,27.315-8.743,37.718c1.83,4.18,6.435,11.126,15.487,10.413 c5.957-0.468,10.381-3.723,13.083-9.658c4.542-9.977,2.712-24.156-4.361-33.697c-4.659-6.35-4.659-14.849-0.021-21.167 c10.679-14.264,8.892-34.059-4.106-46.121c-3.031-2.819-3.414-7.478-0.872-10.743c0.755-0.968,1.691-1.723,2.723-2.244 c12.562-13.051,12.945-33.867,0.511-47.376c-0.021-0.021-0.713-0.745-0.734-0.776C177.854,220.67,175.482,218.734,172.855,217.149z "></path><path style="fill:#333333;" d="M172.812,406.377c-14.572,6.935-26.294,18.699-33.187,33.293 c-4.872,10.233-0.532,22.486,9.701,27.358c2.712,1.298,5.691,1.978,8.701,2h29.677c11.158,0.117,20.306-8.839,20.423-19.997l0,0 c-0.021-2.691-0.521-5.361-1.489-7.871C199.883,425.896,187.884,413.557,172.812,406.377z"></path></g><path style="fill:#454749;" d="M157.389,456.795c6.818-14.604,18.519-26.379,33.08-33.293c3.202,1.5,6.265,3.276,9.148,5.318 c-6.818-9.669-15.955-17.466-26.592-22.656c-14.572,6.988-26.294,18.785-33.187,33.399c-5.084,10.137-1,22.475,9.137,27.56 c0.213,0.106,0.425,0.213,0.649,0.308c2.01,0.862,4.116,1.468,6.276,1.808C155.134,465.039,155.655,460.699,157.389,456.795z"></path><g><path style="fill:#333333;" d="M158.027,477.005c-4.276-0.032-8.339-0.968-12.137-2.776c-6.871-3.276-12.051-9.031-14.604-16.2 c-2.542-7.18-2.138-14.913,1.128-21.784c7.648-16.178,20.774-29.357,36.963-37.058c2.042-0.989,4.414-1.042,6.52-0.16 c17.434,7.318,31.346,21.625,38.165,39.25c0.925,2.766,1.393,5.244,1.553,7.754c0.968,16.104-11.339,29.974-27.443,30.953 L158.027,477.005z M173.004,415.237c-11.381,6.276-20.593,16.051-26.156,27.836c-1.457,3.053-1.627,6.456-0.511,9.616 c1.117,3.159,3.404,5.691,6.425,7.137c1.67,0.787,3.468,1.202,5.329,1.213h29.623c6.839-0.425,12.434-6.744,11.988-14.051 c-0.064-1.138-0.287-2.266-0.638-3.34C194.352,431.522,184.927,421.237,173.004,415.237z"></path><path style="fill:#333333;" d="M186.002,419.141h-26.06c-7.329,0-13.296-5.967-13.296-13.296v-3.085 c0-7.329,5.967-13.296,13.296-13.296h26.06c7.329,0,13.296,5.967,13.296,13.296v3.085 C199.298,413.185,193.341,419.141,186.002,419.141z M186.002,405.42h0.106H186.002z"></path></g><path style="fill:#D8AB8D;" d="M255.991,30.687c85.094,0,111.686,48.823,111.686,106.368v21.274 c18.402,0,24.252,18.189,21.274,42.547c-2.553,20.742-10.637,42.547-31.91,42.547v15.955c0,31.91-25.422,46.27-55.098,77.116 c-11.062,13.743-28.443,20.784-45.951,18.614c-17.508,2.17-34.889-4.872-45.951-18.614c-29.677-30.847-55.098-45.206-55.098-77.116 v-15.955c-21.273,0-29.357-21.805-31.91-42.547c-2.978-24.358,2.872-42.547,21.273-42.547v-21.273 C144.306,79.51,170.897,30.687,255.991,30.687z"></path><path style="fill:#CC9C7E;" d="M367.677,158.328v-21.274c0-57.545-26.166-106.368-111.686-106.368c-4.893,0-9.573,0-14.147,0.532 c-21.273,78.499-37.335,171.464-36.378,241.135c0,15.636,1.17,38.399,2.978,62.544c0,0.638,1.064,1.064,1.596,1.595 c11.062,13.743,28.443,20.784,45.951,18.614c17.508,2.17,34.889-4.872,45.951-18.614c29.677-30.847,55.098-45.206,55.098-77.116 v-15.955c21.274,0,29.357-21.805,31.91-42.547C391.929,176.517,386.079,158.328,367.677,158.328z"></path><path style="fill:#333333;" d="M250.407,363.373c-18.168,0-35.346-8.148-46.908-22.518c-6.371-6.574-12.87-12.668-19.157-18.572 c-20.88-19.582-37.378-35.048-37.378-62.906v-8.882c-12.317-2.851-27.539-13.7-31.846-48.652 c-2.34-19.093,0.532-33.814,8.286-42.568c3.468-3.914,7.85-6.595,12.924-7.935v-14.296c0-73.734,42.494-114.345,119.663-114.345 S375.655,63.31,375.655,137.044v14.296c5.084,1.34,9.477,4.021,12.934,7.946c7.754,8.754,10.615,23.475,8.275,42.558 c-4.297,34.952-19.529,45.802-31.846,48.652v8.871c0,27.656-16.508,42.994-37.399,62.416c-6.488,6.031-13.211,12.275-20.252,19.593 c-11.998,15.264-31.325,23.614-51.376,21.741C254.13,363.288,252.269,363.373,250.407,363.373z M255.991,38.665 c-68.82,0-103.708,33.102-103.708,98.39v21.274c0,4.404-3.574,7.978-7.978,7.978c-3.968,0-6.818,1.128-8.956,3.553 c-4.499,5.095-6.105,16.04-4.393,30.049c2,16.2,7.775,35.537,23.986,35.537c4.404,0,7.978,3.574,7.978,7.978v15.955 c0,20.954,12.86,33.016,32.336,51.269c6.137,5.754,13.083,12.275,20.21,19.689c9.967,12.328,24.56,18.434,39.686,16.838 c0.542-0.074,1.106-0.064,1.67,0c14.902,1.617,29.272-4.531,38.537-16.253c7.861-8.222,15.051-14.902,21.401-20.805 c19.455-18.082,32.304-30.028,32.304-50.737v-15.955c0-4.404,3.574-7.978,7.978-7.978c16.21,0,21.986-19.327,23.997-35.548 c1.712-13.998,0.117-24.954-4.393-30.038c-2.149-2.425-4.999-3.553-8.967-3.553c-4.404,0-7.978-3.574-7.978-7.978v-21.274 C359.7,71.766,324.811,38.665,255.991,38.665z"></path><g><path style="fill:#E4C4AF;" d="M266.628,195.557c1.904,11.115,5.489,21.88,10.637,31.91c19.593,4.106,39.973,2.255,58.502-5.318 c2.851-10.679,4.627-21.624,5.318-32.655C316.153,185.25,290.55,187.334,266.628,195.557z"></path><path style="fill:#E4C4AF;" d="M245.355,195.557c-1.904,11.115-5.489,21.88-10.637,31.91c-19.593,4.106-39.973,2.255-58.502-5.318 c-2.851-10.679-4.627-21.624-5.318-32.655C195.841,185.25,221.443,187.334,245.355,195.557z"></path></g><path style="fill:#333333;" d="M265.331,203.204c-5.18-3.936-12.424-3.936-17.614,0l-6.425-8.478c8.967-6.808,21.497-6.808,30.474,0 L265.331,203.204z"></path><g><ellipse style="fill:#707070;" cx="207.169" cy="203.587" rx="7.446" ry="5.425"></ellipse><ellipse style="fill:#707070;" cx="304.814" cy="203.587" rx="7.446" ry="5.425"></ellipse></g><g><path style="fill:#333333;" d="M255.991,8.456c-91.582,0-132.321,75.627-132.321,117.004c0,26.911,31.272,34.782,31.272,62.757 c0-73.819,39.675-83.073,101.049-116.26c61.374,33.187,101.049,38.292,101.049,116.26c0-23.294,31.272-35.846,31.272-62.757 C388.313,84.509,347.574,8.456,255.991,8.456z"></path><path style="fill:#333333;" d="M214.083,234.923c-13.594,0-27.102-2.638-39.877-7.861c-1.51-0.617-2.649-1.883-3.106-3.446 c-1.808-6.276-3.202-12.69-4.159-19.167l-5.127-5.138c-1-1-1.553-2.351-1.553-3.765v-5.318c0-2.542,1.787-4.723,4.287-5.212 c27.475-5.446,56.013-3.553,82.531,5.499c2.468,0.84,3.967,3.351,3.521,5.935c-2,11.679-5.744,22.933-11.147,33.442 c-0.734,1.425-2.074,2.446-3.638,2.776C228.612,234.179,221.337,234.923,214.083,234.923z M180.63,218.17 c16.147,6.095,33.506,7.669,50.493,4.584c3.638-7.51,6.361-15.423,8.116-23.582c-20.316-6.233-41.749-8.041-62.789-5.318 C177.109,202.066,178.503,210.225,180.63,218.17z"></path><path style="fill:#333333;" d="M255.991,8.456c-91.582,0-132.321,75.627-132.321,117.004c0,36.59,31.272,46.057,31.272,74.457 v-32.336c83.179,0,110.729-13.19,132.002-40.207c2.436-2.936,6.797-3.34,9.733-0.904c0.33,0.277,0.628,0.574,0.904,0.904 c10.637,15.104,27.23,28.081,59.14,38.718v33.931c0-23.294,31.272-37.441,31.272-74.457 C388.313,84.509,347.574,8.456,255.991,8.456z"></path></g><path style="fill:#4C4A4A;" d="M255.991,8.456c-91.582,0-132.321,75.627-132.321,117.004c0,28.081,18.508,40.207,27.017,57.119 c0-3.723,0-7.02,0-9.148C121.117,61.321,235.782,8.243,316.727,20.901C297.677,12.254,276.914,8.009,255.991,8.456z"></path><g><path style="fill:#333333;" d="M353.424,200.024c0.053-6.467,1.776-12.796,4.999-18.402c2.872-5.425,6.382-10.637,9.467-14.998 c6.531-8.616,11.275-18.455,13.934-28.932c2.34-21.742-3.127-43.611-15.423-61.693c-11.466-18.848-27.773-34.272-47.227-44.674 c-39.76-19.784-86.498-19.784-126.258,0c-19.327,10.392-35.58,25.688-47.121,44.355c-12.434,18.146-17.944,40.154-15.53,62.012 c2.734,10.552,7.786,20.359,14.785,28.719c8.18,9.445,12.977,21.348,13.615,33.825l0,0c-0.117,2.01-1.808,3.574-3.829,3.51 c-1.957-0.053-3.51-1.659-3.51-3.617c0-21.273-25.741-34.25-31.378-60.204c-2.532-12.254-2.17-24.933,1.064-37.016 c2.883-11.786,7.435-23.103,13.509-33.612c12.041-21.38,29.698-39.079,51.056-51.163c43.898-23.486,96.614-23.486,140.511,0 c21.273,12.062,38.909,29.623,51.056,50.844c6.095,10.52,10.711,21.827,13.721,33.612c3.308,12.03,3.744,24.677,1.276,36.91 c-3.393,11.679-9.158,22.539-16.912,31.91c-7.499,7.775-12.562,17.572-14.572,28.187c-0.053,2.01-1.713,3.617-3.723,3.617 C355.169,203.087,353.722,201.769,353.424,200.024z"></path><path style="fill:#333333;" d="M151.326,200.024l-1.702-32.442c-0.117-2.702,1.968-4.989,4.67-5.106h0.011l0,0 c12.658-0.745,25.315-1.276,37.76-2.659c12.349-1.159,24.613-3.148,36.697-5.957c11.371-2.638,22.178-7.286,31.91-13.721 c9.541-6.85,17.817-15.306,24.465-24.996l0,0c2.542-3.319,7.276-3.978,10.637-1.489c0.84,0.649,1.564,1.436,2.127,2.34 c6.031,11.02,14.466,20.55,24.677,27.868c10.669,7.467,22.295,13.434,34.569,17.763l0,0c1.968,0.713,3.287,2.585,3.297,4.68 c0,11.381-0.957,22.656-1.489,33.931c-0.351,2.032-2.266,3.393-4.297,3.042c-1.553-0.266-2.776-1.489-3.042-3.042 c0-11.275-1.17-22.55-1.596-33.931l3.616,4.893c-13.604-3.744-26.624-9.318-38.718-16.593 c-12.477-7.754-22.965-18.316-30.634-30.847h12.977c-7.233,11.775-16.923,21.869-28.4,29.57 c-11.637,7.254-24.571,12.2-38.08,14.572c-25.603,4.34-51.61,5.829-77.542,4.467l4.999-4.999l-1.489,32.442 c0,1.936-1.564,3.51-3.499,3.521c-0.074,0-0.149,0-0.223-0.011C151.922,202.609,151.273,201.343,151.326,200.024z"></path><path style="fill:#333333;" d="M297.911,234.934c-7.254,0-14.53-0.755-21.731-2.266c-1.564-0.33-2.904-1.34-3.638-2.776 c-5.403-10.509-9.158-21.763-11.147-33.442c-0.447-2.574,1.053-5.095,3.521-5.935c26.507-9.052,55.035-10.956,82.531-5.499 c2.478,0.489,4.276,2.67,4.276,5.212v5.318c0,1.415-0.564,2.766-1.553,3.765l-5.169,5.18c-0.957,6.446-2.329,12.839-4.106,19.104 c-0.447,1.574-1.595,2.861-3.106,3.478C325.013,232.285,311.494,234.934,297.911,234.934z M280.86,222.744 c16.966,3.106,34.335,1.521,50.482-4.574c2.095-7.978,3.5-16.125,4.17-24.337c-21.039-2.702-42.473-0.904-62.757,5.318 C274.51,207.332,277.222,215.235,280.86,222.744z"></path><path style="fill:#333333;" d="M278.871,301.499h-42.547c-2.936,0-5.318-2.383-5.318-5.318s2.383-5.318,5.318-5.318h42.547 c2.936,0,5.318,2.383,5.318,5.318S281.807,301.499,278.871,301.499z"></path><path style="fill:#333333;" d="M265.033,318.73h-13.828c-2.936,0-5.318-2.383-5.318-5.318s2.383-5.318,5.318-5.318h13.828 c2.936,0,5.318,2.383,5.318,5.318S267.979,318.73,265.033,318.73z"></path><path style="fill:#333333;" d="M257.672,274.386c-3.829,0-7.701-0.638-11.381-1.904l-11.36-3.085 c-2.84-0.766-4.51-3.702-3.733-6.531c0.776-2.829,3.733-4.467,6.531-3.733l11.7,3.191c5.393,1.84,10.966,1.851,16.008,0.106 l12.041-3.297c2.883-0.755,5.765,0.915,6.531,3.733c0.766,2.84-0.904,5.765-3.734,6.531l-11.711,3.191 C265.118,273.779,261.416,274.386,257.672,274.386z"></path></g></svg>