<!-- icon666.com - MILLIONS vector ICONS FREE --><svg version="1.1" id="Capa_1" xmlns="http://www.w3.org/2000/svg" xmlns:xlink="http://www.w3.org/1999/xlink" x="0px" y="0px" viewBox="0 0 512 512" style="enable-background:new 0 0 512 512;" xml:space="preserve"><path style="fill:#827A6A;" d="M469.191,417.855c-8.528-19.443-14.071-20.381-34.111-25.583 c-116.948-34.111-241.213-34.111-358.161,0c-20.04,5.202-25.583,6.14-34.111,25.583c-12.365,27.715-17.055,42.638-17.055,42.638 C99.305,488.481,177.307,502.927,256,503.131c78.693-0.205,156.696-14.65,230.246-42.638 C486.247,460.493,481.556,445.57,469.191,417.855z"></path><path style="fill:#726854;" d="M436.872,426.382C378.108,409.267,317.203,400.655,256,400.799 c-61.194-0.077-122.099,8.536-180.871,25.583c-18.454,5.611-33.104,19.716-39.398,37.948 c70.728,25.191,145.192,38.306,220.269,38.801c75.009-0.759,149.396-13.806,220.184-38.63 C469.95,446.226,455.334,432.053,436.872,426.382z"></path><rect x="196.307" y="315.523" style="fill:#EDCCC3;" width="119.387" height="76.749"></rect><path style="fill:#333333;" d="M324.221,400.799H187.779v-93.804h136.442V400.799z M204.834,383.744h102.332v-59.694H204.834 V383.744z"></path><path style="fill:#DDDBDB;" d="M349.804,196.136v-25.583c0-50.569-32.405-76.749-93.804-76.749s-93.804,26.265-93.804,76.749v25.583 c-16.373,0-17.055,17.055-12.877,34.708c3.07,14.668,12.877,33.514,21.404,33.514c0,40.847,42.041,79.733,61.74,90.052 c7.402,3.206,15.503,4.503,23.536,3.752c8.033,0.75,16.134-0.546,23.536-3.752c19.699-10.318,61.74-49.29,61.74-90.052 c8.528,0,18.334-18.761,21.404-33.428C366.86,213.191,366.263,196.136,349.804,196.136z"></path><path style="fill:#D9D6D6;" d="M349.804,196.136v-25.583c0-50.569-32.405-76.749-93.804-76.749c-6.225,0-12.109,0-17.823,0.853 c-13.303,61.058-24.133,127.915-23.366,173.964c0,16.373,3.667,48.437,6.652,76.749c4.264,3.138,8.741,5.986,13.388,8.528 c7.266,3.172,15.205,4.52,23.11,3.923c7.393,0.571,14.813-0.716,21.575-3.752c19.699-9.977,61.74-48.949,61.74-89.711 c8.528,0,18.334-18.761,21.404-33.428C366.86,213.191,366.263,196.136,349.804,196.136z"></path><g style="opacity:0.12;enable-background:new ;"><path style="fill:#AE887B;" d="M256,290.196c-1.177,0-2.132-0.955-2.132-2.132s0.955-2.268,2.132-2.268 c1.177,0,2.132,0.836,2.132,2.004v0.256C258.132,289.241,257.177,290.196,256,290.196z"></path></g><g><circle style="fill:#333333;" cx="215.067" cy="231.355" r="6.396"></circle><circle style="fill:#333333;" cx="296.933" cy="231.355" r="6.396"></circle><path style="fill:#333333;" d="M256.06,282.009c-3.07,0-6.174-0.503-9.125-1.518l-9.116-2.473 c-2.277-0.614-3.616-2.968-2.993-5.236c0.623-2.268,2.993-3.582,5.236-2.993l9.38,2.558c4.315,1.484,8.783,1.467,12.843,0.085 l9.645-2.644c2.311-0.597,4.622,0.733,5.236,2.993c0.614,2.277-0.725,4.622-2.993,5.236l-9.389,2.558 C262.038,281.532,259.07,282.009,256.06,282.009z"></path><path style="fill:#333333;" d="M273.055,311.344h-34.111c-2.354,0-4.264-1.91-4.264-4.264s1.91-4.264,4.264-4.264h34.111 c2.354,0,4.264,1.91,4.264,4.264S275.418,311.344,273.055,311.344z"></path><path style="fill:#333333;" d="M258.9,279.195h-5.799c-9.722,0-17.652,4.349-17.652,12.28v1.45c0.085,0.887,0.878,1.543,1.774,1.45 c0.009,0,0.009,0,0.017,0h37.522c0.887,0.102,1.689-0.546,1.791-1.433c0-0.009,0-0.009,0-0.017v-1.45 C276.552,283.544,268.621,279.195,258.9,279.195z"></path><path style="fill:#333333;" d="M236.762,298.664c-2.661,0-5.244-2.285-5.56-5.313l-0.017-1.876c0-9.892,8.809-16.535,21.916-16.535 h5.799c13.107,0,21.916,6.643,21.916,16.535v1.45c-0.392,3.727-3.377,6.08-6.532,5.688l-37.07,0.034 C237.069,298.655,236.915,298.664,236.762,298.664z M274.403,290.111h0.358C274.65,290.094,274.539,290.094,274.403,290.111z M239.857,290.111h32.286c-1.006-4.579-7.155-6.643-13.243-6.643h-5.799C247.012,283.459,240.872,285.523,239.857,290.111z"></path><path style="fill:#333333;" d="M260.264,328.4h-8.528c-2.354,0-4.264-1.91-4.264-4.264s1.91-4.264,4.264-4.264h8.528 c2.354,0,4.264,1.91,4.264,4.264S262.618,328.4,260.264,328.4z"></path><path style="fill:#333333;" d="M341.277,172.088v49.631c0-6.822,0-22.854,13.047-22.854c0-17.908,10.318-9.125,10.318-25.583 c0-12.28-7.419-36.669-32.149-36.669C338.232,147.562,341.251,159.731,341.277,172.088z"></path><path style="fill:#333333;" d="M341.277,228.115c-3.53,0-6.396-2.865-6.396-6.396v-49.614c-0.026-11.282-2.806-22.522-8.05-32.516 c-1.04-1.978-0.964-4.366,0.188-6.285c1.16-1.919,3.232-3.087,5.475-3.087c28.082,0,38.553,26.419,38.553,43.065 c0,10.242-3.641,14.054-7.359,17.081c-1.91,1.552-2.959,2.405-2.959,8.502c0,3.53-2.865,6.396-6.396,6.396 c-3.454,0-6.652,1.995-6.652,16.458C347.672,225.249,344.807,228.115,341.277,228.115z M343.204,145.379 c2.925,8.579,4.451,17.627,4.468,26.692v0.009v21.439c0.196-0.077,0.409-0.145,0.605-0.205c1.006-7.129,4.042-10.208,7.334-12.894 c1.808-1.467,2.635-2.14,2.635-7.155C358.247,166.988,355.219,151.357,343.204,145.379z"></path><path style="fill:#333333;" d="M170.724,172.088v49.631c0-6.822,0-22.854-13.047-22.854c0-17.908-10.318-9.125-10.318-25.583 c0-12.28,7.419-36.669,32.149-36.669C173.768,147.562,170.749,159.731,170.724,172.088z"></path><path style="fill:#333333;" d="M170.724,228.115c-3.53,0-6.396-2.865-6.396-6.396c0-14.463-3.198-16.458-6.652-16.458 c-3.53,0-6.396-2.865-6.396-6.396c0-6.097-1.057-6.95-2.959-8.502c-3.727-3.019-7.359-6.839-7.359-17.081 c0-16.646,10.463-43.065,38.545-43.065c2.243,0,4.315,1.168,5.475,3.087c1.16,1.919,1.237,4.298,0.188,6.276 c-5.236,9.994-8.025,21.242-8.05,32.524v49.614C177.119,225.249,174.254,228.115,170.724,228.115z M163.722,193.322 c0.205,0.06,0.409,0.128,0.605,0.196v-21.43c0,0,0-0.009,0-0.017c0.017-9.065,1.552-18.121,4.477-26.692 c-12.015,5.969-15.051,21.609-15.051,27.902c0,5.014,0.827,5.688,2.635,7.155C159.689,183.114,162.716,186.193,163.722,193.322z"></path><path style="fill:#333333;" d="M251.583,366.894c-7.726,0-15.409-1.595-22.513-4.673c-22.581-11.802-62.891-49.682-66.601-91.689 c-12.382-7.249-19.682-29.275-21.498-37.948c-3.957-16.714-2.899-29.224,3.206-36.95c1.902-2.405,4.912-5.108,9.483-6.686v-18.394 c0-54.995,36.345-85.276,102.332-85.276s102.332,30.282,102.332,85.276v18.386c4.588,1.578,7.615,4.281,9.508,6.686 c6.183,7.803,7.206,19.989,3.138,37.257c-1.774,8.485-9.065,30.452-21.464,37.667c-3.812,41.589-44.685,80.228-66.03,91.408 c-8.997,3.931-18.266,5.509-27.493,4.767C254.525,366.842,253.05,366.894,251.583,366.894z M256,102.332 c-56.589,0-85.276,22.948-85.276,68.221v25.583c0,4.707-3.82,8.528-8.528,8.528c-3.403,0-4.298,1.126-4.631,1.552 c-1.978,2.499-3.002,9.764,0.06,22.658c2.925,13.968,10.643,25.839,13.73,27.041c4.707,0,7.905,3.735,7.905,8.442 c0,37.428,40.344,73.687,57.169,82.496c5.509,2.362,12.177,3.445,18.786,2.814c0.529-0.051,1.057-0.051,1.586,0 c6.592,0.64,13.286-0.452,19.349-3.078c16.254-8.545,56.598-44.796,56.598-82.232c0-4.707,3.812-8.528,8.528-8.528 c2.473-1.109,10.191-12.936,13.056-26.649c3.104-13.209,2.098-20.492,0.145-22.973c-0.341-0.418-1.236-1.544-4.673-1.544 c-4.716,0-8.528-3.82-8.528-8.528v-25.583C341.277,125.28,312.59,102.332,256,102.332z"></path></g><path style="fill:#444444;" d="M349.804,144.97V83.571c0-48.437-42.638-75.043-93.804-75.043s-93.804,27.544-93.804,77.175v59.694 c0,0,25.583,17.055,93.804,17.055S349.804,144.97,349.804,144.97z"></path><g><path style="fill:#333333;" d="M349.804,83.571c0-36.498-24.133-60.632-57.988-70.268c-3.07,0-6.225,0-9.38,0 c-51.166,0-93.804,27.459-93.804,77.175v59.694c9.082,4.997,18.897,8.545,29.079,10.489c12.723,1.194,25.506,1.654,38.289,1.364 c68.221,0,93.804-17.055,93.804-17.055L349.804,83.571L349.804,83.571z"></path><path style="fill:#333333;" d="M256,170.979c-69.995,0-97.403-17.738-98.537-18.488c-2.371-1.586-3.795-4.247-3.795-7.095V85.703 C153.668,35.245,195.752,0,256,0s102.332,34.366,102.332,83.571v61.399c0,2.814-1.39,5.449-3.718,7.044 C353.488,152.79,326.055,170.979,256,170.979z M170.724,140.254c9.108,4.187,35.253,13.67,85.276,13.67 c50.066,0,76.186-9.739,85.276-14.036V83.571c0-45.947-42.826-66.516-85.276-66.516s-85.276,21.225-85.276,68.648V140.254z"></path><path style="fill:#333333;" d="M256,187.608c-85.276,0-144.97-25.583-144.97-51.166l51.166,8.528h187.608l51.166-8.528 C400.97,162.025,349.804,187.608,256,187.608"></path><path style="fill:#333333;" d="M256,196.136c-86.07,0-153.498-26.223-153.498-59.694c0-2.507,1.1-4.886,3.019-6.507 s4.434-2.337,6.916-1.902l50.467,8.408h186.193l50.475-8.408c2.473-0.409,5.006,0.29,6.916,1.902 c1.919,1.62,3.019,3.999,3.019,6.507C409.498,171.593,346.376,196.136,256,196.136z M125.74,147.537 c16.254,15.375,63.608,31.544,130.26,31.544c74.643,0,117.315-16.365,131.292-31.714l-36.08,6.012 c-0.469,0.085-0.938,0.119-1.407,0.119H162.196c-0.469,0-0.938-0.034-1.407-0.119L125.74,147.537z"></path></g><path style="fill:#444444;" d="M256,127.915c-68.221,0-93.804-17.055-93.804-17.055v34.111c0,0,25.583,17.055,93.804,17.055 s93.804-17.055,93.804-17.055v-34.111C349.804,110.859,324.221,127.915,256,127.915z"></path><path style="fill:#333333;" d="M256,170.553c-69.995,0-97.403-17.738-98.537-18.488c-2.371-1.586-3.795-4.247-3.795-7.095v-34.111 c0-3.147,1.731-6.038,4.503-7.521c2.763-1.484,6.131-1.33,8.749,0.426c0.188,0.119,25.105,15.623,89.08,15.623 s88.892-15.503,89.139-15.665c2.627-1.68,5.978-1.825,8.715-0.324c2.746,1.492,4.477,4.341,4.477,7.462v34.111 c0,2.848-1.424,5.509-3.795,7.095C353.403,152.815,325.995,170.553,256,170.553z M170.724,139.828 c9.108,4.187,35.253,13.67,85.276,13.67c49.964,0,76.109-9.457,85.276-13.678v-15.665c-14.463,5.372-41.564,12.288-85.276,12.288 s-70.814-6.916-85.276-12.288V139.828z"></path><path style="fill:#D1D8DB;" d="M193.578,392.272c10.574,34.111,32.831,60.376,62.337,104.208l0,0 c22.428-40.165,49.119-65.066,61.655-104.378L193.578,392.272z"></path><path style="fill:#333333;" d="M255.915,505.007c-2.831,0-5.483-1.407-7.078-3.761c-6.652-9.884-12.936-18.872-18.803-27.246 c-20.134-28.798-36.038-51.541-44.608-79.196c-0.802-2.584-0.333-5.398,1.279-7.581c1.612-2.192,4.153-3.479,6.865-3.479 l123.992-0.171h0.009c2.72,0,5.279,1.296,6.882,3.488c1.612,2.2,2.072,5.031,1.245,7.632c-8.152,25.549-21.822,45.06-36.294,65.723 c-8.698,12.425-17.695,25.276-26.043,40.216c-1.441,2.592-4.127,4.238-7.095,4.366C256.154,505.007,256.034,505.007,255.915,505.007 z M205.67,400.782c8.306,20.458,21.319,39.074,38.349,63.429c3.633,5.193,7.428,10.617,11.367,16.339 c6.635-10.77,13.431-20.458,20.048-29.924c11.913-17.004,22.479-32.081,29.924-49.981L205.67,400.782z"></path><path style="fill:#383A39;" d="M256,503.131c11.342,0,22.513,0,33.428-0.938l-28.738-86.47h-10.063l-28.738,86.385 C232.976,503.131,244.403,503.131,256,503.131z"></path><path style="fill:#333333;" d="M256,509.527c-11.47,0-23.323,0-34.699-1.049l-8.025-0.742l32.738-98.409h19.29l32.755,98.546 l-8.076,0.691C278.786,509.527,267.205,509.527,256,509.527z M230.562,496.309c16.22,0.836,33.889,0.819,50.194,0.043 l-24.679-74.233h-0.836L230.562,496.309z"></path><path style="fill:#D1D8DB;" d="M192.043,336.842v38.374c0,0,23.025,38.886,63.957,38.886V397.9 c-0.802-10.591-7.351-19.895-17.055-24.219C196.307,349.634,192.043,336.842,192.043,336.842z"></path><path style="fill:#333333;" d="M256,420.498c-44.071,0-68.443-40.31-69.466-42.024c-0.58-0.981-0.887-2.106-0.887-3.258v-38.374 c0-3.138,2.277-5.816,5.372-6.31c2.976-0.52,5.901,1.202,6.984,3.999c0.35,0.699,6.703,12.502,44.079,33.582 c11.325,5.014,19.307,16.348,20.287,29.31l0.017,16.68C262.396,417.633,259.531,420.498,256,420.498z M198.439,373.332 c4.136,6.148,22.359,30.734,51.166,34.008v-9.44c-0.605-7.777-5.696-15.009-13.26-18.369 c-18.684-10.523-30.478-19.085-37.905-25.617V373.332z"></path><path style="fill:#D1D8DB;" d="M319.958,336.842v38.374c0,0-23.025,38.886-63.957,38.886V397.9 c0.802-10.591,7.351-19.895,17.055-24.219C315.694,349.634,319.958,336.842,319.958,336.842z"></path><path style="fill:#333333;" d="M256,420.498c-3.53,0-6.396-2.865-6.396-6.396V397.9c0.998-13.44,8.98-24.773,20.842-30.06 c37.829-21.362,43.508-33.224,43.559-33.335c0.989-2.993,3.999-4.707,7.027-4.127c3.104,0.495,5.321,3.326,5.321,6.464v38.374 c0,1.151-0.307,2.277-0.887,3.258C324.452,380.188,300.071,420.498,256,420.498z M313.562,353.949 c-7.359,6.481-19,14.949-37.368,25.31c-8.101,3.641-13.192,10.864-13.815,19.128l0.009,8.963 c28.806-3.283,47.039-27.868,51.174-34.008V353.949z"></path><path style="fill:#383A39;" d="M196.904,398.668c17.686,11.086,38.229,16.774,59.097,16.373v-14.241 c-23.536-9.295-47.328-16.458-67.368-34.963C190.15,377.059,192.921,388.068,196.904,398.668z"></path><path style="fill:#333333;" d="M253.919,421.453c-21.404,0-42.246-5.978-60.41-17.362l-1.833-1.151l-0.759-2.021 c-4.144-11.052-7.044-22.564-8.621-34.221l-2.379-17.61l13.056,12.058c16.151,14.915,34.929,22.061,54.807,29.634 c3.522,1.339,7.052,2.686,10.574,4.085l4.051,1.603v24.858l-6.276,0.128C255.386,421.453,254.653,421.453,253.919,421.453z M202.14,394.378c14.446,8.63,30.708,13.482,47.465,14.19v-3.394c-2.132-0.827-4.255-1.629-6.379-2.439 c-15.128-5.765-30.648-11.674-45.043-21.285C199.3,385.808,200.622,390.131,202.14,394.378z"></path><path style="fill:#383A39;" d="M323.539,365.751c-20.125,18.59-44.003,25.583-67.539,35.134v14.156 c21.149,0.341,41.922-5.594,59.694-17.055C319.497,387.565,322.132,376.751,323.539,365.751z"></path><path style="fill:#333333;" d="M257.748,421.453c-0.614,0-1.237-0.009-1.85-0.017l-6.293-0.102v-24.756l3.991-1.62 c4.068-1.646,8.135-3.223,12.203-4.793c19.349-7.47,37.615-14.531,53.409-29.113l12.919-11.93l-2.234,17.439 c-1.467,11.461-4.221,22.769-8.187,33.625l-0.733,2.013l-1.816,1.16C300.779,415.211,279.588,421.453,257.748,421.453z M262.396,405.217v3.343c17.013-0.785,33.462-5.841,48.019-14.795c1.433-4.102,2.669-8.289,3.727-12.51 c-14.019,9.372-29.062,15.179-43.738,20.85C267.734,403.128,265.065,404.159,262.396,405.217z"></path><path style="fill:#383A39;" d="M235.534,399.947l11.939,17.908h17.055l11.939-17.908c1.509-2.277,0.878-5.347-1.399-6.856 c-0.802-0.529-1.74-0.819-2.695-0.819h-32.746c-2.729,0.017-4.929,2.243-4.912,4.98 C234.724,398.207,235.005,399.145,235.534,399.947z"></path><path style="fill:#333333;" d="M267.947,424.25h-23.903l-13.866-20.79c-1.211-1.85-1.859-3.991-1.868-6.183 c-0.017-3.01,1.134-5.867,3.266-8.016c2.132-2.166,4.972-3.368,8.007-3.377h32.78c2.277,0.017,4.417,0.674,6.242,1.902 c2.507,1.654,4.23,4.213,4.835,7.18c0.605,2.968,0.017,5.995-1.646,8.519L267.947,424.25z M250.892,411.459H261.1l8.536-12.791 h-27.271L250.892,411.459z"></path><path style="fill:#827A6A;" d="M85.447,486.144c-0.316-31.373-5.927-62.218-16.672-91.681l12.015-4.383 c11.239,30.827,17.106,63.105,17.439,95.928L85.447,486.144z"></path><path style="fill:#726854;" d="M79.051,486.144c-0.316-31.373-5.927-62.218-16.672-91.681l12.015-4.383 c11.239,30.827,17.106,63.105,17.439,95.928L79.051,486.144z"></path><path style="fill:#827A6A;" d="M432.949,486.144l-12.791-0.136c0.333-32.814,6.208-65.083,17.439-95.928l12.024,4.383 C438.876,423.944,433.264,454.779,432.949,486.144z"></path><g><path style="fill:#726854;" d="M426.553,486.144l-12.791-0.136c0.333-32.814,6.208-65.083,17.439-95.928l12.024,4.383 C432.48,423.944,426.869,454.779,426.553,486.144z"></path><path style="fill:#726854;" d="M256,503.131c5.884,0,11.683,0,17.055,0l98.921-88.688l-21.234-23.451l33.173-15.776l-59.694-51.763 c0,77.431-24.048,96.533-76.749,179.081L256,503.131z"></path></g><path style="fill:#333333;" d="M273.055,511.659H256c-0.196,0-0.401-0.009-0.597-0.026l-8.528-0.597 c-3.002-0.205-5.671-1.978-7.018-4.673c-1.356-2.678-1.194-5.884,0.426-8.417c9.466-14.838,18.019-27.63,25.677-39.082 c35.177-52.641,49.733-74.429,49.733-135.411c0-3.343,1.953-6.37,4.989-7.76c3.027-1.381,6.6-0.87,9.125,1.313L389.5,368.77 c2.175,1.893,3.249,4.75,2.865,7.598c-0.392,2.857-2.192,5.313-4.793,6.558l-22.82,10.847l13.533,14.949 c1.526,1.68,2.311,3.897,2.2,6.165c-0.128,2.268-1.143,4.4-2.823,5.901l-98.921,88.688 C277.191,510.883,275.153,511.659,273.055,511.659z M262.746,494.604h7.052l90.103-80.799l-15.469-17.098 c-1.808-1.995-2.567-4.733-2.038-7.376c0.52-2.652,2.268-4.886,4.699-6.046l21.396-10.165l-36.225-31.424 c-3.087,53.281-20.492,79.324-52.104,126.644C274.787,476.346,268.988,485.027,262.746,494.604z"></path><path style="fill:#726854;" d="M139.342,414.103c72.57,59.694,93.804,77.346,107.875,88.858h17.823 c-71.718-92.013-77.26-127.318-77.26-179.507l-59.694,51.763l32.661,15.435L139.342,414.103z"></path><g><path style="fill:#333333;" d="M265.039,511.488h-17.823c-1.97,0-3.88-0.682-5.398-1.936c-5.85-4.784-12.928-10.625-24.415-20.1 c-16.16-13.329-41.044-33.863-83.486-68.767c-1.808-1.484-2.925-3.65-3.087-5.978c-0.162-2.328,0.631-4.631,2.209-6.353 l13.627-14.923l-22.223-10.498c-2.609-1.237-4.417-3.701-4.801-6.558c-0.392-2.848,0.682-5.714,2.857-7.607l59.694-51.763 c2.524-2.183,6.089-2.695,9.125-1.313c3.036,1.39,4.989,4.426,4.989,7.76c0,48.028,3.641,82.138,75.461,174.28 c1.995,2.567,2.362,6.055,0.93,8.98C271.265,509.638,268.297,511.488,265.039,511.488z M151.69,413.216 c38.264,31.476,61.305,50.501,76.57,63.088c6.302,5.193,11.274,9.304,15.452,12.74c-50.782-68.349-62.098-103.943-64.085-147.238 l-36.072,31.279l20.842,9.841c2.447,1.16,4.196,3.403,4.724,6.063c0.529,2.661-0.239,5.398-2.064,7.393L151.69,413.216z"></path><path style="fill:#333333;" d="M256.026,512c-80.066-0.205-158.538-14.744-233.299-43.193c-4.221-1.603-6.455-6.217-5.108-10.523 c0.196-0.623,4.98-15.716,17.405-43.551c9.781-22.308,18.377-24.628,37.206-29.676l2.473-0.665 c20.228-5.466,39.5-10.054,58.935-14.019l3.411,16.706c-19.076,3.897-38.016,8.4-57.903,13.781l-2.49,0.665 c-17.294,4.648-19.52,5.245-26.035,20.1c-6.993,15.665-11.504,27.212-14.054,34.153c70.49,25.796,144.271,38.971,219.459,39.176 c75.137-0.196,148.91-13.371,219.399-39.176c-2.567-6.916-7.061-18.42-14.028-34.119c-6.635-15.128-8.928-15.725-26.785-20.355 l-1.671-0.435c-19.136-4.972-37.931-9.764-57.613-13.704l3.368-16.723c20.1,4.042,39.159,8.894,58.525,13.926l1.671,0.435 c19.332,5.006,28.158,7.291,38.11,29.983c12.399,27.954,17.175,42.851,17.371,43.482c1.364,4.315-0.87,8.945-5.1,10.549 C414.521,497.256,336.041,511.795,256.026,512z"></path></g></svg>