<!-- icon666.com - MILLIONS vector ICONS FREE --><svg version="1.1" id="Capa_1" xmlns="http://www.w3.org/2000/svg" xmlns:xlink="http://www.w3.org/1999/xlink" x="0px" y="0px" viewBox="0 0 512.001 512.001" style="enable-background:new 0 0 512.001 512.001;" xml:space="preserve"><path style="fill:#333333;" d="M197.781,453.872c-2.469,0-4.908-1.183-6.399-3.385c-0.237-0.35-26.071-37.1-109.643-85.949 c-1.965-1.142-3.323-3.107-3.714-5.35c-0.391-2.243,0.237-4.537,1.708-6.276c29.682-35.299,98.84-58.098,176.178-58.098 c77.44,0,146.64,22.85,176.291,58.212c1.461,1.739,2.078,4.054,1.677,6.286c-0.391,2.243-1.759,4.198-3.724,5.34 c-83.552,48.427-109.365,85.465-109.612,85.825c-2.397,3.519-7.181,4.434-10.71,2.058c-3.519-2.377-4.455-7.15-2.078-10.679 c1.049-1.554,25.793-37.542,106.258-85.599c-29.672-27.789-91.371-46.01-158.091-46.01c-66.648,0-128.316,18.19-158.009,45.938 c80.465,48.407,105.219,84.097,106.268,85.64c2.387,3.529,1.471,8.334-2.058,10.72C200.775,453.44,199.273,453.872,197.781,453.872z "></path><path style="fill:#424040;" d="M255.9,302.942c-77.06,0-143.008,22.943-170.272,55.351c86.628,50.207,112.143,87.863,112.143,87.863 h116.361c0,0,25.515-37.964,112.143-88.171C398.599,325.885,333.063,302.942,255.9,302.942z"></path><path style="fill:#EDCCC3;" d="M487.491,432.267c-4.28-20.7-20.453-36.873-41.153-41.153c-16.256-3.704-54.528-12.037-96.093-20.577 c-10.288-2.263-21.606-4.218-32.511-5.761v-50.413h-123.46v49.487c-11.42,1.543-22.84,3.601-34.157,6.07 c-39.507,8.539-77.06,16.873-94.447,20.577c-20.669,4.331-36.822,20.484-41.153,41.153l-5.144,20.577 c2.881,2.161,99.283,51.442,236.632,51.442s233.751-49.281,236.632-51.442L487.491,432.267z"></path><path style="fill:#E5C2BA;" d="M256.003,431.649v72.636c137.35,0,233.751-49.281,236.632-51.442l-5.144-20.577 c-4.28-20.7-20.453-36.873-41.153-41.153c-16.256-3.704-54.528-12.037-96.093-20.577c-10.288-2.263-21.606-4.218-32.511-5.762 v-50.413h-123.46v36.009l50.001,50.207C251.836,409.169,256.003,420.209,256.003,431.649z"></path><path style="fill:#E9C7BE;" d="M343.454,396.978l6.79,1.44c16.667,3.498,32.717,6.996,47.121,10.288 c14.507-5.504,28.663-11.893,42.388-19.136l-89.509-19.445c-10.288-2.263-21.606-4.218-32.511-5.762v1.235 C317.774,380.835,328.525,393.953,343.454,396.978z"></path><g><path style="fill:#545454;" d="M169.375,370.639c-23.972,4.115-64.096,10.906-107.308,19.857 c-21.4,5.412-37.789,22.614-42.182,44.24l-3.087,18.931l0.926,0.617c75.084,33.046,156.239,50.084,238.278,50.001 C208.532,474.994,176.731,425.929,169.375,370.639z"></path><path style="fill:#545454;" d="M492.12,434.736c-4.301-21.636-20.68-38.859-42.079-44.24 c-35.217-9.506-70.979-16.832-107.102-21.914c-7.397,55.897-39.25,105.62-86.937,135.703 c82.008,0.144,163.142-16.893,238.175-50.001h0.514L492.12,434.736z"></path></g><path style="fill:#424040;" d="M450.041,417.966l-44.034-11.009c-22.552-5.556-45.392-9.887-68.418-12.963 c-12.346,45.721-41.483,85.105-81.587,110.291c-40.073-25.227-69.189-64.59-81.587-110.291 c-22.984,3.086-45.793,7.418-68.315,12.963l-44.034,11.009c-19.342,4.836-34.754,19.424-40.639,38.478 c74.066,31.987,153.904,48.438,234.575,48.355c80.887,0.165,160.941-16.297,235.192-48.355 C485.186,437.287,469.568,422.678,450.041,417.966z"></path><path style="fill:#333333;" d="M256.003,512.001c-144.479,0-240.552-52.46-241.262-52.985c-2.479-1.862-3.611-5.031-2.85-8.035 l5.144-20.577c4.897-23.375,23.385-41.874,47.059-46.843c43.756-9.764,127.915-25.587,128.759-25.752 c4.187-0.802,8.22,1.965,9.013,6.163c0.782,4.187-1.975,8.231-6.163,9.013c-0.844,0.165-84.745,15.937-128.347,25.669 c-17.778,3.714-31.585,17.531-35.289,35.207l-3.735,14.97c19.939,9.568,107.133,47.748,227.671,47.748 c120.034,0,207.022-37.871,227.661-47.8l-3.652-14.64c-3.724-18.005-17.531-31.812-35.238-35.464 c-43.53-10.165-127.576-25.525-128.419-25.68c-4.187-0.772-6.975-4.794-6.214-8.982c0.772-4.198,4.774-6.893,8.982-6.214 c0.844,0.165,85.26,15.597,128.975,25.803c23.54,4.866,42.048,23.365,46.946,47.1l5.072,20.278c0.751,3.014-0.37,6.183-2.86,8.046 C496.555,459.541,400.389,512.001,256.003,512.001z"></path><g><path style="fill:#424040;" d="M169.066,368.685l25.206-4.836v-55.763c-49.384,8.539-89.097,26.853-108.645,50.207 c86.628,50.207,112.143,87.863,112.143,87.863C182.77,422.688,172.986,396.268,169.066,368.685z"></path><path style="fill:#424040;" d="M317.733,308.189v56.174l25.206,4.218c-3.766,27.213-13.231,53.335-27.779,76.648 c5.35-7.202,34.054-42.182,111.114-86.834C406.624,335.042,367.117,316.625,317.733,308.189z"></path></g><g><path style="fill:#333333;" d="M256.003,511.59c-1.43,0-2.86-0.401-4.115-1.193c-49.724-31.379-82.698-82.811-90.466-141.105 c-0.545-4.095,2.243-7.901,6.317-8.611l25.206-4.424l2.665,15.196l-17.768,3.128c8.57,49.096,36.668,92.338,78.171,120.096 c41.514-27.758,69.621-71,78.161-120.147l-17.706-2.963l2.552-15.216l25.206,4.218c4.095,0.679,6.924,4.506,6.368,8.622 c-7.727,58.345-40.701,109.818-90.466,141.218C258.863,511.199,257.443,511.59,256.003,511.59z"></path><path style="fill:#333333;" d="M197.781,453.872c-2.469,0-4.908-1.183-6.399-3.385c-0.237-0.34-26.06-37.079-109.602-85.208 c-1.975-1.132-3.344-3.087-3.745-5.34c-0.401-2.243,0.216-4.547,1.677-6.296c17.933-21.431,50.979-38.746,93.027-48.736 c4.167-0.977,8.313,1.574,9.29,5.72c0.988,4.146-1.574,8.313-5.72,9.29c-34.137,8.118-61.524,21.071-78.397,36.925 c80.455,47.769,105.209,83.439,106.258,84.992c2.387,3.529,1.471,8.334-2.058,10.72 C200.775,453.44,199.273,453.872,197.781,453.872z"></path><path style="fill:#333333;" d="M314.132,453.862c-1.492,0-2.984-0.432-4.311-1.327c-3.519-2.377-4.455-7.15-2.078-10.679 c1.049-1.554,25.762-37.511,106.145-85.537c-16.4-14.908-43.129-27.676-76.597-36.441c-4.126-1.07-6.595-5.298-5.515-9.414 c1.08-4.136,5.35-6.574,9.414-5.515c41.987,10.988,73.438,27.593,90.949,48.016c1.502,1.739,2.13,4.064,1.749,6.317 c-0.381,2.253-1.749,4.229-3.735,5.371c-83.552,48.427-109.365,85.465-109.612,85.825 C319.029,452.679,316.601,453.862,314.132,453.862z"></path></g><path style="fill:#EDCCC3;" d="M256.003,370.536c17.449,2.418,34.908-4.259,46.298-17.696 c28.705-29.836,51.442-46.298,51.442-77.163v-15.433c20.577,0,28.396-21.091,30.865-41.153c2.881-23.56-2.778-41.153-20.577-41.153 v-20.577c0-55.66-25.309-102.884-108.028-102.884s-108.028,47.224-108.028,102.884v20.577c-17.799,0-23.457,17.593-20.577,41.153 c2.469,20.062,10.288,41.153,30.865,41.153v15.433c0,30.865,22.737,47.326,51.442,77.163 C221.156,366.195,238.574,372.851,256.003,370.536"></path><path style="fill:#E5C2BA;" d="M364.03,177.938v-20.577c0-55.66-25.309-102.884-108.028-102.884c-4.733,0-9.26,0-13.684,0.514 c-20.577,75.722-35.803,164.614-34.878,232.105c0,16.564,1.337,41.153,3.395,66.771c11.369,12.696,28.283,18.931,45.166,16.667 c17.449,2.418,34.908-4.259,46.298-17.696c28.705-29.836,51.442-46.298,51.442-77.163v-15.433c20.577,0,28.396-21.091,30.865-41.153 C387.488,195.532,381.829,177.938,364.03,177.938z"></path><g><circle style="fill:#333333;" cx="207.421" cy="227.477" r="10.288"></circle><circle style="fill:#333333;" cx="304.667" cy="227.477" r="10.288"></circle><path style="fill:#333333;" d="M277.608,318.272h-41.153c-2.84,0-5.144-2.305-5.144-5.144c0-2.84,2.305-5.144,5.144-5.144h41.153 c2.84,0,5.144,2.305,5.144,5.144C282.752,315.967,280.448,318.272,277.608,318.272z"></path><path style="fill:#333333;" d="M264.233,334.939h-13.375c-2.84,0-5.144-2.305-5.144-5.144c0-2.84,2.305-5.144,5.144-5.144h13.375 c2.84,0,5.144,2.305,5.144,5.144C269.378,332.634,267.083,334.939,264.233,334.939z"></path><path style="fill:#333333;" d="M257.104,292.047c-3.704,0-7.438-0.607-10.998-1.831l-10.998-2.994 c-2.747-0.751-4.352-3.58-3.611-6.317c0.751-2.747,3.611-4.321,6.317-3.611l11.317,3.097c5.196,1.79,10.587,1.78,15.494,0.103 l11.626-3.2c2.768-0.73,5.576,0.874,6.317,3.611c0.741,2.747-0.864,5.566-3.611,6.317l-11.317,3.097 C264.316,291.46,260.735,292.047,257.104,292.047z"></path><path style="fill:#333333;" d="M263.215,378.757c-2.418,0-4.846-0.154-7.284-0.453c-19.599,2.006-38.941-5.587-51.997-20.35 c-3.344-3.333-6.924-6.842-10.402-10.237c-23.056-22.542-42.974-42.018-42.974-72.039v-8.58 c-11.914-2.768-26.637-13.262-30.803-47.059c-2.263-18.468,0.514-32.707,8.015-41.174c3.354-3.786,7.593-6.379,12.5-7.675v-13.828 c0-50.454,20.083-110.6,115.744-110.6s115.744,60.146,115.744,110.6v13.828c4.918,1.296,9.167,3.889,12.511,7.685 c7.5,8.467,10.268,22.706,8.004,41.164c-4.156,33.808-18.889,44.302-30.803,47.069v8.58c0,28.921-17.603,46.452-39.898,68.664 c-4.352,4.331-8.941,8.899-13.704,13.848C296.775,371.288,280.438,378.757,263.215,378.757z M256.003,362.82 c0.36,0,0.71,0.021,1.06,0.072c14.928,2.068,29.62-3.56,39.353-15.042c5.165-5.381,9.836-10.041,14.26-14.445 c21.287-21.215,35.361-35.217,35.361-57.718v-15.433c0-4.259,3.457-7.716,7.716-7.716c15.679,0,21.266-18.694,23.211-34.384 c1.656-13.539,0.113-24.136-4.249-29.054c-2.078-2.346-4.836-3.436-8.673-3.436c-4.259,0-7.716-3.457-7.716-7.716v-20.577 c0-63.15-33.746-95.167-100.311-95.167s-100.311,32.017-100.311,95.167v20.577c0,4.259-3.457,7.716-7.716,7.716 c-3.838,0-6.595,1.091-8.663,3.436c-4.352,4.928-5.906,15.515-4.249,29.065c1.934,15.669,7.521,34.373,23.2,34.373 c4.259,0,7.716,3.457,7.716,7.716v15.433c0,23.529,16.081,39.24,38.334,61.01c3.519,3.436,7.15,6.996,10.854,10.71 c10.237,11.554,25.062,17.243,39.929,15.474C255.406,362.841,255.704,362.82,256.003,362.82z"></path></g><g><path id="SVGCleanerId_0" style="fill:#72B085;" d="M442.531,213.536c0-72.018-66.051-205.767-176.651-205.767 c-57.409,0-75.208,10.803-93.933,28.293l0,0c-75.825,0-111.834,153.194-106.382,215.027l17.182-13.684 c0.823,51.442,34.98,96.711,64.405,126.444c2.572-21.708,3.189-45.372,25.309-50.31c-10.875-9.558-16.204-23.941-14.198-38.273 v-15.433c-33.643,0-34.157-57.1-28.396-70.372l31.482,28.19c-1.718-14.877-0.494-29.939,3.601-44.343 c5.473-10.299,13.046-19.342,22.223-26.544c6.996-6.996,13.684-14.815,10.288-46.092c38.993,81.69,114.304,111.732,156.589,126.444 v48.15c2.047,14.342-3.292,28.735-14.198,38.273c24.692,8.025,24.075,33.746,25.412,50.31c17.182-26.338,38.89-72.018,41.976-99.9 c9.671,5.617,18.303,12.85,25.515,21.4c-3.292-66.566-23.869-94.447-24.589-94.859L442.531,213.536z"></path></g><g><path id="SVGCleanerId_0_1_" style="fill:#72B085;" d="M442.531,213.536c0-72.018-66.051-205.767-176.651-205.767 c-57.409,0-75.208,10.803-93.933,28.293l0,0c-75.825,0-111.834,153.194-106.382,215.027l17.182-13.684 c0.823,51.442,34.98,96.711,64.405,126.444c2.572-21.708,3.189-45.372,25.309-50.31c-10.875-9.558-16.204-23.941-14.198-38.273 v-15.433c-33.643,0-34.157-57.1-28.396-70.372l31.482,28.19c-1.718-14.877-0.494-29.939,3.601-44.343 c5.473-10.299,13.046-19.342,22.223-26.544c6.996-6.996,13.684-14.815,10.288-46.092c38.993,81.69,114.304,111.732,156.589,126.444 v48.15c2.047,14.342-3.292,28.735-14.198,38.273c24.692,8.025,24.075,33.746,25.412,50.31c17.182-26.338,38.89-72.018,41.976-99.9 c9.671,5.617,18.303,12.85,25.515,21.4c-3.292-66.566-23.869-94.447-24.589-94.859L442.531,213.536z"></path></g><g><path id="SVGCleanerId_0_2_" style="fill:#72B085;" d="M442.531,213.536c0-72.018-66.051-205.767-176.651-205.767 c-57.409,0-75.208,10.803-93.933,28.293l0,0c-75.825,0-111.834,153.194-106.382,215.027l17.182-13.684 c0.823,51.442,34.98,96.711,64.405,126.444c2.572-21.708,3.189-45.372,25.309-50.31c-10.875-9.558-16.204-23.941-14.198-38.273 v-15.433c-33.643,0-34.157-57.1-28.396-70.372l31.482,28.19c-1.718-14.877-0.494-29.939,3.601-44.343 c5.473-10.299,13.046-19.342,22.223-26.544c6.996-6.996,13.684-14.815,10.288-46.092c38.993,81.69,114.304,111.732,156.589,126.444 v48.15c2.047,14.342-3.292,28.735-14.198,38.273c24.692,8.025,24.075,33.746,25.412,50.31c17.182-26.338,38.89-72.018,41.976-99.9 c9.671,5.617,18.303,12.85,25.515,21.4c-3.292-66.566-23.869-94.447-24.589-94.859L442.531,213.536z"></path></g><path style="fill:#8DC69C;" d="M265.88,8.181c-57.409,0-75.208,10.803-93.933,28.293l0,0c-75.825,0-111.834,153.194-106.382,215.027 l11.42-9.054c5.967-71.298,41.153-181.487,105.97-181.487l0,0c18.622-17.49,36.421-28.293,93.83-28.293 c69.241,0,121.094,52.368,150.107,109.159C401.377,76.598,344.997,8.181,265.88,8.181z"></path><path style="fill:#5C966B;" d="M353.742,226.602v49.075c1.986,14.332-3.344,28.704-14.198,38.273 c8.22,2.5,15.083,8.21,19.033,15.844c11.883-18.406,18.272-39.816,18.416-61.73v-36.627L353.742,226.602z"></path><g><path style="fill:#333333;" d="M262.351,378.633c-2.407,0-4.836-0.154-7.253-0.432l1.831-15.33 c14.856,1.811,29.682-3.879,39.6-15.134c4.033-4.064,7.665-7.613,11.173-11.05c22.264-21.76,38.345-37.48,38.345-61.01v-48.15 h15.433v48.15c0,30.021-19.918,49.497-42.985,72.039c-3.467,3.395-7.058,6.904-10.71,10.566 C296.405,371.216,279.728,378.633,262.351,378.633z"></path><rect x="186.536" y="334.527" style="fill:#333333;" width="15.433" height="51.545"></rect><rect x="309.996" y="334.527" style="fill:#333333;" width="15.433" height="51.545"></rect></g><g><path style="fill:#427C53;" d="M191.289,73.512c6.739,21.976,17.953,42.326,32.923,59.775 c14.784,17.624,31.925,33.128,50.927,46.092c18.663,13.467,38.664,24.98,59.672,34.363c21.225,9.342,43.561,15.916,66.463,19.548 c1.914,0.319,3.231,2.089,2.984,4.012c-0.309,1.78-1.893,3.066-3.704,2.984c-24.085-1.451-47.82-6.41-70.475-14.712 c-22.861-8.066-44.435-19.363-64.096-33.54c-19.589-14.517-36.925-31.853-51.442-51.442 c-14.846-19.414-25.052-41.976-29.836-65.948c-0.422-1.903,0.772-3.796,2.675-4.218c1.903-0.422,3.796,0.772,4.218,2.675 L191.289,73.512z"></path><path style="fill:#427C53;" d="M224.829,63.532c7.871,14.054,16.78,27.501,26.647,40.227c9.712,12.48,20.824,23.807,33.129,33.746 c12.161,10.216,25.093,19.466,38.684,27.676c13.786,8.334,28.499,15.227,43.211,22.429c1.821,0.71,2.716,2.757,2.006,4.578 c-0.71,1.821-2.757,2.716-4.578,2.006c-15.947-4.794-31.524-10.741-46.606-17.799c-15.443-6.955-29.857-16.029-42.8-26.955 c-12.716-11.276-23.89-24.178-33.231-38.376c-9.167-14.002-16.821-28.931-22.84-44.549c-0.71-1.821,0.154-3.868,1.955-4.63 C222.092,61.258,223.975,61.958,224.829,63.532z"></path></g><g><path style="fill:#333333;" d="M147.471,371.977c-1.862,0-3.694-0.669-5.134-1.955c-27.542-24.538-59.528-68.644-65.876-117.081 l-5.772,4.589c-2.222,1.78-5.247,2.171-7.85,1.06c-2.613-1.111-4.393-3.58-4.65-6.41c-4.424-50.125,15.978-149.027,59.22-196.261 c15.638-17.079,33.026-26.174,51.73-27.089c19.887-18.118,44.641-29.713,96.885-28.777 c122.689,3.796,184.213,138.913,184.213,213.483c0,2.85-1.564,5.463-4.084,6.811c-2.5,1.348-5.556,1.193-7.932-0.401l-10.71-7.181 c5.803,16.749,11.225,40.855,12.644,72.656c0.154,3.292-1.821,6.317-4.897,7.521c-3.056,1.214-6.585,0.319-8.714-2.202 c-4.105-4.866-8.683-9.239-13.663-13.097c-5.751,33.633-20.124,65.064-41.987,91.536c-2.13,2.552-5.648,3.477-8.714,2.284 c-3.107-1.183-5.093-4.228-4.938-7.541c0.01-0.34,1.245-34.137-18.282-42.213c-3.94-1.626-5.813-6.142-4.187-10.072 c1.636-3.94,6.152-5.792,10.072-4.187c16.204,6.687,23.025,22.665,25.875,36.05c15.71-23.92,25.505-51.215,28.53-79.941 c0.278-2.593,1.852-4.887,4.177-6.07c2.346-1.183,5.103-1.101,7.366,0.206c4.352,2.531,8.498,5.35,12.428,8.447 c-5.175-47.347-19.424-68.572-20.69-70.362c-2.346-2.49-2.798-6.317-0.936-9.342c2.181-3.529,6.759-4.712,10.381-2.644 c0.144,0.082,0.298,0.195,0.473,0.319l0.01-0.021l21.482,14.414c-7.583-69.57-65.064-179.82-168.307-183.009 c-48.726-0.936-70.537,9.928-88.068,26.585c-1.44,1.358-3.333,2.119-5.319,2.119c-15.381,0-30.001,7.459-43.458,22.151 C92.881,105.56,73.498,186.55,73.035,235.934l5.206-4.146c2.305-1.831,5.453-2.191,8.107-0.947c2.654,1.255,4.373,3.91,4.424,6.852 c0.679,42.542,25.443,83.14,50.238,109.509c2.552-16.503,9.877-36.256,30.073-40.783c4.187-0.905,8.282,1.698,9.218,5.854 c0.926,4.146-1.687,8.282-5.844,9.218c-17.881,3.992-19.28,33.756-19.28,42.779c0,3.045-1.78,5.792-4.558,7.048 C149.611,371.761,148.541,371.977,147.471,371.977z"></path><path style="fill:#333333;" d="M133.16,191.005c-1.327,6.564-1.708,13.282-1.132,19.959c0.432,6.79,1.574,13.509,3.395,20.062 c1.605,6.039,4.558,11.636,8.642,16.358c3.652,3.94,8.827,6.122,14.198,5.967c3.745-0.113,6.883,2.829,6.996,6.585 c0,0.031,0,0.072,0,0.103l0,0v10.288c0,3.498,0,6.687,0.514,9.465c0.71,5.823,2.387,11.492,4.938,16.77 c6.05,11.307,13.663,21.698,22.634,30.865l13.889,14.712c4.311,4.908,8.91,9.548,13.786,13.889 c9.702,8.118,22.151,12.212,34.775,11.42v6.687c-7.058,1.019-14.239,1.019-21.297,0c-7.428-1.626-14.435-4.774-20.577-9.26 c-5.617-4.187-10.947-8.766-15.947-13.684c-5.041-4.424-10.288-8.951-15.021-13.786c-10.978-9.373-20.052-20.752-26.75-33.54 c-3.148-7.037-4.897-14.62-5.144-22.326c0-4.012,0-7.51,0-10.288v-10.288l6.996,6.996c-9.208-0.144-17.891-4.321-23.766-11.42 c-5.154-6.441-8.683-14.033-10.288-22.12c-1.533-7.438-2.161-15.042-1.852-22.634c0.072-7.737,1.389-15.422,3.91-22.737 L133.16,191.005z"></path></g><path style="fill:#427C53;" d="M201.474,101.187l0.926,15.741c0.648,5.916,0.298,11.893-1.029,17.696 c-4.362,10.792-11.194,20.422-19.959,28.087c-6.471,6.41-10.7,14.754-12.037,23.766c0,3.91-0.617,10.288-0.823,15.227l-0.823,16.05 v0.72c-0.165,3.405-3.066,6.029-6.471,5.864h-0.01c-1.543-0.134-2.994-0.792-4.115-1.852c-9.774-10.288-19.857-20.062-29.425-30.865 c-1.451-1.307-1.564-3.539-0.257-4.99c1.307-1.451,3.539-1.564,4.99-0.257c11.317,8.436,22.223,17.49,33.231,26.235l-10.288,4.733 l-0.823-16.05c-0.37-5.617-0.37-11.255,0-16.873c0.514-6.43,2.479-12.655,5.761-18.21c3.138-5.144,6.976-9.825,11.42-13.889 c7.85-5.926,14.455-13.334,19.445-21.811c1.152-4.434,1.708-9.002,1.646-13.581l1.44-16.153c0.216-1.955,1.955-3.375,3.91-3.189 c1.739,0.154,3.097,1.554,3.189,3.292L201.474,101.187z"></path></svg>