<!-- icon666.com - MILLIONS vector ICONS FREE --><svg version="1.1" id="Capa_1" xmlns="http://www.w3.org/2000/svg" xmlns:xlink="http://www.w3.org/1999/xlink" x="0px" y="0px" viewBox="0 0 512.022 512.022" style="enable-background:new 0 0 512.022 512.022;" xml:space="preserve"><path style="fill:#858B8E;" d="M488.647,434.844c-6.105-20.11-22.574-35.362-43.093-39.901 c-39.901-9.975-77.009-19.951-189.53-19.951s-139.654,9.975-189.53,19.951c-20.719,4.15-37.357,19.561-43.093,39.901l-6.783,19.951 c75.642,32.519,157.07,49.487,239.406,49.876c82.455,0.738,164.103-16.27,239.406-49.876L488.647,434.844z"></path><path style="fill:#64686B;" d="M447.15,418.584l-43.392-10.474c-48.18-11.771-97.558-43.692-147.135-43.692h-0.798 c-49.876,0-99.054,31.921-147.135,43.991l-43.492,10.574c-19.202,5.008-34.365,19.741-39.901,38.804 c147.594,63.742,314.959,63.742,462.553,0C482.283,438.365,466.762,423.412,447.15,418.584z"></path><path style="fill:#913D3D;" d="M256.623,364.418h-0.798c-47.223,1.217-94.117,8.18-139.654,20.749l92.87,118.207 c15.462,1.197,31.123,1.796,46.884,1.796s31.223-0.599,46.285-1.796l93.468-118.207C350.33,372.658,303.636,365.695,256.623,364.418 z"></path><path style="fill:#333333;" d="M256.124,512.022c-17.546,0-35.083-0.728-52.5-2.205c-2.125-0.18-4.08-1.257-5.357-2.963 l-87.882-117.209c-1.576-2.095-1.935-4.858-0.948-7.292c0.978-2.424,3.162-4.16,5.746-4.579 c46.495-7.491,93.947-10.883,140.97-10.075c46.804-1.097,94.256,2.284,140.761,10.085c2.574,0.429,4.738,2.175,5.706,4.589 c0.978,2.424,0.608,5.187-0.958,7.272L313.98,506.855c-1.287,1.716-3.232,2.793-5.367,2.973 C291.197,511.294,273.661,512.022,256.124,512.022z M208.213,495.194c31.791,2.484,63.981,2.484,95.812,0l78.236-104.581 c-41.657-6.264-83.972-8.928-126.067-7.94c-42.325-0.708-84.67,1.975-126.347,8L208.213,495.194z"></path><path style="fill:#A54646;" d="M256.623,364.418h-0.798c-37.996,0.1-75.892,3.711-113.219,10.773l39.901,49.876 c17.606,22.175,44.31,35.163,72.62,35.312h1.496c28.32-0.12,55.034-13.117,72.62-35.312l39.901-49.876 C332.046,368.109,294.379,364.508,256.623,364.418z"></path><g><rect x="205.949" y="435.442" style="fill:#E2A296;" width="20.05" height="4.988"></rect><rect x="205.949" y="444.52" style="fill:#E2A296;" width="20.05" height="4.988"></rect><rect x="205.949" y="453.597" style="fill:#E2A296;" width="20.05" height="4.988"></rect><rect x="205.949" y="462.675" style="fill:#E2A296;" width="20.05" height="4.988"></rect><rect x="205.949" y="471.752" style="fill:#E2A296;" width="20.05" height="4.988"></rect><rect x="205.949" y="480.83" style="fill:#E2A296;" width="20.05" height="4.988"></rect><rect x="232.483" y="453.597" style="fill:#E2A296;" width="20.15" height="4.988"></rect><rect x="232.483" y="462.675" style="fill:#E2A296;" width="20.15" height="4.988"></rect><rect x="232.483" y="471.752" style="fill:#E2A296;" width="20.15" height="4.988"></rect><rect x="232.483" y="480.83" style="fill:#E2A296;" width="20.15" height="4.988"></rect><rect x="259.117" y="471.752" style="fill:#E2A296;" width="20.05" height="4.988"></rect><rect x="259.117" y="480.83" style="fill:#E2A296;" width="20.05" height="4.988"></rect><rect x="285.751" y="444.52" style="fill:#E2A296;" width="20.05" height="4.988"></rect><rect x="285.751" y="453.597" style="fill:#E2A296;" width="20.05" height="4.988"></rect><rect x="285.751" y="462.675" style="fill:#E2A296;" width="20.05" height="4.988"></rect><rect x="285.751" y="471.752" style="fill:#E2A296;" width="20.05" height="4.988"></rect><rect x="285.751" y="480.83" style="fill:#E2A296;" width="20.05" height="4.988"></rect></g><path style="fill:#BC6868;" d="M256.024,385.067c-24.639-0.319-48.739-7.202-69.827-19.951v19.951c0,0,19.951,19.951,69.827,19.951 s69.827-19.951,69.827-19.951v-19.951C325.851,365.117,305.901,385.067,256.024,385.067z"></path><path style="fill:#9B7368;" d="M186.198,315.34v49.876c0,0,19.951,19.951,69.827,19.951c59.852,0,69.827-19.951,69.827-19.951 V315.34H186.198z"></path><g><path style="fill:#333333;" d="M256.024,395.132c-53.398,0-75.942-21.936-76.879-22.873c-3.9-3.9-3.9-10.205,0-14.105 c3.9-3.9,10.205-3.9,14.105,0c0.1,0.09,18.394,17.028,62.774,17.028c50.674,0,61.088-14.793,61.188-14.953 c2.464-4.928,8.319-6.673,13.237-4.2c4.928,2.464,6.793,8.708,4.329,13.636C332.644,373.925,318.858,395.132,256.024,395.132z"></path><path style="fill:#333333;" d="M379.917,259.678c16.898-16.968,26.125-40.101,25.537-64.041 c0-41.098-43.392-214.967-149.629-179.555C149.688-19.23,106.196,154.639,106.196,195.637 c-0.589,23.941,8.639,47.073,25.537,64.041c-2.813,8.349-4.688,16.978-5.586,25.736c0,40.699,18.853,57.557,37.008,85.288 c-8.678,16.559-16.858,27.432-16.858,54.365v19.951h39.901v-19.951c0.06-13.826-3.082-27.482-9.177-39.901 c5.067,0,9.177-4.11,9.177-9.177v-60.65h139.654v60.849c0,4.958,4.02,8.978,8.978,8.978l0,0 c-6.095,12.419-9.237,26.075-9.177,39.901v19.951h39.901v-19.951c0-27.033-8.18-37.806-17.058-54.365 c18.155-27.731,37.008-44.589,37.008-85.288C384.595,276.656,382.72,268.017,379.917,259.678z"></path></g><g><path style="fill:#444242;" d="M335.826,385.167c-6.474,12.309-9.895,25.996-9.975,39.901v19.951h19.951v-19.951 c0.11-13.906,3.531-27.582,9.975-39.901H335.826z"></path><path style="fill:#444242;" d="M175.823,64.562c16.459-19.951,32.32-43.791,59.852-47.881 c-39.901-5.287-58.455,24.439-78.007,47.881c-24.639,29.228-29.926,61.248-49.876,136.661 c-5.786,22.045,7.681,44.988,23.043,62.844c-2.823,6.803-4.539,14.005-5.087,21.347c0,29.926,7.681,45.188,18.354,56.56 c4.09,4.988,7.88,9.975,11.472,15.661v27.532c-6.444,13.387-9.816,28.04-9.876,42.894v15.96h17.856v-15.96 c1.027-15.053,5.347-29.696,12.669-42.894v-24.34c-15.661-25.038-29.926-34.514-29.926-75.413c0-4.289,2.095-17.157,2.793-21.347 c-15.262-17.856-28.828-40.799-23.043-62.844C145.897,125.81,151.284,94.089,175.823,64.562z"></path></g><path style="fill:#333333;" d="M365.752,454.984h-39.901c-5.516,0-9.975-4.459-9.975-9.975v-19.951 c-0.04-14.484,3.122-28.988,9.157-42.195l-8.589-24.31c-0.369-1.057-0.569-2.195-0.569-3.322v-29.926H196.173v39.901 c0,1.676-0.419,3.312-1.227,4.778l-7.531,13.786c5.776,12.958,8.788,27.133,8.748,41.308v19.931c0,5.516-4.469,9.975-9.975,9.975 h-39.901c-5.506,0-9.975-4.459-9.975-9.975v-19.951c0-26.015,7.212-39.123,14.833-52.999c0.15-0.269,0.299-0.549,0.449-0.828 c-2.284-3.332-4.569-6.524-6.793-9.656c-14.674-20.589-28.539-40.041-28.539-76.181c-0.479-10.255,2.165-20.599,7.551-29.607 c-12.639-17.626-18.813-38.913-17.507-60.769c-0.02-37.497,22.315-143.953,77.607-181.38c21.846-14.783,46.046-17.556,72.001-8.25 c25.966-9.317,50.176-6.544,72.011,8.25c55.283,37.427,77.617,143.883,77.617,181.979c1.387,21.327-4.788,42.574-17.507,60.171 c5.407,8.988,8.08,19.402,7.621,30.035c0.01,35.711-13.856,55.153-28.529,75.752c-2.224,3.122-4.499,6.304-6.783,9.636 c0.14,0.239,0.269,0.499,0.409,0.738c7.691,13.856,14.963,26.933,14.963,53.098v19.951 C375.727,450.525,371.258,454.984,365.752,454.984z M335.826,435.033h19.951v-9.975c0-18.773-4.18-28.28-10.225-39.382 c-0.18,0.808-0.459,1.586-0.848,2.334c-5.836,11.412-8.918,24.21-8.878,37.018V435.033z M156.272,435.033h19.951v-9.975 c0.03-12.838-3.042-25.636-8.878-37.058c-0.389-0.758-0.678-1.556-0.858-2.374c-6.035,11.182-10.215,20.699-10.215,39.432V435.033z M226.787,20.003c-11.162,0-21.656,3.382-31.681,10.175c-48.38,32.749-68.859,131.633-68.859,165.45 c-1.167,19.901,5.077,38.654,17.586,53.408c3.122,3.681,3.162,9.068,0.09,12.788c-5.357,6.504-8.1,14.723-7.701,23.123 c0.01,30.205,10.973,45.587,24.848,65.049c3.451,4.828,7.013,9.826,10.544,15.222c0.678,1.037,1.147,2.165,1.407,3.332l3.222-5.905 V315.32c0-5.516,4.469-9.975,9.975-9.975h139.654c5.516,0,9.975,4.459,9.975,9.975v38.185l4.279,12.11 c0.08-0.14,0.17-0.269,0.239-0.399c3.531-5.397,7.092-10.394,10.544-15.222c13.886-19.462,24.838-34.844,24.838-64.6 c0.369-8.868-2.394-17.078-7.771-23.552c-3.102-3.731-3.062-9.157,0.1-12.858c12.569-14.704,18.813-33.437,17.576-52.729 c-0.02-34.465-20.509-133.339-68.879-166.088c-17.287-11.711-35.971-13.297-57.108-4.838c-2.384,0.948-5.028,0.948-7.412,0 C243.336,21.788,234.887,20.003,226.787,20.003z"></path><path style="fill:#9B7368;" d="M355.777,155.736V125.81c0-54.864-18.654-89.777-99.753-89.777s-99.753,35.013-99.753,89.777v29.926 c-27.731,0-34.115,17.257-29.926,39.901c3.89,19.951,14.165,45.687,33.517,45.687v10.175c0,33.916,17.856,44.39,46.185,73.817 c11.861,14.743,30.504,22.295,49.278,19.951c20.549,0,31.821-0.499,50.475-19.951c28.23-29.327,44.889-43.193,44.889-73.817v-10.574 c19.352,0,31.023-25.437,34.913-45.288C390.69,173.392,383.508,155.736,355.777,155.736z"></path><path style="fill:#956A5E;" d="M355.777,155.736V125.81c0-54.864-18.654-89.777-99.753-89.777c-7.182,0-13.666,0-19.951,0.898 c-16.31,67.114-24.679,135.923-24.938,204.992c0,9.975,0,48.779,0,87.782c11.701,11.861,28.25,17.606,44.789,15.561 c20.549,0,31.821-0.499,50.475-19.951c28.23-29.327,44.889-43.193,44.889-73.817v-10.574c19.951,0,31.023-25.437,34.913-45.288 C390.69,173.392,383.508,155.736,355.777,155.736z"></path><g><path style="fill:#333333;" d="M256.024,125.71c49.876,39.901,102.945,20.848,109.728,69.827 c9.427-23.402,14.304-48.39,14.364-73.617c0-39.303-38.205-106.137-124.092-106.137S131.932,82.617,131.932,121.92 c0.06,25.227,4.938,50.215,14.364,73.617C153.08,146.559,206.148,165.711,256.024,125.71z"></path><path style="fill:#333333;" d="M146.287,203.019c-3.023,0-5.786-1.825-6.933-4.688c-9.826-24.399-14.843-50.096-14.903-76.391 c0-39.642,38.594-113.638,131.574-113.638S387.598,82.298,387.598,121.92c-0.07,26.335-5.087,52.031-14.913,76.41 c-1.267,3.142-4.439,5.037-7.851,4.629c-3.362-0.419-6.025-3.042-6.494-6.394c-3.112-22.444-16.18-27.213-43.083-35.053 c-17.247-5.028-38.425-11.202-59.223-26.385c-20.828,15.242-42.036,21.407-59.313,26.444 c-26.853,7.821-39.901,12.579-43.013,34.993c-0.459,3.352-3.122,5.985-6.494,6.394 C146.905,202.999,146.596,203.019,146.287,203.019z M256.024,23.265c-82.406,0-116.611,64.251-116.611,98.655 c0.04,17.347,2.414,34.435,7.062,50.994c9.985-15.202,27.651-20.35,46.066-25.706c18.195-5.297,38.814-11.302,58.804-27.332 c2.733-2.195,6.624-2.195,9.357,0c19.96,15.97,40.559,21.975,58.744,27.272c18.444,5.377,36.14,10.534,46.136,25.766 c4.648-16.559,7.013-33.637,7.063-51.003C372.635,87.515,338.43,23.265,256.024,23.265z"></path><circle style="fill:#333333;" cx="210.597" cy="199.527" r="7.481"></circle><circle style="fill:#333333;" cx="301.073" cy="199.527" r="7.481"></circle><path style="fill:#333333;" d="M248.403,355.66c-19.422,0.01-37.726-8.678-50.126-24.1c-4.269-4.379-8.818-8.858-13.008-12.998 c-20.539-20.24-35.382-34.873-35.382-67.074v-1.875c-15.751-5.466-27.871-24.08-33.327-52.081 c-3.112-16.788-0.828-29.856,6.733-38.953c5.397-6.484,13.107-10.534,23.013-12.09V125.8c0-69.917,32.819-99.753,109.728-99.753 S365.762,55.884,365.762,125.8v20.689c10.275,1.626,18.245,5.915,23.751,12.828c7.442,9.337,9.457,22.654,5.826,38.534 c-4.1,20.908-15.482,45.098-34.664,51.452v2.195c0,31.751-15.901,48.071-39.961,72.77l-7.711,7.96 c-20.858,21.746-34.684,22.993-57.068,23.013C253.411,355.53,250.897,355.66,248.403,355.66z M256.024,45.998 c-75.084,0-89.777,29.257-89.777,79.802v29.926c0,5.506-4.469,9.975-9.975,9.975c-8.589,0-14.534,1.895-17.646,5.636 c-4.479,5.387-3.821,15.192-2.474,22.464c3.631,18.634,12.389,37.527,23.701,37.527c5.506,0,9.975,4.469,9.975,9.975v10.185 c0,23.851,9.836,33.537,29.437,52.869c4.309,4.249,8.968,8.848,13.955,14.025c10.344,12.808,25.397,18.913,40.859,16.968 c0.409-0.05,0.828-0.08,1.237-0.08c18.604,0,27.083,0,43.273-16.878l7.811-8.06c22.833-23.442,34.295-35.203,34.295-58.844v-10.564 c0-5.506,4.459-9.975,9.975-9.975c11.701,0,21.487-18.734,25.128-37.228c2.264-9.915,1.556-17.606-1.905-21.956 c-3.192-4.01-9.307-6.045-18.125-6.045c-5.516,0-9.975-4.469-9.975-9.975V125.82C345.802,75.266,331.108,45.998,256.024,45.998z"></path></g><path style="fill:#CE7A78;" d="M176.222,355.241h-19.951c-8.26,0-14.963,6.703-14.963,14.963c0,8.26,6.703,14.963,14.963,14.963 h19.951c8.259,0,14.963-6.703,14.963-14.963C191.185,361.944,184.482,355.241,176.222,355.241z"></path><path style="fill:#333333;" d="M176.222,395.132h-19.951c-13.746,0-24.938-11.182-24.938-24.938s11.192-24.938,24.938-24.938h19.951 c13.746,0,24.938,11.182,24.938,24.938S189.968,395.132,176.222,395.132z M156.272,365.206c-2.753,0-4.988,2.244-4.988,4.988 c0,2.743,2.234,4.988,4.988,4.988h19.951c2.753,0,4.988-2.244,4.988-4.988c0-2.743-2.234-4.988-4.988-4.988H156.272z"></path><path style="fill:#CE7A78;" d="M355.777,355.241h-19.951c-8.26,0-14.963,6.703-14.963,14.963c0,8.26,6.703,14.963,14.963,14.963 h19.951c8.26,0,14.963-6.703,14.963-14.963C370.74,361.944,364.036,355.241,355.777,355.241z"></path><g><path style="fill:#333333;" d="M355.777,395.132h-19.951c-13.756,0-24.938-11.182-24.938-24.938s11.182-24.938,24.938-24.938 h19.951c13.756,0,24.938,11.182,24.938,24.938S369.533,395.132,355.777,395.132z M335.826,365.206 c-2.743,0-4.988,2.244-4.988,4.988c0,2.743,2.244,4.988,4.988,4.988h19.951c2.743,0,4.988-2.244,4.988-4.988 c0-2.743-2.244-4.988-4.988-4.988H335.826z"></path><path style="fill:#333333;" d="M252.922,511.753c-71.902,0-154.138-12.509-239.316-49.916c-3.402-1.486-5.197-5.257-4.2-8.838 c1.935-7.013,4.319-14.005,7.062-20.778c6.963-21.736,25.537-38.923,48.28-44.36c14.574-3.641,30.145-6.763,50.405-10.085 l2.414,14.763c-19.831,3.252-35.033,6.284-49.268,9.846c-17.776,4.249-32.22,17.626-37.786,34.933 c-1.855,4.589-3.451,9.028-4.848,13.427c225.152,95.902,426.602,15.611,460.488,0.459c-1.117-3.242-2.663-7.801-4.629-13.856 c-5.197-17.876-19.532-31.153-37.507-34.893c-14.863-3.681-30.524-6.813-49.567-9.915l2.414-14.763 c19.442,3.162,35.492,6.384,50.475,10.105c23.133,4.798,41.816,22.105,48.48,45.078c4.399,13.497,6.564,19.322,6.604,19.422 c1.117,3.033,0.19,6.434-2.334,8.449C498.952,461.747,396.646,511.743,252.922,511.753z"></path></g><path style="fill:#892E2E;" d="M106.395,195.637c-1.007,32.05,24.16,58.844,56.201,59.852c1.217,0.04,2.434,0.04,3.651,0V135.785 C126.346,135.785,106.395,155.736,106.395,195.637z"></path><path style="fill:#A54646;" d="M106.395,195.637c-1.007,32.05,24.16,58.844,56.201,59.852c1.217,0.04,2.434,0.04,3.651,0V135.785 C126.346,135.785,106.395,155.736,106.395,195.637z"></path><path style="fill:#892E2E;" d="M126.346,205.612c-0.668,18.434,7.571,36.071,22.145,47.382c5.746,1.616,11.681,2.454,17.656,2.494 V148.055C139.813,154.14,126.346,173.193,126.346,205.612z"></path><g><path style="fill:#333333;" d="M164.422,265.484c-0.708,0-1.426-0.01-2.145-0.04c-18.155-0.569-35.013-8.17-47.452-21.417 c-12.399-13.207-18.933-30.444-18.404-48.55c0.05-45.587,24.2-69.677,69.827-69.677c5.506,0,9.975,4.469,9.975,9.975v119.703 c0,5.387-4.269,9.796-9.656,9.965C165.848,265.474,165.13,265.484,164.422,265.484z M156.272,146.24 c-27.502,2.853-39.901,18.414-39.901,49.388c0,0.1,0,0.209,0,0.309c-0.409,12.838,4.21,25.068,13.008,34.425 c7.262,7.721,16.629,12.738,26.903,14.484V146.24H156.272z"></path><rect x="131.633" y="202.121" style="fill:#333333;" width="10.474" height="4.988"></rect><rect x="131.633" y="212.884" style="fill:#333333;" width="10.474" height="4.988"></rect><rect x="131.633" y="223.667" style="fill:#333333;" width="10.474" height="4.988"></rect></g><path style="fill:#A54646;" d="M405.653,195.637c1.008,32.05-24.16,58.844-56.201,59.852c-1.217,0.04-2.434,0.04-3.651,0V135.785 C385.703,135.785,405.653,155.736,405.653,195.637z"></path><path style="fill:#892E2E;" d="M385.703,205.612c0.668,18.434-7.571,36.071-22.145,47.382c-5.746,1.616-11.681,2.454-17.656,2.494 V148.055C372.236,154.14,385.703,173.193,385.703,205.612z"></path><g><path style="fill:#333333;" d="M347.627,265.484c-0.718,0-1.436-0.01-2.155-0.04c-5.377-0.17-9.656-4.579-9.656-9.965V135.775 c0-5.506,4.459-9.975,9.975-9.975c45.627,0,69.777,24.09,69.827,69.677c1.087,37.427-28.429,68.799-65.867,69.976 C349.054,265.474,348.345,265.484,347.627,265.484z M355.777,146.24v98.605c23.262-3.98,40.659-24.659,39.911-48.899 c-0.01-0.1-0.01-0.209-0.01-0.309C395.678,164.654,383.279,149.092,355.777,146.24z"></path><rect x="369.902" y="202.121" style="fill:#333333;" width="10.474" height="4.988"></rect><rect x="369.902" y="212.884" style="fill:#333333;" width="10.474" height="4.988"></rect><rect x="369.902" y="223.667" style="fill:#333333;" width="10.474" height="4.988"></rect></g><path style="fill:#892E2E;" d="M365.353,167.208c-8.26,0-14.963-6.703-14.963-14.963c0-57.457-32.819-87.882-94.565-87.882 s-94.565,30.425-94.565,87.782c0,8.26-6.703,14.963-14.963,14.963c-8.26,0-14.963-6.703-14.963-14.963 c0-73.817,46.485-117.808,124.391-117.808s124.99,43.991,124.99,117.808c0.06,8.23-6.534,14.953-14.763,15.063H365.353z"></path><path style="fill:#A54646;" d="M149.389,164.813c0-73.817,46.584-117.808,124.491-117.808c24.639-0.708,49.048,4.888,70.924,16.26 c-21.347-18.753-51.472-28.928-88.979-28.928c-77.907,0-124.491,44.589-124.491,117.808c0,8.24,6.624,14.953,14.863,15.063 c1.087,0.16,2.205,0.16,3.292,0C149.489,166.11,149.489,165.512,149.389,164.813z"></path><path style="fill:#722929;" d="M368.246,164.813c0-37.507-14.065-63.343-40.899-76.909c16.06,17.397,24.31,40.609,22.843,64.241 c0,8.26,6.703,14.963,14.963,14.963c1.097,0.1,2.195,0.1,3.292,0C368.316,166.35,368.246,165.582,368.246,164.813z"></path><g><path style="fill:#333333;" d="M365.353,174.689c-12.369,0-22.444-10.065-22.444-22.444c0-53.348-29.307-80.401-87.084-80.401 c-57.787,0-87.084,27.013-87.084,80.301c0,12.379-10.065,22.444-22.444,22.444c-12.379,0-22.444-10.065-22.444-22.444 c0-78.455,49.298-125.289,131.873-125.289c81.707,0,132.471,48.011,132.471,125.289c0.09,12.24-9.846,22.374-22.155,22.544 C366.011,174.689,365.383,174.689,365.353,174.689z M255.825,56.881c65.807,0,102.047,33.866,102.047,95.363 c0,4.13,3.362,7.481,7.481,7.481h0.599c4-0.05,7.312-3.431,7.282-7.531c0-69.139-43.921-110.376-117.508-110.376 c-74.296,0-116.91,40.21-116.91,110.326c0,4.13,3.352,7.481,7.481,7.481c4.13,0,7.481-3.352,7.481-7.481 C153.778,90.707,190.018,56.881,255.825,56.881z"></path><path style="fill:#333333;" d="M275.975,290.392h-39.901c-2.753,0-4.988-2.234-4.988-4.988c0-2.753,2.234-4.988,4.988-4.988h39.901 c2.753,0,4.988,2.234,4.988,4.988C280.962,288.157,278.728,290.392,275.975,290.392z"></path><path style="fill:#333333;" d="M261.012,310.342h-9.975c-2.753,0-4.988-2.234-4.988-4.988c0-2.753,2.234-4.988,4.988-4.988h9.975 c2.753,0,4.988,2.234,4.988,4.988C266,308.108,263.765,310.342,261.012,310.342z"></path><path style="fill:#333333;" d="M256.084,265.065c-3.591,0-7.212-0.589-10.664-1.776l-10.703-3.013 c-2.653-0.748-4.19-3.511-3.441-6.155c0.748-2.673,3.511-4.2,6.155-3.451l10.973,3.102c5.018,1.726,10.245,1.716,14.973,0.09 l11.242-3.182c2.633-0.738,5.407,0.788,6.155,3.451c0.748,2.653-0.798,5.407-3.451,6.155l-10.973,3.102 C263.097,264.506,259.605,265.065,256.084,265.065z"></path></g></svg>