<!-- icon666.com - MILLIONS vector ICONS FREE --><svg version="1.1" id="Capa_1" xmlns="http://www.w3.org/2000/svg" xmlns:xlink="http://www.w3.org/1999/xlink" x="0px" y="0px" viewBox="0 0 512 512" style="enable-background:new 0 0 512 512;" xml:space="preserve"><path style="fill:#D88290;" d="M80.815,120.824c13.251,18.259,33.681,29.956,56.134,32.136c9.693-42.153-16.6-84.18-58.743-93.905 c-3.443-0.741-6.928-1.262-10.434-1.565C62.838,79.496,67.585,102.554,80.815,120.824z"></path><g><path style="fill:#B26776;" d="M97.395,100.791c-0.136,0-0.271-0.01-0.417-0.031l-29.11-4.695c-1.419-0.23-2.389-1.565-2.149-2.995 c0.23-1.419,1.534-2.421,2.995-2.16l26.533,4.278l4.278-26.638c0.23-1.419,1.576-2.368,2.984-2.16 c1.419,0.23,2.389,1.565,2.17,2.995L99.982,98.6c-0.115,0.678-0.49,1.294-1.054,1.701C98.48,100.624,97.948,100.791,97.395,100.791 z"></path><path style="fill:#B26776;" d="M111.491,120.302c-0.125,0-0.25-0.01-0.376-0.021l-35.788-5.113 c-1.429-0.209-2.421-1.523-2.212-2.953c0.209-1.429,1.534-2.379,2.953-2.212l33.221,4.747l5.04-34.265 c0.219-1.419,1.534-2.379,2.963-2.202c1.419,0.219,2.41,1.534,2.202,2.963l-5.426,36.832 C113.88,119.363,112.764,120.302,111.491,120.302z"></path></g><path style="fill:#333333;" d="M136.95,160.786c-0.25,0-0.501-0.01-0.762-0.031c-3.631-0.355-7.231-0.939-10.789-1.742 C79,148.474,49.816,102.158,60.355,55.759c0.866-3.84,4.497-6.438,8.368-6.062c3.808,0.355,7.606,0.97,11.289,1.815 c22.402,5.165,41.464,18.729,53.661,38.23s16.079,42.57,10.914,64.982C143.742,158.292,140.56,160.786,136.95,160.786z M74.367,66.318c-4.351,35.506,18.864,69.343,54.486,77.43c0.574,0.136,1.148,0.25,1.732,0.376 c2.035-16.058-1.492-32.168-10.194-46.076c-9.985-15.953-25.573-27.055-43.906-31.281C75.786,66.61,75.077,66.453,74.367,66.318z"></path><path style="fill:#B26776;" d="M156.044,182.071c-0.803,0-1.607-0.376-2.118-1.085L87.044,88.333 c-0.845-1.169-0.584-2.796,0.584-3.641c1.158-0.856,2.786-0.574,3.641,0.584l66.881,92.653c0.845,1.169,0.584,2.807-0.584,3.641 C157.108,181.914,156.565,182.071,156.044,182.071z"></path><path style="fill:#EECCC2;" d="M495.979,431.127c-3.234-21.097-20.471-37.259-41.735-39.127 c-62.603-2.608-104.339-15.651-135.64-15.651v-75.541H193.397v75.541c-31.302,0-73.037,13.042-135.64,15.651 c-21.264,1.868-38.501,18.03-41.735,39.127l-5.217,20.868c76.991,34.922,160.65,52.722,245.196,52.169 c84.546,0.553,168.204-17.247,245.196-52.169L495.979,431.127z"></path><path style="fill:#F2D5CE;" d="M16.334,429.875c7.825-7.064,17.852-11.227,28.38-11.79c40.567-2.452,80.977-7.116,121.033-13.981 c13.157-1.534,23.09-12.635,23.163-25.876v-1.774c-30.467,1.043-71.472,13.042-131.571,15.546 C36.712,393.983,19.934,409.477,16.334,429.875z"></path><path style="fill:#E5C0B3;" d="M501.196,451.995l-5.217-20.868c-3.234-21.097-20.471-37.259-41.735-39.127 c-62.603-2.608-104.339-15.651-135.64-15.651v-75.541H193.397V348.7l50.083,50.396c7.909,8.514,12.375,19.678,12.521,31.302v73.037 C340.483,504.216,424.142,486.667,501.196,451.995z"></path><path style="fill:#EECCC2;" d="M454.243,392c-60.099-2.504-101.104-14.503-131.571-15.546v1.774 c0.073,13.241,10.006,24.342,23.163,25.876c40.056,6.866,80.466,11.529,121.033,13.981c10.674,0.47,20.857,4.633,28.797,11.79 C492.014,409.331,475.028,393.805,454.243,392z"></path><path style="fill:#D3B1A7;" d="M332.167,394.191c-0.031,5.238,3.099,9.975,7.93,11.999c-8.921,14.399-13.491,31.062-13.147,47.996 v15.651h46.952v-15.651c0.376-16.924-4.153-33.587-13.042-47.996c6.605-2.88,9.62-10.559,6.751-17.164 c-1.096-2.504-2.942-4.601-5.29-5.999c1.669-2.817,3.443-5.634,5.217-8.347c-10.434-1.878-19.929-3.548-28.797-4.591 c0.929,3.902,2.222,7.711,3.861,11.373C336.539,382.693,332.188,388.014,332.167,394.191z"></path><path style="fill:#E5C0B3;" d="M362.321,383.027c1.669-2.817,3.443-5.634,5.217-8.347c-10.434-1.878-19.929-3.443-28.693-4.591 c0.845,3.913,2.097,7.731,3.756,11.373c-4.81,1.012-8.639,4.643-9.912,9.391c3.787,2.995,8.347,4.873,13.147,5.426l21.702,3.235 c0.772-1.669,1.169-3.485,1.148-5.321C368.665,389.611,366.255,385.375,362.321,383.027z"></path><path style="fill:#444443;" d="M83.111,478.393c56.051,17.038,114.303,25.719,172.889,25.772 c58.586-0.052,116.838-8.733,172.889-25.772c-49.707-26.784-110.046-24.467-157.551,6.052c-9.328,6.052-21.348,6.052-30.676,0 C193.146,453.925,132.818,451.609,83.111,478.393z"></path><g><path style="fill:#333333;" d="M259.704,512c-2.515,0-5.008,0-7.502,0c-83.753,0-168.277-18.249-244.622-52.879 c-3.443-1.555-5.28-5.353-4.361-9.015l5.217-20.868c3.996-23.727,23.998-42.476,48.517-45.012 c30.102-2.504,54.934-6.166,76.845-9.39c23.925-3.516,42.821-6.302,59.598-6.302v15.651c-15.64,0-34.025,2.713-57.324,6.135 c-22.141,3.266-47.234,6.949-77.67,9.484C41,401.61,26.674,415.028,23.732,432.442l-3.756,15.087 c73.882,32.47,155.506,49.728,235.972,48.82c80.654,0.856,162.194-16.329,236.066-48.82l-3.631-14.503 c-3.078-18.009-17.393-31.427-34.953-33.242c-30.279-2.525-55.383-6.219-77.524-9.474c-23.278-3.422-41.683-6.135-57.313-6.135 v-15.651c16.778,0,35.673,2.786,59.598,6.302c21.911,3.234,46.744,6.886,76.699,9.38c24.676,2.546,44.678,21.296,48.799,45.617 l5.092,20.273c0.918,3.673-0.918,7.46-4.361,9.015C428.096,493.741,343.54,512,259.704,512z"></path><path style="fill:#333333;" d="M256.01,496.808c-6.824,0-13.658-1.941-19.616-5.812c-45.053-28.944-102.377-31.156-149.569-5.728 c-3.787,2.087-8.545,0.636-10.601-3.182c-2.055-3.798-0.626-8.545,3.182-10.601c52.19-28.13,115.607-25.678,165.481,6.354 c6.761,4.393,15.453,4.393,22.172,0.021c49.916-32.042,113.322-34.515,165.533-6.375c3.808,2.045,5.227,6.792,3.182,10.601 c-2.045,3.808-6.761,5.259-10.601,3.182c-47.182-25.417-104.506-23.226-149.622,5.749 C269.627,494.878,262.824,496.808,256.01,496.808z"></path></g><g><path style="fill:#8C693F;" d="M318.603,295.591l10.434-20.868v-57.386h52.169c10.434,20.868,9.182,57.386-6.573,73.037 c1.2,6.886,1.659,13.887,1.356,20.868c0,23.476-15.651,41.735-31.302,67.82H323.82c-5.791-10.277-6.97-22.516-3.234-33.701 C301.7,328.354,312.343,308.112,318.603,295.591z"></path><path style="fill:#8C693F;" d="M323.82,399.93h15.651c10.59,15.306,16.068,33.566,15.651,52.169v15.651h-46.952v-15.651 C307.742,433.496,313.219,415.236,323.82,399.93z"></path></g><path style="fill:#333333;" d="M355.122,475.575h-46.952c-4.32,0-7.825-3.506-7.825-7.825v-15.651 c-0.459-20.221,5.436-39.857,17.049-56.625c1.461-2.108,3.861-3.37,6.427-3.37h15.651c2.567,0,4.977,1.262,6.427,3.37 c11.602,16.757,17.508,36.393,17.049,56.792v15.473C362.947,472.07,359.441,475.575,355.122,475.575z M315.995,459.925h31.302 v-7.825c0.355-15.88-3.798-31.082-12.041-44.344h-7.22c-8.243,13.261-12.395,28.453-12.041,44.167L315.995,459.925L315.995,459.925z "></path><path style="fill:#CE7A78;" d="M326.429,405.147h10.434c7.199,0,13.042-5.843,13.042-13.042s-5.843-13.042-13.042-13.042h-10.434 c-7.199,0-13.042,5.843-13.042,13.042S319.219,405.147,326.429,405.147z"></path><g><path style="fill:#333333;" d="M336.862,412.972h-10.434c-11.509,0-20.868-9.359-20.868-20.868s9.359-20.868,20.868-20.868h10.434 c11.509,0,20.868,9.359,20.868,20.868S348.361,412.972,336.862,412.972z M326.429,386.888c-2.869,0-5.217,2.348-5.217,5.217 s2.348,5.217,5.217,5.217h10.434c2.869,0,5.217-2.348,5.217-5.217s-2.348-5.217-5.217-5.217H326.429z"></path><path style="fill:#333333;" d="M331.541,333.675c-3.777,6.688-6.198,14.065-7.095,21.702c0.146,3.516,0.595,7.001,1.356,10.434 c0.772,3.537,1.784,7.022,3.026,10.434l-5.008-3.13c6.052,0.73,12.103,1.461,18.259,2.608c1.638,0.313,2.713,1.899,2.4,3.537 c0,0,0,0,0,0.01c-0.261,1.2-1.2,2.139-2.4,2.4c-6.156,1.148-12.208,1.878-18.259,2.608c-1.815,0.198-3.579-0.71-4.487-2.295v-0.835 c-2.546-3.944-4.518-8.232-5.843-12.729c-1.096-4.841-1.096-9.87,0-14.712c0.908-4.82,2.786-9.401,5.53-13.46 c2.462-3.746,5.3-7.241,8.451-10.434l0,0c1.179-1.179,3.099-1.179,4.278,0C332.658,330.973,332.574,332.621,331.541,333.675z"></path><path style="fill:#333333;" d="M351.397,383.09l-13.428-8.044c3.308-5.509,6.625-10.674,9.787-15.62 c11.404-17.821,20.409-31.896,20.409-48.173c0.271-5.874-0.47-11.3-2.212-16.517l14.858-4.956c2.358,7.074,3.36,14.42,2.995,21.859 c0.01,20.482-10.601,37.051-22.861,56.228C357.845,372.677,354.621,377.706,351.397,383.09z"></path></g><circle style="fill:#8C693F;" cx="256" cy="139.083" r="130.423"></circle><path style="fill:#333333;" d="M256,277.489c-76.313,0-138.405-62.081-138.405-138.405S179.676,0.678,256,0.678 S394.395,62.77,394.395,139.083S332.313,277.489,256,277.489z M256,16.642c-67.518,0-122.441,54.924-122.441,122.441 S188.482,261.525,256,261.525s122.441-54.934,122.441-122.441S323.507,16.642,256,16.642z"></path><path style="fill:#8C693F;" d="M193.397,295.591l-10.434-20.868v-46.952h-52.169c-9.943,22.725-5.874,49.143,10.434,67.82 c-3.036,4.695-4.831,10.079-5.217,15.651c0,23.476,15.651,41.735,31.302,67.82h20.868c5.791-10.277,6.97-22.516,3.234-33.701 C210.3,328.354,199.657,308.112,193.397,295.591z"></path><path style="fill:#333333;" d="M188.493,346.404c5.54-10.277,6.386-22.454,2.295-33.388c-3.892-12.02-9.109-23.56-15.546-34.432 c-2.275-4.017-0.856-9.109,3.151-11.373c0.063-0.031,0.125-0.073,0.188-0.104c1.127-0.689,2.431-1.054,3.756-1.043h0.626 l36.519-1.043c12.208,0,24.311-0.835,36.519-0.939c24.311,0,48.726,0.939,73.037,1.774h0.626c4.747,0.167,8.462,4.121,8.347,8.869 c-0.063,1.346-0.417,2.671-1.043,3.861c-6.406,10.893-11.655,22.433-15.651,34.432c-4.08,10.935-3.276,23.08,2.191,33.388 l-7.721,5.53c-4.8-6.031-7.898-13.241-8.973-20.868c-1.075-7.293-0.824-14.712,0.73-21.911c2.953-13.501,7.512-26.596,13.564-39.023 l7.93,13.668c-24.311,0.835-48.726,2.087-73.037,1.774c-12.208,0-24.311-0.626-36.519-0.835l-36.519-1.043l7.825-12.938 c5.958,12.489,10.57,25.563,13.773,39.023c1.461,7.21,1.68,14.628,0.626,21.911c-0.939,7.648-4.017,14.879-8.869,20.868 L188.493,346.404z"></path><g><path style="fill:#AD8A66;" d="M175.138,386.992c-2.796,0-5.499-1.513-6.918-4.142c-4.174-7.846-8.66-15.025-12.99-21.963 c-11.79-18.917-21.984-35.246-20.346-55.383c0.25-3.266,1.69-5.53,2.494-6.772c0.636-3.683,3.85-6.469,7.711-6.469 c4.32,0,7.825,3.506,7.825,7.825c0,3.454-1.534,5.833-2.368,7.105c-1.283,14.566,7.21,28.171,17.967,45.419 c4.466,7.168,9.098,14.566,13.522,22.892c2.024,3.808,0.584,8.545-3.234,10.59C177.642,386.7,176.379,386.992,175.138,386.992z M137.263,300.067L137.263,300.067L137.263,300.067z"></path><path style="fill:#AD8A66;" d="M139.767,218.381c-1.544,8.222-2.275,16.569-2.191,24.937c-0.083,7.961,1.075,15.88,3.443,23.476 c1.878,7.648,4.747,15.014,8.556,21.911c4.299,7.231,9.443,13.919,15.338,19.929c1.377,1.388,1.377,3.621,0,5.008 c-1.221,0.856-2.848,0.856-4.069,0h-0.939c-7.992-4.487-15.077-10.423-20.868-17.529c-6.271-7.345-10.799-16.016-13.251-25.354 c-2.087-9.422-2.442-19.146-1.043-28.693c0.783-4.58,1.826-9.109,3.13-13.564c1.492-4.288,3.193-8.504,5.113-12.625 c0.678-1.774,2.671-2.661,4.445-1.982c0.083,0.031,0.167,0.073,0.25,0.104c1.461,0.636,2.316,2.181,2.087,3.756 C139.767,217.755,139.767,218.381,139.767,218.381z"></path></g><path style="fill:#8C693F;" d="M188.18,399.93h-15.651c-10.59,15.306-16.068,33.566-15.651,52.169v15.651h46.952v-15.651 C204.248,433.496,198.77,415.236,188.18,399.93z"></path><path style="fill:#333333;" d="M203.831,475.575h-46.952c-4.32,0-7.825-3.506-7.825-7.825v-15.651 c-0.449-20.221,5.436-39.847,17.038-56.625c1.461-2.108,3.871-3.37,6.438-3.37h15.651c2.567,0,4.977,1.262,6.438,3.37 c11.602,16.767,17.498,36.404,17.038,56.792v15.473C211.656,472.07,208.15,475.575,203.831,475.575z M164.704,459.925h31.302v-7.825 c0.355-15.87-3.798-31.082-12.051-44.344h-7.199c-8.253,13.261-12.406,28.453-12.051,44.167L164.704,459.925L164.704,459.925z"></path><path style="fill:#CE7A78;" d="M185.571,405.147h-10.434c-7.199,0-13.042-5.843-13.042-13.042s5.843-13.042,13.042-13.042h10.434 c7.199,0,13.042,5.843,13.042,13.042S192.771,405.147,185.571,405.147z"></path><g><path style="fill:#333333;" d="M185.571,412.972h-10.434c-11.509,0-20.868-9.359-20.868-20.868s9.359-20.868,20.868-20.868h10.434 c11.509,0,20.868,9.359,20.868,20.868S197.08,412.972,185.571,412.972z M175.138,386.888c-2.88,0-5.217,2.348-5.217,5.217 s2.337,5.217,5.217,5.217h10.434c2.88,0,5.217-2.348,5.217-5.217s-2.337-5.217-5.217-5.217H175.138z"></path><path style="fill:#333333;" d="M185.467,330.44c3.182,3.161,6.02,6.667,8.451,10.434c2.744,4.059,4.622,8.639,5.53,13.46 c1.096,4.841,1.096,9.87,0,14.712c-1.388,4.497-3.391,8.785-5.947,12.729v0.835c-0.949,1.534-2.692,2.379-4.487,2.191 c-5.947-0.626-11.79-1.356-17.738-2.504c-1.638-0.313-2.723-1.889-2.41-3.537c0.23-1.221,1.189-2.181,2.41-2.41 c5.947-1.148,11.79-1.878,17.738-2.504l-4.904,3.026c1.21-3.412,2.181-6.897,2.921-10.434c0.772-3.422,1.2-6.918,1.252-10.434 c-1.012-7.93-3.714-15.536-7.93-22.328c-0.616-1.502,0.021-3.224,1.461-3.965c1.169-0.511,2.525-0.261,3.443,0.626L185.467,330.44z "></path><path style="fill:#333333;" d="M154.374,313.746c-7.293-5.269-13.762-11.602-19.198-18.781 c-5.551-7.471-9.724-15.891-12.312-24.833c-2.577-9.119-3.558-18.614-2.921-28.067c0.605-9.203,2.285-18.311,5.008-27.128 c0.678-2.452,2.88-4.184,5.426-4.278l0,0l62.603-0.939c20.868,0,41.735-0.835,62.603-0.626c41.735,0,83.471,0.626,125.206,1.565 l0,0c2.577,0.073,4.81,1.805,5.53,4.278c2.682,8.817,4.33,17.925,4.904,27.128c0.887,9.411,0.146,18.906-2.191,28.067 c-2.483,8.963-6.625,17.393-12.208,24.833c-5.405,7.168-11.842,13.501-19.094,18.781l-0.73,0.522 c-1.523,1.137-3.683,0.814-4.82-0.71c-0.031-0.042-0.063-0.083-0.083-0.125c-1.137-1.502-0.866-3.641,0.626-4.8 c6.584-5.332,12.322-11.623,17.007-18.677c4.507-6.845,7.763-14.44,9.599-22.433c1.93-7.919,2.452-16.11,1.565-24.207 c-0.876-8.222-2.734-16.319-5.53-24.102l5.947,4.278c-41.735,0.939-83.471,1.878-125.206,1.669c-20.868,0-41.735-0.522-62.603-0.73 l-62.603-0.939l5.843-4.278c-2.734,7.794-4.549,15.891-5.426,24.102c-0.887,8.097-0.365,16.287,1.565,24.207 c1.711,8.013,4.935,15.63,9.495,22.433c4.706,7.074,10.476,13.376,17.112,18.677c1.523,1.231,1.763,3.464,0.543,4.987 c-0.01,0.01-0.01,0.01-0.021,0.021c-1.189,1.44-3.287,1.711-4.8,0.626L154.374,313.746z"></path></g><path style="fill:#EECCC2;" d="M256,32.136c83.471,0,109.556,47.787,109.556,104.339c0,3.235,0,17.529,0,20.868 c18.051,0,23.789,17.738,20.868,41.735c-2.504,20.346-10.434,41.735-31.302,41.735v15.651c0,31.302-25.25,44.761-54.36,75.019 c-10.736,13.501-27.598,20.617-44.761,18.885c-17.331,1.669-34.359-5.405-45.387-18.885c-29.11-30.258-53.734-43.718-53.734-75.019 v-15.651c-20.868,0-28.797-21.389-31.302-41.735c-2.921-23.998,2.817-41.735,20.868-41.735c0-3.339,0-17.633,0-20.868 C146.444,79.923,172.112,32.136,256,32.136z"></path><path style="fill:#E5C0B3;" d="M365.556,157.343c0-3.339,0-17.633,0-20.868c0-56.552-25.667-104.339-109.556-104.339 c-3.548,0-6.782,0-10.434,0c-20.868,76.898-36.519,167.985-35.579,236.118c0,16.381,1.252,40.379,3.234,65.733 c10.82,11.707,26.502,17.654,42.361,16.068c17.164,1.732,34.025-5.384,44.761-18.885c29.11-30.258,54.36-43.718,54.36-75.019V240.5 c20.868,0,28.797-21.389,31.302-41.735C389.032,175.08,383.606,157.343,365.556,157.343z"></path><path style="fill:#333333;" d="M261.165,358.445c-1.722,0-3.443-0.073-5.186-0.219c-19.657,1.69-38.887-6.448-51.429-21.796 c-6.292-6.49-12.656-12.468-18.823-18.249c-20.492-19.219-36.675-34.39-36.675-61.716v-8.702 c-12.082-2.796-27.013-13.439-31.239-47.724c-2.285-18.76,0.522-33.201,8.107-41.767c3.401-3.84,7.711-6.469,12.698-7.784v-14.013 c0-51.168,20.367-112.164,117.381-112.164c75.698,0,117.381,39.836,117.381,112.164v14.013c4.998,1.315,9.307,3.944,12.708,7.784 c7.575,8.566,10.392,23.007,8.097,41.756c-4.215,34.296-19.157,44.939-31.239,47.735v8.702c0,27.138-16.193,42.174-36.696,61.226 c-6.365,5.916-12.948,12.041-19.856,19.219C295.628,350.494,278.902,358.445,261.165,358.445z M256,342.544 c0.261,0,0.522,0.01,0.783,0.042c14.607,1.409,28.735-4.518,37.854-15.974c7.679-8.044,14.743-14.597,20.972-20.377 c19.084-17.738,31.688-29.455,31.688-49.77v-15.651c0-4.32,3.506-7.825,7.825-7.825c15.901,0,21.567-18.958,23.539-34.87 c1.669-13.752,0.115-24.499-4.288-29.476c-1.325-1.492-3.683-3.474-8.817-3.474c-4.32,0-7.825-3.506-7.825-7.825v-20.868 c0-64.043-34.223-96.513-101.73-96.513s-101.73,32.47-101.73,96.513v20.868c0,4.32-3.506,7.825-7.825,7.825 c-5.133,0-7.481,1.982-8.806,3.474c-4.403,4.977-5.968,15.724-4.299,29.497c1.962,15.891,7.627,34.849,23.528,34.849 c4.32,0,7.825,3.506,7.825,7.825v15.651c0,20.555,12.625,32.387,31.729,50.291c6.01,5.645,12.834,12.03,19.814,19.292 c9.808,11.957,24.165,17.905,39.002,16.538C255.499,342.554,255.75,342.544,256,342.544z"></path><path style="fill:#8C693F;" d="M156.878,211.807v-46.639c0-57.386,83.471-46.639,99.122-78.358 c15.651,31.302,99.122,20.868,99.122,78.358v46.952c0-22.955,31.302-38.084,31.302-73.037v-15.651 C386.423,60.829,322.777,8.66,256,8.66c-64.899,0-130.423,46.952-130.423,109.556v15.651 C125.577,175.602,156.878,184.262,156.878,211.807z"></path><path style="fill:#AD8A66;" d="M259.547,18.572c-19.929,1.502-39.242,7.575-56.447,17.738 c-16.965,9.495-31.009,23.455-40.588,40.379c-9.171,17.049-14.545,35.872-15.755,55.195c-0.939,9.557-0.157,19.198,2.295,28.484 c2.222,9.735,5.54,19.188,9.912,28.171l0,0c1.242,2.275,0.396,5.133-1.889,6.365c-0.063,0.031-0.136,0.073-0.198,0.104 c-2.024,1.012-4.476,0.438-5.843-1.356c-6.918-8.744-12.479-18.489-16.486-28.902c-4.205-10.632-6.365-21.953-6.365-33.388 c-0.866-22.923,5.008-45.596,16.903-65.212c12.26-19.365,29.82-34.797,50.604-44.448c20.075-9.818,42.393-14.169,64.69-12.625 c2.619,0.271,4.518,2.598,4.278,5.217c-0.198,2.316-2.066,4.132-4.382,4.278L259.547,18.572z"></path><g><circle style="fill:#333333;" cx="211.656" cy="207.008" r="9.182"></circle><circle style="fill:#333333;" cx="300.344" cy="207.008" r="9.077"></circle><path style="fill:#333333;" d="M160.603,383.09c-3.224-5.384-6.459-10.413-9.537-15.233 c-12.281-19.177-22.881-35.746-22.881-56.614c-0.355-7.053,0.657-14.399,3.005-21.462l14.858,4.935 c-1.742,5.227-2.483,10.653-2.222,16.152c0.01,16.663,9.015,30.728,20.419,48.549c3.161,4.946,6.469,10.11,9.777,15.62 L160.603,383.09z"></path><path style="fill:#333333;" d="M351.47,212.12c0.136-6.688,2.003-13.23,5.426-18.99c3.13-5.53,6.678-10.434,10.434-15.338 c6.834-8.911,11.446-19.313,13.46-30.363c1.565-22.673-3.005-45.346-13.251-65.629c-20.868-40.17-67.924-63.647-111.642-65.212 c-22.788,1.116-45.033,7.325-65.107,18.155c-9.808,5.321-18.885,11.884-27.024,19.511c-7.982,7.815-14.639,16.872-19.72,26.815 c-5.144,10.058-8.66,20.868-10.434,32.032c-2.181,11.06-2.598,22.401-1.252,33.597c2.358,11.018,7.168,21.358,14.086,30.258 c3.84,4.925,7.325,10.121,10.434,15.546c3.047,5.895,4.591,12.458,4.487,19.094c0,1.962-1.586,3.548-3.548,3.548 c-0.031,0-0.073,0-0.104,0c-1.972,0-3.6-1.576-3.652-3.548c-1.774-11.154-7.199-21.389-15.442-29.11 c-8.232-9.683-14.086-21.149-17.112-33.493c-1.982-12.437-1.982-25.125,0-37.562c3.245-25.365,14.461-49.039,32.032-67.611 c8.963-8.9,19.031-16.611,29.945-22.954C205.406,8.201,230.072,1.043,255.374,0c25.323,1.043,49.968,8.431,71.681,21.494 c22.162,12.74,40.087,31.719,51.543,54.569c2.848,5.624,5.186,11.488,6.991,17.529l2.713,8.973l1.565,9.182 c0.522,3.026,1.148,6.156,1.461,9.182v9.286v9.286c-0.136,3.255-0.48,6.5-1.043,9.704c-2.775,12.427-8.462,24.008-16.59,33.806 c-7.867,7.992-13.23,18.113-15.442,29.11c-0.052,2.014-1.732,3.6-3.756,3.548l0,0C352.805,215.292,351.564,213.852,351.47,212.12z"></path><path style="fill:#333333;" d="M153.331,211.807l-1.669-45.387c0-3.861,0.522-8.243,0.73-12.312 c0.897-4.215,2.306-8.316,4.174-12.208c3.892-7.679,9.578-14.305,16.59-19.303c13.418-8.222,27.827-14.712,42.883-19.303 c13.773-4.904,28.171-10.434,32.867-20.033c2.024-3.725,6.626-5.196,10.434-3.339c1.419,0.71,2.588,1.836,3.339,3.234l0,0 c4.904,8.973,19.303,14.712,33.075,19.824c15.066,4.664,29.476,11.216,42.883,19.511c6.98,5.04,12.646,11.696,16.486,19.407 c1.805,3.944,3.172,8.065,4.069,12.312c0,4.069,0.73,8.451,0.626,12.312l-1.565,45.492c0,1.962-1.586,3.548-3.548,3.548 c-1.962,0-3.548-1.586-3.548-3.548l-1.669-45.492c0.334-13.574-6.636-26.272-18.259-33.284 c-12.771-6.918-26.335-12.27-40.379-15.964c-7.658-2.285-15.129-5.175-22.328-8.66c-8.451-3.902-15.453-10.371-20.033-18.468h14.19 c-4.56,7.982-11.436,14.388-19.72,18.364c-7.199,3.36-14.628,6.219-22.224,8.556c-14.054,3.725-27.608,9.119-40.379,16.068 c-11.613,7.022-18.572,19.72-18.259,33.284l-1.669,45.387c-0.052,1.962-1.69,3.495-3.652,3.443l0,0 C154.917,215.146,153.435,213.665,153.331,211.807z"></path><path style="fill:#333333;" d="M99.492,475.471c-2.88,0-5.217-2.337-5.217-5.217v-88.688c0-2.88,2.337-5.217,5.217-5.217 s5.217,2.337,5.217,5.217v88.688C104.709,473.144,102.372,475.471,99.492,475.471z"></path><path style="fill:#333333;" d="M412.508,475.471c-2.88,0-5.217-2.337-5.217-5.217v-88.688c0-2.88,2.337-5.217,5.217-5.217 s5.217,2.337,5.217,5.217v88.688C417.725,473.144,415.388,475.471,412.508,475.471z"></path></g><g><circle style="fill:#E2ACAC;" cx="204.978" cy="244.57" r="16.799"></circle><circle style="fill:#E2ACAC;" cx="307.022" cy="244.57" r="16.799"></circle></g><g><path style="fill:#333333;" d="M275.929,296.217h-37.771c-2.88,0-5.217-2.337-5.217-5.217s2.337-5.217,5.217-5.217h37.771 c2.88,0,5.217,2.337,5.217,5.217S278.808,296.217,275.929,296.217z"></path><path style="fill:#333333;" d="M263.617,311.555h-12.208c-2.88,0-5.217-2.337-5.217-5.217s2.337-5.217,5.217-5.217h12.208 c2.88,0,5.217,2.337,5.217,5.217S266.496,311.555,263.617,311.555z"></path><path style="fill:#333333;" d="M257.158,272.48c-3.454,0-6.939-0.563-10.246-1.68l-10.163-2.838 c-2.775-0.772-4.393-3.662-3.621-6.427c0.783-2.775,3.694-4.372,6.427-3.621l10.434,2.922c4.685,1.596,9.526,1.596,13.919,0.083 l10.705-3.005c2.807-0.793,5.655,0.845,6.427,3.621c0.772,2.775-0.845,5.655-3.621,6.427l-10.434,2.921 C263.888,271.938,260.539,272.48,257.158,272.48z"></path></g></svg>